<?xml version="1.0" standalone="no"?> <!DOCTYPE svg PUBLIC "-//W3C//DTD SVG 1.0//EN" "http://www.w3.org/TR/2001/REC-SVG-20010904/DTD/svg10.dtd" > <svg xmlns="http://www.w3.org/2000/svg" width="100%" height="100%">
<defs >
<font id="Graphik" horiz-adv-x="412" ><font-face
    font-family="Graphik Cond Web"
    units-per-em="1000"
    panose-1="1 0 3 2 2 0 0 1 0 2"
    ascent="823"
    descent="-177"
    alphabetic="0" />
<missing-glyph horiz-adv-x="505" />
<glyph unicode=" " glyph-name="space" horiz-adv-x="145" />
<glyph unicode="!" glyph-name="exclam" horiz-adv-x="236" d="M60 715H176L160 196H77L60 715ZM118 -6Q90 -6 71 13T51 59Q51 88 70 106T118 125Q146 125 165 107T185 59Q185 32 166 13T118 -6Z" />
<glyph unicode="&quot;" glyph-name="quotedbl" horiz-adv-x="325" d="M36 715H142L126 494H52L36 715ZM183 715H289L273 494H199L183 715Z" />
<glyph unicode="#" glyph-name="numbersign" horiz-adv-x="449" d="M239 305H171L150 149H71L93 305H27V390H105L119 494H48V578H131L150 715H228L209 578H277L296 715H374L355 578H422V494H343L329 390H400V305H317L296 149H217L239 305ZM183 390H251L265 494H197L183
390Z" />
<glyph unicode="$" glyph-name="dollar" horiz-adv-x="477" d="M213 -113V-8Q127 0 79 52T30 199H135Q136 89 213 75V324Q170 345 138 366T85 414T52 472T41 547Q41 624 88 671T213 723V802H266V722Q340 714 385 670T432 538H330Q328 583 312 606T266 637V416Q306
396 339 376T394 330T429 270T442 187Q442 96 394 47T266 -9V-113H213ZM336 179Q336 223 318 248T266 295V75Q298 83 317 109T336 179ZM144 554Q144 516 160 492T213 445V639Q181 634 163 613T144 554Z" />
<glyph unicode="%" glyph-name="percent" horiz-adv-x="621" d="M481 715H554L141 0H68L481 715ZM164 407Q104 407 66 444T27 547V582Q27 615 37 641T66 685T110 712T165 721Q195 721 220 712T264 686T293 643T304 584V549Q304 481 265 444T164 407ZM165 476Q218
476 218 547V583Q218 652 165 652Q113 652 113 583V547Q113 476 165 476ZM455 -8Q394 -8 356 29T318 132V167Q318 200 328 226T357 269T401 296T456 306Q516 306 555 271T594 169V134Q594 66 556 29T455 -8ZM456 61Q509 61 509 131V168Q509 237 456 237Q403 237
403 168V131Q403 61 456 61Z" />
<glyph unicode="&amp;" glyph-name="ampersand" horiz-adv-x="538" d="M361 64Q338 32 303 12T212 -9Q128 -9 81 37T33 174V229Q33 302 62 343T144 410Q121 443 108 479T95 560Q95 602 107 632T142 683T193 713T254 723Q287 723 315 714T363 685T395 638T407 571Q407
508 374 465T281 393L381 230L428 369H521L437 139L524 0H401L361 64ZM227 77Q257 77 279 92T317 134L184 349Q162 331 151 305T139 235V183Q139 132 160 105T227 77ZM197 564Q197 525 208 498T238 445Q258 457 271 469T293 495T306 527T310 569Q310 609 295 626T256
643Q231 643 214 625T197 564Z" />
<glyph unicode="&apos;" glyph-name="quotesingle" horiz-adv-x="181" d="M36 715H144L129 494H52L36 715Z" />
<glyph unicode="(" glyph-name="parenleft" horiz-adv-x="279" d="M178 -139Q151 -101 126 -55T81 47T50 169T38 312Q38 390 49 456T80 578T125 680T178 764H267Q241 724 218 677T178 575T151 454T140 312Q140 236 150 171T178 51T218 -52T267 -139H178Z" />
<glyph unicode=")" glyph-name="parenright" horiz-adv-x="279" d="M11 -139Q36 -99 59 -52T100 50T127 171T138 312Q138 388 128 453T100 574T60 677T11 764H101Q128 726 153 680T197 578T229 456T241 312Q241 235 229 169T198 47T153 -55T101 -139H11Z" />
<glyph unicode="*" glyph-name="asterisk" horiz-adv-x="359" d="M58 496L131 581L30 599L54 676L148 634L137 741H224L211 634L305 676L328 599L228 581L300 496L233 449L178 546L126 449L58 496Z" />
<glyph unicode="+" glyph-name="plus" horiz-adv-x="420" d="M166 301H30V383H166V534H254V383H390V301H254V149H166V301Z" />
<glyph unicode="," glyph-name="comma" horiz-adv-x="220" d="M18 -80L81 126L181 92L81 -103L18 -80Z" />
<glyph unicode="-" glyph-name="hyphen" horiz-adv-x="286" d="M43 323H243V237H43V323Z" />
<glyph unicode="." glyph-name="period" horiz-adv-x="219" d="M109 -6Q82 -6 63 13T43 59Q43 88 62 106T109 125Q137 125 156 107T176 59Q176 32 157 13T109 -6Z" />
<glyph unicode="/" glyph-name="slash" horiz-adv-x="341" d="M238 766H328L81 -138H-9L238 766Z" />
<glyph unicode="0" glyph-name="zero" horiz-adv-x="511" d="M256 -10Q158 -10 100 48T41 222V492Q41 550 56 593T100 666T168 709T256 724Q352 724 410 667T469 494V225Q469 109 412 50T256 -10ZM257 82Q307 82 331 115T355 225V494Q355 635 256 635Q206 635
181 602T155 493V223Q155 147 180 115T257 82Z" />
<glyph unicode="1" glyph-name="one" horiz-adv-x="315" d="M130 600L24 518V621L142 715H243V0H130V600Z" />
<glyph unicode="2" glyph-name="two" horiz-adv-x="450" d="M21 18L205 283Q229 318 246 348T274 405T291 460T297 518V537Q297 635 223 635Q187 635 165 610T141 520H36Q36 617 84 670T224 724Q317 724 364 676T411 540V520Q411 484 405 452T384 388T349 320T300
244L192 89H413V0H21V18Z" />
<glyph unicode="3" glyph-name="three" horiz-adv-x="468" d="M428 180Q428 91 379 41T231 -10Q134 -10 84 39T31 186H137Q139 134 160 108T228 81Q273 81 293 105T314 184V216Q314 281 290 307T208 333H182V415H208Q262 415 283 440T305 519V540Q305 591 287
613T230 636Q152 636 147 539H44Q46 624 94 674T231 724Q318 724 366 680T414 544V522Q414 462 387 427T308 378Q364 367 396 328T428 216V180Z" />
<glyph unicode="4" glyph-name="four" horiz-adv-x="491" d="M283 161H21V195L250 715H392V246H468V161H392V0H283V161ZM284 246V606L133 246H284Z" />
<glyph unicode="5" glyph-name="five" horiz-adv-x="457" d="M224 -10Q129 -10 82 39T32 171H137Q143 128 160 105T223 81Q266 81 285 111T304 204V248Q304 316 279 344T208 373Q170 373 145 359T99 325H54L59 715H393V622H148L147 412Q164 431 188 444T255 458Q327
458 373 409T419 253V201Q419 97 368 44T224 -10Z" />
<glyph unicode="6" glyph-name="six" horiz-adv-x="475" d="M251 -10Q150 -10 96 47T41 208V480Q41 541 56 587T99 663T165 709T249 724Q330 724 380 684T437 554H329Q321 634 249 634Q207 634 182 598T155 480V376Q173 411 205 430T287 449Q320 449 349 438T400
405T434 350T447 272V180Q447 86 395 38T251 -10ZM250 77Q292 77 313 103T335 179V269Q335 367 248 367Q207 367 182 342T157 260V196Q157 130 181 104T250 77Z" />
<glyph unicode="7" glyph-name="seven" horiz-adv-x="419" d="M269 622H26V715H403V702L214 0H100L269 622Z" />
<glyph unicode="8" glyph-name="eight" horiz-adv-x="475" d="M237 -10Q195 -10 159 1T95 34T53 92T37 176V229Q37 292 64 329T140 384Q99 399 76 433T53 523V549Q53 594 67 626T106 681T164 713T237 724Q276 724 310 714T369 681T408 627T422 549V524Q422 468
398 435T334 384Q382 367 410 330T438 230V179Q438 130 423 95T380 36T316 1T237 -10ZM237 77Q279 77 301 101T324 182V238Q324 292 301 317T238 343Q199 343 175 318T151 237V180Q151 126 174 102T237 77ZM238 422Q314 422 314 519V548Q314 596 294 617T238 639Q202
639 182 617T162 547V518Q162 469 182 446T238 422Z" />
<glyph unicode="9" glyph-name="nine" horiz-adv-x="475" d="M228 -10Q144 -10 92 31T34 164H141Q144 120 166 100T228 80Q249 80 266 86T295 109T313 151T319 219V338Q302 303 271 284T191 265Q157 265 128 276T76 309T41 364T28 443V529Q28 624 82 674T230 724Q328
724 381 670T434 508V218Q434 156 419 113T377 43T312 3T228 -10ZM231 637Q184 637 162 608T140 531V445Q140 397 160 372T225 347Q268 347 293 372T318 454V521Q318 584 296 610T231 637Z" />
<glyph unicode=":" glyph-name="colon" horiz-adv-x="225" d="M112 -6Q85 -6 66 13T46 59Q46 88 65 106T112 125Q140 125 159 107T179 59Q179 32 160 13T112 -6ZM112 291Q85 291 66 310T46 356Q46 384 65 403T112 422Q140 422 159 403T179 356Q179 329 160 310T112 291Z" />
<glyph unicode=";" glyph-name="semicolon" horiz-adv-x="225" d="M9 -80L72 126L172 92L72 -103L9 -80ZM120 291Q91 291 72 310T53 356Q53 384 72 403T120 422Q147 422 166 403T186 356Q186 329 167 310T120 291Z" />
<glyph unicode="&lt;" glyph-name="less" horiz-adv-x="403" d="M34 309V332L359 514V415L178 321L359 225V128L34 309Z" />
<glyph unicode="=" glyph-name="equal" horiz-adv-x="416" d="M31 359V440H386V359H31ZM31 200V281H386V200H31Z" />
<glyph unicode="&gt;" glyph-name="greater" horiz-adv-x="403" d="M44 227L225 321L44 417V514L369 333V310L44 128V227Z" />
<glyph unicode="?" glyph-name="question" horiz-adv-x="405" d="M131 248Q131 276 136 298T150 340T173 380T205 424Q218 442 228 456T246 486T258 518T262 557Q262 601 246 618T199 636Q165 636 147 615T125 544H23Q25 635 72 679T201 724Q285 724 328 684T372
559Q372 530 367 508T353 466T331 427T300 386Q283 366 270 349T248 315T233 280T228 241V196H131V248ZM180 -6Q151 -6 131 13T111 62Q111 91 131 110T180 130Q209 130 229 111T249 62Q249 33 229 14T180 -6Z" />
<glyph unicode="@" glyph-name="at" horiz-adv-x="699" d="M355 -142Q278 -142 219 -118T120 -49T58 56T37 192V329Q37 408 61 473T127 584T228 655T358 680Q430 680 486 659T582 598T642 503T663 382V239Q663 190 651 156T619 99T573 66T520 55Q470 55 446 76T414
128Q399 96 374 75T306 53Q249 53 217 92T188 204L196 299Q201 384 236 428T330 473Q365 473 386 458T417 419L421 465H513L489 184Q483 116 529 116Q561 116 579 143T598 238V380Q598 495 537 557T358 619Q239 619 173 543T106 328V193Q106 133 121 83T166 -4T244
-60T355 -81Q426 -81 468 -58T537 0H607Q575 -65 510 -103T355 -142ZM333 129Q394 129 400 230L407 318Q412 397 353 397Q295 397 289 302L281 206Q279 169 291 149T333 129Z" />
<glyph unicode="A" glyph-name="A" horiz-adv-x="495" d="M328 168H156L124 0H19L167 715H328L476 0H361L328 168ZM172 252H312L242 621L172 252Z" />
<glyph unicode="B" glyph-name="B" horiz-adv-x="491" d="M54 715H232Q326 715 379 676T433 548V516Q433 459 404 425T323 377Q384 365 419 328T454 215V191Q454 92 400 46T244 0H54V715ZM235 83Q288 83 315 109T343 195V224Q343 288 317 311T231 334H165V83H235ZM225
414Q279 414 302 437T325 514V542Q325 597 299 614T223 632H165V414H225Z" />
<glyph unicode="C" glyph-name="C" horiz-adv-x="515" d="M273 -10Q163 -10 104 54T44 236V478Q44 537 60 582T107 659T178 707T269 724Q313 724 351 713T417 677T463 613T482 516H371Q366 580 342 607T269 634Q160 634 160 480V236Q160 160 186 121T272 81Q318
81 348 110T380 210H488Q487 151 471 110T426 42T358 3T273 -10Z" />
<glyph unicode="D" glyph-name="D" horiz-adv-x="535" d="M239 715Q365 715 427 657T489 476V240Q489 121 429 61T241 0H54V715H239ZM167 627V89H234Q311 89 342 125T373 241V475Q373 553 343 590T234 627H167Z" />
<glyph unicode="E" glyph-name="E" horiz-adv-x="434" d="M54 715H388V626H167V419H347V333H167V89H402V0H54V715Z" />
<glyph unicode="F" glyph-name="F" horiz-adv-x="414" d="M54 715H387V626H167V396H345V308H167V0H54V715Z" />
<glyph unicode="G" glyph-name="G" horiz-adv-x="545" d="M408 76Q363 -10 256 -10Q157 -10 101 54T44 233V482Q44 599 107 661T275 724Q319 724 357 714T424 680T470 617T491 521H380Q375 585 348 609T276 634Q215 634 188 596T160 482V233Q160 161 186 121T275
80Q336 80 362 113T388 216V285H286V369H498V0H408V76Z" />
<glyph unicode="H" glyph-name="H" horiz-adv-x="529" d="M54 715H167V408H362V715H474V0H362V316H167V0H54V715Z" />
<glyph unicode="I" glyph-name="I" horiz-adv-x="230" d="M59 715H171V0H59V715Z" />
<glyph unicode="J" glyph-name="J" horiz-adv-x="433" d="M204 -10Q110 -10 66 35T21 175V210H130V177Q130 126 146 104T202 81Q242 81 255 107T269 184V715H382V183Q382 94 340 42T204 -10Z" />
<glyph unicode="K" glyph-name="K" horiz-adv-x="489" d="M353 0L167 349V0H54V715H167V393L351 715H467L272 382L477 0H353Z" />
<glyph unicode="L" glyph-name="L" horiz-adv-x="408" d="M54 715H167V90H382V0H54V715Z" />
<glyph unicode="M" glyph-name="M" horiz-adv-x="637" d="M55 715H214L296 306L316 164L335 306L416 715H581V0H472V455L475 611L448 447L357 0H266L176 447L148 611L151 455V0H55V715Z" />
<glyph unicode="N" glyph-name="N" horiz-adv-x="530" d="M54 715H185L376 224V715H476V0H362L154 538V0H54V715Z" />
<glyph unicode="O" glyph-name="O" horiz-adv-x="557" d="M280 -10Q226 -10 183 6T110 54T63 130T46 233V481Q46 539 63 584T110 661T184 708T279 724Q331 724 374 708T447 662T494 586T511 483V236Q511 118 449 54T280 -10ZM279 81Q338 81 366 121T395 234V481Q395
552 367 593T279 634Q219 634 191 595T162 482V234Q162 159 190 120T279 81Z" />
<glyph unicode="P" glyph-name="P" horiz-adv-x="467" d="M54 715H231Q334 715 387 670T441 528V485Q441 388 386 343T233 297H167V0H54V715ZM231 380Q330 380 330 486V527Q330 584 305 606T231 628H167V380H231Z" />
<glyph unicode="Q" glyph-name="Q" horiz-adv-x="557" d="M413 -116Q387 -116 363 -106T319 -84T283 -62T257 -52Q236 -52 233 -81H159Q162 -26 193 5Q124 27 85 84T46 233V482Q46 540 63 585T110 661T184 708T279 724Q385 724 448 662T511 483V236Q511 135 465
78T338 6Q359 -5 377 -15T408 -26Q428 -26 428 0H502Q501 -60 476 -88T413 -116ZM279 80Q338 80 366 120T395 233V481Q395 552 367 593T279 634Q219 634 191 595T162 482V233Q162 158 190 119T279 80Z" />
<glyph unicode="R" glyph-name="R" horiz-adv-x="493" d="M347 348Q406 334 427 298T448 196V0H335V199Q335 254 317 278T244 302H167V0H55V715H249Q340 715 391 674T443 545V491Q443 428 418 395T347 348ZM242 382Q291 382 311 407T332 485V536Q332 588 309 608T241
628H167V382H242Z" />
<glyph unicode="S" glyph-name="S" horiz-adv-x="472" d="M238 -10Q141 -10 88 41T33 199H142Q144 133 165 106T238 78Q276 78 298 103T321 179Q321 209 314 229T293 265T256 294T203 324Q164 344 135 365T85 411T55 469T44 544Q44 629 93 676T229 724Q316 724
366 680T419 537H313Q312 594 289 615T229 636Q153 636 153 552Q153 529 158 512T175 480T207 451T258 421Q297 401 329 381T383 335T418 274T431 188Q431 90 379 40T238 -10Z" />
<glyph unicode="T" glyph-name="T" horiz-adv-x="432" d="M159 626H21V715H411V626H272L271 0H159V626Z" />
<glyph unicode="U" glyph-name="U" horiz-adv-x="531" d="M480 715V204Q480 96 424 43T265 -10Q165 -10 108 42T51 201V715H165V205Q165 139 189 111T266 82Q314 82 340 111T366 210V715H480Z" />
<glyph unicode="V" glyph-name="V" horiz-adv-x="485" d="M364 715H468L316 0H169L17 715H132L248 122L364 715Z" />
<glyph unicode="W" glyph-name="W" horiz-adv-x="695" d="M20 715H133L210 202L311 715H389L493 199L572 715H675L556 0H447L351 476L250 0H139L20 715Z" />
<glyph unicode="X" glyph-name="X" horiz-adv-x="500" d="M174 370L29 715H153L256 456L354 715H467L328 372L480 0H357L244 289L134 0H20L174 370Z" />
<glyph unicode="Y" glyph-name="Y" horiz-adv-x="464" d="M179 309L12 715H134L240 423L345 715H452L293 308V0H179V309Z" />
<glyph unicode="Z" glyph-name="Z" horiz-adv-x="435" d="M14 15L267 627H43V715H414V701L161 90H405V0H14V15Z" />
<glyph unicode="[" glyph-name="bracketleft" horiz-adv-x="284" d="M55 765H255V687H156V-61H255V-139H55V765Z" />
<glyph unicode="\" glyph-name="backslash" horiz-adv-x="341" d="M350 -138H260L13 766H103L350 -138Z" />
<glyph unicode="]" glyph-name="bracketright" horiz-adv-x="284" d="M28 -139V-61H127V687H28V765H229V-139H28Z" />
<glyph unicode="^" glyph-name="asciicircum" horiz-adv-x="402" d="M151 715H253L376 435H277L200 621L124 435H26L151 715Z" />
<glyph unicode="_" glyph-name="underscore" horiz-adv-x="317" d="M-1 -79H318V-145H-1V-79Z" />
<glyph unicode="`" glyph-name="grave" horiz-adv-x="400" d="M80 738H199L247 590H168L80 738Z" />
<glyph unicode="a" glyph-name="a" horiz-adv-x="426" d="M166 -8Q106 -8 68 27T30 135V153Q30 236 79 270T215 305H274V366Q274 408 261 429T212 451Q179 451 164 433T147 381H46Q48 458 94 494T215 531Q294 531 336 492T379 368V0H275V51Q261 26 237 9T166 -8ZM196
67Q233 67 253 86T274 148V236H220Q175 236 155 218T134 155V141Q134 67 196 67Z" />
<glyph unicode="b" glyph-name="b" horiz-adv-x="461" d="M152 752V458Q168 489 199 510T276 531Q345 531 385 486T425 350V176Q425 84 383 38T270 -8Q225 -8 196 11T152 62V0H47V752H152ZM152 184Q152 73 239 73Q279 73 299 97T319 175V350Q319 404 298 427T240
450Q199 450 176 422T152 339V184Z" />
<glyph unicode="c" glyph-name="c" horiz-adv-x="422" d="M221 -8Q180 -8 146 3T88 37T49 95T35 181V339Q35 388 49 424T88 484T146 519T218 531Q253 531 284 523T339 495T377 443T393 362H293Q291 414 271 431T219 449Q181 449 161 425T140 343V179Q140 120 161
97T221 73Q237 73 251 78T276 94T293 125T300 172H395Q393 77 346 35T221 -8Z" />
<glyph unicode="d" glyph-name="d" horiz-adv-x="461" d="M414 0H309V66Q294 34 263 13T187 -8Q118 -8 78 37T37 175V347Q37 439 80 485T194 531Q239 531 267 512T309 462V752H414V0ZM310 339Q310 450 222 450Q182 450 162 426T142 348V173Q142 119 162 96T219
73Q261 73 285 100T310 184V339Z" />
<glyph unicode="e" glyph-name="e" horiz-adv-x="433" d="M222 -8Q134 -8 85 40T35 183V339Q35 433 86 482T219 531Q259 531 292 520T349 487T386 428T399 343V238H139V181Q139 124 159 98T223 72Q293 72 302 150H399Q394 68 349 30T222 -8ZM139 313H297V346Q297
405 277 429T220 454Q182 454 161 428T139 343V313Z" />
<glyph unicode="f" glyph-name="f" horiz-adv-x="282" d="M70 443H15V523H70V613Q70 682 106 718T213 755Q232 755 245 753T266 748V668Q261 670 251 671T231 672Q200 672 187 656T174 611V523H263V443H174V0H70V443Z" />
<glyph unicode="g" glyph-name="g" horiz-adv-x="461" d="M222 -183Q132 -183 88 -145T38 -40H141Q147 -103 222 -103Q309 -103 309 -4V78Q294 46 263 25T187 4Q118 4 78 49T37 185V349Q37 439 80 485T194 531Q239 531 267 512T309 462V523H414V-4Q414 -97 363
-140T222 -183ZM219 84Q261 84 285 111T310 193V341Q310 450 222 450Q142 450 142 350V182Q142 128 162 106T219 84Z" />
<glyph unicode="h" glyph-name="h" horiz-adv-x="445" d="M47 752H152V457Q166 489 196 510T273 531Q332 531 366 494T400 378V0H296V369Q296 446 231 446Q196 446 174 425T152 362V0H47V752Z" />
<glyph unicode="i" glyph-name="i" horiz-adv-x="202" d="M49 523H153V0H49V523ZM101 594Q73 594 56 611T39 655Q39 681 56 698T101 716Q127 716 145 699T164 655Q164 629 146 612T101 594Z" />
<glyph unicode="j" glyph-name="j" horiz-adv-x="202" d="M-18 -97Q18 -92 33 -76T49 -28V523H153V-28Q153 -63 145 -90T116 -137T63 -167T-18 -179V-97ZM101 594Q73 594 56 611T39 655Q39 681 56 698T101 716Q127 716 145 699T164 655Q164 629 146 612T101 594Z" />
<glyph unicode="k" glyph-name="k" horiz-adv-x="418" d="M47 752H152V291L291 523H398L250 282L407 0H292L152 256V0H47V752Z" />
<glyph unicode="l" glyph-name="l" horiz-adv-x="206" d="M50 752H156V0H50V752Z" />
<glyph unicode="m" glyph-name="m" horiz-adv-x="670" d="M47 523H152V459Q166 490 194 510T266 531Q307 531 334 514T375 457Q395 495 429 513T503 531Q558 531 591 494T625 375V0H521V367Q521 409 507 427T462 446Q431 446 410 425T389 360V0H285V367Q285 409
270 427T226 446Q194 446 173 425T152 360V0H47V523Z" />
<glyph unicode="n" glyph-name="n" horiz-adv-x="445" d="M47 523H152V457Q166 489 196 510T273 531Q332 531 366 494T400 378V0H296V369Q296 446 231 446Q196 446 174 425T152 362V0H47V523Z" />
<glyph unicode="o" glyph-name="o" horiz-adv-x="447" d="M222 -8Q181 -8 147 4T87 41T49 100T35 182V339Q35 386 49 422T88 482T147 518T223 531Q265 531 299 519T359 483T398 424T412 341V184Q412 89 359 41T222 -8ZM223 74Q307 74 307 181V341Q307 450 223
450Q140 450 140 342V181Q140 74 223 74Z" />
<glyph unicode="p" glyph-name="p" horiz-adv-x="461" d="M152 523V458Q168 489 199 510T276 531Q345 531 385 486T425 350V176Q425 84 383 38T270 -8Q225 -8 196 11T152 61V-175H47V523H152ZM152 184Q152 73 239 73Q279 73 299 97T319 175V350Q319 404 298 426T240
449Q199 449 176 422T152 339V184Z" />
<glyph unicode="q" glyph-name="q" horiz-adv-x="461" d="M414 -175H309V66Q294 34 263 13T187 -8Q118 -8 78 37T37 175V347Q37 439 80 485T194 531Q239 531 267 512T309 462V523H414V-175ZM310 339Q310 450 222 450Q182 450 162 426T142 348V173Q142 119 162
96T219 73Q261 73 285 101T310 184V339Z" />
<glyph unicode="r" glyph-name="r" horiz-adv-x="300" d="M47 523H152V445Q170 488 200 507T279 528V426Q218 424 185 403T152 324V0H47V523Z" />
<glyph unicode="s" glyph-name="s" horiz-adv-x="391" d="M197 -8Q116 -8 72 33T27 152H126Q128 110 144 90T196 70Q229 70 243 86T258 135Q258 169 236 186T169 225Q136 240 111 256T69 291T44 335T35 392Q35 426 47 452T80 495T129 522T190 531Q260 531 304
497T349 382H251Q251 420 235 436T190 453Q133 453 133 398Q133 383 137 372T152 352T179 333T220 312Q250 298 275 284T320 250T349 205T360 143Q360 71 320 32T197 -8Z" />
<glyph unicode="t" glyph-name="t" horiz-adv-x="287" d="M174 630V523H261V443H174V136Q174 80 223 80Q250 80 263 85V4Q255 1 241 -1T206 -4Q134 -4 102 29T69 129V443H15V523H69V630H174Z" />
<glyph unicode="u" glyph-name="u" horiz-adv-x="444" d="M396 0H292V65Q277 33 248 13T172 -8Q115 -8 80 28T44 143V523H149V153Q149 114 164 95T213 76Q247 76 269 97T292 160V523H396V0Z" />
<glyph unicode="v" glyph-name="v" horiz-adv-x="413" d="M13 523H123L212 119L298 523H400L270 0H146L13 523Z" />
<glyph unicode="w" glyph-name="w" horiz-adv-x="615" d="M14 523H122L188 147L266 523H360L432 147L502 523H600L486 0H377L309 365L232 0H123L14 523Z" />
<glyph unicode="x" glyph-name="x" horiz-adv-x="414" d="M139 268L21 523H135L209 342L285 523H389L271 275L400 0H286L204 197L117 0H14L139 268Z" />
<glyph unicode="y" glyph-name="y" horiz-adv-x="420" d="M216 187L305 523H407L199 -175H96L163 46L13 523H124L216 187Z" />
<glyph unicode="z" glyph-name="z" horiz-adv-x="366" d="M15 12L213 440H36V523H351V509L153 84H342V0H15V12Z" />
<glyph unicode="{" glyph-name="braceleft" horiz-adv-x="308" d="M24 355Q81 357 102 383T116 453L94 582Q77 679 126 722T280 766V689Q227 686 206 664T193 584L214 448Q223 389 196 359T121 317Q169 304 195 275T214 186L193 45Q185 -14 206 -36T280 -61V-139Q176
-138 127 -94T94 46L116 181Q124 224 103 250T24 278V355Z" />
<glyph unicode="|" glyph-name="bar" horiz-adv-x="203" d="M61 766H143V-138H61V766Z" />
<glyph unicode="}" glyph-name="braceright" horiz-adv-x="308" d="M284 278Q227 276 206 250T192 181L214 46Q230 -50 181 -94T28 -139V-61Q81 -59 102 -37T115 45L94 186Q86 245 112 274T187 317Q140 329 113 359T94 448L115 584Q124 642 103 664T28 689V766Q132
765 181 722T214 582L192 453Q184 409 205 383T284 355V278Z" />
<glyph unicode="~" glyph-name="asciitilde" horiz-adv-x="375" d="M31 235Q36 304 63 333T127 362Q146 362 162 357T192 344T219 332T241 326Q255 326 263 335T274 364H344Q342 330 334 306T312 267T283 244T250 237Q230 237 214 243T183 255T157 268T135 274Q107
274 101 235H31Z" />
<glyph unicode="&#xa0;" glyph-name="uni00A0" horiz-adv-x="145" />
<glyph unicode="&#xa1;" glyph-name="exclamdown" horiz-adv-x="237" d="M177 -117H61L77 402H160L177 -117ZM119 604Q147 604 166 585T186 539Q186 510 167 492T119 473Q91 473 72 491T52 539Q52 566 71 585T119 604Z" />
<glyph unicode="&#xa2;" glyph-name="cent" horiz-adv-x="432" d="M199 -6Q126 0 81 46T36 183V337Q36 382 48 416T82 474T134 512T199 530V615H249V531Q280 528 307 518T355 488T388 438T403 365V361H305V364Q303 405 288 423T249 447V75Q275 81 292 102T311
169V174H405V169Q403 84 362 41T249 -7V-113H199V-6ZM139 182Q139 131 154 107T199 75V447Q170 440 155 415T139 339V182Z" />
<glyph unicode="&#xa3;" glyph-name="sterling" horiz-adv-x="468" d="M30 384H82Q74 423 69 462T64 541V543Q64 633 115 678T248 724Q422 724 428 547V542H321V546Q317 593 301 613T250 633Q215 633 196 611T177 541V539Q177 501 181 463T190 384H332V308H199Q201
284 202 260T204 209Q204 179 200 156T189 115Q220 107 247 97T294 86Q317 86 329 97T344 136H440Q437 75 406 34T313 -7Q287 -7 264 -1T219 14T180 29T146 36Q127 36 119 26T108 0H20Q22 38 39 71T92 117Q98 134 101 155T104 208Q104 233 102 257T95 308H30V384Z"
/>
<glyph unicode="&#xa5;" glyph-name="yen" horiz-adv-x="459" d="M55 353H165L19 715H138L238 440L334 715H440L301 353H411V293H291V244H411V184H291V0H176V184H55V244H176V293H55V353Z" />
<glyph unicode="&#xa6;" glyph-name="brokenbar" horiz-adv-x="205" d="M61 298H142V-138H61V298ZM61 766H142V368H61V766Z" />
<glyph unicode="&#xa7;" glyph-name="section" horiz-adv-x="442" d="M218 -110Q140 -110 96 -72T48 46V50H150V46Q152 4 168 -13T217 -30Q277 -30 277 38Q277 55 272 68T254 93T222 118T173 147Q140 163 112 180T64 219T33 265T21 323V324Q21 371 49 402T123
446Q93 472 79 502T64 575V576Q64 610 76 637T109 684T159 713T222 723Q296 723 336 686T379 573V570H279V572Q277 609 265 625T222 642Q163 642 163 582V581Q163 565 168 552T184 527T215 502T263 474Q297 457 325 440T374 403T406 356T418 295V294Q418 252 392
220T321 172Q350 146 364 117T378 46V44Q378 -28 337 -69T218 -110ZM221 235Q231 230 240 225T258 214Q286 222 301 239T317 282V283Q317 318 289 340T220 384Q211 389 203 393T186 403Q156 395 140 379T123 335Q123 303 149 281T221 235Z" />
<glyph unicode="&#xa8;" glyph-name="dieresis" horiz-adv-x="400" d="M118 595Q93 595 76 612T58 655Q58 679 75 696T118 714Q143 714 160 697T178 655Q178 630 161 613T118 595ZM284 595Q258 595 241 612T223 655Q223 679 240 696T284 714Q308 714 326 697T344
655Q344 630 326 613T284 595Z" />
<glyph unicode="&#xa9;" glyph-name="copyright" horiz-adv-x="686" d="M343 57Q278 57 221 81T122 147T56 246T32 372Q32 439 56 496T122 596T221 663T345 687Q412 687 468 663T566 597T630 498T654 373Q654 305 631 247T565 147T466 81T343 57ZM343 99Q397 99
444 118T527 174T583 260T604 373Q604 434 584 484T529 570T447 625T345 645Q289 645 241 626T158 570T103 484T82 372Q82 310 103 260T159 174T242 119T343 99ZM345 185Q274 185 236 223T198 332V412Q198 483 237 522T343 561Q401 561 437 533T477 440V438H396V440Q393
470 381 483T343 496Q282 496 282 415V331Q282 250 344 250Q397 250 400 309V312H478V310Q476 245 441 215T345 185Z" />
<glyph unicode="&#xaa;" glyph-name="ordfeminine" horiz-adv-x="350" d="M134 295Q86 295 54 324T22 417V426Q22 492 63 520T174 548H223V591Q223 621 213 635T175 650Q149 650 138 636T125 598V596H33V597Q36 659 74 691T178 724Q247 724 282 692T318 592V302H224V344Q213
324 193 310T134 295ZM164 363Q190 363 206 378T223 427V488H180Q118 488 118 430V420Q118 391 128 377T164 363Z" />
<glyph unicode="&#xab;" glyph-name="guillemotleft" horiz-adv-x="394" d="M35 261L131 433H216L122 261L216 90H131L35 261ZM180 261L276 433H360L267 261L360 90H276L180 261Z" />
<glyph unicode="&#xae;" glyph-name="registered" horiz-adv-x="431" d="M149 641H217Q287 641 287 581V576Q287 555 279 543T257 526L296 436H246L213 516H198V436H149V641ZM215 550Q229 550 234 555T239 575V580Q239 604 216 604H198V550H215ZM216 377Q249 377
276 388T324 421T356 471T368 537Q368 572 357 601T326 651T278 683T217 695Q183 695 155 684T107 651T75 601T64 536Q64 500 75 471T107 420T156 388T216 377ZM216 344Q176 344 142 358T82 398T41 459T26 536Q26 577 40 612T81 672T141 712T217 727Q258 727 292
713T352 673T391 612T405 537Q405 496 391 461T352 399T292 359T216 344Z" />
<glyph unicode="&#xaf;" glyph-name="macron" horiz-adv-x="400" d="M84 686H316V613H84V686Z" />
<glyph unicode="&#xb0;" glyph-name="degree" horiz-adv-x="357" d="M178 508Q210 508 229 530T249 586Q249 621 230 644T178 667Q146 667 126 644T106 586Q106 553 126 531T178 508ZM178 451Q149 451 124 462T79 491T49 534T38 586Q38 614 49 639T79 683T123
713T178 724Q208 724 233 713T278 684T308 640T319 586Q319 559 308 535T278 492T234 462T178 451Z" />
<glyph unicode="&#xb1;" glyph-name="plusminus" horiz-adv-x="420" d="M165 319H29V401H165V541H254V401H390V319H254V179H165V319ZM29 120H391V40H29V120Z" />
<glyph unicode="&#xb2;" glyph-name="twosuperior" horiz-adv-x="277" d="M7 353L107 484Q138 524 153 554T169 614V620Q169 664 133 664Q115 664 105 651T92 608V606H15V607Q17 667 48 697T137 727Q194 727 223 699T252 623V618Q252 576 232 542T183 470L133
404H254V341H7V353Z" />
<glyph unicode="&#xb3;" glyph-name="threesuperior" horiz-adv-x="291" d="M143 337Q80 337 50 366T18 451V452H94V451Q95 399 139 399Q182 399 182 448V462Q182 513 129 513H111V567H130Q179 567 179 615V622Q179 667 142 667Q104 667 101 619V618H24V620Q26
671 56 699T144 728Q198 728 229 703T260 629V621Q260 559 200 544Q231 538 248 517T266 461V446Q266 395 235 366T143 337Z" />
<glyph unicode="&#xb4;" glyph-name="acute" horiz-adv-x="400" d="M198 738H318L230 590H151L198 738Z" />
<glyph unicode="&#xb6;" glyph-name="paragraph" horiz-adv-x="466" d="M215 383H209Q169 383 136 393T78 423T41 475T28 547Q28 590 42 621T80 674T137 705T209 715H410V-78H342V657H282V-78H215V383Z" />
<glyph unicode="&#xb7;" glyph-name="periodcentered" horiz-adv-x="227" d="M114 264Q85 264 65 283T44 332Q44 361 64 381T114 401Q143 401 163 381T183 332Q183 303 163 284T114 264Z" />
<glyph unicode="&#xb8;" glyph-name="cedilla" horiz-adv-x="400" d="M208 -206Q163 -206 136 -184T104 -124H168Q170 -136 178 -145T203 -154Q218 -154 227 -145T236 -122Q236 -108 227 -100T204 -92Q194 -92 188 -95T177 -101L145 -70L186 0H243L215 -46Q251
-42 278 -60T306 -122Q306 -164 279 -185T208 -206Z" />
<glyph unicode="&#xb9;" glyph-name="onesuperior" horiz-adv-x="221" d="M89 638L21 588V661L100 723H174V343H89V638Z" />
<glyph unicode="&#xba;" glyph-name="ordmasculine" horiz-adv-x="385" d="M193 369Q226 369 243 392T260 457V561Q260 650 193 650Q125 650 125 561V457Q125 369 193 369ZM192 295Q120 295 74 337T28 459V557Q28 638 74 681T193 724Q265 724 311 682T357 559V461Q357
380 311 338T192 295Z" />
<glyph unicode="&#xbb;" glyph-name="guillemotright" horiz-adv-x="394" d="M128 261L34 433H119L214 261L119 90H34L128 261ZM272 261L179 433H263L359 261L263 90H179L272 261Z" />
<glyph unicode="&#xbc;" glyph-name="onequarter" horiz-adv-x="643" d="M92 629L24 580V654L102 715H177V332H92V629ZM497 715H567L117 0H46L497 715ZM500 82H345V106L477 383H581V141H623V82H581V0H500V82ZM502 141V316L424 141H502Z" />
<glyph unicode="&#xbd;" glyph-name="onehalf" horiz-adv-x="663" d="M496 715H566L116 0H45L496 715ZM92 629L24 580V654L102 715H177V332H92V629ZM390 12L490 143Q521 185 536 214T552 275V281Q552 325 517 325Q498 325 488 312T475 266H398Q400 327 431 358T520
389Q577 389 606 361T635 284V279Q635 236 615 202T566 130L515 63H638V0H390V12Z" />
<glyph unicode="&#xbe;" glyph-name="threequarters" horiz-adv-x="687" d="M146 326Q83 326 53 355T21 442H97Q98 388 142 388Q185 388 185 438V452Q185 503 132 503H114V557H132Q183 557 183 606V613Q183 659 145 659Q127 659 116 648T104 609H27Q29 663 59
691T147 720Q201 720 232 695T263 620V612Q263 551 203 534Q233 528 251 507T269 450V435Q269 384 238 355T146 326ZM547 715H617L167 0H96L547 715ZM543 82H388V106L520 383H624V141H666V82H624V0H543V82ZM545 141V316L467 141H545Z" />
<glyph unicode="&#xbf;" glyph-name="questiondown" horiz-adv-x="407" d="M276 350Q276 322 271 300T257 258T234 218T202 174Q189 156 179 142T161 112T149 80T145 41Q145 -3 161 -20T208 -38Q242 -38 260 -17T282 54H384Q382 -37 335 -81T206 -126Q122 -126
79 -86T35 39Q35 68 40 90T54 132T76 171T107 212Q124 232 137 249T159 283T174 318T179 357V402H276V350ZM227 604Q256 604 276 585T296 536Q296 507 276 488T227 468Q198 468 178 487T158 536Q158 565 178 584T227 604Z" />
<glyph unicode="&#xc0;" glyph-name="Agrave" horiz-adv-x="494" d="M328 168H156L124 0H19L167 715H328L476 0H361L328 168ZM172 252H312L242 621L172 252ZM130 889H250L293 761H212L130 889Z" />
<glyph unicode="&#xc1;" glyph-name="Aacute" horiz-adv-x="494" d="M328 168H156L124 0H19L167 715H328L476 0H361L328 168ZM172 252H312L242 621L172 252ZM242 889H362L279 761H199L242 889Z" />
<glyph unicode="&#xc2;" glyph-name="Acircumflex" horiz-adv-x="494" d="M328 168H156L124 0H19L167 715H328L476 0H361L328 168ZM172 252H312L242 621L172 252ZM201 889H295L381 761H305L246 816L187 761H113L201 889Z" />
<glyph unicode="&#xc3;" glyph-name="Atilde" horiz-adv-x="494" d="M328 168H156L124 0H19L167 715H328L476 0H361L328 168ZM172 252H312L242 621L172 252ZM297 764Q282 764 269 769T243 779T221 790T202 795Q191 795 184 786T173 761H108Q113 818 137 847T196
877Q212 877 225 872T251 862T273 851T293 846Q304 846 311 855T321 879H386Q381 822 357 793T297 764Z" />
<glyph unicode="&#xc4;" glyph-name="Adieresis" horiz-adv-x="494" d="M328 168H156L124 0H19L167 715H328L476 0H361L328 168ZM172 252H312L242 621L172 252ZM160 769Q136 769 119 786T102 827Q102 852 119 868T160 885Q185 885 202 869T219 827Q219 803 202
786T160 769ZM332 769Q308 769 291 786T274 827Q274 852 291 868T332 885Q357 885 374 869T391 827Q391 803 374 786T332 769Z" />
<glyph unicode="&#xc5;" glyph-name="Aring" horiz-adv-x="494" d="M328 168H156L124 0H19L167 715H328L476 0H361L328 168ZM172 252H312L242 621L172 252ZM247 794Q265 794 276 807T288 840Q288 859 277 872T247 885Q229 885 218 872T207 840Q207 820 218 807T247
794ZM247 747Q227 747 210 754T179 774T159 804T152 840Q152 878 179 905T247 932Q288 932 315 905T343 840Q343 821 336 804T315 775T285 755T247 747Z" />
<glyph unicode="&#xc6;" glyph-name="AE" horiz-adv-x="683" d="M224 715H643V626H435V419H602V333H435V90H654V0H322V171H170L122 0H16L224 715ZM193 253H322V626H298L193 253Z" />
<glyph unicode="&#xc7;" glyph-name="Ccedilla" horiz-adv-x="518" d="M262 -206Q217 -206 190 -184T158 -124H222Q224 -136 232 -145T257 -154Q272 -154 281 -145T290 -122Q290 -108 281 -100T258 -92Q248 -92 242 -95T231 -101L199 -70L235 -8Q152 1 103 54Q44
119 44 236V478Q44 537 60 582T107 659T178 707T269 724Q313 724 351 713T417 677T463 613T482 516H371Q366 580 342 607T269 634Q160 634 160 480V236Q160 160 186 121T272 81Q318 81 348 110T380 210H488Q487 151 471 110T426 42T358 2Q326 -7 291 -9L269 -46Q305
-42 332 -60T360 -122Q360 -164 333 -185T262 -206Z" />
<glyph unicode="&#xc8;" glyph-name="Egrave" horiz-adv-x="421" d="M103 889H223L266 761H185L103 889ZM54 715H388V626H167V419H347V333H167V89H402V0H54V715Z" />
<glyph unicode="&#xc9;" glyph-name="Eacute" horiz-adv-x="421" d="M216 889H336L253 761H173L216 889ZM54 715H388V626H167V419H347V333H167V89H402V0H54V715Z" />
<glyph unicode="&#xca;" glyph-name="Ecircumflex" horiz-adv-x="421" d="M174 889H268L354 761H278L219 816L160 761H86L174 889ZM54 715H388V626H167V419H347V333H167V89H402V0H54V715Z" />
<glyph unicode="&#xcb;" glyph-name="Edieresis" horiz-adv-x="421" d="M54 715H388V626H167V419H347V333H167V89H402V0H54V715ZM134 769Q110 769 93 786T76 827Q76 852 93 868T134 885Q159 885 176 869T193 827Q193 803 176 786T134 769ZM306 769Q282 769 265
786T248 827Q248 852 265 868T306 885Q331 885 348 869T365 827Q365 803 348 786T306 769Z" />
<glyph unicode="&#xcc;" glyph-name="Igrave" horiz-adv-x="231" d="M59 715H171V0H59V715ZM254 889H374L417 761H336L254 889Z" />
<glyph unicode="&#xcd;" glyph-name="Iacute" horiz-adv-x="231" d="M59 715H171V0H59V715ZM367 889H487L404 761H324L367 889Z" />
<glyph unicode="&#xce;" glyph-name="Icircumflex" horiz-adv-x="231" d="M59 715H171V0H59V715ZM325 889H419L505 761H429L370 816L311 761H237L325 889Z" />
<glyph unicode="&#xcf;" glyph-name="Idieresis" horiz-adv-x="231" d="M59 715H171V0H59V715ZM285 769Q261 769 244 786T227 827Q227 852 244 868T285 885Q310 885 327 869T344 827Q344 803 327 786T285 769ZM457 769Q433 769 416 786T399 827Q399 852 416 868T457
885Q482 885 499 869T516 827Q516 803 499 786T457 769Z" />
<glyph unicode="&#xd0;" glyph-name="Eth" horiz-adv-x="552" d="M22 406H69V715H253Q381 715 443 656T506 473V243Q506 123 445 62T255 0H69V320H22V406ZM248 91Q326 91 357 127T389 243V473Q389 552 358 589T248 626H183V406H292V320H183V91H248Z" />
<glyph unicode="&#xd1;" glyph-name="Ntilde" horiz-adv-x="528" d="M323 764Q308 764 295 769T269 779T247 790T228 795Q217 795 210 786T199 761H134Q139 818 163 847T222 877Q238 877 251 872T277 862T299 851T319 846Q330 846 337 855T347 879H412Q407 822
383 793T323 764ZM54 715H185L376 224V715H476V0H362L154 538V0H54V715Z" />
<glyph unicode="&#xd2;" glyph-name="Ograve" horiz-adv-x="557" d="M162 889H282L325 761H244L162 889ZM280 -10Q226 -10 183 6T110 54T63 130T46 233V481Q46 539 63 584T110 661T184 708T279 724Q331 724 374 708T447 662T494 586T511 483V236Q511 118 449 54T280
-10ZM279 81Q338 81 366 121T395 234V481Q395 552 367 593T279 634Q219 634 191 595T162 482V234Q162 159 190 120T279 81Z" />
<glyph unicode="&#xd3;" glyph-name="Oacute" horiz-adv-x="557" d="M274 889H394L311 761H231L274 889ZM280 -10Q226 -10 183 6T110 54T63 130T46 233V481Q46 539 63 584T110 661T184 708T279 724Q331 724 374 708T447 662T494 586T511 483V236Q511 118 449 54T280
-10ZM279 81Q338 81 366 121T395 234V481Q395 552 367 593T279 634Q219 634 191 595T162 482V234Q162 159 190 120T279 81Z" />
<glyph unicode="&#xd4;" glyph-name="Ocircumflex" horiz-adv-x="557" d="M233 889H327L413 761H337L278 816L219 761H145L233 889ZM280 -10Q226 -10 183 6T110 54T63 130T46 233V481Q46 539 63 584T110 661T184 708T279 724Q331 724 374 708T447 662T494 586T511
483V236Q511 118 449 54T280 -10ZM279 81Q338 81 366 121T395 234V481Q395 552 367 593T279 634Q219 634 191 595T162 482V234Q162 159 190 120T279 81Z" />
<glyph unicode="&#xd5;" glyph-name="Otilde" horiz-adv-x="557" d="M329 764Q314 764 301 769T275 779T253 790T234 795Q223 795 216 786T205 761H140Q145 818 169 847T228 877Q244 877 257 872T283 862T305 851T325 846Q336 846 343 855T353 879H418Q413 822
389 793T329 764ZM280 -10Q226 -10 183 6T110 54T63 130T46 233V481Q46 539 63 584T110 661T184 708T279 724Q331 724 374 708T447 662T494 586T511 483V236Q511 118 449 54T280 -10ZM279 81Q338 81 366 121T395 234V481Q395 552 367 593T279 634Q219 634 191 595T162
482V234Q162 159 190 120T279 81Z" />
<glyph unicode="&#xd6;" glyph-name="Odieresis" horiz-adv-x="557" d="M192 769Q168 769 151 786T134 827Q134 852 151 868T192 885Q217 885 234 869T251 827Q251 803 234 786T192 769ZM364 769Q340 769 323 786T306 827Q306 852 323 868T364 885Q389 885 406
869T423 827Q423 803 406 786T364 769ZM280 -10Q226 -10 183 6T110 54T63 130T46 233V481Q46 539 63 584T110 661T184 708T279 724Q331 724 374 708T447 662T494 586T511 483V236Q511 118 449 54T280 -10ZM279 81Q338 81 366 121T395 234V481Q395 552 367 593T279
634Q219 634 191 595T162 482V234Q162 159 190 120T279 81Z" />
<glyph unicode="&#xd7;" glyph-name="multiply" horiz-adv-x="387" d="M26 211L139 333L25 454L84 508L194 391L303 508L362 454L248 333L363 211L303 156L194 274L85 157L26 211Z" />
<glyph unicode="&#xd8;" glyph-name="Oslash" horiz-adv-x="557" d="M21 5L75 91Q37 152 37 238V476Q37 534 55 580T105 658T181 707T279 724Q379 724 442 670L482 732L527 702L480 628Q500 599 510 561T521 478V241Q521 183 504 137T455 58T378 8T279 -10Q228
-10 186 5T112 48L65 -25L21 5ZM280 82Q340 82 373 124T407 241V492Q407 497 407 501T406 511L170 140Q204 82 280 82ZM151 211L385 580Q369 606 343 620T279 634Q217 634 184 593T151 477V211Z" />
<glyph unicode="&#xd9;" glyph-name="Ugrave" horiz-adv-x="517" d="M141 889H261L304 761H223L141 889ZM480 715V204Q480 96 424 43T265 -10Q165 -10 108 42T51 201V715H165V205Q165 139 189 111T266 82Q314 82 340 111T366 210V715H480Z" />
<glyph unicode="&#xda;" glyph-name="Uacute" horiz-adv-x="517" d="M254 889H374L291 761H211L254 889ZM480 715V204Q480 96 424 43T265 -10Q165 -10 108 42T51 201V715H165V205Q165 139 189 111T266 82Q314 82 340 111T366 210V715H480Z" />
<glyph unicode="&#xdb;" glyph-name="Ucircumflex" horiz-adv-x="517" d="M212 889H306L392 761H316L257 816L198 761H124L212 889ZM480 715V204Q480 96 424 43T265 -10Q165 -10 108 42T51 201V715H165V205Q165 139 189 111T266 82Q314 82 340 111T366 210V715H480Z" />
<glyph unicode="&#xdc;" glyph-name="Udieresis" horiz-adv-x="517" d="M480 715V204Q480 96 424 43T265 -10Q165 -10 108 42T51 201V715H165V205Q165 139 189 111T266 82Q314 82 340 111T366 210V715H480ZM172 769Q148 769 131 786T114 827Q114 852 131 868T172
885Q197 885 214 869T231 827Q231 803 214 786T172 769ZM344 769Q320 769 303 786T286 827Q286 852 303 868T344 885Q369 885 386 869T403 827Q403 803 386 786T344 769Z" />
<glyph unicode="&#xdd;" glyph-name="Yacute" horiz-adv-x="466" d="M179 309L12 715H134L240 423L345 715H452L293 308V0H179V309ZM233 889H353L270 761H190L233 889Z" />
<glyph unicode="&#xde;" glyph-name="Thorn" horiz-adv-x="468" d="M55 715H169V578H232Q335 578 389 534T443 392V356Q443 261 389 215T234 168H169V0H55V715ZM232 252Q281 252 305 277T330 357V391Q330 447 305 469T233 491H169V252H232Z" />
<glyph unicode="&#xdf;" glyph-name="germandbls" horiz-adv-x="455" d="M257 -4Q240 -4 224 -2T201 3V84Q218 79 239 79Q255 79 269 83T294 99T311 131T317 184V282Q317 349 289 376T209 402V483Q257 481 277 506T297 573V597Q297 642 278 661T225 680Q193 680
174 659T154 593V0H48V588Q48 631 62 663T100 716T157 749T228 760Q307 760 353 720T400 599V577Q400 529 376 495T307 448Q361 435 393 394T425 273V184Q425 133 414 97T381 39T328 6T257 -4Z" />
<glyph unicode="&#xe0;" glyph-name="agrave" horiz-adv-x="413" d="M166 -8Q106 -8 68 27T30 135V153Q30 236 79 270T215 305H274V366Q274 408 261 429T212 451Q179 451 164 433T147 381H46Q48 458 94 494T215 531Q294 531 336 492T379 368V0H275V51Q261 26 237
9T166 -8ZM196 67Q233 67 253 86T274 148V236H220Q175 236 155 218T134 155V141Q134 67 196 67ZM87 738H206L254 590H175L87 738Z" />
<glyph unicode="&#xe1;" glyph-name="aacute" horiz-adv-x="413" d="M166 -8Q106 -8 68 27T30 135V153Q30 236 79 270T215 305H274V366Q274 408 261 429T212 451Q179 451 164 433T147 381H46Q48 458 94 494T215 531Q294 531 336 492T379 368V0H275V51Q261 26 237
9T166 -8ZM196 67Q233 67 253 86T274 148V236H220Q175 236 155 218T134 155V141Q134 67 196 67ZM210 738H330L242 590H163L210 738Z" />
<glyph unicode="&#xe2;" glyph-name="acircumflex" horiz-adv-x="413" d="M166 -8Q106 -8 68 27T30 135V153Q30 236 79 270T215 305H274V366Q274 408 261 429T212 451Q179 451 164 433T147 381H46Q48 458 94 494T215 531Q294 531 336 492T379 368V0H275V51Q261
26 237 9T166 -8ZM196 67Q233 67 253 86T274 148V236H220Q175 236 155 218T134 155V141Q134 67 196 67ZM166 737H255L341 590H267L209 658L151 590H78L166 737Z" />
<glyph unicode="&#xe3;" glyph-name="atilde" horiz-adv-x="413" d="M166 -8Q106 -8 68 27T30 135V153Q30 236 79 270T215 305H274V366Q274 408 261 429T212 451Q179 451 164 433T147 381H46Q48 458 94 494T215 531Q294 531 336 492T379 368V0H275V51Q261 26 237
9T166 -8ZM196 67Q233 67 253 86T274 148V236H220Q175 236 155 218T134 155V141Q134 67 196 67ZM255 596Q240 596 227 601T203 613T183 624T164 630Q153 630 146 621T136 594H73Q77 653 100 683T158 714Q173 714 186 709T210 697T231 686T250 680Q261 680 268 690T279
716H342Q337 658 313 627T255 596Z" />
<glyph unicode="&#xe4;" glyph-name="adieresis" horiz-adv-x="413" d="M166 -8Q106 -8 68 27T30 135V153Q30 236 79 270T215 305H274V366Q274 408 261 429T212 451Q179 451 164 433T147 381H46Q48 458 94 494T215 531Q294 531 336 492T379 368V0H275V51Q261 26
237 9T166 -8ZM196 67Q233 67 253 86T274 148V236H220Q175 236 155 218T134 155V141Q134 67 196 67ZM125 595Q100 595 83 612T65 655Q65 679 82 696T125 714Q150 714 167 697T185 655Q185 630 168 613T125 595ZM291 595Q265 595 248 612T230 655Q230 679 247 696T291
714Q315 714 333 697T351 655Q351 630 333 613T291 595Z" />
<glyph unicode="&#xe5;" glyph-name="aring" horiz-adv-x="413" d="M166 -8Q106 -8 68 27T30 135V153Q30 236 79 270T215 305H274V366Q274 408 261 429T212 451Q179 451 164 433T147 381H46Q48 458 94 494T215 531Q294 531 336 492T379 368V0H275V51Q261 26 237
9T166 -8ZM196 67Q233 67 253 86T274 148V236H220Q175 236 155 218T134 155V141Q134 67 196 67ZM207 632Q225 632 236 645T248 677Q248 696 237 709T207 722Q189 722 178 709T167 677Q167 658 178 645T207 632ZM207 584Q187 584 170 591T139 611T119 641T112 677Q112
696 119 713T139 742T169 762T207 770Q227 770 244 763T275 743T295 713T303 677Q303 658 296 641T275 612T245 592T207 584Z" />
<glyph unicode="&#xe6;" glyph-name="ae" horiz-adv-x="661" d="M453 -8Q353 -8 313 65Q291 29 258 11T173 -8Q106 -8 69 28T31 138V156Q31 237 79 273T212 310H269V371Q269 413 256 432T209 451Q177 451 162 435T144 381H44Q47 460 91 495T208 531Q298 531 328
476Q371 531 452 531Q489 531 521 521T576 487T613 427T627 337V243H371V187Q371 131 390 102T454 72Q523 72 529 151H627Q621 68 577 30T453 -8ZM190 68Q225 68 247 87T269 148V242H218Q174 242 154 223T134 161V141Q134 68 190 68ZM371 310H525V354Q523 410 505
432T451 454Q371 454 371 335V310Z" />
<glyph unicode="&#xe7;" glyph-name="ccedilla" horiz-adv-x="423" d="M206 -206Q161 -206 134 -184T102 -124H166Q168 -136 176 -145T201 -154Q216 -154 225 -145T234 -122Q234 -108 225 -100T202 -92Q192 -92 186 -95T175 -101L143 -70L181 -5Q162 -2 146 3Q112
14 88 37T49 95T35 181V339Q35 388 49 424T88 484T146 519T218 531Q253 531 284 523T339 495T377 443T393 362H293Q291 414 271 431T219 449Q181 449 161 425T140 343V179Q140 120 161 97T221 73Q237 73 251 78T276 94T293 125T300 172H395Q393 77 346 34Q304 -3
236 -7L213 -46Q249 -42 276 -60T304 -122Q304 -164 277 -185T206 -206Z" />
<glyph unicode="&#xe8;" glyph-name="egrave" horiz-adv-x="429" d="M222 -8Q134 -8 85 40T35 183V339Q35 433 86 482T219 531Q259 531 292 520T349 487T386 428T399 343V238H139V181Q139 124 159 98T223 72Q293 72 302 150H399Q394 68 349 30T222 -8ZM139 313H297V346Q297
405 277 429T220 454Q182 454 161 428T139 343V313ZM96 738H215L263 590H184L96 738Z" />
<glyph unicode="&#xe9;" glyph-name="eacute" horiz-adv-x="429" d="M220 738H340L252 590H173L220 738ZM222 -8Q134 -8 85 40T35 183V339Q35 433 86 482T219 531Q259 531 292 520T349 487T386 428T399 343V238H139V181Q139 124 159 98T223 72Q293 72 302 150H399Q394
68 349 30T222 -8ZM139 313H297V346Q297 405 277 429T220 454Q182 454 161 428T139 343V313Z" />
<glyph unicode="&#xea;" glyph-name="ecircumflex" horiz-adv-x="429" d="M173 737H262L348 590H274L216 658L158 590H85L173 737ZM222 -8Q134 -8 85 40T35 183V339Q35 433 86 482T219 531Q259 531 292 520T349 487T386 428T399 343V238H139V181Q139 124 159 98T223
72Q293 72 302 150H399Q394 68 349 30T222 -8ZM139 313H297V346Q297 405 277 429T220 454Q182 454 161 428T139 343V313Z" />
<glyph unicode="&#xeb;" glyph-name="edieresis" horiz-adv-x="429" d="M134 595Q109 595 92 612T74 655Q74 679 91 696T134 714Q159 714 176 697T194 655Q194 630 177 613T134 595ZM300 595Q274 595 257 612T239 655Q239 679 256 696T300 714Q324 714 342 697T360
655Q360 630 342 613T300 595ZM222 -8Q134 -8 85 40T35 183V339Q35 433 86 482T219 531Q259 531 292 520T349 487T386 428T399 343V238H139V181Q139 124 159 98T223 72Q293 72 302 150H399Q394 68 349 30T222 -8ZM139 313H297V346Q297 405 277 429T220 454Q182
454 161 428T139 343V313Z" />
<glyph unicode="&#xec;" glyph-name="igrave" horiz-adv-x="203" d="M49 523H153V0H49V523ZM237 738H356L404 590H325L237 738Z" />
<glyph unicode="&#xed;" glyph-name="iacute" horiz-adv-x="203" d="M361 738H481L393 590H314L361 738ZM49 523H153V0H49V523Z" />
<glyph unicode="&#xee;" glyph-name="icircumflex" horiz-adv-x="203" d="M314 737H403L489 590H415L357 658L299 590H226L314 737ZM49 523H153V0H49V523Z" />
<glyph unicode="&#xef;" glyph-name="idieresis" horiz-adv-x="202" d="M27 595Q2 595 -15 612T-32 654Q-32 678 -15 695T27 713Q52 713 69 696T86 654Q86 630 69 613T27 595ZM175 595Q151 595 134 612T116 654Q116 678 133 695T175 713Q199 713 216 696T234 654Q234
630 217 613T175 595ZM49 523H153V0H49V523Z" />
<glyph unicode="&#xf0;" glyph-name="eth" horiz-adv-x="450" d="M82 624L168 665Q143 690 117 712T63 754H190Q205 744 221 732T254 706L330 742L353 695L293 667Q318 640 340 607T379 533T406 447T416 349V189Q416 93 364 43T223 -8Q138 -8 86 42T34 187V338Q34
386 47 422T82 482T133 518T194 530Q226 530 247 519T285 486Q271 524 251 559T204 625L105 578L82 624ZM225 75Q309 75 309 183V340Q309 450 225 450Q141 450 141 342V183Q141 75 225 75Z" />
<glyph unicode="&#xf1;" glyph-name="ntilde" horiz-adv-x="445" d="M47 523H152V457Q166 489 196 510T273 531Q332 531 366 494T400 378V0H296V369Q296 446 231 446Q196 446 174 425T152 362V0H47V523ZM271 596Q256 596 243 601T219 613T199 624T180 630Q169
630 162 621T152 594H89Q93 653 116 683T174 714Q189 714 202 709T226 697T247 686T266 680Q277 680 284 690T295 716H358Q353 658 329 627T271 596Z" />
<glyph unicode="&#xf2;" glyph-name="ograve" horiz-adv-x="447" d="M222 -8Q181 -8 147 4T87 41T49 100T35 182V339Q35 386 49 422T88 482T147 518T223 531Q265 531 299 519T359 483T398 424T412 341V184Q412 89 359 41T222 -8ZM223 74Q307 74 307 181V341Q307
450 223 450Q140 450 140 342V181Q140 74 223 74ZM102 738H221L269 590H190L102 738Z" />
<glyph unicode="&#xf3;" glyph-name="oacute" horiz-adv-x="447" d="M226 738H346L258 590H179L226 738ZM222 -8Q181 -8 147 4T87 41T49 100T35 182V339Q35 386 49 422T88 482T147 518T223 531Q265 531 299 519T359 483T398 424T412 341V184Q412 89 359 41T222
-8ZM223 74Q307 74 307 181V341Q307 450 223 450Q140 450 140 342V181Q140 74 223 74Z" />
<glyph unicode="&#xf4;" glyph-name="ocircumflex" horiz-adv-x="447" d="M179 737H268L354 590H280L222 658L164 590H91L179 737ZM222 -8Q181 -8 147 4T87 41T49 100T35 182V339Q35 386 49 422T88 482T147 518T223 531Q265 531 299 519T359 483T398 424T412 341V184Q412
89 359 41T222 -8ZM223 74Q307 74 307 181V341Q307 450 223 450Q140 450 140 342V181Q140 74 223 74Z" />
<glyph unicode="&#xf5;" glyph-name="otilde" horiz-adv-x="447" d="M222 -8Q181 -8 147 4T87 41T49 100T35 182V339Q35 386 49 422T88 482T147 518T223 531Q265 531 299 519T359 483T398 424T412 341V184Q412 89 359 41T222 -8ZM223 74Q307 74 307 181V341Q307
450 223 450Q140 450 140 342V181Q140 74 223 74ZM270 596Q255 596 242 601T218 613T198 624T179 630Q168 630 161 621T151 594H88Q92 653 115 683T173 714Q188 714 201 709T225 697T246 686T265 680Q276 680 283 690T294 716H357Q352 658 328 627T270 596Z" />
<glyph unicode="&#xf6;" glyph-name="odieresis" horiz-adv-x="447" d="M140 595Q115 595 98 612T80 655Q80 679 97 696T140 714Q165 714 182 697T200 655Q200 630 183 613T140 595ZM306 595Q280 595 263 612T245 655Q245 679 262 696T306 714Q330 714 348 697T366
655Q366 630 348 613T306 595ZM222 -8Q181 -8 147 4T87 41T49 100T35 182V339Q35 386 49 422T88 482T147 518T223 531Q265 531 299 519T359 483T398 424T412 341V184Q412 89 359 41T222 -8ZM223 74Q307 74 307 181V341Q307 450 223 450Q140 450 140 342V181Q140
74 223 74Z" />
<glyph unicode="&#xf7;" glyph-name="divide" horiz-adv-x="421" d="M211 123Q184 123 165 141T146 186Q146 214 165 232T211 250Q237 250 256 232T275 186Q275 160 256 142T211 123ZM29 382H391V301H29V382ZM211 433Q184 433 165 451T146 496Q146 523 165 541T211
560Q237 560 256 542T275 496Q275 470 256 452T211 433Z" />
<glyph unicode="&#xf8;" glyph-name="oslash" horiz-adv-x="447" d="M19 1L64 68Q48 91 40 121T31 187V335Q31 382 45 418T85 480T146 518T224 531Q298 531 347 493L382 545L426 518L384 455Q400 432 408 402T417 336V189Q417 142 403 105T363 43T301 5T223 -8Q151
-8 100 29L63 -27L19 1ZM134 173L296 416Q273 452 224 452Q182 452 158 423T134 340V173ZM224 73Q266 73 289 101T313 184V348L152 106Q174 73 224 73Z" />
<glyph unicode="&#xf9;" glyph-name="ugrave" horiz-adv-x="445" d="M396 0H292V65Q277 33 248 13T172 -8Q115 -8 80 28T44 143V523H149V153Q149 114 164 95T213 76Q247 76 269 97T292 160V523H396V0ZM100 738H219L267 590H188L100 738Z" />
<glyph unicode="&#xfa;" glyph-name="uacute" horiz-adv-x="445" d="M224 738H344L256 590H177L224 738ZM396 0H292V65Q277 33 248 13T172 -8Q115 -8 80 28T44 143V523H149V153Q149 114 164 95T213 76Q247 76 269 97T292 160V523H396V0Z" />
<glyph unicode="&#xfb;" glyph-name="ucircumflex" horiz-adv-x="445" d="M177 737H266L352 590H278L220 658L162 590H89L177 737ZM396 0H292V65Q277 33 248 13T172 -8Q115 -8 80 28T44 143V523H149V153Q149 114 164 95T213 76Q247 76 269 97T292 160V523H396V0Z" />
<glyph unicode="&#xfc;" glyph-name="udieresis" horiz-adv-x="445" d="M138 595Q113 595 96 612T78 655Q78 679 95 696T138 714Q163 714 180 697T198 655Q198 630 181 613T138 595ZM304 595Q278 595 261 612T243 655Q243 679 260 696T304 714Q328 714 346 697T364
655Q364 630 346 613T304 595ZM396 0H292V65Q277 33 248 13T172 -8Q115 -8 80 28T44 143V523H149V153Q149 114 164 95T213 76Q247 76 269 97T292 160V523H396V0Z" />
<glyph unicode="&#xfd;" glyph-name="yacute" horiz-adv-x="414" d="M216 187L305 523H407L199 -175H96L163 46L13 523H124L216 187ZM215 738H335L247 590H168L215 738Z" />
<glyph unicode="&#xfe;" glyph-name="thorn" horiz-adv-x="462" d="M48 752H154V457Q169 488 200 510T277 532Q346 532 388 484T431 340V185Q431 90 388 42T273 -7Q228 -7 198 12T154 62V-175H48V752ZM241 75Q324 75 324 184V339Q324 396 302 422T242 448Q200
448 176 421T152 337V186Q152 129 175 102T241 75Z" />
<glyph unicode="&#xff;" glyph-name="ydieresis" horiz-adv-x="414" d="M216 187L305 523H407L199 -175H96L163 46L13 523H124L216 187ZM130 595Q105 595 88 612T70 655Q70 679 87 696T130 714Q155 714 172 697T190 655Q190 630 173 613T130 595ZM296 595Q270
595 253 612T235 655Q235 679 252 696T296 714Q320 714 338 697T356 655Q356 630 338 613T296 595Z" />
<glyph unicode="&#x100;" glyph-name="Amacron" horiz-adv-x="494" d="M328 168H156L124 0H19L167 715H328L476 0H361L328 168ZM172 252H312L242 621L172 252ZM125 848H369V773H125V848Z" />
<glyph unicode="&#x101;" glyph-name="amacron" horiz-adv-x="413" d="M166 -8Q106 -8 68 27T30 135V153Q30 236 79 270T215 305H274V366Q274 408 261 429T212 451Q179 451 164 433T147 381H46Q48 458 94 494T215 531Q294 531 336 492T379 368V0H275V51Q261 26
237 9T166 -8ZM196 67Q233 67 253 86T274 148V236H220Q175 236 155 218T134 155V141Q134 67 196 67ZM92 686H324V613H92V686Z" />
<glyph unicode="&#x102;" glyph-name="Abreve" horiz-adv-x="494" d="M328 168H156L124 0H19L167 715H328L476 0H361L328 168ZM172 252H312L242 621L172 252ZM246 757Q195 757 161 788T124 880H197Q202 833 246 833Q293 833 299 880H371Q368 820 333 789T246 757Z" />
<glyph unicode="&#x103;" glyph-name="abreve" horiz-adv-x="413" d="M166 -8Q106 -8 68 27T30 135V153Q30 236 79 270T215 305H274V366Q274 408 261 429T212 451Q179 451 164 433T147 381H46Q48 458 94 494T215 531Q294 531 336 492T379 368V0H275V51Q261 26
237 9T166 -8ZM196 67Q233 67 253 86T274 148V236H220Q175 236 155 218T134 155V141Q134 67 196 67ZM207 590Q159 590 125 623T89 725H159Q165 671 207 671Q252 671 258 725H328Q327 691 317 666T291 624T253 599T207 590Z" />
<glyph unicode="&#x104;" glyph-name="Aogonek" horiz-adv-x="501" d="M429 -180Q387 -180 361 -160T334 -103Q334 -68 354 -43T402 0H361L328 168H156L124 0H19L167 715H328L476 0H472Q449 -21 438 -40T426 -80Q426 -111 456 -111Q475 -111 488 -104V-168Q478
-173 464 -176T429 -180ZM172 252H312L242 621L172 252Z" />
<glyph unicode="&#x105;" glyph-name="aogonek" horiz-adv-x="413" d="M328 -180Q286 -180 260 -160T233 -103Q233 -68 253 -43T301 0H275V51Q261 26 237 9T166 -8Q106 -8 68 27T30 135V153Q30 236 79 270T215 305H274V366Q274 408 261 429T212 451Q179 451 164
433T147 381H46Q48 458 94 494T215 531Q294 531 336 492T379 368V0H371Q348 -21 337 -40T325 -80Q325 -111 355 -111Q374 -111 387 -104V-168Q377 -173 363 -176T328 -180ZM196 67Q233 67 253 86T274 148V236H220Q175 236 155 218T134 155V141Q134 67 196 67Z"
/>
<glyph unicode="&#x106;" glyph-name="Cacute" horiz-adv-x="518" d="M273 -10Q163 -10 104 54T44 236V478Q44 537 60 582T107 659T178 707T269 724Q313 724 351 713T417 677T463 613T482 516H371Q366 580 342 607T269 634Q160 634 160 480V236Q160 160 186 121T272
81Q318 81 348 110T380 210H488Q487 151 471 110T426 42T358 3T273 -10ZM266 889H386L303 761H223L266 889Z" />
<glyph unicode="&#x107;" glyph-name="cacute" horiz-adv-x="423" d="M220 738H340L252 590H173L220 738ZM221 -8Q180 -8 146 3T88 37T49 95T35 181V339Q35 388 49 424T88 484T146 519T218 531Q253 531 284 523T339 495T377 443T393 362H293Q291 414 271 431T219
449Q181 449 161 425T140 343V179Q140 120 161 97T221 73Q237 73 251 78T276 94T293 125T300 172H395Q393 77 346 35T221 -8Z" />
<glyph unicode="&#x108;" glyph-name="Ccircumflex" horiz-adv-x="518" d="M224 889H318L404 761H328L269 816L210 761H136L224 889ZM273 -10Q163 -10 104 54T44 236V478Q44 537 60 582T107 659T178 707T269 724Q313 724 351 713T417 677T463 613T482 516H371Q366
580 342 607T269 634Q160 634 160 480V236Q160 160 186 121T272 81Q318 81 348 110T380 210H488Q487 151 471 110T426 42T358 3T273 -10Z" />
<glyph unicode="&#x109;" glyph-name="ccircumflex" horiz-adv-x="423" d="M173 737H262L348 590H274L216 658L158 590H85L173 737ZM221 -8Q180 -8 146 3T88 37T49 95T35 181V339Q35 388 49 424T88 484T146 519T218 531Q253 531 284 523T339 495T377 443T393 362H293Q291
414 271 431T219 449Q181 449 161 425T140 343V179Q140 120 161 97T221 73Q237 73 251 78T276 94T293 125T300 172H395Q393 77 346 35T221 -8Z" />
<glyph unicode="&#x10a;" glyph-name="Cdotaccent" horiz-adv-x="518" d="M273 -10Q163 -10 104 54T44 236V478Q44 537 60 582T107 659T178 707T269 724Q313 724 351 713T417 677T463 613T482 516H371Q366 580 342 607T269 634Q160 634 160 480V236Q160 160 186
121T272 81Q318 81 348 110T380 210H488Q487 151 471 110T426 42T358 3T273 -10ZM270 768Q244 768 226 785T208 829Q208 855 226 872T270 889Q296 889 314 872T332 829Q332 803 314 786T270 768Z" />
<glyph unicode="&#x10b;" glyph-name="cdotaccent" horiz-adv-x="423" d="M221 -8Q180 -8 146 3T88 37T49 95T35 181V339Q35 388 49 424T88 484T146 519T218 531Q253 531 284 523T339 495T377 443T393 362H293Q291 414 271 431T219 449Q181 449 161 425T140 343V179Q140
120 161 97T221 73Q237 73 251 78T276 94T293 125T300 172H395Q393 77 346 35T221 -8ZM217 594Q191 594 173 612T155 656Q155 681 173 698T217 716Q243 716 261 699T279 656Q279 630 261 612T217 594Z" />
<glyph unicode="&#x10c;" glyph-name="Ccaron" horiz-adv-x="518" d="M136 889H212L271 833L330 889H403L315 761H222L136 889ZM273 -10Q163 -10 104 54T44 236V478Q44 537 60 582T107 659T178 707T269 724Q313 724 351 713T417 677T463 613T482 516H371Q366 580
342 607T269 634Q160 634 160 480V236Q160 160 186 121T272 81Q318 81 348 110T380 210H488Q487 151 471 110T426 42T358 3T273 -10Z" />
<glyph unicode="&#x10d;" glyph-name="ccaron" horiz-adv-x="423" d="M84 737H159L217 669L275 737H347L259 590H170L84 737ZM221 -8Q180 -8 146 3T88 37T49 95T35 181V339Q35 388 49 424T88 484T146 519T218 531Q253 531 284 523T339 495T377 443T393 362H293Q291
414 271 431T219 449Q181 449 161 425T140 343V179Q140 120 161 97T221 73Q237 73 251 78T276 94T293 125T300 172H395Q393 77 346 35T221 -8Z" />
<glyph unicode="&#x10e;" glyph-name="Dcaron" horiz-adv-x="516" d="M103 889H179L238 833L297 889H370L282 761H189L103 889ZM239 715Q365 715 427 657T489 476V240Q489 121 429 61T241 0H54V715H239ZM167 627V89H234Q311 89 342 125T373 241V475Q373 553 343
590T234 627H167Z" />
<glyph unicode="&#x10f;" glyph-name="dcaron" horiz-adv-x="458" d="M449 752H544L504 597H442L449 752ZM414 0H309V66Q294 34 263 13T187 -8Q118 -8 78 37T37 175V347Q37 439 80 485T194 531Q239 531 267 512T309 462V752H414V0ZM310 339Q310 450 222 450Q182
450 162 426T142 348V173Q142 119 162 96T219 73Q261 73 285 100T310 184V339Z" />
<glyph unicode="&#x110;" glyph-name="Dcroat" horiz-adv-x="552" d="M22 406H69V715H253Q381 715 443 656T506 473V243Q506 123 445 62T255 0H69V320H22V406ZM248 91Q326 91 357 127T389 243V473Q389 552 358 589T248 626H183V406H292V320H183V91H248Z" />
<glyph unicode="&#x111;" glyph-name="dcroat" horiz-adv-x="466" d="M414 0H309V66Q294 34 263 13T187 -8Q118 -8 78 37T37 175V347Q37 439 80 485T194 531Q239 531 267 512T309 462V597H185V663H309V752H414V663H465V597H414V0ZM310 339Q310 450 222 450Q182
450 162 426T142 348V173Q142 119 162 96T219 73Q261 73 285 100T310 184V339Z" />
<glyph unicode="&#x112;" glyph-name="Emacron" horiz-adv-x="421" d="M54 715H388V626H167V419H347V333H167V89H402V0H54V715ZM98 848H342V773H98V848Z" />
<glyph unicode="&#x113;" glyph-name="emacron" horiz-adv-x="429" d="M222 -8Q134 -8 85 40T35 183V339Q35 433 86 482T219 531Q259 531 292 520T349 487T386 428T399 343V238H139V181Q139 124 159 98T223 72Q293 72 302 150H399Q394 68 349 30T222 -8ZM139 313H297V346Q297
405 277 429T220 454Q182 454 161 428T139 343V313ZM101 686H333V613H101V686Z" />
<glyph unicode="&#x114;" glyph-name="Ebreve" horiz-adv-x="421" d="M54 715H388V626H167V419H347V333H167V89H402V0H54V715ZM221 757Q170 757 136 788T99 880H172Q177 833 221 833Q268 833 274 880H346Q343 820 308 789T221 757Z" />
<glyph unicode="&#x115;" glyph-name="ebreve" horiz-adv-x="429" d="M222 -8Q134 -8 85 40T35 183V339Q35 433 86 482T219 531Q259 531 292 520T349 487T386 428T399 343V238H139V181Q139 124 159 98T223 72Q293 72 302 150H399Q394 68 349 30T222 -8ZM139 313H297V346Q297
405 277 429T220 454Q182 454 161 428T139 343V313ZM213 590Q165 590 131 623T95 725H165Q171 671 213 671Q258 671 264 725H334Q333 691 323 666T297 624T259 599T213 590Z" />
<glyph unicode="&#x116;" glyph-name="Edotaccent" horiz-adv-x="421" d="M220 768Q194 768 176 785T158 829Q158 855 176 872T220 889Q246 889 264 872T282 829Q282 803 264 786T220 768ZM54 715H388V626H167V419H347V333H167V89H402V0H54V715Z" />
<glyph unicode="&#x117;" glyph-name="edotaccent" horiz-adv-x="429" d="M222 -8Q134 -8 85 40T35 183V339Q35 433 86 482T219 531Q259 531 292 520T349 487T386 428T399 343V238H139V181Q139 124 159 98T223 72Q293 72 302 150H399Q394 68 349 30T222 -8ZM139
313H297V346Q297 405 277 429T220 454Q182 454 161 428T139 343V313ZM217 594Q191 594 173 612T155 656Q155 681 173 698T217 716Q243 716 261 699T279 656Q279 630 261 612T217 594Z" />
<glyph unicode="&#x118;" glyph-name="Eogonek" horiz-adv-x="421" d="M54 715H388V626H167V419H347V333H167V89H402V0H359Q336 -21 325 -40T313 -80Q313 -111 343 -111Q362 -111 375 -104V-168Q365 -173 351 -176T316 -180Q274 -180 248 -160T221 -103Q221 -68
241 -43T289 0H54V715Z" />
<glyph unicode="&#x119;" glyph-name="eogonek" horiz-adv-x="436" d="M222 -8Q134 -8 85 40T35 183V339Q35 433 86 482T219 531Q259 531 292 520T349 487T386 428T399 343V238H139V181Q139 124 159 98T223 72Q293 72 302 150H399Q394 68 348 30Q324 9 289 0H340Q317
-21 306 -40T294 -80Q294 -111 324 -111Q343 -111 356 -104V-168Q346 -173 332 -176T297 -180Q255 -180 229 -160T202 -103Q202 -68 222 -42Q239 -21 261 -5Q243 -8 222 -8ZM139 313H297V346Q297 405 277 429T220 454Q182 454 161 428T139 343V313Z" />
<glyph unicode="&#x11a;" glyph-name="Ecaron" horiz-adv-x="421" d="M88 889H164L223 833L282 889H355L267 761H174L88 889ZM54 715H388V626H167V419H347V333H167V89H402V0H54V715Z" />
<glyph unicode="&#x11b;" glyph-name="ecaron" horiz-adv-x="429" d="M84 737H159L217 669L275 737H347L259 590H170L84 737ZM222 -8Q134 -8 85 40T35 183V339Q35 433 86 482T219 531Q259 531 292 520T349 487T386 428T399 343V238H139V181Q139 124 159 98T223
72Q293 72 302 150H399Q394 68 349 30T222 -8ZM139 313H297V346Q297 405 277 429T220 454Q182 454 161 428T139 343V313Z" />
<glyph unicode="&#x11c;" glyph-name="Gcircumflex" horiz-adv-x="547" d="M227 889H321L407 761H331L272 816L213 761H139L227 889ZM408 76Q363 -10 256 -10Q157 -10 101 54T44 233V482Q44 599 107 661T275 724Q319 724 357 714T424 680T470 617T491 521H380Q375
585 348 609T276 634Q215 634 188 596T160 482V233Q160 161 186 121T275 80Q336 80 362 113T388 216V285H286V369H498V0H408V76Z" />
<glyph unicode="&#x11d;" glyph-name="gcircumflex" horiz-adv-x="458" d="M177 737H266L352 590H278L220 658L162 590H89L177 737ZM222 -183Q132 -183 88 -145T38 -40H141Q147 -103 222 -103Q309 -103 309 -4V78Q294 46 263 25T187 4Q118 4 78 49T37 185V349Q37
439 80 485T194 531Q239 531 267 512T309 462V523H414V-4Q414 -97 363 -140T222 -183ZM219 84Q261 84 285 111T310 193V341Q310 450 222 450Q142 450 142 350V182Q142 128 162 106T219 84Z" />
<glyph unicode="&#x11e;" glyph-name="Gbreve" horiz-adv-x="547" d="M272 757Q221 757 187 788T150 880H223Q228 833 272 833Q319 833 325 880H397Q394 820 359 789T272 757ZM408 76Q363 -10 256 -10Q157 -10 101 54T44 233V482Q44 599 107 661T275 724Q319 724
357 714T424 680T470 617T491 521H380Q375 585 348 609T276 634Q215 634 188 596T160 482V233Q160 161 186 121T275 80Q336 80 362 113T388 216V285H286V369H498V0H408V76Z" />
<glyph unicode="&#x11f;" glyph-name="gbreve" horiz-adv-x="458" d="M222 -183Q132 -183 88 -145T38 -40H141Q147 -103 222 -103Q309 -103 309 -4V78Q294 46 263 25T187 4Q118 4 78 49T37 185V349Q37 439 80 485T194 531Q239 531 267 512T309 462V523H414V-4Q414
-97 363 -140T222 -183ZM219 84Q261 84 285 111T310 193V341Q310 450 222 450Q142 450 142 350V182Q142 128 162 106T219 84ZM220 590Q172 590 138 623T102 725H172Q178 671 220 671Q265 671 271 725H341Q340 691 330 666T304 624T266 599T220 590Z" />
<glyph unicode="&#x120;" glyph-name="Gdotaccent" horiz-adv-x="547" d="M273 768Q247 768 229 785T211 829Q211 855 229 872T273 889Q299 889 317 872T335 829Q335 803 317 786T273 768ZM408 76Q363 -10 256 -10Q157 -10 101 54T44 233V482Q44 599 107 661T275
724Q319 724 357 714T424 680T470 617T491 521H380Q375 585 348 609T276 634Q215 634 188 596T160 482V233Q160 161 186 121T275 80Q336 80 362 113T388 216V285H286V369H498V0H408V76Z" />
<glyph unicode="&#x121;" glyph-name="gdotaccent" horiz-adv-x="458" d="M222 -183Q132 -183 88 -145T38 -40H141Q147 -103 222 -103Q309 -103 309 -4V78Q294 46 263 25T187 4Q118 4 78 49T37 185V349Q37 439 80 485T194 531Q239 531 267 512T309 462V523H414V-4Q414
-97 363 -140T222 -183ZM219 84Q261 84 285 111T310 193V341Q310 450 222 450Q142 450 142 350V182Q142 128 162 106T219 84ZM221 594Q195 594 177 612T159 656Q159 681 177 698T221 716Q247 716 265 699T283 656Q283 630 265 612T221 594Z" />
<glyph unicode="&#x122;" glyph-name="Gcommaaccent" horiz-adv-x="547" d="M199 -181L235 -36L334 -48L262 -200L199 -181ZM408 76Q363 -10 256 -10Q157 -10 101 54T44 233V482Q44 599 107 661T275 724Q319 724 357 714T424 680T470 617T491 521H380Q375 585
348 609T276 634Q215 634 188 596T160 482V233Q160 161 186 121T275 80Q336 80 362 113T388 216V285H286V369H498V0H408V76Z" />
<glyph unicode="&#x123;" glyph-name="gcommaaccent" horiz-adv-x="458" d="M171 604L243 755L306 736L270 592L171 604ZM222 -183Q132 -183 88 -145T38 -40H141Q147 -103 222 -103Q309 -103 309 -4V78Q294 46 263 25T187 4Q118 4 78 49T37 185V349Q37 439 80
485T194 531Q239 531 267 512T309 462V523H414V-4Q414 -97 363 -140T222 -183ZM219 84Q261 84 285 111T310 193V341Q310 450 222 450Q142 450 142 350V182Q142 128 162 106T219 84Z" />
<glyph unicode="&#x124;" glyph-name="Hcircumflex" horiz-adv-x="530" d="M54 715H167V408H362V715H474V0H362V316H167V0H54V715ZM219 889H313L399 761H323L264 816L205 761H131L219 889Z" />
<glyph unicode="&#x125;" glyph-name="hcircumflex" horiz-adv-x="445" d="M47 752H152V457Q166 489 196 510T273 531Q332 531 366 494T400 378V0H296V369Q296 446 231 446Q196 446 174 425T152 362V0H47V752ZM184 925H278L364 797H288L229 852L170 797H96L184 925Z" />
<glyph unicode="&#x126;" glyph-name="Hbar" horiz-adv-x="536" d="M7 582H56V715H169V582H364V715H476V582H532V510H476V0H364V316H169V0H56V510H7V582ZM364 408V510H169V408H364Z" />
<glyph unicode="&#x127;" glyph-name="hbar" horiz-adv-x="451" d="M-3 663H48V752H153V663H277V597H153V457Q167 489 197 510T274 531Q333 531 367 494T401 378V0H297V369Q297 446 232 446Q197 446 175 425T153 362V0H48V597H-3V663Z" />
<glyph unicode="&#x128;" glyph-name="Itilde" horiz-adv-x="231" d="M59 715H171V0H59V715ZM422 764Q407 764 394 769T368 779T346 790T327 795Q316 795 309 786T298 761H233Q238 818 262 847T321 877Q337 877 350 872T376 862T398 851T418 846Q429 846 436 855T446
879H511Q506 822 482 793T422 764Z" />
<glyph unicode="&#x129;" glyph-name="itilde" horiz-adv-x="203" d="M49 523H153V0H49V523ZM406 596Q391 596 378 601T354 613T334 624T315 630Q304 630 297 621T287 594H224Q228 653 251 683T309 714Q324 714 337 709T361 697T382 686T401 680Q412 680 419 690T430
716H493Q488 658 464 627T406 596Z" />
<glyph unicode="&#x12a;" glyph-name="Imacron" horiz-adv-x="231" d="M59 715H171V0H59V715ZM249 848H493V773H249V848Z" />
<glyph unicode="&#x12b;" glyph-name="imacron" horiz-adv-x="203" d="M11 686H192V613H11V686ZM49 523H153V0H49V523Z" />
<glyph unicode="&#x12c;" glyph-name="Ibreve" horiz-adv-x="231" d="M59 715H171V0H59V715ZM371 757Q320 757 286 788T249 880H322Q327 833 371 833Q418 833 424 880H496Q493 820 458 789T371 757Z" />
<glyph unicode="&#x12d;" glyph-name="ibreve" horiz-adv-x="203" d="M49 523H153V0H49V523ZM357 590Q309 590 275 623T239 725H309Q315 671 357 671Q402 671 408 725H478Q477 691 467 666T441 624T403 599T357 590Z" />
<glyph unicode="&#x12e;" glyph-name="Iogonek" horiz-adv-x="233" d="M124 -180Q82 -180 56 -160T29 -103Q29 -68 49 -43T97 0H59V715H171V0H167Q144 -21 133 -40T121 -80Q121 -111 151 -111Q170 -111 183 -104V-168Q173 -173 159 -176T124 -180Z" />
<glyph unicode="&#x12f;" glyph-name="iogonek" horiz-adv-x="205" d="M107 -180Q65 -180 39 -160T12 -103Q12 -68 32 -43T80 0H49V523H153V0H150Q127 -21 116 -40T104 -80Q104 -111 134 -111Q153 -111 166 -104V-168Q156 -173 142 -176T107 -180ZM101 594Q73
594 56 611T39 655Q39 681 56 698T101 716Q127 716 145 699T164 655Q164 629 146 612T101 594Z" />
<glyph unicode="&#x130;" glyph-name="Idotaccent" horiz-adv-x="231" d="M59 715H171V0H59V715ZM371 768Q345 768 327 785T309 829Q309 855 327 872T371 889Q397 889 415 872T433 829Q433 803 415 786T371 768Z" />
<glyph unicode="&#x131;" glyph-name="dotlessi" horiz-adv-x="202" d="M49 523H153V0H49V523Z" />
<glyph unicode="&#x132;" glyph-name="IJ" horiz-adv-x="538" d="M59 715H174V0H59V715ZM314 -6Q284 -6 265 -2T233 10V98Q245 93 259 91T296 88Q332 88 352 107T373 178V715H488V174Q488 126 475 92T439 36T384 4T314 -6Z" />
<glyph unicode="&#x133;" glyph-name="ij" horiz-adv-x="410" d="M49 523H153V0H49V523ZM101 594Q73 594 56 611T39 655Q39 681 56 698T101 716Q127 716 145 699T164 655Q164 629 146 612T101 594ZM187 -97Q223 -92 238 -76T254 -28V523H358V-28Q358 -63 350 -90T321
-137T268 -167T187 -179V-97ZM306 594Q278 594 261 611T244 655Q244 681 261 698T306 716Q332 716 350 699T369 655Q369 629 351 612T306 594Z" />
<glyph unicode="&#x134;" glyph-name="Jcircumflex" horiz-adv-x="433" d="M277 889H371L457 761H381L322 816L263 761H189L277 889ZM204 -10Q110 -10 66 35T21 175V210H130V177Q130 126 146 104T202 81Q242 81 255 107T269 184V715H382V183Q382 94 340 42T204 -10Z" />
<glyph unicode="&#x135;" glyph-name="jcircumflex" horiz-adv-x="203" d="M-17 -100Q18 -96 33 -80T49 -30V523H154V-30Q154 -100 116 -139T-17 -181V-100ZM314 737H403L489 590H415L357 658L299 590H226L314 737Z" />
<glyph unicode="&#x136;" glyph-name="Kcommaaccent" horiz-adv-x="487" d="M173 -181L209 -36L308 -48L236 -200L173 -181ZM353 0L167 349V0H54V715H167V393L351 715H467L272 382L477 0H353Z" />
<glyph unicode="&#x137;" glyph-name="kcommaaccent" horiz-adv-x="410" d="M133 -181L169 -36L268 -48L196 -200L133 -181ZM47 752H152V291L291 523H398L250 282L407 0H292L152 256V0H47V752Z" />
<glyph unicode="&#x139;" glyph-name="Lacute" horiz-adv-x="402" d="M364 889H484L401 761H321L364 889ZM54 715H167V90H382V0H54V715Z" />
<glyph unicode="&#x13a;" glyph-name="lacute" horiz-adv-x="206" d="M357 925H477L394 797H314L357 925ZM50 752H156V0H50V752Z" />
<glyph unicode="&#x13b;" glyph-name="Lcommaaccent" horiz-adv-x="402" d="M135 -181L171 -36L270 -48L198 -200L135 -181ZM54 715H167V90H382V0H54V715Z" />
<glyph unicode="&#x13c;" glyph-name="lcommaaccent" horiz-adv-x="206" d="M278 -181L314 -36L413 -48L341 -200L278 -181ZM50 752H156V0H50V752Z" />
<glyph unicode="&#x13d;" glyph-name="Lcaron" horiz-adv-x="413" d="M230 715H326L286 559H223L230 715ZM54 715H167V90H382V0H54V715Z" />
<glyph unicode="&#x13e;" glyph-name="lcaron" horiz-adv-x="206" d="M194 752H289L249 597H187L194 752ZM50 752H156V0H50V752Z" />
<glyph unicode="&#x13f;" glyph-name="Ldot" horiz-adv-x="421" d="M323 306Q295 306 276 325T256 373Q256 401 275 420T323 439Q352 439 371 420T391 373Q391 344 372 325T323 306ZM54 715H167V90H382V0H54V715Z" />
<glyph unicode="&#x140;" glyph-name="ldot" horiz-adv-x="315" d="M260 309Q233 309 214 328T194 374Q194 402 213 420T260 439Q288 439 307 421T327 374Q327 347 308 328T260 309ZM50 752H156V0H50V752Z" />
<glyph unicode="&#x141;" glyph-name="Lslash" horiz-adv-x="426" d="M20 322L67 342V715H180V392L316 452V373L180 313V90H395V0H67V263L20 243V322Z" />
<glyph unicode="&#x142;" glyph-name="lslash" horiz-adv-x="217" d="M8 399L60 429V752H166V490L224 523V443L166 410V0H60V349L8 319V399Z" />
<glyph unicode="&#x143;" glyph-name="Nacute" horiz-adv-x="528" d="M269 889H389L306 761H226L269 889ZM54 715H185L376 224V715H476V0H362L154 538V0H54V715Z" />
<glyph unicode="&#x144;" glyph-name="nacute" horiz-adv-x="445" d="M226 738H346L258 590H179L226 738ZM47 523H152V457Q166 489 196 510T273 531Q332 531 366 494T400 378V0H296V369Q296 446 231 446Q196 446 174 425T152 362V0H47V523Z" />
<glyph unicode="&#x145;" glyph-name="Ncommaaccent" horiz-adv-x="528" d="M179 -181L215 -36L314 -48L242 -200L179 -181ZM54 715H185L376 224V715H476V0H362L154 538V0H54V715Z" />
<glyph unicode="&#x146;" glyph-name="ncommaaccent" horiz-adv-x="445" d="M141 -181L177 -36L276 -48L204 -200L141 -181ZM47 523H152V457Q166 489 196 510T273 531Q332 531 366 494T400 378V0H296V369Q296 446 231 446Q196 446 174 425T152 362V0H47V523Z" />
<glyph unicode="&#x147;" glyph-name="Ncaron" horiz-adv-x="528" d="M139 889H215L274 833L333 889H406L318 761H225L139 889ZM54 715H185L376 224V715H476V0H362L154 538V0H54V715Z" />
<glyph unicode="&#x148;" glyph-name="ncaron" horiz-adv-x="445" d="M90 737H165L223 669L281 737H353L265 590H176L90 737ZM47 523H152V457Q166 489 196 510T273 531Q332 531 366 494T400 378V0H296V369Q296 446 231 446Q196 446 174 425T152 362V0H47V523Z" />
<glyph unicode="&#x149;" glyph-name="napostrophe" horiz-adv-x="478" d="M216 525L276 724L377 692L281 501L216 525ZM77 523H182V457Q196 489 226 510T303 531Q362 531 396 494T430 378V0H326V369Q326 446 261 446Q226 446 204 425T182 362V0H77V523Z" />
<glyph unicode="&#x14a;" glyph-name="Eng" horiz-adv-x="536" d="M320 -160Q291 -160 272 -156T240 -144V-60Q252 -65 265 -68T302 -71Q331 -71 350 -57T375 -8L157 538V0H55V715H188L380 236V715H481V9Q481 -80 438 -120T320 -160Z" />
<glyph unicode="&#x14b;" glyph-name="eng" horiz-adv-x="449" d="M237 -99Q270 -95 284 -79T299 -30V367Q299 408 284 426T233 445Q198 445 176 424T154 360V0H48V523H154V457Q168 489 198 510T276 532Q335 532 369 495T404 377V-30Q404 -100 367 -139T237 -181V-99Z" />
<glyph unicode="&#x14c;" glyph-name="Omacron" horiz-adv-x="557" d="M157 848H401V773H157V848ZM280 -10Q226 -10 183 6T110 54T63 130T46 233V481Q46 539 63 584T110 661T184 708T279 724Q331 724 374 708T447 662T494 586T511 483V236Q511 118 449 54T280
-10ZM279 81Q338 81 366 121T395 234V481Q395 552 367 593T279 634Q219 634 191 595T162 482V234Q162 159 190 120T279 81Z" />
<glyph unicode="&#x14d;" glyph-name="omacron" horiz-adv-x="447" d="M107 686H339V613H107V686ZM222 -8Q181 -8 147 4T87 41T49 100T35 182V339Q35 386 49 422T88 482T147 518T223 531Q265 531 299 519T359 483T398 424T412 341V184Q412 89 359 41T222 -8ZM223
74Q307 74 307 181V341Q307 450 223 450Q140 450 140 342V181Q140 74 223 74Z" />
<glyph unicode="&#x14e;" glyph-name="Obreve" horiz-adv-x="557" d="M278 757Q227 757 193 788T156 880H229Q234 833 278 833Q325 833 331 880H403Q400 820 365 789T278 757ZM280 -10Q226 -10 183 6T110 54T63 130T46 233V481Q46 539 63 584T110 661T184 708T279
724Q331 724 374 708T447 662T494 586T511 483V236Q511 118 449 54T280 -10ZM279 81Q338 81 366 121T395 234V481Q395 552 367 593T279 634Q219 634 191 595T162 482V234Q162 159 190 120T279 81Z" />
<glyph unicode="&#x14f;" glyph-name="obreve" horiz-adv-x="447" d="M222 -8Q181 -8 147 4T87 41T49 100T35 182V339Q35 386 49 422T88 482T147 518T223 531Q265 531 299 519T359 483T398 424T412 341V184Q412 89 359 41T222 -8ZM223 74Q307 74 307 181V341Q307
450 223 450Q140 450 140 342V181Q140 74 223 74ZM222 590Q174 590 140 623T104 725H174Q180 671 222 671Q267 671 273 725H343Q342 691 332 666T306 624T268 599T222 590Z" />
<glyph unicode="&#x150;" glyph-name="Ohungarumlaut" horiz-adv-x="557" d="M194 889H298L239 761H166L194 889ZM337 889H441L382 761H308L337 889ZM280 -10Q226 -10 183 6T110 54T63 130T46 233V481Q46 539 63 584T110 661T184 708T279 724Q331 724 374 708T447
662T494 586T511 483V236Q511 118 449 54T280 -10ZM279 81Q338 81 366 121T395 234V481Q395 552 367 593T279 634Q219 634 191 595T162 482V234Q162 159 190 120T279 81Z" />
<glyph unicode="&#x151;" glyph-name="ohungarumlaut" horiz-adv-x="447" d="M142 738H243L184 590H114L142 738ZM281 738H381L322 590H252L281 738ZM222 -8Q181 -8 147 4T87 41T49 100T35 182V339Q35 386 49 422T88 482T147 518T223 531Q265 531 299 519T359
483T398 424T412 341V184Q412 89 359 41T222 -8ZM223 74Q307 74 307 181V341Q307 450 223 450Q140 450 140 342V181Q140 74 223 74Z" />
<glyph unicode="&#x152;" glyph-name="OE" horiz-adv-x="695" d="M298 0Q172 0 105 63T37 254V457Q37 585 104 650T298 715H654V626H451V419H613V333H451V90H666V0H298ZM339 89V626H300Q222 626 188 585T154 457V255Q154 173 187 131T301 89H339Z" />
<glyph unicode="&#x153;" glyph-name="oe" horiz-adv-x="708" d="M501 -8Q399 -8 360 60Q315 -8 218 -8Q177 -8 143 5T84 43T45 104T31 187V335Q31 382 45 418T84 480T144 518T219 531Q318 531 362 459Q384 494 418 512T500 531Q538 531 570 520T625 487T661 428T674
343V240H415V181Q415 124 434 98T499 72Q569 72 577 151H675Q670 68 625 30T501 -8ZM224 74Q266 74 288 102T311 184V338Q311 393 289 421T224 450Q182 450 159 422T136 339V185Q136 131 158 103T224 74ZM415 311H573V346Q573 405 553 429T497 454Q459 454 437
428T415 343V311Z" />
<glyph unicode="&#x154;" glyph-name="Racute" horiz-adv-x="493" d="M232 889H352L269 761H189L232 889ZM347 348Q406 334 427 298T448 196V0H335V199Q335 254 317 278T244 302H167V0H55V715H249Q340 715 391 674T443 545V491Q443 428 418 395T347 348ZM242 382Q291
382 311 407T332 485V536Q332 588 309 608T241 628H167V382H242Z" />
<glyph unicode="&#x155;" glyph-name="racute" horiz-adv-x="301" d="M424 738H544L456 590H377L424 738ZM47 523H152V445Q170 488 200 507T279 528V426Q218 424 185 403T152 324V0H47V523Z" />
<glyph unicode="&#x156;" glyph-name="Rcommaaccent" horiz-adv-x="493" d="M171 -181L207 -36L306 -48L234 -200L171 -181ZM347 348Q406 334 427 298T448 196V0H335V199Q335 254 317 278T244 302H167V0H55V715H249Q340 715 391 674T443 545V491Q443 428 418 395T347
348ZM242 382Q291 382 311 407T332 485V536Q332 588 309 608T241 628H167V382H242Z" />
<glyph unicode="&#x157;" glyph-name="rcommaaccent" horiz-adv-x="301" d="M277 -181L313 -36L412 -48L340 -200L277 -181ZM47 523H152V445Q170 488 200 507T279 528V426Q218 424 185 403T152 324V0H47V523Z" />
<glyph unicode="&#x158;" glyph-name="Rcaron" horiz-adv-x="493" d="M102 889H178L237 833L296 889H369L281 761H188L102 889ZM347 348Q406 334 427 298T448 196V0H335V199Q335 254 317 278T244 302H167V0H55V715H249Q340 715 391 674T443 545V491Q443 428 418
395T347 348ZM242 382Q291 382 311 407T332 485V536Q332 588 309 608T241 628H167V382H242Z" />
<glyph unicode="&#x159;" glyph-name="rcaron" horiz-adv-x="301" d="M289 737H364L422 669L480 737H552L464 590H375L289 737ZM47 523H152V445Q170 488 200 507T279 528V426Q218 424 185 403T152 324V0H47V523Z" />
<glyph unicode="&#x15a;" glyph-name="Sacute" horiz-adv-x="460" d="M238 -10Q141 -10 88 41T33 199H142Q144 133 165 106T238 78Q276 78 298 103T321 179Q321 209 314 229T293 265T256 294T203 324Q164 344 135 365T85 411T55 469T44 544Q44 629 93 676T229
724Q316 724 366 680T419 537H313Q312 594 289 615T229 636Q153 636 153 552Q153 529 158 512T175 480T207 451T258 421Q297 401 329 381T383 335T418 274T431 188Q431 90 379 40T238 -10ZM222 889H342L259 761H179L222 889Z" />
<glyph unicode="&#x15b;" glyph-name="sacute" horiz-adv-x="380" d="M447 738H567L479 590H400L447 738ZM197 -8Q116 -8 72 33T27 152H126Q128 110 144 90T196 70Q229 70 243 86T258 135Q258 169 236 186T169 225Q136 240 111 256T69 291T44 335T35 392Q35 426
47 452T80 495T129 522T190 531Q260 531 304 497T349 382H251Q251 420 235 436T190 453Q133 453 133 398Q133 383 137 372T152 352T179 333T220 312Q250 298 275 284T320 250T349 205T360 143Q360 71 320 32T197 -8Z" />
<glyph unicode="&#x15c;" glyph-name="Scircumflex" horiz-adv-x="460" d="M180 889H274L360 761H284L225 816L166 761H92L180 889ZM238 -10Q141 -10 88 41T33 199H142Q144 133 165 106T238 78Q276 78 298 103T321 179Q321 209 314 229T293 265T256 294T203 324Q164
344 135 365T85 411T55 469T44 544Q44 629 93 676T229 724Q316 724 366 680T419 537H313Q312 594 289 615T229 636Q153 636 153 552Q153 529 158 512T175 480T207 451T258 421Q297 401 329 381T383 335T418 274T431 188Q431 90 379 40T238 -10Z" />
<glyph unicode="&#x15d;" glyph-name="scircumflex" horiz-adv-x="380" d="M399 737H488L574 590H500L442 658L384 590H311L399 737ZM197 -8Q116 -8 72 33T27 152H126Q128 110 144 90T196 70Q229 70 243 86T258 135Q258 169 236 186T169 225Q136 240 111 256T69
291T44 335T35 392Q35 426 47 452T80 495T129 522T190 531Q260 531 304 497T349 382H251Q251 420 235 436T190 453Q133 453 133 398Q133 383 137 372T152 352T179 333T220 312Q250 298 275 284T320 250T349 205T360 143Q360 71 320 32T197 -8Z" />
<glyph unicode="&#x15e;" glyph-name="Scedilla" horiz-adv-x="460" d="M216 -206Q171 -206 144 -184T112 -124H176Q178 -136 186 -145T211 -154Q226 -154 235 -145T244 -122Q244 -108 235 -100T212 -92Q202 -92 196 -95T185 -101L153 -70L190 -6Q127 3 87 41Q34
93 33 199H142Q144 133 165 106T238 78Q276 78 298 103T321 179Q321 209 314 229T293 265T256 294T203 324Q164 344 135 365T85 411T55 469T44 544Q44 629 93 676T229 724Q316 724 366 680T419 537H313Q312 594 289 615T229 636Q153 636 153 552Q153 529 158 512T175
480T207 451T258 421Q297 401 329 381T383 335T418 274T431 188Q431 90 378 40Q328 -8 245 -10L223 -46Q259 -42 286 -60T314 -122Q314 -164 287 -185T216 -206Z" />
<glyph unicode="&#x15f;" glyph-name="scedilla" horiz-adv-x="380" d="M179 -206Q134 -206 107 -184T75 -124H139Q141 -136 149 -145T174 -154Q189 -154 198 -145T207 -122Q207 -108 198 -100T175 -92Q165 -92 159 -95T148 -101L116 -70L154 -5Q103 3 71 33Q27
74 27 152H126Q128 110 144 90T196 70Q229 70 243 86T258 135Q258 169 236 186T169 225Q136 240 111 256T69 291T44 335T35 392Q35 426 47 452T80 495T129 522T190 531Q260 531 304 497T349 382H251Q251 420 235 436T190 453Q133 453 133 398Q133 383 137 372T152
352T179 333T220 312Q250 298 275 284T320 250T349 205T360 143Q360 71 319 31Q282 -5 209 -8L186 -46Q222 -42 249 -60T277 -122Q277 -164 250 -185T179 -206Z" />
<glyph unicode="&#x160;" glyph-name="Scaron" horiz-adv-x="460" d="M92 889H168L227 833L286 889H359L271 761H178L92 889ZM238 -10Q141 -10 88 41T33 199H142Q144 133 165 106T238 78Q276 78 298 103T321 179Q321 209 314 229T293 265T256 294T203 324Q164
344 135 365T85 411T55 469T44 544Q44 629 93 676T229 724Q316 724 366 680T419 537H313Q312 594 289 615T229 636Q153 636 153 552Q153 529 158 512T175 480T207 451T258 421Q297 401 329 381T383 335T418 274T431 188Q431 90 379 40T238 -10Z" />
<glyph unicode="&#x161;" glyph-name="scaron" horiz-adv-x="380" d="M310 737H385L443 669L501 737H573L485 590H396L310 737ZM197 -8Q116 -8 72 33T27 152H126Q128 110 144 90T196 70Q229 70 243 86T258 135Q258 169 236 186T169 225Q136 240 111 256T69 291T44
335T35 392Q35 426 47 452T80 495T129 522T190 531Q260 531 304 497T349 382H251Q251 420 235 436T190 453Q133 453 133 398Q133 383 137 372T152 352T179 333T220 312Q250 298 275 284T320 250T349 205T360 143Q360 71 320 32T197 -8Z" />
<glyph unicode="&#x162;" glyph-name="Tcommaaccent" horiz-adv-x="430" d="M134 -181L170 -36L269 -48L197 -200L134 -181ZM159 626H21V715H411V626H272L271 0H159V626Z" />
<glyph unicode="&#x163;" glyph-name="tcommaaccent" horiz-adv-x="287" d="M337 -181L373 -36L472 -48L400 -200L337 -181ZM174 630V523H261V443H174V136Q174 80 223 80Q250 80 263 85V4Q255 1 241 -1T206 -4Q134 -4 102 29T69 129V443H15V523H69V630H174Z" />
<glyph unicode="&#x164;" glyph-name="Tcaron" horiz-adv-x="430" d="M80 889H156L215 833L274 889H347L259 761H166L80 889ZM159 626H21V715H411V626H272L271 0H159V626Z" />
<glyph unicode="&#x165;" glyph-name="tcaron" horiz-adv-x="287" d="M222 752H317L277 597H215L222 752ZM174 630V523H261V443H174V136Q174 80 223 80Q250 80 263 85V4Q255 1 241 -1T206 -4Q134 -4 102 29T69 129V443H15V523H69V630H174Z" />
<glyph unicode="&#x166;" glyph-name="Tbar" horiz-adv-x="436" d="M59 434H159V626H21V715H411V626H272L271 434H377V353H271V0H159V353H59V434Z" />
<glyph unicode="&#x167;" glyph-name="tbar" horiz-adv-x="289" d="M16 353H69V443H15V523H69V630H174V523H261V443H174V353H263V289H174V136Q174 80 223 80Q250 80 263 85V4Q255 1 241 -1T206 -4Q134 -4 102 29T69 129V289H16V353Z" />
<glyph unicode="&#x168;" glyph-name="Utilde" horiz-adv-x="517" d="M480 715V204Q480 96 424 43T265 -10Q165 -10 108 42T51 201V715H165V205Q165 139 189 111T266 82Q314 82 340 111T366 210V715H480ZM308 764Q293 764 280 769T254 779T232 790T213 795Q202
795 195 786T184 761H119Q124 818 148 847T207 877Q223 877 236 872T262 862T284 851T304 846Q315 846 322 855T332 879H397Q392 822 368 793T308 764Z" />
<glyph unicode="&#x169;" glyph-name="utilde" horiz-adv-x="445" d="M396 0H292V65Q277 33 248 13T172 -8Q115 -8 80 28T44 143V523H149V153Q149 114 164 95T213 76Q247 76 269 97T292 160V523H396V0ZM269 596Q254 596 241 601T217 613T197 624T178 630Q167 630
160 621T150 594H87Q91 653 114 683T172 714Q187 714 200 709T224 697T245 686T264 680Q275 680 282 690T293 716H356Q351 658 327 627T269 596Z" />
<glyph unicode="&#x16a;" glyph-name="Umacron" horiz-adv-x="517" d="M480 715V204Q480 96 424 43T265 -10Q165 -10 108 42T51 201V715H165V205Q165 139 189 111T266 82Q314 82 340 111T366 210V715H480ZM136 848H380V773H136V848Z" />
<glyph unicode="&#x16b;" glyph-name="umacron" horiz-adv-x="445" d="M396 0H292V65Q277 33 248 13T172 -8Q115 -8 80 28T44 143V523H149V153Q149 114 164 95T213 76Q247 76 269 97T292 160V523H396V0ZM105 686H337V613H105V686Z" />
<glyph unicode="&#x16c;" glyph-name="Ubreve" horiz-adv-x="517" d="M480 715V204Q480 96 424 43T265 -10Q165 -10 108 42T51 201V715H165V205Q165 139 189 111T266 82Q314 82 340 111T366 210V715H480ZM257 757Q206 757 172 788T135 880H208Q213 833 257 833Q304
833 310 880H382Q379 820 344 789T257 757Z" />
<glyph unicode="&#x16d;" glyph-name="ubreve" horiz-adv-x="445" d="M396 0H292V65Q277 33 248 13T172 -8Q115 -8 80 28T44 143V523H149V153Q149 114 164 95T213 76Q247 76 269 97T292 160V523H396V0ZM220 590Q172 590 138 623T102 725H172Q178 671 220 671Q265
671 271 725H341Q340 691 330 666T304 624T266 599T220 590Z" />
<glyph unicode="&#x16e;" glyph-name="Uring" horiz-adv-x="517" d="M480 715V204Q480 96 424 43T265 -10Q165 -10 108 42T51 201V715H165V205Q165 139 189 111T266 82Q314 82 340 111T366 210V715H480ZM258 1037Q276 1037 287 1050T299 1083Q299 1102 288 1115T258
1128Q240 1128 229 1115T218 1083Q218 1063 229 1050T258 1037ZM258 990Q238 990 221 997T190 1017T170 1047T163 1083Q163 1121 190 1148T258 1175Q299 1175 326 1148T354 1083Q354 1064 347 1047T326 1018T296 998T258 990Z" />
<glyph unicode="&#x16f;" glyph-name="uring" horiz-adv-x="445" d="M220 876Q238 876 249 889T261 921Q261 940 250 953T220 966Q202 966 191 953T180 921Q180 902 191 889T220 876ZM220 828Q200 828 183 835T152 855T132 885T125 921Q125 940 132 957T152 986T182
1006T220 1014Q240 1014 257 1007T288 987T308 957T316 921Q316 902 309 885T288 856T258 836T220 828ZM396 0H292V65Q277 33 248 13T172 -8Q115 -8 80 28T44 143V523H149V153Q149 114 164 95T213 76Q247 76 269 97T292 160V523H396V0Z" />
<glyph unicode="&#x170;" glyph-name="Uhungarumlaut" horiz-adv-x="517" d="M174 889H278L219 761H146L174 889ZM317 889H421L362 761H288L317 889ZM480 715V204Q480 96 424 43T265 -10Q165 -10 108 42T51 201V715H165V205Q165 139 189 111T266 82Q314 82 340
111T366 210V715H480Z" />
<glyph unicode="&#x171;" glyph-name="uhungarumlaut" horiz-adv-x="445" d="M396 0H292V65Q277 33 248 13T172 -8Q115 -8 80 28T44 143V523H149V153Q149 114 164 95T213 76Q247 76 269 97T292 160V523H396V0ZM140 738H241L182 590H112L140 738ZM279 738H379L320
590H250L279 738Z" />
<glyph unicode="&#x172;" glyph-name="Uogonek" horiz-adv-x="537" d="M480 715V204Q480 96 424 43Q392 13 346 0H347Q324 -21 313 -40T301 -80Q301 -111 331 -111Q350 -111 363 -104V-168Q353 -173 339 -176T304 -180Q262 -180 236 -160T209 -103Q209 -68 229
-42Q244 -24 262 -10Q164 -9 108 42Q51 94 51 201V715H165V205Q165 139 189 111T266 82Q314 82 340 111T366 210V715H480Z" />
<glyph unicode="&#x173;" glyph-name="uogonek" horiz-adv-x="448" d="M396 0H393Q370 -21 359 -40T347 -80Q347 -111 377 -111Q396 -111 409 -104V-168Q399 -173 385 -176T350 -180Q308 -180 282 -160T255 -103Q255 -68 275 -43T323 0H292V65Q277 33 248 13T172
-8Q115 -8 80 28T44 143V523H149V153Q149 114 164 95T213 76Q247 76 269 97T292 160V523H396V0Z" />
<glyph unicode="&#x174;" glyph-name="Wcircumflex" horiz-adv-x="697" d="M303 889H397L483 761H407L348 816L289 761H215L303 889ZM20 715H133L210 202L311 715H389L493 199L572 715H675L556 0H447L351 476L250 0H139L20 715Z" />
<glyph unicode="&#x175;" glyph-name="wcircumflex" horiz-adv-x="618" d="M265 737H354L440 590H366L308 658L250 590H177L265 737ZM14 523H122L188 147L266 523H360L432 147L502 523H600L486 0H377L309 365L232 0H123L14 523Z" />
<glyph unicode="&#x176;" glyph-name="Ycircumflex" horiz-adv-x="466" d="M179 309L12 715H134L240 423L345 715H452L293 308V0H179V309ZM191 889H285L371 761H295L236 816L177 761H103L191 889Z" />
<glyph unicode="&#x177;" glyph-name="ycircumflex" horiz-adv-x="414" d="M216 187L305 523H407L199 -175H96L163 46L13 523H124L216 187ZM166 737H255L341 590H267L209 658L151 590H78L166 737Z" />
<glyph unicode="&#x178;" glyph-name="Ydieresis" horiz-adv-x="466" d="M179 309L12 715H134L240 423L345 715H452L293 308V0H179V309ZM151 769Q127 769 110 786T93 827Q93 852 110 868T151 885Q176 885 193 869T210 827Q210 803 193 786T151 769ZM323 769Q299
769 282 786T265 827Q265 852 282 868T323 885Q348 885 365 869T382 827Q382 803 365 786T323 769Z" />
<glyph unicode="&#x179;" glyph-name="Zacute" horiz-adv-x="435" d="M218 889H338L255 761H175L218 889ZM14 15L267 627H43V715H414V701L161 90H405V0H14V15Z" />
<glyph unicode="&#x17a;" glyph-name="zacute" horiz-adv-x="363" d="M450 738H570L482 590H403L450 738ZM15 12L213 440H36V523H351V509L153 84H342V0H15V12Z" />
<glyph unicode="&#x17b;" glyph-name="Zdotaccent" horiz-adv-x="435" d="M14 15L267 627H43V715H414V701L161 90H405V0H14V15ZM222 768Q196 768 178 785T160 829Q160 855 178 872T222 889Q248 889 266 872T284 829Q284 803 266 786T222 768Z" />
<glyph unicode="&#x17c;" glyph-name="zdotaccent" horiz-adv-x="363" d="M15 12L213 440H36V523H351V509L153 84H342V0H15V12ZM447 594Q421 594 403 612T385 656Q385 681 403 698T447 716Q473 716 491 699T509 656Q509 630 491 612T447 594Z" />
<glyph unicode="&#x17d;" glyph-name="Zcaron" horiz-adv-x="435" d="M88 889H164L223 833L282 889H355L267 761H174L88 889ZM14 15L267 627H43V715H414V701L161 90H405V0H14V15Z" />
<glyph unicode="&#x17e;" glyph-name="zcaron" horiz-adv-x="363" d="M314 737H389L447 669L505 737H577L489 590H400L314 737ZM15 12L213 440H36V523H351V509L153 84H342V0H15V12Z" />
<glyph unicode="&#x192;" glyph-name="florin" horiz-adv-x="335" d="M23 426H95L112 569Q122 648 163 683T276 719Q287 719 301 718T324 714V628Q319 630 308 631T286 632Q254 632 240 614T220 560L204 426H299V344H194L136 -155H28L86 344H23V426Z" />
<glyph unicode="&#x1fa;" glyph-name="Aringacute" horiz-adv-x="494" d="M328 168H156L124 0H19L167 715H328L476 0H361L328 168ZM172 252H312L242 621L172 252ZM248 1068H368L285 940H205L248 1068ZM249 1040Q267 1040 278 1053T290 1086Q290 1105 279 1118T249
1131Q231 1131 220 1118T209 1086Q209 1066 220 1053T249 1040ZM249 993Q229 993 212 1000T181 1020T161 1050T154 1086Q154 1124 181 1151T249 1178Q290 1178 317 1151T345 1086Q345 1067 338 1050T317 1021T287 1001T249 993Z" />
<glyph unicode="&#x1fb;" glyph-name="aringacute" horiz-adv-x="413" d="M166 -8Q106 -8 68 27T30 135V153Q30 236 79 270T215 305H274V366Q274 408 261 429T212 451Q179 451 164 433T147 381H46Q48 458 94 494T215 531Q294 531 336 492T379 368V0H275V51Q261
26 237 9T166 -8ZM196 67Q233 67 253 86T274 148V236H220Q175 236 155 218T134 155V141Q134 67 196 67ZM208 881Q226 881 237 894T249 926Q249 945 238 958T208 971Q190 971 179 958T168 926Q168 907 179 894T208 881ZM208 833Q188 833 171 840T140 860T120 890T113
926Q113 945 120 962T140 991T170 1011T208 1019Q228 1019 245 1012T276 992T296 962T304 926Q304 907 297 890T276 861T246 841T208 833ZM209 916H329L246 788H166L209 916Z" />
<glyph unicode="&#x1fc;" glyph-name="AEacute" horiz-adv-x="683" d="M416 889H536L453 761H373L416 889ZM224 715H643V626H435V419H602V333H435V90H654V0H322V171H170L122 0H16L224 715ZM193 253H322V626H298L193 253Z" />
<glyph unicode="&#x1fd;" glyph-name="aeacute" horiz-adv-x="655" d="M333 738H453L365 590H286L333 738ZM453 -8Q353 -8 313 65Q291 29 258 11T173 -8Q106 -8 69 28T31 138V156Q31 237 79 273T212 310H269V371Q269 413 256 432T209 451Q177 451 162 435T144
381H44Q47 460 91 495T208 531Q298 531 328 476Q371 531 452 531Q489 531 521 521T576 487T613 427T627 337V243H371V187Q371 131 390 102T454 72Q523 72 529 151H627Q621 68 577 30T453 -8ZM190 68Q225 68 247 87T269 148V242H218Q174 242 154 223T134 161V141Q134
68 190 68ZM371 310H525V354Q523 410 505 432T451 454Q371 454 371 335V310Z" />
<glyph unicode="&#x1fe;" glyph-name="Oslashacute" horiz-adv-x="557" d="M21 5L75 91Q37 152 37 238V476Q37 534 55 580T105 658T181 707T279 724Q379 724 442 670L482 732L527 702L480 628Q500 599 510 561T521 478V241Q521 183 504 137T455 58T378 8T279 -10Q228
-10 186 5T112 48L65 -25L21 5ZM280 82Q340 82 373 124T407 241V492Q407 497 407 501T406 511L170 140Q204 82 280 82ZM151 211L385 580Q369 606 343 620T279 634Q217 634 184 593T151 477V211ZM274 889H394L311 761H231L274 889Z" />
<glyph unicode="&#x1ff;" glyph-name="oslashacute" horiz-adv-x="447" d="M19 1L64 68Q48 91 40 121T31 187V335Q31 382 45 418T85 480T146 518T224 531Q298 531 347 493L382 545L426 518L384 455Q400 432 408 402T417 336V189Q417 142 403 105T363 43T301 5T223
-8Q151 -8 100 29L63 -27L19 1ZM134 173L296 416Q273 452 224 452Q182 452 158 423T134 340V173ZM224 73Q266 73 289 101T313 184V348L152 106Q174 73 224 73ZM226 738H346L258 590H179L226 738Z" />
<glyph unicode="&#x218;" glyph-name="Scommaaccent" horiz-adv-x="460" d="M142 -181L178 -36L277 -48L205 -200L142 -181ZM238 -10Q141 -10 88 41T33 199H142Q144 133 165 106T238 78Q276 78 298 103T321 179Q321 209 314 229T293 265T256 294T203 324Q164 344
135 365T85 411T55 469T44 544Q44 629 93 676T229 724Q316 724 366 680T419 537H313Q312 594 289 615T229 636Q153 636 153 552Q153 529 158 512T175 480T207 451T258 421Q297 401 329 381T383 335T418 274T431 188Q431 90 379 40T238 -10Z" />
<glyph unicode="&#x219;" glyph-name="scommaaccent" horiz-adv-x="379" d="M361 -181L397 -36L496 -48L424 -200L361 -181ZM197 -8Q116 -8 72 33T27 152H126Q128 110 144 90T196 70Q229 70 243 86T258 135Q258 169 236 186T169 225Q136 240 111 256T69 291T44
335T35 392Q35 426 47 452T80 495T129 522T190 531Q260 531 304 497T349 382H251Q251 420 235 436T190 453Q133 453 133 398Q133 383 137 372T152 352T179 333T220 312Q250 298 275 284T320 250T349 205T360 143Q360 71 320 32T197 -8Z" />
<glyph unicode="&#x21a;" glyph-name="uni021A" horiz-adv-x="430" d="M134 -181L170 -36L269 -48L197 -200L134 -181ZM159 626H21V715H411V626H272L271 0H159V626Z" />
<glyph unicode="&#x21b;" glyph-name="uni021B" horiz-adv-x="287" d="M337 -181L373 -36L472 -48L400 -200L337 -181ZM174 630V523H261V443H174V136Q174 80 223 80Q250 80 263 85V4Q255 1 241 -1T206 -4Q134 -4 102 29T69 129V443H15V523H69V630H174Z" />
<glyph unicode="&#x237;" glyph-name="uni0237" horiz-adv-x="203" d="M-17 -100Q18 -96 33 -80T49 -30V523H154V-30Q154 -100 116 -139T-17 -181V-100Z" />
<glyph unicode="&#x2c6;" glyph-name="circumflex" horiz-adv-x="400" d="M156 737H245L331 590H257L199 658L141 590H68L156 737Z" />
<glyph unicode="&#x2c7;" glyph-name="caron" horiz-adv-x="400" d="M68 737H143L201 669L259 737H331L243 590H154L68 737Z" />
<glyph unicode="&#x2d8;" glyph-name="breve" horiz-adv-x="400" d="M199 590Q151 590 117 623T81 725H151Q157 671 199 671Q244 671 250 725H320Q319 691 309 666T283 624T245 599T199 590Z" />
<glyph unicode="&#x2d9;" glyph-name="dotaccent" horiz-adv-x="400" d="M200 594Q174 594 156 612T138 656Q138 681 156 698T200 716Q226 716 244 699T262 656Q262 630 244 612T200 594Z" />
<glyph unicode="&#x2da;" glyph-name="ring" horiz-adv-x="400" d="M200 632Q218 632 229 645T241 677Q241 696 230 709T200 722Q182 722 171 709T160 677Q160 658 171 645T200 632ZM200 584Q180 584 163 591T132 611T112 641T105 677Q105 696 112 713T132 742T162
762T200 770Q220 770 237 763T268 743T288 713T296 677Q296 658 289 641T268 612T238 592T200 584Z" />
<glyph unicode="&#x2db;" glyph-name="ogonek" horiz-adv-x="400" d="M229 -180Q187 -180 161 -160T134 -103Q134 -68 154 -43T202 0H272Q249 -21 238 -40T226 -80Q226 -111 256 -111Q275 -111 288 -104V-168Q278 -173 264 -176T229 -180Z" />
<glyph unicode="&#x2dc;" glyph-name="tilde" horiz-adv-x="400" d="M248 596Q233 596 220 601T196 613T176 624T157 630Q146 630 139 621T129 594H66Q70 653 93 683T151 714Q166 714 179 709T203 697T224 686T243 680Q254 680 261 690T272 716H335Q330 658 306
627T248 596Z" />
<glyph unicode="&#x2dd;" glyph-name="hungarumlaut" horiz-adv-x="400" d="M122 738H223L164 590H94L122 738ZM261 738H361L302 590H232L261 738Z" />
</font>
</defs>
</svg>
