<?xml version="1.0" encoding="UTF-8" standalone="no"?>
<svg width="35px" height="36px" viewBox="0 0 35 36" version="1.1" xmlns="http://www.w3.org/2000/svg" xmlns:xlink="http://www.w3.org/1999/xlink">
    <!-- Generator: Sketch 42 (36781) - http://www.bohemiancoding.com/sketch -->
    <title>Arthropod</title>
    <desc>Created with Sketch.</desc>
    <defs></defs>
    <g id="Team-Page" stroke="none" stroke-width="1" fill="none" fill-rule="evenodd">
        <g id="Slack-Channel-V2" transform="translate(-864.000000, -458.000000)" fill="#FFFFFF">
            <g id="Medium" transform="translate(811.000000, 294.000000)">
                <path d="M80.8477411,182.808227 L75.1929289,179.308242 C75.25012,178.907922 75.2890048,178.500738 75.2890048,178.079799 C75.2890048,177.937969 75.2844312,177.798428 75.2775678,177.656598 C75.4674357,177.656598 75.5749487,177.610844 75.6527242,177.535358 L78.2651395,175.016759 L81.6758764,174.252707 C81.7719523,174.232123 81.8199962,174.209249 81.8611707,174.181795 L85.1964219,171.93772 C85.397727,171.802753 85.4503386,171.528246 85.315372,171.329208 C85.1804054,171.127903 84.9058985,171.075291 84.7068598,171.210258 L81.4699919,173.390325 L77.793913,173.589341 C77.604045,173.598488 77.4370511,173.696854 77.3318279,173.8364 L75.1837933,176.716453 C75.0785642,176.043933 74.8932757,175.412523 74.6462166,174.836102 L76.6386533,173.138757 C76.77362,173.02438 76.8468218,172.86425 76.8559691,172.701836 L77.1602135,167.005831 L80.2049412,164.882978 L84.3660262,164.896699 C84.6085058,164.896699 84.8052372,164.702257 84.8075269,164.459778 C84.8075269,164.217298 84.6130853,164.020567 84.3706057,164.018277 L80.0723112,164.002266 C79.9785192,164.002266 79.8915964,164.032004 79.8206784,164.082332 L76.4854273,166.406519 C76.3847718,166.477431 76.3230129,166.58266 76.3047124,166.694753 L75.4034398,172.276404 L74.0972263,173.790745 C73.8684735,173.438463 73.6099773,173.120509 73.328607,172.841405 L74.0080372,172.473106 C74.2482329,172.342713 74.3671829,172.07736 74.3214347,171.821141 L73.5802808,167.740151 L74.5753572,165.447997 C74.6325425,165.21238 74.4884286,164.974475 74.2528124,164.917283 C74.0171962,164.860092 73.7792902,165.004212 73.7220991,165.239828 L72.7041251,167.621172 C72.694972,167.662352 72.6903983,167.705811 72.6926881,167.746985 L72.9351677,171.567237 L72.4707928,171.910372 C72.290078,170.933566 71.9057684,170.256479 71.4573866,170.256479 C71.06164,170.256479 70.7185166,170.784902 70.5171823,171.576396 C70.2609759,170.784879 69.9178408,170.256479 69.5220766,170.256479 C69.0760022,170.256479 68.6962428,170.926715 68.5132382,171.8921 L68.076317,171.569556 L68.3165127,167.781331 C68.3210922,167.70813 68.3165127,167.666955 68.3073654,167.623491 L67.2893914,165.242147 C67.2322003,165.006531 66.9942943,164.862411 66.7586781,164.919602 C66.5230619,164.976794 66.3789422,165.214699 66.4361333,165.450316 L67.4312097,167.74247 L66.6923397,171.812023 C66.6443017,172.077383 66.7632518,172.342737 67.0034475,172.473141 L67.662264,172.830003 C67.3831835,173.1068 67.1246873,173.420186 66.8959287,173.770208 L65.605761,172.274138 L64.7090678,166.71765 C64.6861937,166.580394 64.6244289,166.475171 64.5237793,166.404253 L61.1885282,164.080065 C61.1176161,164.029738 61.0306875,164 60.9368954,164 L56.6386009,164.016011 C56.3961213,164.016011 56.1993899,164.215026 56.2016797,164.457511 C56.2016797,164.699991 56.400695,164.896722 56.6431804,164.894433 L60.8019815,164.880712 L63.8467092,167.003565 L64.1486639,172.683559 C64.1578112,172.861984 64.231013,173.022114 64.3659796,173.136491 L66.3378613,174.815565 C66.0908022,175.387453 65.9055137,176.01426 65.7979949,176.682212 L63.6728578,173.836476 C63.5676287,173.696935 63.4006407,173.59857 63.2107727,173.589417 L59.5346938,173.390401 L56.2978259,171.210334 C56.0965209,171.075367 55.8243037,171.127985 55.6893137,171.329284 C55.5543471,171.530589 55.6069587,171.802806 55.8082638,171.937796 L59.1435149,174.181871 C59.1846895,174.209325 59.2327275,174.232199 59.2853449,174.243636 L62.7395462,175.016835 L65.3222239,177.507981 C65.4297369,177.610926 65.534966,177.656674 65.6516322,177.656674 C65.6882331,177.796215 65.6836595,177.935755 65.6836595,178.079875 C65.6836595,178.507649 65.724834,178.921696 65.7820251,179.32659 L60.1546196,182.810528 L53.3696876,183.903988 C53.1477923,183.940589 52.9830882,184.141894 53.0013887,184.372937 C53.0196891,184.615416 53.2324312,184.796137 53.4749108,184.777837 L60.4999449,184.231113 C60.6074579,184.221959 60.7195504,184.185358 60.8133424,184.116736 L66.0061106,180.39714 C66.2165688,181.140578 66.5253868,181.81544 66.909714,182.398771 C66.5917428,182.755633 66.2737951,183.112518 65.962658,183.473901 C65.0590546,184.51243 64.1829165,185.573857 63.3091208,186.639851 C63.2770936,186.678742 63.2450663,186.72678 63.2221922,186.774818 C62.2133538,188.819901 61.204574,190.864985 60.2369044,192.930799 L58.7865711,196.030457 C58.3221962,197.073554 57.8395151,198.107576 57.3911685,199.157524 C57.3042398,199.361119 57.3820153,199.601309 57.5764628,199.711112 C57.786921,199.832351 58.0568484,199.75915 58.1757808,199.548697 C58.7430951,198.555905 59.2760922,197.54935 59.8273899,196.549704 L61.4241268,193.523248 C62.4741339,191.528527 63.4851976,189.513134 64.4963199,187.500201 C65.3427087,186.44791 66.1822459,185.393335 66.9966017,184.315921 C67.2367974,184.002524 67.4678399,183.68457 67.7034386,183.366581 C67.8155311,183.474094 67.9276177,183.586187 68.0465736,183.682263 C68.0808848,187.079296 69.1583045,189.803693 70.4874155,189.803693 C71.8141841,189.803693 72.8916565,187.076954 72.9282574,183.682263 C73.0540709,183.581607 73.170737,183.464947 73.2896929,183.350565 C73.5275989,183.67311 73.7655048,183.997962 74.0080079,184.315892 C74.8223636,185.393306 75.6641847,186.447881 76.5082897,187.500172 C77.517128,189.515506 78.5281918,191.528556 79.5781988,193.523218 L81.1749358,196.549675 C81.7262393,197.549321 82.2592599,198.558159 82.8265448,199.548668 C82.9477846,199.759126 83.2154281,199.832328 83.4258628,199.711082 C83.6225942,199.59899 83.69808,199.3588 83.6111572,199.157495 C83.1627989,198.107488 82.680147,197.073525 82.2157546,196.030428 L80.7654213,192.93077 C79.7978102,190.865131 78.7889718,188.820048 77.7801334,186.774788 C77.7572593,186.72675 77.7252321,186.678712 77.6932048,186.639822 C76.8216345,185.573827 75.9454964,184.512401 75.0396677,183.473872 C74.7239862,183.105573 74.3991223,182.744137 74.0743404,182.380412 C74.4563603,181.797087 74.7606223,181.122278 74.9710336,180.381065 L80.184351,184.116642 C80.2827167,184.18756 80.3948033,184.224161 80.5023222,184.233309 L87.5273557,184.780033 C87.7698353,184.798333 87.9802935,184.617618 87.9985939,184.375133 C88.0168944,184.139517 87.85448,183.938212 87.6325848,183.901611 L80.8477411,182.808227 Z" id="Arthropod"></path>
            </g>
        </g>
    </g>
</svg>