<?xml version="1.0" encoding="UTF-8" standalone="no"?>
<svg width="40px" height="30px" viewBox="0 0 40 30" version="1.1" xmlns="http://www.w3.org/2000/svg" xmlns:xlink="http://www.w3.org/1999/xlink">
    <!-- Generator: Sketch 42 (36781) - http://www.bohemiancoding.com/sketch -->
    <title>Page 1</title>
    <desc>Created with Sketch.</desc>
    <defs></defs>
    <g id="Team-Page" stroke="none" stroke-width="1" fill="none" fill-rule="evenodd">
        <g id="Slack-Channel-V2" transform="translate(-938.000000, -2649.000000)" fill="#FFFFFF">
            <g id="Large-Copy-4" transform="translate(640.000000, 2372.000000)">
                <path d="M323.649233,294.456614 C323.565828,294.515486 323.477516,294.544927 323.382665,294.544927 L310.315884,293.079618 C310.257012,293.079618 310.196499,293.058359 310.137627,293.012566 C310.090201,292.96841 310.049315,292.916077 310.013335,292.857205 L305.924874,285.241371 C305.877448,285.138343 305.859459,285.033678 305.870905,284.930646 C305.870905,284.827618 305.900341,284.737669 305.959217,284.664077 C306.018093,284.590485 306.094954,284.538153 306.189806,284.508717 C306.273211,284.479281 306.356617,284.487457 306.438385,284.531613 L323.578723,293.612756 C323.673574,293.671628 323.73899,293.753401 323.774969,293.856428 C323.822395,293.961093 323.833846,294.070665 323.810949,294.19005 C323.78642,294.293078 323.73245,294.38139 323.649045,294.456619 L323.649233,294.456614 Z M324.183987,295.987317 C324.242859,296.046189 324.285382,296.119785 324.308279,296.20973 L327.278165,306.37855 C327.302695,306.483215 327.302695,306.578067 327.278165,306.668016 C327.253636,306.77268 327.206206,306.852816 327.135888,306.911688 C327.063929,306.97056 326.982161,307 326.887309,307 L310.351934,307 C310.257083,307 310.168771,306.962383 310.085365,306.888796 L298.138918,294.16699 C298.066959,294.106481 298.026077,294.026346 298.014627,293.923318 C297.990096,293.818653 297.996638,293.722164 298.032616,293.633852 C298.068595,293.529187 298.127468,293.455595 298.210873,293.411439 C298.282832,293.352568 298.359694,293.331304 298.441462,293.344387 L323.971317,295.874346 C324.041639,295.892336 324.111961,295.928316 324.183916,295.987187 L324.183987,295.987317 Z M328.520881,286.796486 C328.627183,286.796486 328.722034,286.840642 328.805439,286.930587 L337.499322,297.120758 C337.546748,297.17963 337.582728,297.254859 337.605624,297.343171 C337.61707,297.416763 337.612168,297.498531 337.587634,297.586843 C337.563105,297.675156 337.528762,297.75038 337.481332,297.809256 L329.304494,306.53412 C329.234172,306.592992 329.15731,306.630608 329.073905,306.643691 C328.979053,306.658412 328.895648,306.628971 328.825326,306.555379 C328.74192,306.496508 328.689588,306.422911 328.665059,306.332967 L323.152151,287.440958 C323.116175,287.33793 323.111269,287.234898 323.134161,287.130233 C323.158694,287.041921 323.211023,286.960152 323.294428,286.88656 C323.3533,286.827688 323.430166,286.798248 323.525017,286.798248 L328.520881,286.796486 Z M327.436636,277.049674 C327.506959,277.005518 327.578914,276.990802 327.650873,277.005518 C327.721195,277.005518 327.79315,277.034954 327.863472,277.09383 L336.539353,285.198659 C336.611312,285.272251 336.657101,285.35402 336.68163,285.442332 C336.706159,285.54536 336.69962,285.641848 336.66364,285.731797 C336.639111,285.834825 336.593318,285.916597 336.521363,285.975469 C336.449408,286.034341 336.372542,286.065414 336.290774,286.065414 L323.31233,286.065414 C323.217478,286.065414 323.134073,286.027798 323.063751,285.95421 C322.980345,285.865898 322.93292,285.769409 322.921473,285.664744 C322.896944,285.546996 322.914934,285.435788 322.975443,285.331123 L327.260004,277.204943 C327.305797,277.131351 327.366306,277.079018 327.436628,277.049582 L327.436636,277.049674 Z" id="Page-1"></path>
            </g>
        </g>
    </g>
</svg>