<svg xmlns="http://www.w3.org/2000/svg" width="1440" height="958" viewBox="0 0 1440 958">
  <g fill="none" fill-rule="evenodd" transform="translate(-59)">
    <rect width="1440" height="959" x="59" fill="#4A4A4A"/>
    <path fill="#FFFFFF" d="M1156.584,366.814 L1267.447,366.814 L1267.447,185.314 L1156.584,185.314 L1156.584,366.814 Z M1212.015,389.82 C1206.857,389.82 1202.676,385.639 1202.676,380.481 C1202.676,375.323 1206.857,371.142 1212.015,371.142 C1217.173,371.142 1221.354,375.323 1221.354,380.481 C1221.354,385.639 1217.173,389.82 1212.015,389.82 L1212.015,389.82 Z M1201.9,172.647 C1201.9,171.542 1202.796,170.647 1203.9,170.647 L1220.13,170.647 C1221.235,170.647 1222.13,171.542 1222.13,172.647 L1222.13,172.647 C1222.13,173.752 1221.235,174.647 1220.13,174.647 L1203.9,174.647 C1202.796,174.647 1201.9,173.752 1201.9,172.647 Z M1232.256,169.981 C1233.729,169.981 1234.922,171.174 1234.922,172.647 C1234.922,174.12 1233.729,175.314 1232.256,175.314 C1230.783,175.314 1229.589,174.12 1229.589,172.647 C1229.589,171.174 1230.783,169.981 1232.256,169.981 L1232.256,169.981 Z M1261.752,159 L1162.278,159 C1156.602,159 1152,163.601 1152,169.278 L1152,384.972 C1152,390.649 1156.602,395.25 1162.278,395.25 L1261.752,395.25 C1267.429,395.25 1272.031,390.649 1272.031,384.972 L1272.031,169.278 C1272.031,163.601 1267.429,159 1261.752,159 L1261.752,159 Z" opacity=".139"/>
    <rect width="94" height="35" x="705" y="614" fill="#FFFFFF" opacity=".1" rx="8"/>
    <path fill="#FFFFFF" d="M92.584,670.814 L203.447,670.814 L203.447,489.314 L92.584,489.314 L92.584,670.814 Z M148.015,693.82 C142.857,693.82 138.676,689.639 138.676,684.481 C138.676,679.323 142.857,675.142 148.015,675.142 C153.173,675.142 157.354,679.323 157.354,684.481 C157.354,689.639 153.173,693.82 148.015,693.82 L148.015,693.82 Z M137.9,476.647 C137.9,475.542 138.796,474.647 139.9,474.647 L156.13,474.647 C157.235,474.647 158.13,475.542 158.13,476.647 L158.13,476.647 C158.13,477.752 157.235,478.647 156.13,478.647 L139.9,478.647 C138.796,478.647 137.9,477.752 137.9,476.647 Z M168.256,473.981 C169.729,473.981 170.922,475.174 170.922,476.647 C170.922,478.12 169.729,479.314 168.256,479.314 C166.783,479.314 165.589,478.12 165.589,476.647 C165.589,475.174 166.783,473.981 168.256,473.981 L168.256,473.981 Z M197.752,463 L98.278,463 C92.602,463 88,467.601 88,473.278 L88,688.972 C88,694.649 92.602,699.25 98.278,699.25 L197.752,699.25 C203.429,699.25 208.031,694.649 208.031,688.972 L208.031,473.278 C208.031,467.601 203.429,463 197.752,463 L197.752,463 Z" opacity=".139"/>
    <g fill="#FFFFFF" opacity=".1" transform="translate(275 265)">
      <polygon points="172.443 76.888 263.987 166.252 263.987 4.047"/>
      <polygon points="0 166.92 92.216 76.9 0 4.015"/>
      <polygon points="9.435 0 132.436 97.219 254.62 0"/>
      <polygon points="7.178 172.491 257.495 172.491 165.345 82.535 132.454 108.705 99.335 82.528"/>
    </g>
    <g fill="#FFFFFF" opacity=".101" transform="translate(1046 673)">
      <polygon points="172.443 76.888 263.987 166.252 263.987 4.047"/>
      <polygon points="0 166.92 92.216 76.9 0 4.015"/>
      <polygon points="9.435 0 132.436 97.219 254.62 0"/>
      <polygon points="7.178 172.491 257.495 172.491 165.345 82.535 132.454 108.705 99.335 82.528"/>
    </g>
    <g fill="#FFFFFF" opacity=".101" transform="translate(1424 179)">
      <polygon points="0 166.92 92.216 76.9 0 4.015"/>
      <polygon points="9.435 0 132.436 97.219 254.62 0"/>
      <polygon points="7.178 172.491 257.495 172.491 165.345 82.535 132.454 108.705 99.335 82.528"/>
    </g>
    <g fill="#FFFFFF" opacity=".101" transform="translate(402 873)">
      <polygon points="172.443 76.888 263.987 166.252 263.987 4.047"/>
      <polygon points="0 166.92 92.216 76.9 0 4.015"/>
      <polygon points="9.435 0 132.436 97.219 254.62 0"/>
      <polygon points="7.178 172.491 257.495 172.491 165.345 82.535 132.454 108.705 99.335 82.528"/>
    </g>
    <g opacity=".1" transform="translate(266 585)">
      <rect width="24.657" height="24.657" x="129.107" y="18.107" fill="#FFFFFF" transform="rotate(-45 141.435 30.435)"/>
      <path fill="#FFFFFF" d="M227.748737 46L266.87868 46 255 34.1213203 257.12132 32 271.12132 46 272 46 272 14.3847763 247.37868 39.0060967 247.278175 38.9055916 247.17767 39.0060967 224 15.8284271 224 45.5060967 237.506097 32 239.627417 34.1213203 227.748737 46zM224 10.1715729L224 10 270.727922 10 247.278175 33.4497475 224 10.1715729zM227.748737 128L266.87868 128 255 116.12132 257.12132 114 271.12132 128 272 128 272 96.3847763 247.37868 121.006097 247.278175 120.905592 247.17767 121.006097 224 97.8284271 224 127.506097 237.506097 114 239.627417 116.12132 227.748737 128zM224 92.1715729L224 92 270.727922 92 247.278175 115.449747 224 92.1715729z"/>
      <path stroke="#FFFFFF" stroke-width="3" d="M45.5,29.5 L229.502717,29.5" stroke-linecap="square"/>
      <polyline stroke="#FFFFFF" stroke-width="3" points="142 48 142 108.978 228.377 109.509"/>
      <path fill="#FFFFFF" d="M30.5,61 C47.3446849,61 61,47.3446849 61,30.5 C61,13.6553151 47.3446849,0 30.5,0 C13.6553151,0 0,13.6553151 0,30.5 C0,47.3446849 13.6553151,61 30.5,61 Z M49.3988227,46.3622767 C49.3988227,40.3683071 45.5418841,40.5979963 39.8295121,38.3255633 C37.243523,37.2968734 34.4282542,36.0299728 34.4282542,33.6656252 C34.4282542,31.2565236 37.9053928,30.7153783 37.9053928,20.9754785 C37.9053928,16.163325 33.6727754,14.1157025 30.4968732,14.1157025 C27.3209709,14.1157025 23.0881572,16.163325 23.0881572,20.9754785 C23.0881572,30.7153783 26.5654922,31.2565236 26.5654922,33.6656252 C26.5654922,36.0299728 23.750027,37.2968734 21.1641688,38.3255633 C15.4518622,40.5979963 11.5950544,40.2512834 11.5950544,46.3622767 L49.3988227,46.3622767 Z"/>
    </g>
    <g opacity=".1" transform="translate(812 95)">
      <rect width="24.657" height="24.657" x="129.107" y="18.107" fill="#FFFFFF" transform="rotate(-45 141.435 30.435)"/>
      <path fill="#FFFFFF" d="M227.748737 46L266.87868 46 255 34.1213203 257.12132 32 271.12132 46 272 46 272 14.3847763 247.37868 39.0060967 247.278175 38.9055916 247.17767 39.0060967 224 15.8284271 224 45.5060967 237.506097 32 239.627417 34.1213203 227.748737 46zM224 10.1715729L224 10 270.727922 10 247.278175 33.4497475 224 10.1715729zM227.748737 128L266.87868 128 255 116.12132 257.12132 114 271.12132 128 272 128 272 96.3847763 247.37868 121.006097 247.278175 120.905592 247.17767 121.006097 224 97.8284271 224 127.506097 237.506097 114 239.627417 116.12132 227.748737 128zM224 92.1715729L224 92 270.727922 92 247.278175 115.449747 224 92.1715729z"/>
      <path stroke="#FFFFFF" stroke-width="3" d="M45.5,29.5 L229.502717,29.5" stroke-linecap="square"/>
      <polyline stroke="#FFFFFF" stroke-width="3" points="142 48 142 108.978 228.377 109.509"/>
      <path fill="#FFFFFF" d="M30.5,61 C47.3446849,61 61,47.3446849 61,30.5 C61,13.6553151 47.3446849,0 30.5,0 C13.6553151,0 0,13.6553151 0,30.5 C0,47.3446849 13.6553151,61 30.5,61 Z M49.3988227,46.3622767 C49.3988227,40.3683071 45.5418841,40.5979963 39.8295121,38.3255633 C37.243523,37.2968734 34.4282542,36.0299728 34.4282542,33.6656252 C34.4282542,31.2565236 37.9053928,30.7153783 37.9053928,20.9754785 C37.9053928,16.163325 33.6727754,14.1157025 30.4968732,14.1157025 C27.3209709,14.1157025 23.0881572,16.163325 23.0881572,20.9754785 C23.0881572,30.7153783 26.5654922,31.2565236 26.5654922,33.6656252 C26.5654922,36.0299728 23.750027,37.2968734 21.1641688,38.3255633 C15.4518622,40.5979963 11.5950544,40.2512834 11.5950544,46.3622767 L49.3988227,46.3622767 Z"/>
    </g>
    <path fill="#FFFFFF" d="M1390.5 549C1423.36094 549 1450 522.360943 1450 489.5 1450 456.639057 1423.36094 430 1390.5 430 1357.63906 430 1331 456.639057 1331 489.5 1331 522.360943 1357.63906 549 1390.5 549zM1427.3682 520.444441C1427.3682 508.751288 1419.844 509.19937 1408.7002 504.766263 1403.6554 502.759474 1398.16332 500.28798 1398.16332 495.675564 1398.16332 490.975841 1404.94659 489.920164 1404.94659 470.919376 1404.94659 461.531732 1396.68951 457.53719 1390.4939 457.53719 1384.29829 457.53719 1376.04083 461.531732 1376.04083 470.919376 1376.04083 489.920164 1382.82448 490.975841 1382.82448 495.675564 1382.82448 500.28798 1377.33202 502.759474 1372.28748 504.766263 1361.1438 509.19937 1353.61986 508.522995 1353.61986 520.444441L1427.3682 520.444441zM59.5 223C92.3609426 223 119 196.360943 119 163.5 119 130.639057 92.3609426 104 59.5 104 26.6390574 104 0 130.639057 0 163.5 0 196.360943 26.6390574 223 59.5 223zM96.3681952 194.444441C96.3681952 182.751288 88.8440034 183.19937 77.7001957 178.766263 72.6553974 176.759474 67.1633155 174.28798 67.1633155 169.675564 67.1633155 164.975841 73.946586 163.920164 73.946586 144.919376 73.946586 135.531732 65.6895126 131.53719 59.4939001 131.53719 53.2982876 131.53719 45.0408313 135.531732 45.0408313 144.919376 45.0408313 163.920164 51.8244847 164.975841 51.8244847 169.675564 51.8244847 174.28798 46.3320199 176.759474 41.2874769 178.766263 30.1437968 183.19937 22.6198602 182.522995 22.6198602 194.444441L96.3681952 194.444441z" opacity=".1"/>
    <path fill="#FFFFFF" d="M696.582816,768.594091 L807.417184,768.594091 L807.417184,587.286154 L696.582816,587.286154 L696.582816,768.594091 Z M751.9995,791.575746 C746.842832,791.575746 742.662912,787.39917 742.662912,782.246629 C742.662912,777.094087 746.842832,772.917511 751.9995,772.917511 C757.156168,772.917511 761.336088,777.094087 761.336088,782.246629 C761.336088,787.39917 757.156168,791.575746 751.9995,791.575746 L751.9995,791.575746 Z M741.887112,574.632559 C741.887112,573.528728 742.782881,572.634675 743.886596,572.634675 L760.112404,572.634675 C761.217119,572.634675 762.111888,573.528728 762.111888,574.632559 L762.111888,574.632559 C762.111888,575.736389 761.217119,576.630442 760.112404,576.630442 L743.886596,576.630442 C742.782881,576.630442 741.887112,575.736389 741.887112,574.632559 Z M772.235273,571.96938 C773.707892,571.96938 774.900584,573.161117 774.900584,574.632559 C774.900584,576.104 773.707892,577.296737 772.235273,577.296737 C770.762653,577.296737 769.568961,576.104 769.568961,574.632559 C769.568961,573.161117 770.762653,571.96938 772.235273,571.96938 L772.235273,571.96938 Z M801.723655,561 L702.275346,561 C696.600811,561 692,565.596131 692,571.267124 L692,786.732876 C692,792.403869 696.600811,797 702.275346,797 L801.723655,797 C807.399189,797 812,792.403869 812,786.732876 L812,571.267124 C812,565.596131 807.399189,561 801.723655,561 Z" opacity=".139"/>
  </g>
</svg>
