<?xml version="1.0" encoding="UTF-8" standalone="no"?>
<svg width="50px" height="31px" viewBox="0 0 50 31" version="1.1" xmlns="http://www.w3.org/2000/svg" xmlns:xlink="http://www.w3.org/1999/xlink">
    <!-- Generator: Sketch 42 (36781) - http://www.bohemiancoding.com/sketch -->
    <title>Page 1</title>
    <desc>Created with Sketch.</desc>
    <defs></defs>
    <g id="Team-Page" stroke="none" stroke-width="1" fill="none" fill-rule="evenodd">
        <g id="Slack-Channel-V2" transform="translate(-819.000000, -2091.000000)" fill="#FFFFFF">
            <g id="Large-Copy-7" transform="translate(585.000000, 1860.000000)">
                <path d="M274.277558,242.11081 C272.888701,242.11081 271.638686,242.388581 270.5276,242.805238 L267.333185,237.527582 L268.305429,235.16657 L268.722086,235.16657 C269.5554,235.16657 270.110943,234.611028 270.110943,233.777714 C270.110943,232.9444 269.5554,232.388857 268.722086,232.388857 L264.555516,232.388857 C263.722202,232.388857 263.166659,232.9444 263.166659,233.777714 C263.166659,234.611028 263.722202,235.16657 264.555516,235.16657 L265.249944,235.16657 L264.694402,236.555427 L252.055583,236.555427 L252.055583,231 L245.111299,231 L245.111299,233.777714 L249.277869,233.777714 L249.277869,237.666513 L246.777927,242.666397 C245.805683,242.24974 244.833527,242.110854 243.722442,242.110854 C238.305856,242.110854 234,246.416355 234,251.833296 C234,257.250238 238.3055,261.555738 243.722442,261.555738 C249.139383,261.555738 253.444884,257.250238 253.444884,251.833296 C253.444884,248.50004 251.778256,245.583485 249.278314,243.916857 L250.944942,240.722442 L259.694784,253.361261 L264.694668,253.361261 C265.389097,258.083374 269.416781,261.694402 274.277558,261.694402 C279.694144,261.694402 284,257.388901 284,251.97196 C284,246.416533 279.6945,242.110854 274.277558,242.110854 L274.277558,242.11081 Z M250.667437,251.833252 C250.667437,255.722051 247.611952,258.777536 243.723153,258.777536 C239.834354,258.777536 236.778869,255.722051 236.778869,251.833252 C236.778869,247.944453 239.834354,244.888968 243.723153,244.888968 C244.278696,244.888968 244.97308,245.027854 245.528622,245.166739 L242.473138,251.277709 C242.334252,251.416595 242.334252,251.55548 242.334252,251.833252 C242.334252,252.666566 242.889795,253.222109 243.723109,253.222109 C244.278651,253.222109 244.695353,252.944337 244.973035,252.388795 L248.02852,246.277825 C249.556307,247.666681 250.667393,249.611081 250.667393,251.833252 L250.667437,251.833252 Z M268.167477,244.333425 C266.362008,245.861212 265.111992,247.944453 264.695379,250.444395 L262.473209,250.444395 L266.084236,240.861505 L268.167477,244.333425 Z M269.556334,246.694437 L271.778505,250.444395 L267.473004,250.444395 C267.750776,248.916608 268.58409,247.666681 269.556334,246.694437 Z M259.973444,248.916608 L253.306932,239.333719 L263.72358,239.333719 L259.973444,248.916608 Z M274.278891,258.777714 C270.945635,258.777714 268.167921,256.416701 267.473538,253.222286 L274.278891,253.222286 C275.112205,253.222286 275.667748,252.666744 275.667748,251.83343 C275.667748,251.555658 275.528862,251.277887 275.389977,251.139001 L271.917879,245.305803 C272.612308,245.028031 273.445666,244.889146 274.278891,244.889146 C278.16769,244.889146 281.223175,247.944631 281.223175,251.83343 C281.223175,255.722229 278.16769,258.777714 274.278891,258.777714 Z" id="Page-1"></path>
            </g>
        </g>
    </g>
</svg>