<?xml version="1.0" encoding="UTF-8" standalone="no"?>
<svg width="28px" height="28px" viewBox="0 0 28 28" version="1.1" xmlns="http://www.w3.org/2000/svg" xmlns:xlink="http://www.w3.org/1999/xlink">
    <!-- Generator: Sketch 41.2 (35397) - http://www.bohemiancoding.com/sketch -->
    <title>Combined Shape</title>
    <desc>Created with Sketch.</desc>
    <defs></defs>
    <g id="Page-1" stroke="none" stroke-width="1" fill="none" fill-rule="evenodd">
        <g id="Bio" transform="translate(-1211.000000, -31.000000)" fill="#999999">
            <path d="M1223.5,43.5 L1208.50104,43.5 C1207.6712,43.5 1207,44.1715729 1207,45 C1207,45.8342028 1207.67204,46.5 1208.50104,46.5 L1223.5,46.5 L1223.5,61.4989581 C1223.5,62.3287962 1224.17157,63 1225,63 C1225.8342,63 1226.5,62.3279606 1226.5,61.4989581 L1226.5,46.5 L1241.49896,46.5 C1242.3288,46.5 1243,45.8284271 1243,45 C1243,44.1657972 1242.32796,43.5 1241.49896,43.5 L1226.5,43.5 L1226.5,28.5010419 C1226.5,27.6712038 1225.82843,27 1225,27 C1224.1658,27 1223.5,27.6720394 1223.5,28.5010419 L1223.5,43.5 Z" id="Combined-Shape" transform="translate(1225.000000, 45.000000) rotate(-315.000000) translate(-1225.000000, -45.000000) "></path>
        </g>
    </g>
</svg>