<?xml version="1.0" encoding="UTF-8"?>
<svg width="178px" height="147px" viewBox="0 0 178 147" version="1.1" xmlns="http://www.w3.org/2000/svg" xmlns:xlink="http://www.w3.org/1999/xlink">
    <!-- Generator: Sketch 43.2 (39069) - http://www.bohemiancoding.com/sketch -->
    <title>icon-collaborate-map-and-pin</title>
    <desc>Created with Sketch.</desc>
    <defs></defs>
    <g id="Page-1" stroke="none" stroke-width="1" fill="none" fill-rule="evenodd">
        <g id="Icon" transform="translate(-22.000000, -37.000000)">
            <g id="icon-collaborate-map-and-pin" transform="translate(21.000000, 37.000000)">
                <path d="M81.5898343,68.0033225 L71.0061565,78.6006492 C70.1252769,78.6156527 68.9662087,78.7693534 67.8002615,79.1801091 C67.4957242,79.2873956 67.1081586,79.3635851 66.3437112,79.4797586 C65.9841297,79.5338843 65.7996894,79.5619598 65.6120051,79.5922533 C63.0885371,79.9995577 61.9199113,80.6743074 62.318321,82.3926337 C62.6471028,83.8138985 63.0169403,84.2499362 63.8162412,84.4087444 C64.1043048,84.465978 64.1888962,84.5029739 64.3464177,84.67421 C64.4604509,84.7980298 64.5722146,84.9106165 64.7572306,85.0912642 C65.059628,85.3865217 65.1183454,85.4450721 65.2306261,85.5683337 C65.6717803,86.0526326 65.6986571,86.2369692 65.3289267,86.5643667 C63.746862,87.96529 63.0537869,89.2476695 63.2930757,91.2102157 C63.3211474,91.4395426 63.3311142,91.6823278 63.3241638,91.9395949 C63.3083843,92.5236714 63.2147888,93.1179576 63.0341363,93.9306849 C63.0038174,94.067085 62.8981308,94.528497 62.8783816,94.6169213 C62.8213806,94.8721359 62.7840577,95.0573131 62.7580078,95.2232375 C62.7303434,95.3994459 62.7143127,95.5542824 62.7150224,95.691948 C62.3183915,95.7473612 61.3200296,95.8705975 61.1870744,95.8883599 C60.2910347,96.0080679 59.5272114,96.1388733 58.7897558,96.3125754 C56.8084797,96.7792501 55.3641129,97.4821199 54.5801598,98.5668171 C54.2509423,99.0223308 53.9691453,99.4777069 53.6789912,100.005045 C53.5389963,100.259478 53.1136576,101.073266 53.036138,101.215285 C52.2501963,102.655162 51.5739992,103.129413 49.6905521,103.234476 C49.180321,103.263077 48.7927493,103.272614 47.9068512,103.284928 C43.8455651,103.34138 42.2795332,103.903384 40.5936485,106.763824 C40.0384205,107.705923 39.6011958,108.431923 39.2692587,108.968739 C39.1754859,109.12039 39.0996884,109.24158 39.0405195,109.335173 L16.3713572,110.130205 C16.2274867,109.946752 16.0215334,109.743762 15.7434455,109.545905 C15.1038443,109.090833 14.2558588,108.80797 13.1836311,108.770997 C12.4457889,108.745543 11.3885771,108.72378 10.0937452,108.705388 C9.17321927,108.692313 8.18716881,108.681697 7.20115018,108.673342 C6.85606872,108.670418 6.53562851,108.667986 6.24803414,108.66602 C5.95215928,108.664078 5.95215928,108.664078 5.88620388,108.663708 L5.88331749,109.178413 C5.85349487,108.452522 5.8642951,107.889989 5.9325,107.5826 C6.2985,105.9386 5.9855,104.2946 5.8675,102.4676 C5.7495,100.6406 5.2475,89.8846 4.6995,88.7886 C4.1515,87.6926 3.9455,87.1216 3.3975,85.8426 C3.14688022,85.2576681 2.70049077,81.4630338 2.35973825,77.3420994 L49.641955,74.8496427 L49.7662237,74.5688524 C49.8401009,74.4019236 50.066029,74.1064863 50.5050605,73.7949037 C51.0433023,73.412911 51.7621779,73.1299605 52.6940395,72.9942831 C54.1469142,72.7827472 54.4219754,71.9610908 54.1743335,70.4244091 C54.1646061,70.3643918 54.1646061,70.3643918 54.1549004,70.3052405 C54.0551186,69.6974176 54.0369994,69.4566116 54.0900467,69.2660927 C54.10514,69.2118853 54.1280044,69.1662409 54.1649517,69.1282113 L54.1741437,69.2030188 L80.329844,65.3280276 C80.6791371,66.0702871 81.0417462,66.8402501 81.4125878,67.6272195 L81.4568352,67.8352984 L81.5057439,67.8248981 C81.5337306,67.8842833 81.5617615,67.9437596 81.5898343,68.0033225 Z M109.282232,40.2752118 C109.393779,39.7812224 109.489948,39.3081849 109.570417,38.8563533 L110.042677,39.5137865 L109.282232,40.2752118 Z M71.4691276,28.1916952 C70.5218369,30.5626017 70,33.1555584 70,35.8707747 C70,40.0128556 72.3894329,47.3163574 76.6053949,57.3387945 C76.8101878,57.8256404 78.1394007,60.6701672 79.8852805,64.3829753 L55.0416563,68.0635812 L54.5639772,64.1760544 L44.982287,65.7015187 L1.89887695,68.3294331 C1.90623815,67.2336039 1.96615827,66.4373652 2.0965,66.1116 C2.8265,64.2846 0.9995,61.3616 0.9995,60.6306 L0.9995,57.3426 L1.8225,56.5206 L2.4385,54.6016 L3.8775,53.8486 L5.2475,52.4786 L6.8915,51.6906 L8.3995,49.6696 L14.1535,49.6696 L17.1685,50.7656 L18.5385,49.6696 L18.5385,50.7656 L23.1975,48.5046 L25.8695,48.0936 C25.8695,48.0936 28.3355,44.2566 29.2945,40.9686 C30.2535,37.6806 31.1445,36.1046 31.6925,34.2546 C32.2405,32.4046 32.9945,30.4176 32.9945,29.3216 C32.9945,28.5034545 33.2235245,27.8636248 33.3966352,27.1358914 L31.018795,7.13787206 L33.004805,6.90172794 L35.2051983,25.4073897 C35.3746404,25.7246125 35.5783583,26.0132343 35.9405,26.1246 C36.8305,26.3986 39.2285,26.3876 39.9825,26.8666 C40.7355,27.3466 41.0095,28.6426 41.6265,28.9166 C42.2425,29.1906 43.8185,30.0096 44.7095,30.2836 C45.5995,30.5576 46.3535,31.0356 47.4495,30.9676 C48.5455,30.8986 53.2735,29.7336 54.8485,29.3906 C56.4245,29.0486 56.8355,29.3906 57.5205,29.3226 C58.2055,29.2536 59.0965,28.7056 59.9875,28.8426 C60.8775,28.9796 62.7805,27.9516 63.4125,27.9516 C65.2625,27.9516 66.8385,27.0606 67.3865,26.9236 C67.9345,26.7866 67.8655,27.2666 67.3865,27.6096 C66.9065,27.9516 65.4675,27.8836 64.7825,28.2256 C64.0975,28.5686 61.4255,29.8696 61.4255,29.8696 L65.3995,29.1166 L71.2225,28.2256 L71.4691276,28.1916952 Z M103.093214,57.7345617 C104.25282,56.5702137 105.550438,55.2660587 106.944575,53.8638287 C108.905147,51.8918761 110.829792,49.9538722 112.134522,48.6380037 C112.728275,48.0391817 113.167823,47.5952384 113.41742,47.342254 L113.500291,47.4389184 L130.560301,27.5182182 L129.8667,26.9236 L128.9077,26.7186 L127.8807,25.5536 C127.8807,25.5536 126.5097,24.3206 127.2637,23.9776 C128.0177,23.6356 128.2917,22.4026 128.3597,21.5806 C128.4287,20.7576 128.3597,19.1136 128.3597,19.1136 L121.3037,6.5076 L122.8787,2.1236 L126.5787,-0.0004 L127.1267,0.2736 L130.8267,1.4386 L136.3757,11.3726 L135.8277,13.0166 L135.3477,13.7016 L134.7317,15.7566 L129.2507,18.8396 C129.2507,18.8396 129.5247,20.9636 130.3467,21.5806 C131.1687,22.1966 131.7857,22.6766 132.4707,22.5396 C133.1557,22.4026 134.0467,20.7576 135.2107,20.7576 C136.3757,20.7576 136.8547,20.6206 137.1977,20.4836 C137.28286,20.4495856 137.427075,20.3902358 137.601019,20.320228 L144.772266,15.838403 L177.746923,9.40898335 L178.129677,11.3720167 L145.518334,17.730597 L139.406857,21.550096 L139.3897,21.5806 L137.9517,23.0186 L137.6087,25.0056 C137.6087,25.0056 138.1797,25.0746 138.4537,24.3896 C138.4537,24.3896 139.1157,25.1886 138.0197,25.7826 L138.0197,27.7466 C138.0197,27.7466 137.4717,27.7916 136.9237,28.7506 C136.9237,28.7506 136.3757,28.2026 135.9187,28.1576 C135.4617,28.1116 134.2747,28.2946 134.2747,28.2946 L132.303512,28.5574251 L115.950992,47.6520011 C115.962795,47.6565725 115.974631,47.6611055 115.9865,47.6656 L115.9135,47.7506 L117.1015,52.8666 L114.1785,53.2316 L114.274873,55.8983754 L105.78815,64.535771 C105.79187,64.5248357 105.696955,64.5987027 105.577049,64.6995983 C105.378748,64.8664588 105.180481,65.0508355 104.994017,65.2489872 C104.543575,65.7276609 104.229284,66.2101355 104.115803,66.7028482 C104.077083,66.8709645 104.062994,67.0380607 104.07646,67.2029095 C104.08778,67.3414773 104.093065,67.5005134 104.099704,67.8434509 C104.115159,68.6418198 104.134806,69.1397097 104.187852,69.6162677 L104.0385,69.7656 L104.242404,70.0274887 C104.25032,70.0791981 104.258707,70.1315686 104.267599,70.1849337 C104.457334,71.323586 104.832968,72.2395919 105.476672,72.9040897 C105.64511,73.0779686 105.818206,73.2426005 106.021604,73.4253063 C106.139438,73.5311533 106.539936,73.8814935 106.525541,73.8687937 C107.770803,74.9673868 108.260576,75.8711601 108.592271,78.334913 C108.795698,79.8463065 108.858011,80.6799245 109.026318,83.5659241 C109.164522,85.9357373 109.282396,86.9675308 109.588772,87.8279268 C110.540983,90.5047835 109.879535,94.2184585 106.449934,98.8840602 C106.360448,99.0324246 106.238843,99.2316585 106.057426,99.5131337 C105.752958,99.9855253 105.392359,100.512761 104.977528,101.081077 C103.791225,102.706302 102.410291,104.331881 100.850643,105.847781 C99.8650167,106.805761 98.8495616,107.680261 97.8059527,108.460655 C96.8765094,105.725497 96.4585052,103.781302 96.5834843,102.393651 C96.714458,100.939077 97.0359765,99.977506 97.7179727,98.7087581 C97.7914898,98.571991 97.8686566,98.4317421 97.9742253,98.242249 C98.107736,98.0031716 98.1822451,97.8697053 98.2456519,97.7552362 C98.4742058,97.3426254 98.6467975,97.0174006 98.8167996,96.6720944 C99.3593498,95.5700734 99.7827855,94.4293155 100.135634,93.0148172 C101.246907,88.5635076 100.66817,85.0280465 99.1064723,83.4356989 C98.0684692,82.3792809 97.7013643,81.1732949 98.0653338,79.6769758 C98.0997878,79.5354114 98.2794378,78.8181656 98.2343007,78.9990746 C98.3123221,78.6863653 98.3727752,78.4370394 98.4320212,78.1800318 C98.8511843,76.3617141 99.0448159,74.8103144 98.9421219,73.2889189 C98.881966,72.3977179 98.7163262,71.5648116 98.4313963,70.7952021 C98.3161636,70.4840537 98.2010466,70.1852563 98.0190376,69.720984 C97.9330601,69.5016711 97.8513222,69.2904557 97.7738515,69.0868955 C100.205301,63.930501 102.425797,59.2049301 103.093214,57.7345617 Z M82.0430294,68.9646687 C85.7341243,76.7928044 89.9372572,85.6681873 89.9372572,85.6681873 C89.9372572,85.6681873 93.6671896,77.7920199 97.1853033,70.3347265 C97.3116295,70.6587431 97.4028655,70.897389 97.493622,71.1424473 C97.7433653,71.8170164 97.890399,72.5563632 97.9443923,73.3562655 C98.0392285,74.7612508 97.8566113,76.2244027 97.4575774,77.9554006 C97.3998863,78.2056628 97.3407401,78.4495989 97.2640445,78.756994 C97.3102975,78.5716124 97.1290753,79.2951355 97.0936815,79.4405614 C96.6454732,81.2831956 97.1194365,82.840225 98.3928519,84.1362313 C99.6789547,85.4475758 100.199788,88.6293074 99.1653889,92.7726916 C98.8300961,94.1168135 98.4314211,95.1908647 97.9196344,96.2303994 C97.7578573,96.5589988 97.5922878,96.8709913 97.3708884,97.2706862 C97.3084279,97.3834468 97.2349233,97.5151139 97.1006454,97.7555682 C96.9928426,97.9490717 96.913493,98.0932876 96.8371611,98.2352912 C96.0953974,99.6152271 95.731665,100.703048 95.5875147,102.30396 C95.441868,103.921084 95.9140569,106.054034 96.9575332,109.0699 C94.6947778,110.628055 92.3054577,111.743223 89.8059246,112.311648 C85.3294971,113.329644 82.7188825,113.263633 79.5571528,112.501918 C79.4500969,112.476126 78.7049155,112.292691 78.4930051,112.242716 C78.0928402,112.148345 77.7691843,112.080798 77.4547051,112.028955 C76.1042431,111.806323 74.9272935,111.89579 73.502727,112.407653 C73.3412365,112.465621 73.3412365,112.465621 73.1792456,112.523614 C72.9397253,112.609318 72.0957083,112.910318 71.939492,112.966152 C65.3528941,115.320309 62.601186,116.75006 61.4079243,119.181949 C60.8251662,120.36962 60.5488892,121.67902 60.137366,124.564412 C59.6252708,128.159463 59.300877,129.514632 58.5810072,130.422558 C58.2109092,130.889339 56.7725421,132.860356 56.9131216,132.67126 C55.1191217,135.084402 53.7958486,136.257756 52.2183737,136.482185 C51.5740946,136.573816 50.9822635,136.593898 49.5459102,136.598746 C48.4719913,136.602371 47.9837151,136.610545 47.3690271,136.64533 C44.821784,136.789479 43.0079398,137.377557 41.6407563,138.788224 C40.9252029,139.525997 40.2795012,140.408213 39.6991583,141.404063 C39.0813408,142.464219 38.5686808,143.596523 38.1542752,144.728504 C38.0092453,145.124664 37.8867096,145.49291 37.7859616,145.824119 C37.7480472,145.948763 37.7180349,146.051988 37.6957648,146.1316 L11.9525,146.1316 C11.9525,146.1316 10.5005,136.1436 9.5865,133.7686 C8.6735,131.3936 7.0285,127.8616 7.2115,126.5836 C7.3945,125.3046 7.5485,122.5636 7.1975,120.3716 C6.92606587,118.67649 6.09967047,112.938774 5.90775508,109.663845 C5.95315289,109.664106 5.99196939,109.664361 6.24119838,109.665996 C6.52826624,109.667959 6.84816394,109.670387 7.19267716,109.673306 C8.17692904,109.681646 9.16114909,109.692242 10.0795423,109.705287 C11.3681291,109.723591 12.4196601,109.745237 13.1491613,109.770403 C14.0270055,109.800673 14.6851319,110.020204 15.1637149,110.360713 C15.4543641,110.567508 15.6109112,110.761868 15.6631592,110.865242 L15.8073864,111.150599 L39.5931883,110.316405 L39.7354251,110.10305 C39.7928206,110.016957 39.9166173,109.823238 40.1197913,109.494661 C40.4556667,108.951477 40.8965045,108.219477 41.4551568,107.271567 C42.919755,104.786584 44.1727252,104.336929 47.9207498,104.284831 C48.8205629,104.272324 49.2176984,104.262551 49.7463833,104.232916 C51.9947864,104.107495 52.9701027,103.423457 53.9138915,101.694397 C53.9974641,101.541289 54.4217576,100.729501 54.5551242,100.487115 C54.8268603,99.9932501 55.0877073,99.5717284 55.3906402,99.1525829 C55.9979231,98.3123309 57.2516562,97.7022289 59.0190242,97.2859387 C59.7196439,97.120913 60.453283,96.9952767 61.3194947,96.8795536 C61.4507923,96.8620126 62.7606128,96.7005553 63.0082628,96.6592553 C63.2089414,96.6257886 63.3480265,96.59326 63.4590189,96.5464519 C63.8078416,96.3993451 64.0317661,95.9828773 63.6574613,95.6279027 C63.6970727,95.6655609 63.7551698,95.2955111 64.0103115,94.1476684 C64.2037039,93.2776263 64.3059131,92.6286476 64.3237991,91.9666013 C64.3320376,91.661654 64.3200474,91.3695787 64.2856955,91.0889486 C64.0935402,89.5129709 64.6314474,88.5176949 65.9918733,87.3130333 C66.859136,86.5450694 66.7421491,85.7427035 65.9698952,84.8949237 C65.8386218,84.7508118 65.7756896,84.6880586 65.4558402,84.3757611 C65.2826975,84.2067064 65.1808594,84.1041184 65.0821891,83.9969801 C64.7521363,83.6381912 64.4879742,83.5226603 64.011116,83.4279163 C63.6401906,83.3542194 63.5397901,83.2358474 63.2925356,82.1670107 C63.091817,81.3013184 63.7873969,80.8996994 65.7713495,80.5794763 C65.9538697,80.5500164 66.1331799,80.5227218 66.4939567,80.4684074 C67.3231131,80.3424 67.7472789,80.2590154 68.1325385,80.1232909 C69.2621702,79.7253289 70.4077675,79.59358 71.4186058,79.6027937 L82.0430294,68.9646687 Z M108.809284,42.1638956 L110.633941,40.3368857 L112.4655,42.8866 L110.8895,44.3936 L112.761319,46.5769554 C112.753235,46.5850152 112.744299,46.5939244 112.734339,46.6038543 L113.043959,46.9141621 C113.043959,46.9141621 113.042775,46.9101022 113.040618,46.902739 L112.764258,46.5803828 C112.756232,46.5885316 112.74744,46.5974574 112.737762,46.6072841 C112.495747,46.8527305 112.044183,47.3088507 111.424416,47.9339088 C110.120035,49.2494254 108.195699,51.1871179 106.235425,53.1587713 C105.503401,53.8950446 104.797764,54.6045019 104.124649,55.2809734 C106.256928,50.0876405 107.847802,45.6922264 108.809284,42.1638956 Z M1.89886612,68.8133652 L1.93036851,69.3293708 L45.0913685,66.6943708 L53.6978067,65.3264148 L54.0365356,68.0831138 C53.561614,68.2356232 53.2527066,68.5452822 53.1266925,68.9978601 C53.0183491,69.3869742 53.0416867,69.6971322 53.1681087,70.4672348 C53.1777092,70.5257467 53.1777092,70.5257467 53.1870711,70.58351 C53.3576427,71.6419507 53.2713635,71.8996819 52.5499605,72.0047169 C51.463427,72.1629142 50.5953108,72.5046061 49.9262988,72.979407 C49.4903889,73.2887741 49.1936806,73.6067803 49.0098641,73.8815746 L2.29367931,76.3441933 L2.32161751,76.8741844 C2.08776248,73.9600646 1.91184333,70.9382785 1.89886612,68.8133652 Z M114.324543,57.2728354 L114.4525,60.8136 L111.7125,62.0926 L105.123285,68.6809562 C105.113177,68.4367402 105.105989,68.1584463 105.099517,67.824096 C105.09245,67.4590643 105.08678,67.2884681 105.07314,67.1214905 C105.155627,66.6436117 105.382445,66.2954199 105.722274,65.9342912 C105.879971,65.7667102 106.050448,65.6081759 106.220892,65.4647558 C106.322232,65.3794829 106.399398,65.319429 106.439827,65.2898822 L114.324543,57.2728354 Z M105.254754,70.0250899 L112.3515,63.0976 L114.2245,62.8236 L116.0965,62.6406 L116.0965,65.0156 L119.3855,64.9246 L119.5675,68.6696 L116.4625,66.8426 L114.9095,67.0256 L116.6445,72.1406 C116.6445,72.1406 116.5535,73.6026 116.0965,73.9676 C115.6395,74.3326 114.7265,76.2516 114.8175,77.2556 C114.9095,78.2606 116.4625,77.8956 116.4625,77.8956 C116.4625,77.8956 118.5635,79.1746 118.9285,80.1786 C119.2935,81.1836 119.9335,81.1836 119.9335,82.2796 C119.9335,83.3766 119.5675,84.4726 119.9335,85.8426 L120.2985,87.2126 L117.9235,87.6696 C117.9235,87.6696 118.1065,89.0396 118.7455,89.3136 C119.3855,89.5876 120.2075,89.4056 120.6635,89.6796 C121.1205,89.9536 120.8015,90.6836 120.8015,90.6836 L123.7695,90.4096 L123.7695,94.6116 L115.7315,94.9776 L114.3615,95.5256 L111.7125,95.4336 L109.9765,94.7946 L109.97585,94.7952494 C111.159229,91.9414028 111.239302,89.484135 110.530883,87.4926264 C110.26971,86.7591721 110.1564,85.7673334 110.024622,83.5077046 C109.854721,80.5943718 109.791418,79.7475104 109.583332,78.2015033 C109.219258,75.4972439 108.611269,74.3753289 107.187106,73.1189058 C107.197087,73.1277114 106.801895,72.782013 106.689857,72.6813727 C106.502471,72.5130492 106.345594,72.3638432 106.194928,72.2083103 C105.716045,71.7139578 105.414303,70.9792043 105.254754,70.0250899 Z M109.462499,95.9185901 C110.012817,96.1885271 111.042776,96.6216 111.9865,96.6216 C113.3565,96.6216 115.0005,96.3476 115.9135,96.3476 C116.8275,96.3476 120.9385,96.6216 122.3085,96.5306 C123.6785,96.4386 124.5005,95.7996 125.3225,96.7126 C126.1445,97.6266 126.2365,98.4486 126.2365,98.4486 L127.4235,97.8086 L131.6255,104.1116 L132.0825,106.3956 C132.0825,106.3956 130.8035,106.4866 129.7985,106.9436 C128.7935,107.4006 127.0585,107.7656 126.3275,107.4006 C125.5965,107.0346 125.0485,107.5826 124.8655,108.4056 C124.6835,109.2276 125.4135,109.8666 125.4135,109.8666 L124.9575,112.2416 L126.1445,112.4246 L127.8805,110.8716 C127.8805,110.8716 129.7985,113.1556 130.6205,113.2466 C131.4425,113.3376 132.1735,112.8816 132.7215,112.8816 C133.2695,112.8816 134.1835,113.0636 134.1835,113.0636 L137.1975,115.4386 L138.9335,114.9826 L141.3995,116.9916 L140.5775,120.3716 L140.7605,121.7416 L137.3805,122.4726 L138.7505,125.3046 L139.4815,127.8616 L138.5675,128.5926 L136.2845,126.9486 L135.4625,127.9536 L136.4665,129.0496 L134.0005,131.6986 C134.0005,131.6986 133.7265,130.5106 132.5395,129.8716 C131.3515,129.2326 129.8895,128.9586 129.8895,128.9586 C129.8895,128.9586 129.7985,127.9536 126.1445,127.8616 C126.1445,127.8616 126.1445,127.0396 125.5055,126.4916 C124.8655,125.9436 124.7745,124.8476 124.5915,123.8426 C124.4095,122.8376 123.7695,122.1076 123.4045,121.9246 C123.0385,121.7416 121.3035,122.7466 121.3035,122.7466 L120.1155,124.3906 L117.9235,126.0346 L119.9335,128.3186 C119.9335,128.3186 120.4815,128.4096 121.7605,129.3236 C123.0385,130.2366 124.1355,131.1506 124.1355,131.1506 C124.1355,131.1506 123.4955,133.1596 122.1255,134.5306 C120.7555,135.9006 120.2985,136.3576 120.6635,136.9966 C121.0295,137.6356 121.9425,137.3616 121.9425,138.1846 C121.9425,139.0066 122.2165,139.3716 122.8565,139.3716 C123.4955,139.3716 124.1355,137.8186 124.5915,138.0926 C125.0485,138.3666 125.8705,139.8286 125.8705,139.8286 C125.8705,139.8286 123.3135,140.4676 121.0295,140.1016 C118.7455,139.7366 116.7365,138.0916 115.4575,138.0916 C114.1785,138.0916 113.6305,139.3696 113.6305,139.3696 C113.6305,139.3696 112.0775,138.5456 111.8035,138.5456 C111.5295,138.5456 108.7885,140.0036 108.7885,140.0036 L108.5145,141.5486 C108.5145,141.5486 109.1285,141.5736 109.7025,142.3556 C109.8065,142.4976 109.9295,143.0626 110.0605,143.9426 C110.1615,144.6276 109.1385,144.8776 109.2455,145.8266 L108.4145,146.1316 L106.704869,146.1316 C106.695226,146.015692 106.682363,145.868734 106.666087,145.693418 C106.618783,145.183882 106.55901,144.616482 106.485741,144.005577 C106.276285,142.259176 106.000501,140.51231 105.64966,138.878822 C105.288667,137.198072 104.867283,135.731524 104.3782,134.537305 C103.480676,132.345769 103.418816,131.470457 103.75945,130.018245 C103.980842,129.07451 104.036936,128.564953 103.928436,127.719179 C103.761708,126.423986 103.636675,126.009512 102.281798,121.892299 C101.872465,120.648415 101.595062,119.75128 101.354836,118.862608 C101.240137,118.4383 101.139151,118.032766 101.051383,117.64139 C100.767899,116.377624 100.84741,116.596256 98.8531453,111.341628 C98.6096042,110.699929 98.4080621,110.158963 98.2209924,109.641894 C98.1976146,109.577277 98.1744787,109.513052 98.1515849,109.449218 C99.3199966,108.595347 100.452509,107.629268 101.547621,106.564874 C103.150616,105.006843 104.567517,103.338924 105.785241,101.670652 C106.211819,101.086245 106.583303,100.543094 106.897967,100.054882 C107.088028,99.7599952 107.217701,99.5475419 107.285228,99.4312103 C108.185693,98.2074578 108.905785,97.0353396 109.462499,95.9185901 Z M38.73768,146.1316 C38.7393288,146.126161 38.7409953,146.120673 38.7426795,146.115136 C38.8381987,145.801117 38.9549033,145.450394 39.0933267,145.07228 C39.4887876,143.992049 39.9777242,142.912141 40.5631522,141.907566 C41.1051663,140.977487 41.7038523,140.159508 42.3587171,139.484307 C43.515957,138.290261 45.1050595,137.775048 47.4255267,137.643733 C48.0166639,137.61028 48.4930344,137.602306 49.5492856,137.59874 C51.0348762,137.593726 51.6521219,137.572781 52.3592027,137.472219 C54.2902904,137.197481 55.769104,135.886208 57.7156456,133.26788 C57.5871075,133.440779 59.0090805,131.492227 59.3645928,131.043842 C60.2458808,129.93233 60.5840852,128.519466 61.0970224,124.918443 C61.5225208,121.934854 61.787684,120.678127 62.3056757,119.622451 C63.3287873,117.537332 65.9903051,116.154442 72.2760567,113.907812 C72.4317649,113.852159 73.2760072,113.551079 73.5161413,113.465156 C73.6786495,113.406978 73.6786495,113.406978 73.8408427,113.348758 C75.1000199,112.896321 76.1049205,112.819932 77.2920447,113.015637 C77.5808417,113.063247 77.8836149,113.126435 78.263472,113.216017 C78.4696342,113.264636 79.2115126,113.447259 79.322937,113.474103 C82.6286719,114.27051 85.3942909,114.340441 90.0276754,113.286752 C92.5789028,112.706571 95.0077742,111.59235 97.3033998,110.044927 C97.4860352,110.548494 97.6827832,111.076127 97.9182144,111.696458 C99.8747794,116.851753 99.8085573,116.669662 100.075624,117.860239 C100.166689,118.266316 100.271149,118.6858 100.389485,119.123562 C100.63537,120.033167 100.917428,120.94536 101.331908,122.204885 C102.65387,126.222071 102.782246,126.647629 102.936592,127.846637 C103.026716,128.549163 102.982313,128.952515 102.781822,129.807157 C102.398401,131.441782 102.475264,132.529392 103.4528,134.916295 C103.916428,136.048363 104.322366,137.461153 104.671956,139.088814 C105.01562,140.688881 105.286792,142.406537 105.492857,144.124659 C105.565019,144.726338 105.623861,145.284907 105.670368,145.785857 C105.682678,145.918454 105.692964,146.03412 105.701312,146.1316 L38.73768,146.1316 Z" id="Combined-Shape" fill="#AAAAAA"></path>
                <path d="M73,35.8707747 C73,26.2889257 80.5878912,18.5150866 89.9372572,18.5150866 C99.2910416,18.5150866 106.874514,26.2889257 106.874514,35.8707747 C106.874514,45.4586604 89.9372572,79.0109783 89.9372572,79.0109783 C89.9372572,79.0109783 73,45.4586604 73,35.8707747 Z M89.9984823,43.1512234 C93.922101,43.1512234 97.1041179,39.8918095 97.1041179,35.8712587 C97.1041179,31.8494939 93.922101,28.59008 89.9984823,28.59008 C86.0748635,28.59008 82.8928466,31.8494939 82.8928466,35.8712587 C82.8928466,39.8918095 86.0748635,43.1512234 89.9984823,43.1512234 Z" id="Combined-Shape" fill="#00AEEF"></path>
            </g>
        </g>
    </g>
</svg>