<?xml version="1.0" encoding="UTF-8"?>
<svg width="208px" height="96px" viewBox="0 0 208 96" version="1.1" xmlns="http://www.w3.org/2000/svg" xmlns:xlink="http://www.w3.org/1999/xlink">
    <!-- Generator: Sketch 43.2 (39069) - http://www.bohemiancoding.com/sketch -->
    <title>icon-collaborate-team</title>
    <desc>Created with Sketch.</desc>
    <defs></defs>
    <g id="Icons" stroke="none" stroke-width="1" fill="none" fill-rule="evenodd">
        <g id="Icon" transform="translate(-6.000000, -61.000000)">
            <g id="icon-collaborate-team" transform="translate(6.000000, 61.000000)">
                <path d="M30.006928,82.341349 L0,82.341349 C0.0907261157,78.2538578 2.05249564,67.2877056 2.66965814,63.4210792 C3.33354653,59.2605698 12.7739938,56.9642143 20.4087102,54.1912997 C20.9151818,53.5350356 21.5802109,50.4811899 21.8140547,49.9511742 C23.331188,50.5175858 24.9110598,50.5175858 25.1642956,49.511011 L25.2658181,46.1250524 L18.6337784,44.78409 C18.6337784,44.78409 17.2466851,43.4294791 17.2021978,41.5391657 C17.1577104,39.6499896 17.8318651,38.4796331 17.8318651,38.4796331 C17.8318651,38.4796331 15.4238438,39.8080844 17.3915542,44.4064823 C17.3915542,44.4064823 12.3884366,40.1959285 16.3170132,33.4433467 C17.0402181,30.9206541 18.2972714,26.7464962 18.2972714,26.3870865 C18.2972714,26.0242646 20.0049018,17.1504827 20.8205035,15.3921045 C21.6349646,13.6325889 22.7425859,11.2418315 24.6304472,10.0680629 C26.5217306,8.89429424 29.3244347,7.22576848 33.349971,7.00170606 C33.4127096,6.99943131 33.4720261,6.99943131 33.7115734,7.00170606 C37.7393911,7.22690585 40.5409545,8.89543162 42.4322379,10.0680629 C44.3235213,11.2418315 45.4288613,13.6325889 46.2433223,15.3921045 C47.0555019,17.1504827 49.8080151,27.7041641 49.8080151,28.066986 C49.8080151,28.4263957 50.7011845,31.3164598 51.8715445,34.2838652 C54.8202583,41.759816 50.9875006,44.2154036 50.9875006,44.2154036 C51.6616553,41.8439815 49.2285386,38.4841826 49.2285386,38.4841826 C49.2285386,38.4841826 50.3760845,42.6105708 50.0601102,43.7081354 C49.7441358,44.8057001 47.8699629,45.0695705 47.8699629,45.0695705 L41.7980078,46.1261898 L41.8983895,49.5132857 C42.6044839,50.4550303 44.6258073,50.5175858 45.9535841,50.2025336 C46.3129051,51.0157551 46.7860895,54.6680809 47.3977124,54.8896465 C48.1104805,55.1478528 52.6872671,56.4902039 56.9735061,58.2172891 C56.6809241,58.3220535 56.3929918,58.4253706 56.2457079,58.4788717 C55.4696132,58.7607895 54.8424781,59.0005439 54.2414837,59.2499302 C50.6914476,60.723241 49.6410053,61.0796393 47.0957617,61.8083886 C46.949017,61.8505399 46.8922262,61.8669949 46.7988429,61.8944881 C45.1189732,62.3890619 43.6066216,63.0194335 40.4410639,64.596231 C34.9577511,67.329886 31.7774357,73.1458483 30.252572,80.9782481 C30.1644526,81.4308697 30.0826528,81.8854225 30.006928,82.341349 Z" id="Combined-Shape" fill="#AAAAAA"></path>
                <path d="M98.2363027,62.5880448 C97.2028778,61.8888245 95.6383648,60.8362602 95.6458286,60.8351971 C94.0279322,60.0977457 91.2129518,59.7655748 90.1194769,58.5974137 C89.4850702,57.9203571 89.4834763,56.4359184 89.0068742,56.1927501 C88.1110538,55.7350217 87.4638952,57.8313543 87.0271428,57.7344049 C86.5919845,56.8602708 86.6063304,49.6923708 86.6063304,49.6923708 C86.6063304,49.6923708 91.7979449,45.1198546 92.9631491,36.3578518 C92.9631491,36.3578518 94.8504293,37.1398046 95.7016182,31.8791064 C95.8195732,27.7738546 96.5081754,26.7280723 93.7059469,25.5265352 C93.7059469,25.5265352 93.9099772,22.6863939 93.9976464,20.1625302 C94.1379173,16.4244148 94.8281135,11.1780206 88.3405878,6.95674739 C87.2773987,6.27969076 81.7637989,4.2993796 81.9726112,4.44559841 C83.9890043,3.63026965 86.9315036,3.88774189 86.9315036,3.88774189 C85.4985096,1.97259346 79.9466542,2.70368747 77.9908326,3.67953903 C78.653931,2.63375673 79.9769399,2.25390572 81.7271372,1.90266273 C83.662237,1.51645437 87.6998052,1.832732 87.6998052,1.832732 C80.2256018,-2.31066383 72.7609624,4.49963579 72.7609624,4.49963579 C72.5425862,3.5047122 76.2103495,1.34639555 76.2103495,1.34639555 C76.2103495,1.34639555 72.4724508,1.27646482 65.4413757,6.88363799 C58.5457895,11.1748419 59.6870839,17.5131091 59.8751743,21.2655286 C60.0026933,23.7862136 60.2545432,25.5249458 60.2545432,25.5249458 C57.4539086,26.7248936 58.9219703,28.4381965 58.9921057,32.546627 C60.15731,38.6194753 61.9537329,37.2240393 61.9537329,37.2240393 C63.2767418,44.9640998 67.3525657,49.6907815 67.3525657,49.6907815 C67.3525657,49.6907815 67.3716935,56.5249211 66.9285652,57.3640899 C66.5731062,57.4435566 65.5593307,55.8605792 64.9073902,56.1863928 C64.446728,56.4168463 64.6109087,57.4483246 63.973314,58.1047199 C62.2932521,59.8307375 58.604767,60.6873889 55.3912899,62.0208408 C46.31513,65.7875643 49.1651781,63.602229 41.778644,67.281539 C31.7829356,72.2648076 32.0423867,90.7787976 32.3236648,96 L83.003699,96 C83.0482035,93.5859931 83.5427,89.5955646 84.409235,83.9820585 C84.5324782,83.1836757 84.6627501,82.3568668 84.8010221,81.4940027 C85.172076,79.1785025 86.2383347,72.7899874 86.3366507,72.1740207 C86.8340891,69.0566338 89.2503704,66.7878467 93.2437003,64.7515895 C94.7178385,63.9999049 96.2226444,63.346629 98.2363027,62.5880448 L98.2363027,62.5880448 Z" id="Combined-Shape" fill="#00AEEF"></path>
                <path d="M147,59.299007 L148.464921,57.834086 C150.464921,56.834086 153.169655,54.7866438 153.169655,54.7866438 C154.086999,54.3533138 155.272958,53.5788785 156.186502,53.1834491 C159.333855,51.8190281 160.01046,50.9978487 163.185689,49.5993171 C163.185689,49.5993171 163.516389,48.7326571 163.397287,47.7687189 C163.397287,47.7687189 164.830321,46.8868986 166.092303,46.6872889 C166.092303,46.6872889 166.15819,45.7018737 165.876904,43.5188 C165.876904,43.5188 162.852455,42.720361 162.710545,36.6398439 C162.710545,36.6398439 160.438724,37.402909 160.301882,33.7177088 C160.20812,31.2213236 158.269533,29.0521469 161.058311,27.2619759 L159.639215,23.4428603 C159.639215,23.4428603 158.144095,8.67173913 164.694746,9.87445101 C162.036474,5.62453212 184.4544,2.09219763 185.943184,15.102205 C185.943184,15.102205 187.004972,22.1251833 185.943184,26.9322408 C185.943184,26.9322408 189.293266,26.5443915 187.054387,32.9685406 C187.054387,32.9685406 185.825348,37.5860952 183.934909,36.5488825 C183.934909,36.5488825 184.242802,42.3918893 181.2665,43.3810946 L181.475564,46.7049758 C182.798364,47.0220774 184.151574,47.8280965 184.151574,47.8280965 C184.151574,47.8280965 183.890562,49.6751183 184.387246,49.9555826 C184.387246,49.9555826 187.747464,52.2548848 191.758946,53.2807273 C199.48542,55.2578744 202.666984,58.124422 203.405675,61.6239093 C204.145632,65.1233966 207.370276,77.1568323 207.370276,81.9638897 L171.519037,81.9638897 C170.619503,76.7762849 169.608938,71.9708623 168.993151,70.7154343 C168.422147,69.5513089 167.441017,68.5570293 166.088506,67.589254 C163.959889,66.0661432 160.795788,64.550607 156.762317,62.9866434 C154.548122,62.1280976 152.220349,61.3124088 149.710743,60.4911576 C149.078552,60.2842775 147.941026,59.9209574 147.089277,59.6485963 C147.06069,59.5412707 147.031008,59.4249956 147,59.299007 L147,59.299007 Z" id="Combined-Shape" fill="#AAAAAA"></path>
                <path d="M169.936287,96 C169.736257,91.613179 166.936287,74.2822266 165.834791,72.0365656 C163.745834,67.7777317 146.119044,62.7004207 144.506923,62.1164162 C143.751998,61.8429382 143.167948,57.3348794 142.724438,56.3311217 C141.085566,56.7199901 138.59065,56.642778 137.719119,55.4803844 L137.595218,51.2996984 L145.089821,49.9955153 C145.089821,49.9955153 147.403109,49.6698205 147.793116,48.3150985 C148.183122,46.9603766 146.766708,41.8671835 146.766708,41.8671835 C146.766708,41.8671835 149.7699,46.014177 148.937792,48.9412187 C148.937792,48.9412187 153.668557,45.9102916 150.028966,36.6827398 C148.584392,33.020077 147.481955,29.4528765 147.481955,29.0092577 C147.481955,28.5614274 144.084533,15.5350387 143.082062,13.3646759 C142.076774,11.1929092 140.712455,8.24200186 138.378048,6.79322148 C136.04364,5.34584497 132.585676,3.28638682 127.614148,3.00842314 C127.318475,3.00561543 127.245261,3.00561543 127.167823,3.00842314 C122.199111,3.28498296 118.739739,5.34444111 116.405331,6.79322148 C114.075148,8.24200186 112.708013,11.1929092 111.702725,13.3646759 C110.69603,15.5350387 108.588305,26.4879306 108.588305,26.935761 C108.588305,27.3793798 107.036726,32.5315348 106.144076,35.6452895 C101.295041,43.9799883 107.47038,49.1770667 107.47038,49.1770667 C105.041638,43.501273 108.013855,41.8615681 108.013855,41.8615681 C108.013855,41.8615681 107.181747,43.3061369 107.236657,45.6379433 C107.291568,47.9711536 109.003655,49.6431472 109.003655,49.6431472 L117.189568,51.2982945 L117.064259,55.4775767 C116.751691,56.7199901 114.801658,56.7199901 112.929064,56.0208693 C112.640431,56.6750667 111.819586,60.4444226 111.19445,61.254448 C101.770934,64.6770513 90.1186077,67.5114385 89.2991716,72.6467472 C88.5374091,77.4193169 86.1160007,90.9548174 86.0040176,96 L169.936287,96 Z" id="Combined-Shape" fill="#00AEEF"></path>
            </g>
        </g>
    </g>
</svg>