<?xml version="1.0" encoding="UTF-8"?>
<svg width="140px" height="143px" viewBox="0 0 140 143" version="1.1" xmlns="http://www.w3.org/2000/svg" xmlns:xlink="http://www.w3.org/1999/xlink">
    <!-- Generator: Sketch 43.2 (39069) - http://www.bohemiancoding.com/sketch -->
    <title>icon-collaborate-tree-rings</title>
    <desc>Created with Sketch.</desc>
    <defs></defs>
    <g id="Icons" stroke="none" stroke-width="1" fill="none" fill-rule="evenodd">
        <g id="Icon" transform="translate(-40.000000, -39.000000)">
            <g id="icon-collaborate-tree-rings" transform="translate(40.000000, 39.000000)">
                <path d="M131.977854,82.036814 C131.814521,82.8086329 131.626396,83.8859634 131.063479,84.4984485 C130.433479,85.1854842 129.491396,85.1138571 129.078688,86.1210223 C128.700979,87.0434043 129.227438,88.2800686 129.011604,89.3340107 C128.848271,90.1379887 128.356813,91.1188419 128.089938,91.9242816 C127.500771,93.720807 126.404104,95.2308239 125.536396,96.9323337 C124.719729,98.5329808 123.446604,100.151169 122.839938,101.802979 C122.495771,102.74144 122.606604,103.795382 122.307646,104.770388 C122.021813,105.701541 121.547854,106.463127 121.225563,107.341656 C120.525563,109.253662 119.933479,110.866003 118.693896,112.510504 C118.062438,113.346641 116.668271,115.255723 115.408271,115.837511 C115.314938,115.830202 115.228896,115.82874 115.150146,115.838973 C114.975146,115.860899 114.805979,115.920832 114.641188,116.007077 L114.635354,116.007077 L114.635354,116.010001 C113.368063,116.682419 112.386604,119.056347 111.750771,120.038661 C109.773271,123.09524 106.213479,125.437008 102.878271,126.795 C101.024729,127.549278 99.0370208,127.99512 97.3278542,128.926273 C95.6011875,129.870582 93.5245208,130.430443 91.6593125,131.086781 C90.8222292,131.379137 89.9093125,131.902453 89.0051458,132.076405 C87.9463958,132.281054 86.7782708,131.938998 85.7603542,132.200656 C83.6545208,132.741514 82.0693125,132.421384 79.8307708,132.20358 C78.8872292,132.112949 77.6782708,131.772355 76.7303542,131.933151 C75.8174375,132.089561 74.9832708,132.685966 74.0368125,132.883306 C71.9411875,133.323302 70.6607708,134.504418 68.3711875,134.501495 C67.1651458,134.501495 66.1486875,134.435715 65.0272292,134.198907 C64.5211875,134.092197 64.5138958,133.76622 63.8926458,133.931401 C63.2466042,134.103891 63.4726458,134.568737 62.9855625,134.808468 C61.9734792,135.306935 60.7834792,135.014579 59.9770208,134.53073 C59.6168125,134.315849 58.9255625,133.541107 58.3159792,133.373002 C57.4759792,132.630419 55.6793125,132.47547 54.7547292,132.338063 C53.4218125,132.142185 51.8701458,132.310289 50.5984792,132.045707 C50.3884792,131.105784 49.6155625,131.054622 48.9607708,130.547385 C48.3088958,130.044533 47.9603542,129.348727 47.2078542,128.95697 C45.4578542,128.044821 43.1055625,129.0476 41.3730625,127.778777 C39.8957708,126.695599 38.6634792,125.317142 37.2007708,124.130179 C36.4832708,123.545467 35.7263958,123.232647 35.1036875,122.441825 C34.4868125,121.655388 34.3628542,121.004897 33.6861875,120.348558 C32.5997292,119.29754 30.6091042,119.038805 29.7049375,117.856227 C29.7341042,117.857688 29.7618125,117.856227 29.7909792,117.85915 C29.7895208,117.85038 29.7866042,117.843071 29.7836875,117.835762 C29.8391042,117.848918 29.8945208,117.863536 29.9470208,117.879615 L29.7326458,117.666195 C29.1011875,115.526152 26.4849375,112.658143 24.6591042,111.425864 C23.2372292,110.466938 22.5270208,109.848606 21.6184792,108.389751 C20.8630625,107.175013 20.3628542,105.70885 19.6701458,104.530657 C19.1451458,103.638972 18.6653542,103.013331 18.3226458,102.06756 C17.8749375,100.83382 17.6678542,100.940529 16.7680625,100.006453 C15.4963958,98.6879293 14.4332708,97.0405053 14.8474375,95.3097599 C15.2966042,93.4255278 15.6072292,91.3863473 14.8766042,89.4699561 C14.2845208,87.9190094 13.5743125,85.7497306 11.7659792,85.1518633 C11.6493125,84.2411755 10.7378542,83.6491553 10.3674375,82.8773365 C9.95327083,82.0046549 9.59889583,81.0238017 9.28972917,80.0692606 C9.00827083,79.2024261 8.64222917,78.3429005 8.37972917,77.4687572 C8.1493125,76.7086325 8.38264583,75.1196796 7.93347917,74.359555 C8.0443125,74.0540433 8.20910417,73.7777673 8.23972917,73.4167081 C8.29222917,72.8246879 8.1318125,72.3306069 8.1055625,71.795596 C8.04722917,70.6071704 8.2236875,69.5020661 8.50952083,68.4174267 C8.8974375,66.9556485 10.1895208,64.3916895 11.5880625,63.663724 C11.5005625,62.8158927 12.0211875,62.2151018 12.1495208,61.3891972 C12.2836875,60.5369805 12.1495208,59.551742 12.1495208,58.6878311 C12.1524375,56.9278501 11.6857708,55.3125852 11.8738958,53.5452954 C12.0357708,52.0089665 12.1655625,50.1612789 12.4207708,48.5518611 C12.6555625,47.0637709 13.8703542,46.0683 13.6530625,44.6021365 C14.1036875,44.3068573 14.4799375,43.9224096 14.7191042,43.4151726 C14.9407708,42.9474036 14.7453542,42.4971759 15.1055625,42.0250215 C15.2747292,41.8028313 15.9003542,41.6054912 16.1628542,41.3569889 C16.8497292,40.6962652 17.0626458,39.8747458 17.5730625,39.0985416 C18.5705625,37.587063 19.5870208,36.0346545 20.9170208,34.7936049 C21.5922292,34.1650402 22.6072292,32.9634586 23.3072292,32.5731638 C24.2055625,32.0703121 25.1359792,32.3334322 26.0445208,31.5601515 C26.6774375,31.0222172 27.0201458,30.1700005 27.5466042,29.5297416 C27.9141042,29.0824375 28.3545208,29.0108104 28.6053542,28.4158666 C28.7818125,27.9904892 28.5878542,27.3955455 28.7672292,26.9657827 C29.4424375,25.3432089 31.2041042,23.5890751 32.4713958,22.8377211 C33.9486875,21.9635777 35.6461875,20.7327605 37.1891042,20.0296452 C38.0947292,19.6188855 39.2263958,19.9083176 40.1888958,19.6364269 C41.0741042,19.3835392 41.8732708,18.6745768 42.5149375,18.1746487 C43.1638958,17.671797 44.0228542,17.2493431 44.5478542,16.6997145 C45.1486875,16.0711499 45.4972292,14.9908958 46.4291042,14.5304357 C47.8466042,13.8331675 51.0388958,14.5830597 51.8118125,12.8976294 C53.6522292,12.7909196 55.3613958,10.9987796 56.9086875,10.1684896 C57.9163958,9.62763164 58.8628542,10.1348687 59.8705625,10.178722 C60.9891042,10.2269607 62.1484792,10.1714131 63.2261875,10.1509482 C63.2247292,10.1421776 63.2232708,10.1319451 63.2218125,10.1231744 C64.5591042,10.5617079 66.4038958,10.6815737 67.3941042,10.8803755 C68.3857708,11.0821009 69.4284792,10.9388467 70.4230625,11.0879481 C71.4220208,11.2385112 72.2897292,11.7442865 73.3630625,11.7954487 C75.2661875,11.8904643 77.8547292,10.903764 79.8380625,11.5162491 C80.6620208,11.7705985 81.4174375,12.6681303 82.2574375,13.0101864 C83.2563958,13.4150989 83.8105625,13.638751 84.7118125,14.1971502 C86.5653542,15.3461079 88.6638958,15.6311546 90.7828542,15.2057772 C92.7895208,14.8008646 94.8516042,15.5595275 96.6832708,16.5228393 C98.1634792,17.3005053 100.302854,18.2813585 100.079729,20.4184782 C101.259521,20.9374095 102.306604,20.2562208 103.560771,20.8146201 C104.672021,21.3072393 105.720563,22.0103546 106.761813,22.6345339 C108.606604,23.7381765 110.648271,24.7716536 112.357438,25.9483851 C113.935354,27.035948 114.749104,28.4421787 115.594938,30.0311315 C116.665354,32.0323059 116.803896,33.6899623 117.342021,35.8183114 C117.871396,37.9145013 118.583063,39.4142857 120.044313,41.0924071 C120.605771,41.7355895 120.995146,42.7588342 121.488063,43.2850743 C122.059729,43.8946358 122.975563,43.9677248 123.614313,44.6123689 C123.617229,44.5962894 123.621604,44.5860569 123.625979,44.5729009 C123.631813,44.5948276 123.634729,44.6152925 123.642021,44.6386809 C123.999313,45.8154124 125.171813,46.6617819 125.505771,47.907217 C125.893688,49.3514538 126.506188,50.5062586 127.022438,51.927107 C128.450146,55.8534432 128.770979,60.3381786 128.502646,64.6328829 C128.372854,66.7027609 127.372438,68.8018743 127.958688,70.9886945 C128.480771,72.9313977 129.466604,74.3288576 130.423271,76.1209977 C131.342021,77.8429724 132.383271,80.1218846 131.977854,82.036814 M139.024521,63.9575414 C138.643896,63.0527007 138.062021,62.3305823 137.774729,61.4198945 C137.469937,60.4521973 137.264312,59.6160602 136.691187,58.7170666 C135.525979,56.8839968 135.633896,54.93837 135.243062,52.8787246 C134.825979,50.6772866 134.012229,49.0020888 133.220354,47.0652327 C132.763896,45.9469724 132.899521,45.7803297 131.572437,45.3388727 C130.659521,45.0348228 129.740771,44.8374828 128.797229,44.4749618 C129.078687,43.1008903 129.780146,41.7238952 129.580354,40.3074322 L129.580354,40.038465 C129.526396,40.0355414 129.466604,40.0370032 129.403896,40.0413885 C129.734937,39.583852 129.573062,39.4727568 129.078687,38.5138303 C128.665979,37.7156995 128.105979,36.9906575 127.824521,36.1223612 C127.229521,34.2761354 126.485771,32.7836599 125.634104,31.0207554 C123.938062,27.511026 121.006812,24.9192932 118.357021,22.1009849 C117.633687,21.3335513 116.852021,20.6289743 116.133062,19.8673878 C115.345562,19.0370978 114.703896,18.8266018 113.834729,18.1103304 C113.242646,17.6235583 112.848896,16.7991154 112.154729,16.2874931 C111.066812,15.4864386 110.958896,15.9571312 109.897229,15.9834432 C108.549729,16.0156023 105.538271,15.4849768 104.362854,14.495353 C103.019729,13.3653985 103.432437,10.5514755 101.978479,9.45952715 C100.324729,8.2170157 97.4620208,8.75495007 95.7411875,7.50220616 C94.8530625,6.85756198 94.7903542,6.20999425 93.5828542,5.84747326 C92.5707708,5.5434234 91.5149375,5.41917225 90.4824375,5.17505529 C89.2953542,4.89439388 88.0149375,4.87685254 86.8424375,4.52894934 C85.9047292,4.25121148 85.1201458,3.59779663 84.1459792,3.40776547 C82.6934792,3.1241805 78.9411875,5.29199755 79.0024375,3.02916492 C77.3224375,2.71488261 75.5491042,2.42983586 73.8909792,2.2061838 C71.9936875,1.94891084 71.6116042,3.22796675 70.6957708,4.66489471 C69.6005625,6.38686941 68.8188958,6.83709709 67.6638958,4.7993783 C67.2336875,4.0421772 67.1986875,3.42969214 67.0236875,2.60524925 C66.7859792,1.48991249 66.6007708,1.44021203 65.9080625,0.970981236 C65.2547292,0.919818999 64.6028542,0.802876745 63.9218125,0.84673009 C62.8893125,0.913971887 62.5218125,1.26626043 61.6293125,1.65801698 C61.0736875,1.90213394 60.1534792,1.96060507 59.7436875,2.46930387 C59.6459792,2.59063146 59.5774375,2.69003238 59.5293125,2.77920085 C58.9270208,2.56870479 58.5259792,2.86544576 57.5926458,3.27912899 C56.5572292,3.73958912 55.5159792,3.96762651 54.4776458,4.35353595 C52.6445208,5.03326281 50.8113958,5.80654347 48.9563958,6.55643568 C48.1557708,6.87948866 47.3638958,7.5533684 46.5326458,7.74193779 C45.4228542,7.99482541 44.4180625,7.41303769 43.3257708,7.77117335 C40.0445208,8.84119498 36.7793125,11.253129 34.1251458,13.4150989 C33.4091042,14.001272 32.9963958,14.8125589 32.3430625,15.4118879 C31.6649375,16.0346054 30.7301458,16.1983246 29.9134792,16.7596474 C28.9582708,17.4159858 28.6884792,17.8779077 27.5203542,18.0094678 C26.9603542,18.0723242 26.3405625,17.9027579 25.7980625,18.0416269 C25.2555625,18.1775722 24.8807708,18.646803 24.2843125,18.6848093 L25.6318125,18.8192929 C24.6576458,19.3601508 23.5755625,19.1467312 22.9659792,20.0676514 C22.6334792,20.5734267 22.8128542,21.3642487 22.6655625,21.9284951 C22.3811875,23.0233669 21.7293125,24.2044837 21.1795208,25.1400217 C20.4343125,26.4073834 20.1995208,26.7479777 18.7572292,27.1996672 C17.7072292,27.5271055 16.3772292,27.7171367 15.4088958,28.3033097 C15.2718125,28.7052987 15.0034792,29.1730677 14.7118125,29.4975825 C14.5586875,29.6671488 14.6505625,29.936116 14.4828542,30.0779084 C14.3034792,30.2284716 13.8747292,30.0515964 13.7682708,30.1656151 C13.1353542,30.845342 12.9384792,31.5484573 12.5884792,32.5044602 C12.2545208,33.4107627 12.1524375,34.2498234 11.6434792,35.0713427 C11.1899375,35.8036936 10.4738958,36.3313955 10.0261875,37.0959055 C9.14097917,38.6059224 7.88097917,40.1057068 7.02785417,41.5236316 C6.64139583,42.1682758 6.51889583,42.786608 6.6049375,43.3318512 C6.10910417,45.2687073 6.13097917,47.3839004 5.67889583,49.363148 C5.4280625,50.4550963 5.0780625,50.9769511 4.43202083,51.900795 C3.75389583,52.8699539 3.65910417,53.7484826 3.2186875,54.7351829 C2.8643125,55.5260049 2.24889583,56.144337 1.93389583,56.961471 C1.5474375,57.9657126 0.859104167,58.2756096 0.421604167,59.0942054 C-0.6488125,61.0968415 0.6155625,62.8655931 0.9611875,64.6328829 C1.05597917,65.1225786 1.19889583,65.713137 1.09535417,66.2554567 C0.999104167,66.7568466 0.5936875,66.9673427 0.522229167,67.3020899 C0.338479167,68.1616155 0.6461875,69.0533002 1.0574375,69.9420613 C1.80410417,71.5470938 2.75202083,73.2529889 3.13847917,75.0188169 C3.2143125,75.0232023 3.2930625,75.0246641 3.37035417,75.0246641 C3.3368125,75.1459916 3.30764583,75.2746281 3.28285417,75.4149588 C2.99264583,77.0784624 4.02952083,78.6542593 3.29014583,80.6159656 C2.7243125,82.1186736 1.15660417,83.4766655 1.9368125,85.1401691 C2.44577083,86.2248085 4.01785417,87.8064525 5.11597917,88.3063806 C5.17285417,89.2843102 5.42514583,90.3382523 5.50972917,91.1539245 C5.59139583,91.9184345 5.4630625,92.3730476 4.8374375,93.1448664 C4.04410417,94.1169489 3.82097917,94.2178116 4.09514583,95.4164697 C4.27452083,96.2087535 4.66535417,97.009808 4.97452083,97.7713944 C5.6336875,99.3925064 6.2155625,101.124714 7.0599375,102.574798 C8.1536875,104.456106 9.04327083,104.521886 11.1928542,104.662217 C10.6838958,105.464733 9.03889583,106.350571 9.07972917,107.308035 C9.10597917,107.929291 10.5409792,109.918771 10.8997292,110.484479 C11.3882708,111.254836 12.0401458,111.814697 12.5884792,112.574822 C13.1149375,113.304249 13.3322292,114.232479 13.8703542,114.910744 C14.8663958,116.166411 17.0013958,117.115105 18.4845208,117.746593 C19.8072292,118.312301 21.6053542,119.233222 23.1891042,119.613284 C22.8988958,120.16876 22.8259792,120.848487 23.0709792,121.662697 C23.6324375,123.522079 24.7116042,124.862529 25.3663958,126.656131 C26.0095208,128.413189 27.2432708,129.320953 29.0034792,130.04161 C30.6163958,130.703795 32.5268125,131.222726 33.9588958,132.102717 C35.4288958,133.007558 36.6422292,134.364088 38.2828542,134.79385 C40.0780625,137.470366 43.0661875,138.562315 46.1257708,138.562315 C46.5501458,138.562315 47.0022292,138.299195 47.4732708,138.420522 C48.0332708,138.5667 47.8057708,138.861979 48.1747292,139.069552 C48.8018125,139.42184 49.4084792,139.64403 50.0326458,139.911536 C51.3611875,140.481629 52.9536875,140.804682 54.4616042,140.423158 C54.7299375,139.763896 54.4295208,138.983307 55.0274375,138.540388 C55.6530625,139.041778 55.3599375,139.996319 55.5816042,140.697973 C55.5874375,140.696511 55.6297292,140.695049 55.6822292,140.693587 C55.6895208,141.038567 55.7668125,141.342617 55.9607708,141.53411 C56.3063958,141.876166 58.4020208,142.070582 58.9343125,142.06912 C60.1651458,142.063273 60.4670208,141.522415 60.9803542,140.469935 C61.9822292,140.307678 62.9243125,140.540101 62.7288958,141.779688 C66.3528542,142.512039 71.4118125,143.226849 74.6857708,141.235907 C74.9730625,140.173194 75.7780625,136.81549 77.1124375,136.776022 C77.0978542,136.623997 77.1503542,136.572835 77.2699375,136.528981 L77.5397292,136.663465 C78.5620208,137.182396 78.2557708,139.994857 79.5580625,140.886542 C80.9770208,141.861548 83.2811875,141.487333 84.6520208,140.683355 C87.9216042,138.762578 91.9203542,139.531474 95.7178542,138.939453 C96.2443125,138.142784 97.0157708,138.056539 97.7551458,137.574153 C98.6345208,136.999674 99.3680625,136.150381 100.219729,135.448727 C100.902229,134.884481 101.510354,134.079041 102.450979,133.788147 C103.476187,133.475327 104.456187,133.880239 105.447854,133.960637 C107.849729,134.159439 109.399937,132.823373 111.244729,131.664183 C112.950979,130.589776 114.486604,129.798954 115.323687,128.015585 C116.156396,126.236601 116.554521,124.390375 117.178687,122.608468 C117.597229,121.408348 117.846604,121.475589 118.935979,120.994664 C119.627229,120.690615 120.104104,120.471348 120.144937,119.967034 C120.599937,119.943646 121.065146,119.636672 121.927021,119.12505 C122.651812,118.695287 123.019312,118.718676 123.646396,117.979016 C124.191812,117.335834 124.629312,116.656107 125.098896,115.983689 C125.743479,115.05546 127.162437,112.092435 128.209521,112.044197 C129.694104,109.034395 131.500979,106.141536 132.273896,103.016255 C132.690979,101.332286 132.992854,99.5693816 133.516396,97.905878 C133.864937,96.8080826 135.874521,94.5554824 135.129312,93.5804763 C137.224937,92.5733112 133.186812,90.8352569 132.451812,90.3411759 C133.425979,90.4449621 134.664104,90.5779839 135.644104,90.3060932 C136.551187,90.0546674 137.194312,89.4231792 138.050354,88.9349453 C138.067854,88.5943509 138.104312,88.2259828 138.073687,87.8780796 C137.992021,86.8723762 137.245354,86.1327165 137.265771,85.0407682 C137.284729,83.9488199 137.604104,82.8334831 137.809729,81.7970824 C138.206396,79.7842138 138.969104,78.0344653 138.748896,75.8505687 C138.515562,73.5380356 139.689521,72.1391139 139.828062,70.0400005 C139.959312,68.032979 139.766812,65.713137 139.024521,63.9575414" id="Fill-1" fill="#00AEEF"></path>
                <path d="M66.7540417,0.981944572 L65.5407083,0.711515608 C65.6763333,0.812378303 65.797375,0.895699659 65.9082083,0.971712125 C66.18675,0.99217702 66.4696667,1.00387125 66.7540417,0.981944572" id="Fill-4" fill="#000000"></path>
                <path d="M122.573354,82.8871304 C121.991479,84.0901738 122.036688,85.3575355 121.739188,86.6599799 C121.470854,87.8367113 120.702313,89.1113819 120.019813,90.1463208 C119.315438,91.2090336 118.966896,92.3141379 118.501688,93.4791751 C118.115229,94.4468723 117.706896,95.5125086 117.075438,96.3647252 C116.489188,97.1497001 115.908771,97.8586625 115.485854,98.7488855 C115.013354,99.7443564 114.505854,100.712054 114.450438,101.859549 C114.411063,102.71469 114.104813,103.622454 114.187938,104.477594 C114.278354,105.421903 114.593354,105.993458 114.020229,106.909993 C113.098563,108.383465 111.161896,108.795687 109.976271,109.997269 C108.288979,111.704626 107.529188,114.163336 106.524396,116.335539 C105.977521,117.518117 105.203146,118.07944 104.083146,118.652457 C102.896063,119.26348 101.167938,118.415649 100.004188,118.976972 C99.6279375,119.159694 99.1146042,119.791182 98.7733542,120.058688 C98.2381458,120.481142 97.7321042,120.697485 97.1225208,121.032232 C96.5114792,121.366979 96.0579375,121.827439 95.4498125,122.178266 C94.9583542,122.463313 94.6871042,122.931082 94.1985625,123.239517 C93.7552292,123.52164 93.0450208,123.673665 92.5462708,123.945556 C91.9206458,124.289074 91.6071042,124.761228 91.0281458,125.072587 C90.7481458,125.221688 90.3879375,125.128135 90.1429375,125.26408 C89.8848125,125.408796 89.7579375,125.76547 89.4458542,125.936498 C88.8493958,126.253704 88.0954375,126.087061 87.4800208,126.281478 C86.7712708,126.508053 86.3716875,126.763864 85.4777292,126.573833 C84.8681458,126.445197 84.3125208,126.101679 83.7423125,125.844406 C82.4939792,125.28016 81.2383542,125.402949 79.7523125,125.341554 C78.8933542,125.306472 78.2910625,125.490656 77.3796042,125.318166 C76.5133542,125.152985 75.6529375,124.831394 74.8304375,124.714451 C73.8956458,124.582891 72.8835625,124.769999 72.0143958,124.900097 C71.5389792,124.971724 71.2443958,124.886941 70.8433542,125.136905 C70.4043958,125.407334 70.3314792,125.920418 69.6475208,125.793244 C69.0014792,126.703931 66.6841875,126.046131 65.7596042,125.863409 C65.2360625,125.759623 64.3610625,125.42049 63.8243958,125.509659 C63.1710625,125.61783 62.8400208,126.228854 62.2552292,126.472971 C61.4312708,125.036043 60.1085625,125.23923 58.8048125,125.430723 C57.4529375,125.628063 55.9756458,125.682149 54.6821042,125.405872 C54.0360625,125.268465 53.4031458,125.242153 52.9014792,124.808005 C52.5033542,124.463026 52.2802292,123.831537 51.8223125,123.505561 C51.0348125,122.941314 49.4525208,122.417998 48.4987708,122.248432 C47.2591875,122.027703 46.1202292,121.805513 45.1314792,120.945987 C44.3075208,120.229716 43.6716875,119.333646 42.9308542,118.650995 C42.4233542,118.181765 41.8181458,117.835323 41.3675208,117.304698 C41.0000208,116.874935 40.7156458,116.30338 40.3379375,115.873617 C39.5518958,114.979009 38.4406458,114.353368 37.5787708,113.602014 C36.6468958,112.786341 35.5691875,112.629931 34.8298125,111.570142 C34.1283542,110.567362 33.5946042,109.491493 32.9383542,108.475557 C32.3068958,107.49909 31.7746042,106.49631 31.0425208,105.591469 C30.4227292,104.822574 29.4835625,103.582986 28.5312708,103.2497 C28.3125208,103.17515 28.1214792,103.066978 27.9085625,103.021663 C27.9537708,103.10937 27.9975208,103.178073 28.0587708,103.259933 C27.6941875,102.713228 27.1677292,102.518811 26.7477292,102.061275 C26.3948125,101.679751 26.1352292,101.045339 25.8041875,100.60242 C25.0239792,99.5601724 24.4771042,98.4565298 23.9987708,97.2914926 C23.7479375,96.6790076 23.2987708,95.9978189 23.1193958,95.3487894 C22.9458542,94.7202248 23.0552292,93.8913966 23.0523125,93.2102079 C23.0493958,91.7572004 24.1577292,90.7324939 23.7610625,89.2400184 C23.4752292,88.155379 22.4208542,87.0955898 21.8418958,86.1278926 C21.5006458,85.5563373 21.1083542,85.3370706 20.6956458,84.8941518 C20.2639792,84.4307681 20.1006458,83.7744297 19.7943958,83.2364954 C19.5129375,82.7424143 19.0302292,82.3579667 18.8216875,81.828803 C18.5766875,81.2119326 18.5621042,80.5789826 18.2981458,79.9708829 C17.7833542,78.7883044 17.1518958,77.8030659 16.5175208,76.7257353 C15.9502292,75.7624235 15.7227292,74.632469 15.5681458,73.5273647 C15.4908542,72.9660418 15.2837708,72.0626629 15.3916875,71.4984165 C15.5025208,70.9327084 15.8233542,70.7733746 16.2506458,70.3304558 C17.0293958,69.5191689 17.7191875,68.5938633 18.5796042,67.9024422 C19.9956458,66.763717 20.7160625,64.3722479 20.4973125,62.6078816 C20.2698125,60.7660411 19.1148125,58.7692521 19.9985625,56.9405676 C20.5337708,55.8296162 20.9931458,54.2903638 20.7641875,53.0522376 C20.5498125,51.8886622 20.2071042,50.2792444 20.3208542,49.0805863 C20.4521042,47.678741 21.7135625,45.5562391 22.9691875,44.8063469 C23.1383542,44.2947245 23.6327292,44.0564547 23.9098125,43.5857621 C24.2058542,43.085834 24.3093958,42.5522849 24.6404375,42.024583 C25.1114792,41.2717672 25.3112708,41.3653211 26.0462708,40.9633321 C26.8250208,40.535031 26.7112708,39.8640749 27.2143958,39.3012903 C27.6008542,38.8700657 28.3227292,38.7253497 28.8010625,38.3350549 C29.2939792,37.9330659 29.7810625,37.4652969 30.2098125,37.0121456 C31.1241875,36.0429867 32.2383542,36.1847792 33.2898125,35.335486 C34.5468958,34.3166266 35.0558542,33.1252774 35.5793958,31.6284166 C36.0985625,30.1403264 37.7493958,29.6067773 38.3896042,28.2663267 C39.0808542,28.2268587 39.8464792,28.330645 40.4896042,28.1669258 C40.7943958,28.0879898 41.0539792,27.8833409 41.3733542,27.8102519 C41.6912708,27.7386248 41.9771042,27.8921115 42.3387708,27.8131755 C43.6308542,27.5339759 45.0046042,25.8675487 46.0356458,25.075265 C47.1264792,24.2347425 47.5975208,23.5184712 48.3908542,22.4031344 C48.8137708,21.8081907 48.9012708,21.3681955 49.5575208,21.1913203 C50.2575208,21.0027509 50.9268958,21.1372345 51.6021042,20.8565731 C52.7483542,20.3814952 53.3914792,19.3334003 54.3131458,18.5396547 C55.3193958,17.674282 56.3198125,18.4987249 57.5696042,18.1215861 C58.7464792,17.7678358 59.7162708,17.0501027 61.0039792,17.1319623 C61.7812708,17.180201 64.5054375,17.1363476 64.4514792,18.0865035 C65.5277292,18.4241742 66.4041875,19.0410446 67.4323125,19.5146608 C68.5041875,20.0087418 69.8093958,20.0365156 71.0416875,19.9561178 C72.1573125,19.8815671 73.0118958,19.3100118 74.1041875,19.1419073 C75.3204375,18.9562615 77.0850208,18.5221134 77.3810625,18.5001867 C77.6785625,18.47826 78.5127292,18.8349339 78.4893958,18.8320103 C78.7387708,18.8553988 78.8131458,18.669753 79.0975208,18.7457654 C79.3658542,18.8203161 79.6137708,19.2646967 79.8660625,19.4079509 C80.3268958,19.6739946 80.9991875,19.7558542 81.5183542,20.0438245 C82.6850208,20.6943157 83.8093958,20.9808243 85.1102292,21.3901222 C86.4752292,21.8198849 87.7293958,21.8842032 89.1789792,21.8096525 C90.2129375,21.7570285 92.5171042,21.786264 93.2331458,22.4235993 C93.3702292,22.5449269 93.4796042,22.965919 93.6662708,23.157412 C93.8835625,23.3839876 94.3093958,23.5827894 94.5733542,23.8181357 C95.1421042,24.3268345 95.3346042,24.7697533 95.6948125,25.4275535 C96.0783542,26.1277453 96.3146042,26.6919916 96.9285625,27.0837482 C97.4637708,27.4272661 98.2702292,27.6041412 98.8608542,27.7269306 C99.5871042,27.8804173 100.227313,28.0382893 100.979813,28.0762956 C101.955438,28.1245343 102.076479,28.0660631 102.760438,28.6770864 C103.708354,29.5205324 104.742313,30.1213233 105.802521,30.742579 C106.426688,31.1109471 106.775229,31.3360609 107.583146,31.4983183 C108.354604,31.6532668 109.007938,31.441309 109.519813,32.0523322 C109.922313,32.5317955 110.084188,33.0288001 110.510021,33.5287282 C110.836688,33.9131759 111.317938,34.6338325 111.374813,35.1337607 C111.438979,35.6921599 111.017521,36.5809211 110.928563,37.1670941 C110.822104,37.8760565 110.960646,38.5090065 111.099188,39.2018893 C111.329604,40.3552323 111.440438,42.0085035 112.334396,42.9045735 C113.193354,43.7655608 114.527729,44.1909383 115.357521,45.0884701 C116.177104,45.9757694 116.896063,47.0750266 117.730229,48.0032558 C118.475438,48.8335458 119.782104,49.557126 120.066479,50.5818325 C120.288146,51.3785016 120.328979,52.0816169 120.681896,52.8797478 C120.964813,53.5170831 121.183563,54.1222593 121.211271,54.7990626 C121.266688,56.1585163 121.629813,57.3527891 121.758146,58.7020103 C121.826688,59.4138963 121.976896,60.2047183 121.934604,60.9078336 C121.893771,61.5890222 121.524813,62.0670237 121.494188,62.7613683 C121.459188,63.5521903 121.886479,63.9965709 122.003146,64.7026098 C122.119813,65.4071869 121.823771,65.9889746 121.759604,66.645313 C121.616688,68.0778556 121.539396,69.3963795 121.402313,70.7879923 C121.304604,71.7586131 121.164604,72.3857159 121.603563,73.2393944 C122.004604,74.0199839 122.195646,74.8093441 122.529604,75.5621599 C123.121688,76.9011487 124.679188,78.3073793 124.738979,79.7808517 C124.014188,79.6989922 122.894188,82.2220213 122.573354,82.8871304 M128.097521,81.3405691 C128.040646,80.1609141 127.960438,79.4884961 127.603146,78.4243216 C127.012521,76.6628789 126.362104,74.7727997 125.856063,72.9938156 C124.744813,69.083559 126.383979,65.3414068 125.581896,61.083247 C125.230438,59.2194798 124.254813,57.4302633 123.875646,55.521181 C123.509604,53.6734934 123.359396,51.7877995 122.682729,49.9576532 C122.067313,48.2912261 121.424188,46.6949643 119.939604,45.5620862 C118.551271,44.502297 117.623771,43.0931429 116.639396,41.5904349 C115.468354,39.8012184 114.594813,38.3496727 114.486896,36.1950116 C114.424188,34.9320353 114.314813,34.4584191 113.867104,33.3825504 C113.538979,32.5946519 113.380021,31.5831014 112.747104,30.9296866 C111.396688,29.5351502 109.209188,29.2223297 107.626896,28.5162908 C106.178771,27.8716466 104.421479,26.5794347 103.235854,25.6365878 C102.257313,24.8589218 102.107104,24.6250373 100.626896,24.5461013 C99.2268958,24.4715506 98.9104375,24.4905537 97.8560625,23.7187348 C96.2198125,22.5186149 96.0900208,20.9384327 94.2802292,19.7807044 C92.5593958,18.6785236 90.9668958,18.438792 88.8727292,18.3233115 C86.6268958,18.2005222 84.9337708,17.9564052 83.0306458,17.0281761 C82.2387708,16.6408048 81.4454375,15.8543682 80.6535625,15.572245 C79.8018958,15.2696569 78.2385625,15.5210828 77.3810625,15.6467957 C75.2066875,15.9654633 73.3166875,15.9406131 71.0416875,15.9406131 C68.8191875,15.9406131 66.7089792,15.4699205 64.7373125,14.7141812 C62.8706458,14.0022952 60.2821042,13.8634263 58.2302292,14.1894028 C57.0125208,14.3823575 56.4087708,14.9729159 55.3529375,15.5795539 C54.4721042,16.0838674 53.5110625,16.2548954 52.5791875,16.7665178 C50.7139792,17.792686 48.2902292,17.766374 47.1658542,19.5453581 C46.1829375,21.0992283 45.1008542,22.3519722 43.5331458,23.4526912 C42.9133542,23.8897629 42.1885625,24.6688906 41.4098125,24.7887564 C40.4648125,24.9334725 39.7823125,24.1923509 38.8693958,24.1397269 C36.8525208,24.0227847 35.7543958,26.0327297 34.1633542,26.8922552 C33.4079375,27.2986296 32.3593958,27.4082629 31.8416875,28.1464609 C31.3721042,28.8144936 31.2510625,30.2324184 30.8908542,31.0378582 C30.5714792,31.7541295 30.3921042,32.8899311 29.8743958,33.4556393 C29.6206458,33.7319154 29.0956458,33.7421478 28.8098125,33.9789559 C28.4656458,34.2625409 28.2308542,34.7317717 27.8881458,35.0065859 C27.2231458,35.540135 26.2460625,35.8997324 25.4760625,36.3265716 C24.4756458,36.8820474 24.2423125,37.1963297 23.5904375,38.1523326 C22.6396042,39.5454072 21.9702292,41.2308375 20.8196042,42.5172023 C20.1779375,43.2349353 19.4487708,43.4673581 18.8785625,44.1748587 C18.3637708,44.8151176 18.0385625,45.5211564 17.5835625,46.2900518 C16.5773125,47.988638 17.6506458,49.7427718 17.6841875,51.685475 C17.7148125,53.6778787 17.0775208,55.7258299 16.8966875,57.6422211 C16.8514792,58.130455 16.9491875,58.6596188 16.8893958,59.0981522 C16.8179375,59.6419337 16.4431458,60.1111645 16.3921042,60.5847806 C16.2739792,61.6928085 16.9273125,62.2906758 16.1339792,63.3636209 C15.5783542,64.1164367 14.5896042,64.5666644 14.1098125,65.4276517 C13.6883542,66.1848528 13.4229375,66.9493628 13.0277292,67.6714813 C12.6018958,68.4491473 12.1498125,69.1288741 11.7400208,69.9547788 C11.1902292,71.0584213 11.5256458,71.6080499 11.7458542,72.727772 C11.9471042,73.7451696 11.9777292,74.7976499 12.1352292,75.7799648 C12.3714792,77.2490519 12.8177292,77.3762266 13.7277292,78.2883762 C14.5400208,79.1025867 14.5779375,79.8407846 15.0737708,80.9093445 C15.4996042,81.8258794 16.3308542,82.6824814 16.6341875,83.7218057 C16.9593958,84.8444514 17.1256458,85.5709551 17.7148125,86.6015087 C19.0462708,88.9257361 19.9373125,92.5933375 20.0598125,95.2406178 C20.1516875,97.2081713 21.5064792,98.6831054 22.3056458,100.403618 C23.0406458,101.988186 23.6823125,103.39734 24.5835625,104.898586 C25.1391875,105.819507 25.2864792,106.423221 26.1396042,107.019626 C26.9285625,107.570717 27.7408542,107.867458 28.4146042,108.579344 C29.5141875,109.741457 30.4650208,111.507285 31.1912708,112.973449 C31.5718958,113.740883 31.7191875,114.731968 32.5723125,115.266979 C33.3393958,115.747904 34.4550208,115.552026 35.2789792,115.990559 C36.3114792,116.543111 36.5564792,117.288618 37.1266875,118.114523 C37.6210625,118.826409 38.3123125,119.206471 38.9802292,119.832112 C40.3846042,121.146251 40.9577292,122.515937 42.6450208,123.29945 C44.1077292,123.979177 45.3925208,124.734916 46.9004375,125.131058 C47.7200208,125.34594 48.4768958,125.271389 49.2498125,125.690919 C49.9293958,126.057826 50.4004375,126.826721 51.0027292,127.250636 C53.4716875,128.988691 58.7260625,126.503668 60.1012708,129.50616 C60.8814792,129.561708 61.3656458,130.185887 62.1706458,130.035324 C62.4768958,128.751883 63.3343958,129.013541 64.2735625,129.428686 C65.2710625,129.871605 65.9550208,130.152266 67.0852292,130.318909 C67.9106458,130.441698 69.1589792,130.9197 69.9916875,130.627344 C70.7835625,130.348144 71.5491875,129.589482 72.3950208,129.295664 C73.9962708,128.740188 76.1181458,128.216872 77.9410625,128.304579 C79.8879375,128.396671 82.1746042,128.683179 84.2483542,128.602781 C85.9210625,128.534078 88.5839792,128.532616 90.0233542,127.772491 C91.4248125,127.03137 92.8496042,125.622216 94.4114792,125.152985 C94.8854375,125.011192 95.3258542,125.101823 95.7662708,124.927871 C96.1687708,124.768537 96.5158542,124.404554 96.8964792,124.199905 C97.6168958,123.812534 98.2629375,123.384233 99.0052292,123.004171 C100.587521,122.194346 102.007938,122.635803 103.620854,121.849366 C104.207104,121.564319 105.230854,120.698947 105.821479,120.526457 C107.892313,120.153703 109.206271,116.762378 109.570854,116.122119 C110.066688,115.247976 110.533354,114.103404 111.093354,113.274575 C111.599396,112.524683 112.471479,112.26741 112.932313,111.415193 C114.145646,111.109682 114.443146,111.308484 115.251063,110.428493 C115.774604,109.8584 116.390021,109.171364 116.740021,108.478481 C117.485229,107.010856 117.298563,104.898586 117.797313,103.314019 C118.363146,101.501414 119.435021,100.109801 120.210854,98.4477592 C120.947313,96.8705005 121.621063,95.2186911 122.551479,93.6502032 C123.465854,92.1036418 124.648563,90.3918996 124.897938,88.6216862 C125.151688,86.8339315 125.717521,84.8809958 127.041688,83.5873221 C128.087313,82.5684627 128.179188,82.9397544 128.097521,81.3405691" id="Fill-7" fill="#BBBBBB"></path>
                <path d="M115.763083,81.4766606 C114.669333,83.1445495 113.787042,84.2920454 113.07975,86.2376722 C112.420583,88.0458918 111.061417,89.6947776 110.462042,91.5117678 C109.887458,93.2556692 109.22975,94.8767812 108.655167,96.6060648 C108.10975,98.2447182 107.183708,99.9915431 106.730167,101.710594 C106.428292,102.850781 106.339333,103.188452 105.613083,104.047978 C104.984542,104.794946 104.411417,105.470288 103.957875,106.325428 C103.061,108.015244 102.808708,109.791304 101.978917,111.410954 C101.633292,112.086296 101.006208,112.90343 100.449125,113.45452 C100.144333,113.752723 99.7287083,113.929598 99.3757917,114.134247 C99.3612083,114.131323 99.346625,114.1284 99.3305833,114.125476 C97.6637083,113.86528 95.7270417,115.182342 94.1987083,115.628184 C92.5624583,116.106186 90.7585,116.781527 89.284125,117.610356 C87.446625,118.645295 85.924125,120.159697 83.7657917,119.724087 C81.7401667,119.317712 79.6212083,118.832402 77.6087083,118.374866 C73.5807917,117.458331 69.8168333,117.692215 65.7670417,118.350015 C61.6443333,119.018048 57.5085,117.902711 53.7430833,116.714286 C50.2430833,115.612105 47.45475,113.185553 44.70725,110.830628 C43.3670417,109.684594 42.04725,107.940693 41.0351667,106.543233 C40.004125,105.120923 38.6099583,103.735157 37.6912083,102.22514 C37.2055833,101.427009 37.2464167,100.592334 36.766625,99.8015119 C36.3349583,99.089626 35.6349583,98.6087009 35.1070417,97.9041238 C34.0205833,96.4525781 32.6905833,95.1837546 31.7251667,93.6284227 C30.5964167,91.8128942 30.9201667,89.7795607 30.9274583,87.6453645 C30.9332917,85.8386067 30.4680833,83.7950408 29.5580833,82.2440942 C29.0520417,81.3787215 28.2835,80.7253066 27.8649583,79.8350837 C27.4639167,78.9799435 27.3895417,78.0560997 26.9389167,77.1629532 C26.0376667,75.3678896 24.7499583,74.2686324 24.8024583,72.1680571 C24.8374583,70.7428234 25.9457917,70.0060872 26.4255833,68.6451717 C26.9389167,67.1863171 27.5032917,65.4994251 27.7089167,64.0800384 C27.8387083,63.1825066 27.7555833,60.6419361 27.2437083,58.8190988 C28.9499583,57.485957 27.076,50.8158632 27.9568333,49.1070445 C28.371,48.3074518 29.075375,47.3733756 29.6164167,46.6731838 C29.862875,46.3545162 30.2785,46.3077393 30.545375,45.9437565 C30.8137083,45.5739266 30.7845417,44.9921389 31.052875,44.6647006 C32.3114167,43.1269099 35.112875,42.9968117 36.6412083,41.6870584 C38.1389167,40.4065407 39.146625,38.9637657 40.117875,37.3660421 C41.010375,35.8925697 42.9762083,35.3253998 44.3237083,34.4293297 C45.9380833,33.3593081 46.746,31.4209902 48.53975,30.8772088 C49.6057917,30.5541558 50.0505833,30.3392744 50.994125,29.7297129 C51.82975,29.1932403 52.884125,29.0543714 53.6774583,28.4535805 C54.9287083,27.5092718 56.5270417,26.4158617 57.5070417,25.2274361 C58.6299583,23.8665206 60.7430833,23.797817 62.4449583,24.457079 C63.3112083,24.7903644 63.8435,25.4949415 64.5901667,26.0167963 C65.1968333,26.4392502 65.9537083,26.8017712 66.787875,27.0078819 C66.8068333,27.0122672 66.8243333,27.0166526 66.8418333,27.0210379 C68.152875,27.8717928 70.217875,27.1365184 71.5099583,26.8836308 C73.5487083,26.4831035 75.6399583,27.0853561 77.6364167,27.2680784 C79.641625,27.4493389 81.479125,27.9697319 83.3793333,28.6816179 C85.171625,29.3511123 87.14475,29.7969547 88.9982917,30.460602 C92.7024583,31.7878966 95.986625,34.2436839 99.6149583,35.8063248 C101.583708,36.6526944 102.993917,37.4742137 103.766833,39.4505378 C104.440583,41.1754361 104.634542,43.1590691 105.330167,44.9175882 C106.597458,48.1291149 110.055167,50.0601239 112.352042,52.6913246 C113.495375,54.0010779 113.964958,56.0577998 114.390792,57.7052238 C114.89975,59.6771625 115.211833,61.8581356 115.411625,63.852001 C115.618708,65.9189554 115.6435,67.9479035 115.922042,69.8657565 C116.209333,71.8464659 116.231208,74.0259772 116.429542,76.0081484 C116.630792,78.0151699 116.9385,79.6830588 115.763083,81.4766606 M119.018083,76.103164 C118.69725,75.1369286 118.776,74.1370723 118.631625,73.1620663 C118.48725,72.201678 118.147458,71.2632164 118.08475,70.2487424 C118.01475,69.0822434 118.344333,68.0692311 118.34725,66.9246588 C118.348708,65.7596216 117.950583,64.8884018 117.963708,63.7248263 C117.989958,61.7002636 118.008917,59.8218786 117.580167,57.8397074 C117.19225,56.0402584 117.339542,54.033237 116.2735,52.3711952 C115.411625,51.0307446 114.1035,49.5090335 112.865375,48.4726328 C111.52225,47.34414 110.281208,46.0943197 109.31725,44.6603153 C108.096625,42.8447868 108.381,41.340617 107.979958,39.291204 C107.815167,38.4389873 107.533708,37.4186661 107.215792,36.6044557 C106.734542,35.3721767 106.208083,35.4540363 105.069125,34.8503219 C103.459125,33.9981052 101.541417,33.2116685 100.132667,32.3565283 C98.585375,31.4166049 96.7887083,30.9693008 95.1189167,29.9533649 C93.991625,29.2648674 91.1785,27.7797008 91.3987083,26.1352003 C89.971,26.1951332 88.855375,26.3632377 87.464125,26.0869616 C86.2537083,25.84723 85.0899583,25.4700913 83.88975,25.3487637 C82.411,25.1967387 81.49225,24.8239853 80.1593333,24.3532927 C79.0655833,23.9659215 78.0607917,23.3475893 76.8707917,23.3022742 L77.252875,23.4294489 C76.50475,23.666257 75.861625,23.3724396 75.0843333,23.4294489 C74.0970417,23.5025378 73.3562083,23.8665206 72.2755833,23.8138966 C71.2357917,23.7612726 70.3564167,23.4148311 69.3399583,23.4294489 C68.8339167,23.4367578 68.109125,23.5756267 67.45725,23.8431321 L67.426625,23.8138966 C67.4324583,23.8255908 67.4368333,23.837285 67.4412083,23.8475175 C67.2895417,23.9103739 67.14225,23.9805393 67.00225,24.0565517 C65.821,23.9337624 64.460375,21.7133213 63.3462083,21.5072106 C61.3614167,21.1388425 58.996,21.5218284 57.211,22.150393 C56.0589167,22.5553056 56.025375,22.7804194 55.430375,23.6867219 C54.8718333,24.5374768 54.3132917,24.7011959 53.3537083,25.3166045 C52.6887083,25.7434438 52.0455833,26.2433719 51.3776667,26.6599787 C50.5420417,27.1789099 49.5518333,27.2008366 48.7920417,27.6510643 C48.710375,27.6262141 48.6345417,27.6349847 48.561625,27.672991 C48.0745417,28.6567677 47.5976667,28.9754353 46.654125,29.4724399 C45.8651667,29.8875849 45.402875,30.3115006 44.615375,30.8845176 C43.1745417,31.929689 40.9024583,31.8536766 39.6337083,33.0479494 C38.157875,34.4395622 37.869125,36.4041921 36.4195417,37.6613213 C35.1887083,38.7254958 33.8135,39.5250885 32.5870417,40.4430852 C31.7980833,41.0351054 30.9055833,41.3084579 30.2887083,42.105127 C29.731625,42.8287072 29.5639167,43.6926181 28.6524583,44.1750049 C28.8682917,45.1660905 28.3170417,45.2918034 27.60975,45.6543244 C27.3107917,45.8078111 26.835375,45.7537253 26.5889167,45.9715303 C26.2432917,46.2785037 26.4255833,46.5737829 26.1732917,46.9640777 C25.8364167,47.4859325 25.3405833,48.0019402 25.0576667,48.5018683 C24.6012083,49.3073081 24.7076667,49.2912285 24.8024583,50.2925466 C24.8724583,51.0468241 25.03725,51.9063497 25.059125,52.5919237 C25.085375,53.3856692 24.569125,54.0566254 24.5749583,54.7699732 C24.5851667,55.9379339 25.3245417,56.8924751 25.5345417,58.0706683 C25.3857917,59.957824 24.7543333,61.6286364 24.674125,63.5961899 C24.5880833,65.7128447 25.43975,67.9522888 23.5220417,69.3205132 C22.7564167,69.8657565 22.110375,69.9768516 21.7705833,71.0176377 C21.4949583,71.8610837 21.4395417,73.3199383 21.611625,74.211623 C21.931,75.8722031 23.282875,77.5093946 24.0645417,79.0413382 C25.7007917,82.2440942 28.2470417,85.593028 28.2485,89.3088681 C28.2485,90.3861986 28.0457917,91.4869176 28.2207917,92.5072388 C28.3782917,93.4383915 28.8712083,94.2993788 29.141,95.1939871 C29.6543333,96.901344 30.9887083,98.4113609 32.2049583,99.6714137 C33.572875,101.086415 34.8620417,102.524805 35.9980833,104.176614 C36.5930833,105.041987 36.967875,105.926363 37.440375,106.826818 C37.9682917,107.832521 38.80975,108.170192 39.641,108.972708 C41.006,110.297079 42.4307917,111.425572 43.84975,112.687087 C45.3693333,114.03777 46.6570417,115.61649 48.1912083,116.90724 C49.7005833,118.177525 51.6751667,118.578053 53.3639167,119.659769 C54.12225,120.148002 55.0585,120.764873 55.94225,120.905204 C56.970375,121.067461 58.0670417,120.72102 59.131625,120.778029 C61.2739167,120.892048 63.034125,121.225333 65.1282917,120.808726 C66.2395417,120.587998 67.22975,120.827729 68.319125,120.778029 C69.675375,120.713711 69.894125,119.85857 70.996625,119.490202 C71.84975,119.206617 73.420375,119.481432 74.3187083,119.526747 C75.415375,119.582294 76.64475,119.513591 77.76475,119.626148 C79.5920417,119.807408 81.960375,120.488597 83.6374583,121.188789 C85.21975,121.849512 87.3882917,122.98239 89.1557917,121.831971 C89.7507917,121.446062 90.307875,120.62308 90.9437083,120.171391 C91.7151667,119.624686 92.521625,119.194923 93.30475,118.700842 C94.927875,117.681983 96.3993333,117.300459 98.2105833,116.839998 C98.8230833,116.683588 99.5274583,116.571031 99.9999583,116.234822 C101.082042,116.256749 102.5185,115.69835 103.030375,115.272972 C104.366208,114.162021 104.536833,112.520444 105.206208,110.930029 C105.811417,109.490178 106.890583,108.048864 108.134542,106.96861 C108.837458,106.357587 109.922458,106.016993 110.409542,105.145773 C110.863083,104.335948 110.621,103.143137 110.810583,102.222217 C111.566,98.5473062 113.811833,95.1238217 114.933292,91.5117678 C115.521,89.6158415 116.031417,87.5342694 116.915167,85.8269125 C117.677875,84.3519783 118.867875,82.7732579 119.497875,81.2530085 C120.295583,79.3410027 119.605792,77.8865334 119.018083,76.103164" id="Fill-9" fill="#BBBBBB"></path>
                <path d="M111.786354,77.6144965 C110.161771,80.9093445 108.569271,84.2641254 106.899479,87.5209672 C105.980729,89.3160308 104.631771,90.7573441 103.765521,92.5421753 C102.878854,94.3664745 102.759271,96.2974834 101.884271,98.1027795 C100.331146,101.305536 98.5592708,104.455667 97.2453125,107.873305 C95.9517708,111.23978 91.1859375,112.233789 88.1803125,113.528925 C86.1546875,114.401606 85.1221875,114.600408 83.0192708,113.933837 C81.0476042,113.309658 78.8615625,114.01862 76.9307292,113.752577 C75.9784375,113.619555 75.1967708,113.208795 74.1453125,113.151786 C73.1098958,113.0977 72.1240625,113.124012 71.1338542,113.027535 C69.1271875,112.827271 67.3159375,112.656243 65.2436458,112.650396 C63.2851042,112.644549 60.9255208,113.461683 59.0938542,112.901822 C57.1673958,112.311263 55.1271875,111.918045 53.2342708,111.23978 C49.9194792,110.054278 47.0669792,106.649797 45.2790625,103.756938 C44.3661458,102.280542 43.1776042,100.948862 42.2063542,99.5514017 C41.0936458,97.9507546 40.3294792,96.3252572 39.5390625,94.5535821 C38.7851042,92.8623047 37.5280208,92.0554032 36.5596875,90.6287076 C35.5869792,89.196165 35.4396875,86.6555945 35.5286458,84.8751487 C35.6423958,82.5816187 35.2865625,81.0145925 34.3021875,78.9374057 C33.5059375,77.2563608 32.1073958,75.7229555 31.6378125,73.9425097 C31.1536458,72.1094398 32.3348958,70.4196242 32.6411458,68.5339304 C32.9634375,66.5488356 33.1967708,64.4190248 33.3965625,62.3798442 C33.5861458,60.423985 33.5759375,58.2400884 33.3965625,56.2228345 C33.2128125,54.1675744 32.7359375,52.3652019 33.8603125,50.4122662 C34.1928125,49.8348639 34.7951042,48.5528844 35.3682292,48.1713603 C36.1892708,47.626117 37.2640625,48.2444492 38.1886458,47.9579407 C39.1876042,47.6480437 39.6455208,46.9069221 40.2609375,46.1614153 C40.8807292,45.4100613 41.3692708,45.0577727 42.0955208,44.4803704 C43.6807292,43.2203176 43.9665625,41.0349592 45.5532292,40.001482 C46.3801042,39.4635476 47.5423958,39.0630204 48.4407292,38.4710002 C49.3930208,37.8409738 50.2067708,37.0472283 51.3311458,36.7344078 C52.2426042,36.4844437 53.0796875,36.5502237 53.9590625,36.1482347 C54.7961458,35.7652488 55.6463542,35.0533629 56.3405208,34.4861929 C57.4867708,33.5521167 59.2411458,31.8535304 60.7301042,32.218975 L60.3523958,32.3446879 C62.3853125,32.350535 64.4430208,33.5243429 66.3723958,33.193981 C68.1384375,32.8928547 69.9351042,31.9967847 71.7623958,31.8403744 C73.9353125,31.6547286 75.6984375,32.2906021 77.6555208,32.5873431 C79.8153125,32.9147814 82.2521875,33.1954428 84.2953125,33.8839403 C85.2898958,34.2172257 85.9855208,34.749313 86.7073958,35.2010024 C87.5240625,35.7140866 88.5098958,35.8602644 89.3134375,36.3645779 C90.9613542,37.3951315 92.8148958,37.7678849 94.5546875,38.6624932 C94.9046875,38.8408301 95.2386458,38.9577724 95.5813542,39.223816 C95.8001042,39.3933823 96.1151042,39.3466054 96.3163542,39.5322512 C96.4840625,39.6857379 96.2492708,40.027794 96.4869792,40.2295194 C97.1869792,40.8259249 98.8786458,40.7352947 99.3555208,41.2893086 C99.8163542,41.8243194 99.4415625,43.6837013 99.5932292,44.4087432 C99.8003125,45.3910582 100.272812,46.3339051 100.850312,47.171504 C102.982396,50.2777826 105.636562,52.9572221 108.630521,55.1878956 C110.470937,56.5590435 110.253646,58.0003568 110.253646,60.2427245 C110.253646,62.2789815 110.438854,64.2056052 110.752396,66.1497702 C111.083437,68.1933361 111.296354,70.1828162 111.886979,72.181067 C112.492187,74.2275564 112.764896,75.6294017 111.786354,77.6144965 M113.106146,69.669732 C112.428021,67.5121474 112.038646,66.1322288 112.008021,63.8883993 C111.994896,62.7847568 111.471354,61.8360627 111.382396,60.7484998 C111.290521,59.6419337 111.453854,58.5514472 111.229271,57.4770402 C110.468021,53.8591392 106.809062,52.4558321 104.518021,49.9079528 C103.381979,48.6449764 102.130729,47.1086475 101.630521,45.4129848 C101.108437,43.645695 101.630521,41.3492415 100.191146,40.0394882 C99.3730208,39.2939814 98.6978125,39.5497925 97.8359375,39.1361093 C97.0192708,38.7472763 96.6765625,38.0587788 95.7096875,37.7152609 C93.8444792,37.0545372 91.9909375,36.1540818 90.1651042,35.3837247 C89.3455208,35.0387451 88.4369792,34.9086468 87.6888542,34.4481867 C86.8532292,33.9351025 86.2523958,33.2846112 85.3030208,32.9396316 C83.4261458,32.258443 81.2576042,31.9236958 79.2844792,31.7146615 C77.0998958,31.4837005 75.2536458,30.6928785 73.0165625,30.5832452 C72.0759375,30.53793 71.0040625,30.3113544 70.0036458,30.4546087 C69.2467708,30.564242 67.7432292,31.3053636 67.2488542,30.5832452 L67.1234375,30.7104199 C66.1142708,31.4617739 63.7751042,30.5130798 62.7294792,30.0847788 C61.8428125,29.7237196 61.4680208,29.5877742 60.5755208,29.549768 C60.2459375,29.536612 59.5386458,29.4679084 59.2251042,29.5790036 C58.5805208,29.8085027 58.9334375,29.8158116 58.4726042,30.2061064 C57.2694792,31.2220422 55.7484375,31.9763198 54.4344792,32.936708 C52.9717708,34.0081914 50.7361458,35.3471803 48.8403125,35.2536265 C48.2453125,37.4404466 45.4540625,37.8395121 44.0219792,39.0016257 C42.8261458,39.9722464 42.0036458,41.517346 41.2001042,42.7788606 C40.3805208,44.0696107 38.0807292,45.4553764 36.5305208,45.6644107 C35.3215625,45.8281298 34.9103125,45.4758413 34.0542708,46.4493856 C33.4826042,47.1013386 33.1909375,47.9988705 32.6746875,48.7078329 C31.8813542,49.7983194 31.5663542,49.7866252 31.5153125,51.1943176 C31.4773958,52.2716481 31.4496875,53.0946292 31.6494792,54.0784059 C32.0388542,56.0254945 31.8915625,58.1830791 31.8915625,60.2427245 C31.8915625,62.3067553 31.4117708,64.1047425 31.0209375,66.0240572 C30.7248958,67.4785265 30.8896875,70.4795572 29.2796875,71.198752 C28.9923958,73.0742134 30.5251042,74.8239619 31.2965625,76.4231472 C31.7267708,77.3192173 31.8069792,78.368774 32.2328125,79.2282996 C32.6848958,80.1389874 33.2973958,80.5819062 33.5496875,81.6080745 C34.0382292,83.5902457 33.9944792,85.6016525 34.3969792,87.6437566 C34.5909375,88.6348422 34.9146875,89.4037375 35.0255208,90.4050556 C35.1742708,91.7279648 35.4411458,91.7250413 36.1236458,92.6985856 C37.1823958,94.2129878 38.0646875,95.5768268 39.3203125,97.0342196 C40.5205208,98.4272943 40.9171875,100.178505 41.9540625,101.684136 C42.8786458,103.030434 43.9957292,104.385502 44.8342708,105.711335 C46.7009375,108.66705 48.5734375,111.052672 51.6986458,112.428206 C53.5215625,113.232184 55.3576042,113.274575 57.0988542,114.252505 C58.7948958,115.201199 60.9080208,115.302062 62.7353125,114.911767 C66.6582292,114.07563 71.1192708,113.765733 75.1471875,114.541937 C77.1305208,114.921999 79.5586458,114.683729 81.4151042,115.509634 C82.3892708,115.940859 82.8953125,116.585503 84.0517708,116.548958 C84.8305208,116.524108 85.8105208,116.069495 86.5294792,115.763984 C89.7494792,114.38845 93.1138542,112.113923 96.4651042,111.172538 C98.2676042,110.666763 98.6686458,109.045651 99.3423958,107.246202 C99.6821875,106.332591 100.218854,105.499377 100.600937,104.606231 C100.771562,104.204242 100.872187,103.563983 101.101146,103.232159 C101.410312,102.783393 101.753021,102.760005 102.138021,102.375557 C102.873021,101.640283 102.979479,100.855308 103.240521,99.9636231 C103.476771,99.1494127 104.010521,98.3922116 104.238021,97.5706922 C104.513646,96.5796066 104.243854,95.4511139 104.513646,94.4541812 C104.765937,93.5244902 105.376979,92.5304811 105.837812,91.6314875 C106.816354,89.7209434 107.878021,87.9024913 108.874062,86.006565 C109.760729,84.3152877 110.699896,82.2074035 111.886979,80.7251604 C114.363229,77.630576 114.262604,73.3490277 113.106146,69.669732" id="Fill-11" fill="#BBBBBB"></path>
                <path d="M103.044229,82.3208375 C101.345271,85.9387385 98.6502708,88.6591077 98.1427708,92.6936155 C97.8904792,94.7064841 96.7646458,96.6857317 95.8313125,98.4983367 C95.0190208,100.081442 94.0608958,102.03584 92.8708958,103.34267 C92.4246458,103.835289 91.7392292,104.898002 91.1252708,105.202051 C90.6746458,105.424242 90.1044375,105.120192 89.6683958,105.318994 C89.0544375,105.599655 89.2658958,105.799919 88.8736042,106.282306 C87.3890208,108.119761 86.1508958,108.064213 83.9721458,108.496899 C80.3350625,109.214633 75.6538125,109.061146 71.8986042,108.626998 C70.9288125,108.512979 70.1748542,108.125608 69.2152708,107.859564 C68.3183958,107.608138 67.5046458,107.583288 66.5056875,107.486811 C64.7017292,107.312859 62.6163125,106.972265 60.8152708,106.890405 C58.8596458,106.801237 56.8836042,107.016118 55.0183958,106.248685 C53.5936042,105.662512 51.9719375,103.933228 50.8023542,102.854436 C49.2186042,101.397043 48.9123542,99.7803161 48.0271458,98.008641 C47.1273542,96.2106538 45.9344375,94.6816338 44.7590208,93.0649072 C44.1333958,92.2068434 43.6040208,91.6645237 43.3152708,90.7187532 C43.0148542,89.7262058 42.9842292,88.6795726 42.9433958,87.6314777 C42.8646458,85.5659851 42.8136042,83.5326516 42.4504792,81.579716 C42.1179792,79.7861141 41.4369375,77.447269 40.3898542,75.8714722 C39.7554792,74.916931 39.1050625,74.6362696 38.8702708,73.427379 C38.6850625,72.4626054 38.7127708,71.3472687 38.7550625,70.3401035 C38.9286042,66.0322432 39.3690208,61.8588665 39.3704792,57.4969204 C39.3704792,56.260256 39.3004792,55.8348786 40.2600625,55.0586744 C41.2561042,54.2546964 42.4898542,53.9418758 43.6331875,53.327929 C45.3802708,52.3909292 46.9129792,49.8386645 47.8419375,48.1108427 C48.2561042,47.3361002 48.4588125,46.2076075 49.0742292,45.6082784 C49.6692292,45.0279525 50.6419375,44.8189182 51.2938125,44.2473629 C52.2694375,43.3907609 52.4283958,43.42292 53.6621458,43.0457813 C54.7704792,42.7095723 55.3523542,41.7433369 56.1208958,40.8238784 C57.3138125,39.3971829 59.0011042,37.8827807 60.9304792,37.9792581 C61.9702708,38.0304203 62.9706875,38.7423063 64.0133958,38.8534014 C65.0356875,38.9630348 66.0783958,38.7730036 67.0933958,38.7233032 C71.2131875,38.5186542 74.9800625,37.0203316 78.9219375,38.6926058 C81.0525625,39.5974465 83.0358958,40.958362 85.0819375,42.0225365 C87.3277708,43.1934208 87.3306875,43.0516284 89.6552708,43.7225846 L90.6265208,44.1581945 C91.3877708,44.7063613 92.3298542,45.4942597 93.2077708,45.7705358 C94.5056875,46.1769101 94.7652708,45.5819664 94.8148542,47.24547 C94.8775625,49.3328892 95.5717292,50.5593211 96.8798542,52.2125922 C99.0265208,54.9271143 102.484229,56.5029112 104.149646,59.5931103 C106.093604,63.2022406 105.944854,67.8141508 106.523813,71.6980954 C107.166938,76.0088793 104.773813,78.6342329 103.044229,82.3208375 M108.466313,73.0575492 C108.049229,71.0987664 108.645688,68.9850351 108.152771,67.1256533 C107.640896,65.1917207 106.866521,63.3864247 106.767354,61.3253174 C106.668188,59.2627484 106.449438,57.9369156 105.132563,56.2938769 C104.063604,54.962197 102.609646,53.9974234 101.342354,52.833848 C100.019646,51.6161867 98.5481875,50.3459015 97.6192292,48.7306366 C97.1496458,47.9164262 96.5750625,46.948729 96.4102708,46.0102674 C96.3373542,45.5892753 96.6246458,44.7736031 96.4233958,44.405235 C96.1054792,43.824909 95.7365208,43.9988606 95.1852708,43.6948108 C93.5227708,42.7724287 92.1052708,41.5094524 90.5011042,40.6075352 C88.9377708,39.7290066 87.0652708,39.3621002 85.4800625,38.6955294 C84.6575625,38.3505497 83.9881875,37.834542 83.1146458,37.5816544 C82.1361042,37.2995312 81.2042292,37.1197325 80.2490208,36.7762146 C78.3896458,36.1052584 76.6323542,35.3582898 74.6271458,35.3875253 C73.3656875,35.6301805 71.9365208,35.2968951 70.6940208,35.6608779 C68.8069375,36.21343 66.6850625,36.391767 64.6273542,36.3742256 C62.7606875,36.3566843 60.6883958,35.0381604 59.1761042,36.2236625 C57.5136042,37.5261068 56.1967292,38.8621721 54.4029792,39.9599675 C53.9158958,40.2567085 53.7481875,40.6250766 53.0802708,40.7990282 C52.5640208,40.9335118 52.0579792,40.7551748 51.5752708,40.9525149 C50.8708958,41.241947 50.2102708,42.0561574 49.4694375,42.5224647 C48.7023542,43.0063132 47.5386042,43.1744177 46.8867292,43.6363396 C46.2071458,44.1187264 46.2290208,45.1843627 45.6267292,46.0102674 C44.5213125,47.5261314 43.0906875,48.9674447 41.8686042,50.3663664 C41.1496458,51.1908093 40.6698542,51.6995081 39.6183958,51.9407015 C38.2898542,52.2476749 37.9296458,51.9787077 37.4950625,53.4214828 C36.9219375,55.324718 37.3988125,57.5963213 37.3988125,59.5960339 C37.3988125,63.9696742 36.1869375,67.9062428 36.4129792,72.3164276 C36.4611042,73.2709688 36.4538125,74.4593944 36.8708958,75.3101493 C37.2500625,76.0907389 37.9602708,76.6505999 38.2913125,77.5042784 C39.0861042,79.5419972 39.0773542,81.6338018 39.6125625,83.6773677 C39.9348542,84.8979525 40.2863125,86.0951488 40.3548542,87.3844371 C40.4146458,88.4573823 40.2017292,89.4820888 40.6319375,90.4746362 C41.4048542,92.2565438 42.6765208,93.9244327 43.7761042,95.5411594 C46.0627708,98.9134817 47.9061042,102.8252 50.4888125,105.878855 C51.8202708,107.448805 53.7788125,107.796708 55.5113125,108.657695 C57.5471458,109.669246 59.0579792,109.343269 61.1754792,109.240945 C63.3965208,109.132773 65.2558958,109.137158 67.3398542,109.708714 C69.2779792,110.243724 71.1504792,110.457144 73.2548542,110.359205 C77.3688125,110.164788 81.4594375,110.790429 85.4523542,110.229107 C86.6073542,110.066849 87.3569375,110.12532 88.4098542,109.490909 C89.2994375,108.952974 89.9513125,108.167999 90.9006875,107.787937 C91.9375625,107.375716 92.4377708,107.419569 93.0940208,106.396324 C93.5971458,105.611349 94.0521458,104.848301 94.5990208,104.082329 C96.7529792,101.079837 98.5875625,97.6563524 100.018188,94.3001097 C100.444021,93.3046388 100.276313,92.3047825 100.600063,91.3297765 C100.875688,90.5067953 101.555271,89.7846769 101.934438,88.986546 C102.851729,87.0569988 103.769021,85.5411349 104.891938,83.7753068 C105.930271,82.1381152 107.002146,80.307969 107.595688,78.4924404 C108.281104,76.3962505 108.911104,75.1522773 108.466313,73.0575492" id="Fill-13" fill="#BBBBBB"></path>
                <path d="M74.36275,35.1419466 C74.354,35.2954333 74.1323333,35.3188218 74.3525417,35.3948342 C74.4444167,35.3904489 74.5348333,35.3904489 74.6267083,35.3875253 C74.787125,35.356828 74.9460833,35.31736 75.102125,35.2661978 L74.36275,35.1419466 Z" id="Fill-15" fill="#FEFEFE"></path>
                <path d="M101.318875,76.8878465 C100.58825,78.4387932 99.31075,79.7894762 98.457625,81.3214198 C97.4572083,83.1164834 96.5034583,84.9130088 95.5642917,86.7563111 C93.7895,90.242652 92.7424167,93.9292566 90.7386667,97.2197193 C90.1465833,98.1888782 89.4640833,98.6624944 88.3747083,99.0776394 C87.2124167,99.5205582 86.9484583,99.7880636 86.1565833,100.774764 C85.1474167,102.024584 83.0911667,104.034529 81.3936667,104.376585 C79.3665833,104.784421 77.2709583,104.024297 75.2467917,104.128083 C74.193875,104.182169 73.18325,104.436518 72.172625,103.97752 C71.13575,103.503904 70.4780417,102.585907 69.3449167,102.246774 C65.5547083,101.103664 61.31825,103.563837 57.542625,101.909104 C55.5330417,101.027651 54.9380417,99.9459356 54.3167917,97.9652262 C53.74075,96.1219239 52.2445,94.5446652 51.3009583,92.9162443 C50.3384583,91.2498172 48.9034583,90.0570062 48.6890833,88.1055323 C48.5724167,87.0486667 48.7824167,85.9596419 48.6890833,84.9027763 C48.600125,83.8941494 48.3230417,82.954226 48.1699167,81.9441373 C47.8315833,79.6944606 47.9511667,77.8818557 46.5715833,75.9362289 C45.9780417,75.1000918 45.1715833,74.4115943 44.8784583,73.4409736 C44.597,72.5112826 44.7545,71.3433219 44.7545,70.3580834 C44.7545,68.2808966 44.807,66.2095569 44.5124167,64.1966883 C44.260125,62.4834843 42.5203333,60.1387921 44.505125,59.0176082 C45.51575,58.4475147 46.6765833,58.2647925 47.7061667,57.5382887 C48.6992917,56.8366352 49.4430417,55.9142531 50.162,54.9538649 C51.5722083,53.0623239 52.3465833,50.8667331 53.6065833,48.9152592 C53.788875,48.6316742 53.8865833,48.1375932 54.2147083,47.9563327 C54.9497083,47.5528819 55.1290833,48.2472266 55.66575,48.204835 C56.6399167,48.1273608 57.127,46.906776 57.9072083,46.2387433 C59.3567917,44.9947701 60.7480417,44.5050744 62.5797083,44.3515877 C64.638875,44.1805597 66.7797083,44.6877967 68.847625,44.4802242 C69.8728333,44.3793615 70.97825,44.3676673 71.932,44.1118561 C73.0928333,43.8004973 73.6324167,43.2698718 74.8530417,43.5242213 C75.2992917,43.6163133 75.222,43.9320574 75.6653333,43.8735862 C75.4728333,43.8165769 75.2890833,43.7391026 75.1228333,43.6148515 L75.73825,43.861892 C75.712,43.8677391 75.6886667,43.8706627 75.6653333,43.8735862 C76.35075,44.0723881 77.17325,43.9715254 77.8586667,44.4451415 C78.687,45.0166968 79.2586667,45.4976218 80.28825,45.9259228 C82.2015833,46.7211301 83.85825,47.85547 85.8211667,48.5512764 C86.7165833,48.8699441 87.7155417,49.061437 88.5511667,49.3801047 C89.523875,49.7499345 89.84325,50.5334476 90.582625,51.289187 C91.31325,52.0390792 91.7449167,52.8459807 92.4595,53.5739463 C93.093875,54.2171287 93.9761667,54.5401816 94.67325,55.0766542 C96.2249167,56.2723888 97.3040833,58.1536973 98.61075,59.6374022 C99.9742917,61.1854253 100.537208,63.0068009 100.821583,64.9363481 C101.122,66.9784522 101.082625,68.989859 101.186167,71.0992049 C101.269292,72.752476 101.995542,75.4509186 101.318875,76.8878465 M103.526792,71.7146135 C103.418875,69.741213 102.963875,67.915452 102.662,66.0487613 C102.352833,64.1455261 102.193875,61.5581787 101.224083,59.8566689 C100.387,58.3905054 98.6924167,57.0047397 97.5286667,55.7826931 C96.270125,54.4597838 95.0042917,53.1412599 93.7822083,51.7788827 C92.5295,50.385808 92.236375,48.527888 90.73575,47.5894264 C89.2249167,46.6465795 87.4574167,46.1378806 85.796375,45.3719089 C83.7372083,44.4217531 81.9565833,43.5797688 80.04325,42.3825725 C79.30825,41.9264977 78.5834583,41.2891624 77.8003333,40.9368739 C77.1353333,40.6386711 75.9715833,40.6708302 75.366375,40.3477773 L75.61575,40.5334231 C74.0509583,40.2425292 72.758875,41.2336148 71.3122083,41.5230469 C69.7649167,41.8314821 68.2817917,42.1545351 66.7636667,42.5360592 C65.3184583,42.8985802 63.3774167,42.9555895 61.9686667,42.5068236 C61.2147083,42.267092 60.8997083,41.7247723 60.027625,42.1647675 C59.493875,42.4322729 59.0184583,43.1923976 58.4322083,43.5242213 C57.4099167,44.1016236 56.9097083,44.6073989 56.03325,45.4391507 C55.066375,46.3542238 54.54575,46.3249883 53.3615833,46.4536247 C52.0228333,46.5998026 52.1978333,46.8599991 51.4861667,48.0455012 C50.9042917,49.0190454 50.48575,49.7367785 50.0103333,50.735173 C49.0959583,52.666182 47.5792917,54.5065608 45.9853333,55.9391034 C44.2586667,57.4915118 42.57575,57.1348379 42.17325,59.6374022 C41.8392917,61.7116654 42.2184583,63.7259958 42.41825,65.826571 C42.6253333,67.9856174 42.4095,70.1987496 42.2009583,72.3314839 C41.9661667,74.7185677 43.477,75.7228093 44.662625,77.6055796 C45.756375,79.3450957 45.7053333,81.0670704 45.6090833,83.0477798 C45.5055417,85.1658964 46.010125,86.7972408 46.23325,88.8451921 C46.4374167,90.7221153 47.856375,92.0713365 48.9661667,93.5258058 C51.08075,96.2973373 51.3461667,99.9707858 54.2234583,102.25116 C55.4834583,103.251016 57.8547083,103.702706 59.3830417,104.006755 C61.5005417,104.430671 63.641375,103.781642 65.7822083,103.881042 C67.5817917,103.964364 69.9136667,104.147086 71.5849167,104.715718 C72.5780417,105.05485 73.1686667,105.535775 74.2624167,105.605941 C75.3036667,105.673183 76.328875,105.532852 77.3336667,105.483151 C79.667,105.364747 81.96825,105.39983 84.195125,104.839969 C86.4147083,104.280108 86.8872083,102.14445 88.8909583,101.292233 C92.39825,99.8041431 94.1511667,96.5399924 95.1617917,93.1545142 C95.7261667,91.2615114 96.0892917,89.6857145 97.10575,87.9564309 C98.1455417,86.1818322 98.8090833,84.225973 99.8065833,82.433833 C100.726792,80.7761765 101.604708,79.05274 102.543875,77.3833893 C103.569083,75.5590902 103.642,73.8751217 103.526792,71.7146135" id="Fill-20" fill="#BBBBBB"></path>
                <path d="M93.2405833,80.9115372 C92.6951667,82.4522514 91.7662083,84.0441278 91.0239167,85.479594 C90.2349583,87.0071522 89.4182917,88.5580988 88.5082917,90.0374184 C87.9614167,90.9247177 87.6755833,91.8441762 86.8851667,92.5297502 C86.156,93.1641619 85.3757917,93.4550558 84.7924583,94.2648809 C83.7220417,95.7529711 82.5539167,97.4310924 80.9220417,97.954409 C77.0982917,99.1793791 73.5851667,98.1839082 69.5499583,98.1999878 C66.33725,98.2131438 61.2535,98.7072248 58.856,96.2865201 C57.6557917,95.074706 57.1920417,93.4155878 56.3739167,91.964042 C55.5237083,90.4540252 54.2214167,89.2933733 53.619125,87.6284079 C52.9687083,85.8318825 53.116,83.8497113 53.01975,81.8704637 C52.9235,79.8692893 52.1243333,78.0069839 51.9420417,75.9882682 C51.7670417,74.0397179 50.8249583,72.4624593 50.2357917,70.5840743 C49.7064167,68.8971823 49.655375,66.3785385 49.9339167,64.5820131 C50.1935,62.8980446 51.6868333,61.5999856 52.6901667,60.2566114 C53.84225,58.7144354 55.1780833,57.293587 56.2237083,55.6929399 C57.21975,54.1712288 58.212875,53.5338935 59.731,52.5457315 C61.0537083,51.6832824 62.3530833,50.6044901 63.6801667,49.8151298 C66.416,48.1867089 70.9237083,48.9468336 73.86225,49.5724747 L73.7426667,49.0930114 C74.50975,49.7171907 75.8485,49.4233733 76.7307917,49.6967258 C77.6364167,49.9773872 78.4589167,50.2945931 79.3732917,50.5343247 C81.14225,50.9962466 82.5757917,52.0370327 84.18725,52.7883867 C85.0651667,53.1976846 85.9839167,53.2386144 86.7757917,53.8057843 C87.420375,54.2662444 87.87975,54.921121 88.4470417,55.4868292 C89.7755833,56.8141238 90.9582917,58.3621469 92.4574583,59.5096428 C95.8845417,62.1276875 96.0230833,65.913693 96.0230833,69.9847452 C96.0230833,73.9695526 94.5064167,77.3287188 93.2405833,80.9115372 M97.4332917,63.501759 C96.9885,61.6175269 95.6730833,60.1645194 94.376625,58.6691203 C93.029125,57.1123265 91.340375,55.9487511 89.8864167,54.5220556 C89.310375,53.959271 88.8320417,53.3789451 88.356625,52.70068 C87.54725,51.5502606 87.2993333,51.7680655 86.0787083,51.3514587 C85.162875,51.0371764 84.3724583,50.6673465 83.4449583,50.4144589 C82.572875,50.1761891 81.641,49.8297476 80.8155833,49.4555324 C79.7889167,48.990687 78.8512083,48.3884343 77.8143333,47.9835218 C77.0501667,47.6838573 76.1912083,47.5596061 75.4270417,47.3008714 C73.6726667,47.3330305 71.9299583,47.4528963 70.1493333,47.2994096 C68.205375,47.1298433 66.0295417,46.8477201 64.040375,47.1985469 C62.8751667,47.4046576 62.1562083,48.1472409 61.4007917,48.9746074 C60.6818333,49.7683529 60.1874583,49.820977 59.367875,50.4407709 C58.6255833,51.0020937 58.0335,51.8586957 57.2080833,52.3045381 C56.3082917,52.7913102 55.9451667,52.6685209 55.299125,53.4198748 C54.0551667,54.8626499 53.2501667,56.6533282 52.21475,58.2452046 C51.6620417,59.0915742 50.9445417,60.2098345 50.0257917,60.7126862 C48.8051667,61.3807188 48.0570417,60.9334147 47.9885,62.5399089 C47.966625,63.0559166 48.1357917,63.3994345 48.0205833,63.8876684 C47.9039167,64.3802877 47.4868333,64.7939709 47.3862083,65.3026697 C47.1995417,66.2747522 47.4357917,67.4748721 47.4824583,68.4235661 C47.5932917,70.6366983 47.2068333,72.4580739 48.920375,74.0996508 C50.2051667,75.3319298 50.6164167,77.208853 50.8599583,78.9892989 C51.414125,83.0106506 50.9314167,87.3638261 53.409125,90.7244541 C54.48975,92.1906176 55.4668333,93.8702008 56.161,95.529319 C56.8799583,97.2498319 56.9470417,99.3971841 59.1287083,99.7684757 C62.8037083,100.391193 67.5301667,97.7541454 70.8945417,99.9950514 C71.460375,100.37219 71.5493333,100.492056 72.1851667,100.749329 C72.6489167,100.934975 73.140375,101.146933 73.621625,101.32527 C74.5112083,101.652708 75.2680833,101.940678 76.2582917,101.923137 C77.1989167,101.905595 78.2999583,101.902672 79.160375,101.594237 C80.1768333,101.231716 80.6537083,100.715708 81.767875,100.601689 C84.0005833,100.375114 84.5955833,98.7496163 85.626625,97.0261799 C86.1880833,96.0906418 86.8968333,95.9152284 87.7601667,95.2895874 C88.584125,94.6917201 88.6585,94.139168 89.0974583,93.3074162 C90.3530833,90.9378737 91.7880833,88.7642096 92.7651667,86.1637062 C93.431625,84.3891075 94.4918333,82.6437443 95.3318333,80.9086136 C95.7387083,80.0710147 96.205375,79.2392629 96.590375,78.388508 C97.0585,77.360878 96.9432917,76.4414195 96.9812083,75.2617645 C97.0468333,73.1933483 97.8124583,71.4158261 97.9393333,69.3854162 C98.0589167,67.4441748 97.8649583,65.3319053 97.4332917,63.501759" id="Fill-25" fill="#BBBBBB"></path>
                <path d="M86.9140417,80.0499651 C86.3059167,81.5906793 86.1557083,83.932448 85.161125,85.1998096 C84.693,85.7932916 83.9405,86.2888344 83.4388333,86.943711 C82.9182083,87.6205143 82.4602917,88.499043 81.7471667,88.9916623 C80.8196667,89.6348447 80.1634167,89.6085326 79.5363333,90.5177587 C79.0813333,91.1770206 78.9063333,91.8348208 78.1888333,92.2718925 C77.4188333,92.7411233 76.4607083,92.8756069 75.6294583,93.3667644 C74.8025833,93.8506129 74.0719583,93.9982525 73.138625,94.0903446 C70.8927917,94.3169202 69.4271667,94.5347251 67.2790417,93.5962635 C65.4619583,92.802518 63.5850833,92.4750797 61.991125,91.2296447 C58.9155,88.8308667 59.3938333,84.7451966 59.0365417,81.1959992 C58.83675,79.1933631 58.281125,77.361755 57.7765417,75.4468256 C57.2325833,73.3711006 57.2238333,71.1988982 56.8271667,69.1114789 C56.4946667,67.364654 56.0775833,65.0258089 57.0809167,63.4821712 C57.6977917,62.5305536 58.3044583,61.6914929 58.898,60.7164868 C59.3850833,59.9125088 59.978625,59.1319193 60.5940417,58.4039537 C61.7169583,57.070812 63.2438333,55.3400667 64.8713333,54.7290434 C66.4507083,54.138485 69.2025833,53.7204164 70.9569583,53.9148329 C71.782375,54.006925 72.526125,54.4425349 73.2771667,54.8123647 C74.319875,55.3269107 75.2007083,55.3020604 75.2007083,55.3020604 C76.971125,55.891157 78.9005,56.3457701 80.3413333,57.4947277 C81.8084167,58.6641503 82.8394583,59.9592857 84.2759167,61.2646537 C87.1459167,63.8695424 89.5069583,65.6324469 89.894875,69.6859578 C90.279875,73.6970771 88.3213333,76.4876117 86.9140417,80.0499651 M89.54925,62.811215 C88.2819583,61.6651809 87.7875833,60.1639347 86.4255,59.0164388 C84.8490417,57.6876824 83.0188333,56.6936733 81.5109167,55.3020604 C80.1327917,54.0288516 78.3040417,53.452911 76.4884167,52.9749096 C74.8375833,52.5407614 72.3555,53.037766 70.837375,52.0788395 C68.93425,51.6783123 69.2682083,51.9779768 67.2790417,52.3068769 C65.692375,52.569997 64.379875,53.4909173 62.888,54.125329 C61.0213333,54.9205363 60.5546667,55.8926188 59.3821667,57.4888806 C58.4502917,58.7533187 57.2719583,59.7867959 56.3677917,61.0819314 C55.23175,62.7103523 54.1146667,63.7672179 53.8463333,65.7742394 C53.5809167,67.7491017 53.8565417,69.5295475 54.2765417,71.5292601 C54.6994583,73.5377433 55.4563333,75.2948007 55.5613333,77.3982995 C55.6605,79.3629294 55.9813333,81.3933393 56.364875,83.2673389 C56.7746667,85.2626661 56.8796667,86.8267688 57.7488333,88.6729946 C58.5144583,90.2970302 59.2465417,91.833359 60.6421667,93.0451732 C61.4019583,93.7058969 62.31925,93.8623072 63.14175,94.3461557 C64.0459167,94.8767812 64.7488333,95.0697359 65.779875,95.2597671 C67.7734167,95.629597 69.5482083,95.9234144 71.642375,95.926338 C72.6077917,95.9277997 73.4405,95.7436157 74.30675,95.6062085 C75.0563333,95.4878045 76.2609167,95.6807592 76.953625,95.3810947 C77.5121667,95.1413631 78.34925,94.1897455 78.78675,93.7658298 C79.333625,93.2395897 79.5202917,92.4166085 80.051125,91.9283746 C80.6650833,91.3612047 81.809875,91.4372172 82.544875,91.0103779 C83.24925,90.5996183 83.9784167,89.9330474 84.417375,89.2489352 C85.4163333,87.6862943 85.9996667,85.8269125 87.1459167,84.3300516 C88.4452917,82.6314654 89.177375,80.8787933 89.7752917,78.8893132 C90.3177917,77.0840172 91.3634167,75.4672905 91.73675,73.6005998 C92.3988333,70.2940575 92.2719583,65.2743112 89.54925,62.811215" id="Fill-28" fill="#BBBBBB"></path>
                <path d="M83.4825833,78.5450645 C83.0232083,79.7086399 82.9109167,81.4759297 82.1584167,82.4333944 C81.8055,82.8821603 81.2382083,83.2563755 80.8590417,83.7504566 C80.4652917,84.2606172 80.1196667,84.9242645 79.5815417,85.2970179 C78.8800833,85.7823283 78.3857083,85.7618634 77.9132083,86.4488991 C77.5690417,86.9473655 77.4363333,87.4429083 76.8952917,87.7732701 C76.3134167,88.1270205 75.5900833,88.8228269 74.9615417,89.1941185 C74.337375,89.5595631 73.786125,89.6706582 73.08175,89.7408236 C71.3871667,89.9103898 70.2788333,90.0755708 68.6571667,89.3666084 C67.2863333,88.7672793 65.8688333,88.5202388 64.6657083,87.5803154 C62.3425833,85.7691722 63.6200833,82.0898766 63.35175,79.4104371 C63.2000833,77.8974967 62.7800833,76.5161163 62.3994583,75.0704177 C61.9882083,73.5019297 61.982375,71.8618146 61.6819583,70.2860177 C61.431125,68.9674938 61.1175833,67.2016657 61.873,66.0351668 C62.3396667,65.3174337 62.7975833,64.6830219 63.24675,63.9477475 C63.61425,63.3411096 64.0619583,62.7505512 64.5257083,62.2009226 C65.3744583,61.1952192 65.6107083,59.8883895 66.838625,59.4279294 C68.0315417,58.9806252 70.1096667,58.6648812 71.4352917,58.8125207 C72.058,58.8812243 72.6282083,59.1925831 73.18675,59.4907858 C73.838625,59.8372273 75.1744583,59.865001 75.4865417,59.93809 C75.9109167,60.0360291 77.4319583,60.6470524 78.519875,61.5153486 C79.6282083,62.3982626 80.4055,63.3761922 81.4905,64.3614307 C83.6575833,66.3275224 85.4396667,67.6592023 85.7327917,70.7201658 C86.0244583,73.7489702 84.5457083,75.8553926 83.4825833,78.5450645 M85.47175,65.5293915 C84.5150833,64.6640188 84.14175,63.5311407 83.113625,62.6643063 C81.923625,61.6615264 80.541125,60.9101724 79.403625,59.8591539 C78.362375,58.8973039 76.9813333,58.4631558 75.6105,58.1020966 C74.363625,57.7746582 72.4065417,58.0290076 71.3434167,57.426755 C69.9084167,57.1241669 70.15925,57.3492808 68.6571667,57.5977831 C67.459875,57.7965849 66.4157083,58.1167143 65.342375,58.9718546 C64.2005,59.8796188 64.288,60.3283847 63.6113333,61.5109633 C63.0221667,62.5400551 62.017375,63.246094 61.3363333,64.2240236 C60.477375,65.453379 59.6344583,66.2515099 59.43175,67.7659121 C59.2319583,69.2569259 59.4405,70.6017618 59.7569583,72.1117787 C60.0763333,73.6276426 60.648,74.9549372 60.72675,76.5424283 C60.801125,78.0261332 61.0432083,79.5595385 61.3334167,80.9745398 C61.6425833,82.4816331 60.8055,83.6612881 61.46175,85.0558245 C62.03925,86.2822564 62.5934167,88.0363902 63.6463333,88.9514634 C64.2194583,89.4499297 64.9121667,89.5683337 65.5334167,89.9337783 C66.2159167,90.3343055 66.74675,90.4790216 67.5255,90.6237376 C69.0305,90.9029372 70.3707083,91.1236657 71.9515417,91.1265893 C72.6807083,91.1280511 73.30925,90.9891821 73.9640417,90.8853959 C74.529875,90.7947656 75.4384167,90.9409435 75.9619583,90.7158296 C76.384875,90.5345691 77.014875,89.2204305 77.3459167,88.9003011 C77.758625,88.5041592 77.9000833,87.8814417 78.2996667,87.5130736 C78.764875,87.0862344 79.6296667,87.141782 80.1838333,86.8201908 C80.7146667,86.5102938 81.2659167,86.0074421 81.5969583,85.4899726 C82.3509167,84.3103176 82.7927917,82.9070106 83.6575833,81.7755942 C84.6390417,80.4950766 85.19175,79.1707055 85.6438333,77.6679976 C86.0521667,76.3056203 86.8425833,75.0850355 87.1240417,73.6758813 C87.6227917,71.1791642 87.528,67.3887734 85.47175,65.5293915" id="Fill-30" fill="#BBBBBB"></path>
                <path d="M80.9940833,77.2591382 C80.6645,78.0967371 80.2605417,79.441573 79.7195,80.1315323 C79.46575,80.4531235 79.0559583,80.7235525 78.78325,81.0787646 C78.5003333,81.4471327 78.2509583,81.9251342 77.8645,82.1926396 C77.3599167,82.5420046 77.002625,82.5288485 76.6628333,83.0214678 C76.4149167,83.3810652 76.3186667,83.7392009 75.9292917,83.9760089 C75.51075,84.2318201 74.990125,84.7317483 74.5380417,84.9992537 C74.088875,85.2623738 73.69075,85.9537948 73.18325,86.0049571 C71.962625,86.1277464 71.1649167,86.2461505 69.9967917,85.7359899 C69.0095,85.3033035 68.2992917,85.1264284 67.4330417,84.4496251 C65.7603333,83.1442572 66.8190833,79.8844918 66.625125,77.9534828 C66.51575,76.8659199 66.721375,75.8689871 66.4472083,74.8282011 C66.1511667,73.6997083 65.6990833,72.5185915 65.48325,71.3842517 C65.3024167,70.4340958 65.0195,68.4840838 65.5634583,67.6435613 C65.898875,67.1275536 66.0009583,67.0339998 66.32325,66.5033743 C66.5886667,66.0663026 66.6878333,65.958131 67.02325,65.5619892 C67.6342917,64.838409 67.4942917,63.3298539 68.3780417,62.9980302 C69.237,62.676439 70.73325,62.4484016 71.6884583,62.5551114 C72.1361667,62.6048119 73.2153333,63.283077 73.6178333,63.4964966 C74.0859583,63.7464607 74.6911667,63.8794825 74.9142917,63.9321065 C75.2205417,64.0037336 76.31575,64.4437288 77.1003333,65.0679081 C77.8965833,65.7037816 78.7672083,66.0823822 79.548875,66.7928064 C81.1092917,68.2092695 82.082,69.4927107 82.2934583,71.6970722 C82.5034583,73.8780453 81.7597083,75.3222821 80.9940833,77.2591382 M82.1053333,67.9593054 C81.417,67.3365879 80.8672083,66.6919437 80.126375,66.0677644 C79.2703333,65.345646 78.55575,64.6322982 77.7361667,63.8765589 C76.9865833,63.1836761 75.7295,63.2494561 74.7436667,62.9892596 C73.8453333,62.7539133 72.387,61.9908651 71.6228333,61.5567169 C70.5874167,61.338912 70.7697083,61.5011694 69.687625,61.6809681 C68.82575,61.8242223 68.3984583,61.5420992 67.6255417,62.156046 C66.8030417,62.8109226 66.8511667,64.2142297 66.3640833,65.0649846 C65.9397083,65.8061061 65.6684583,65.6350781 65.177,66.3396552 C64.5586667,67.2254927 64.267,67.7298062 64.1211667,68.8202927 C63.9767917,69.8932379 64.3617917,71.3842517 64.59075,72.4718146 C64.8197083,73.5637629 65.4365833,74.7390326 65.4934583,75.8836049 C65.5474167,76.950703 65.4292917,78.051422 65.6378333,79.0702814 C65.8609583,80.1549208 65.461375,81.2074011 65.601375,82.3651294 C65.7195,83.3357501 65.9411667,84.7770634 66.6995,85.4363254 C67.1122083,85.7959228 67.6109583,85.8807059 68.0586667,86.143826 C68.550125,86.4317963 69.4353333,86.6802986 69.9967917,86.7840848 C71.0803333,86.9858102 71.232,87.000428 72.3695,87.0033516 C72.8945,87.0033516 73.3480417,86.9039507 73.817625,86.8279382 C74.2259583,86.7636199 74.88075,86.2563829 75.257,86.0941255 C75.5617917,85.9640273 76.0167917,85.0182568 76.2545,84.7887576 C76.552,84.5022491 76.652625,84.054945 76.941375,83.7889013 C77.2753333,83.4804661 77.7405417,83.2495052 78.140125,83.0170825 C78.5222083,82.7934304 79.3111667,81.9777582 79.548875,81.6050047 C80.091375,80.7557116 80.1759583,80.4721266 80.7986667,79.6579162 C81.5059583,78.7340724 81.9040833,77.780993 82.2292917,76.6992771 C82.523875,75.718424 83.092625,74.8398953 83.2953333,73.8239595 C83.6540833,72.0274341 83.5855417,69.2968324 82.1053333,67.9593054" id="Fill-32" fill="#BBBBBB"></path>
                <path d="M79.0747708,76.4522366 C78.8326875,77.0676452 78.5366458,78.0543455 78.1399792,78.5601208 C77.9533125,78.7969288 77.6528958,78.9942689 77.4531042,79.2559272 C77.2445625,79.5248944 77.0622708,79.8757211 76.7778958,80.0730612 C76.4074792,80.3288724 75.6447708,81.2074011 75.3574792,81.3813527 C75.0512292,81.5684603 73.7153958,82.8328984 73.3435208,82.8694429 C72.4466458,82.9600731 71.8618542,83.0477798 71.0043542,82.6721028 C70.2810208,82.3563587 69.7589375,82.2262605 69.1231042,81.7277941 C67.8951875,80.7717912 68.6724792,78.3788603 68.5295625,76.9623972 C68.4493542,76.1628046 68.6010208,75.4319155 68.3997708,74.6688672 C68.1824792,73.840039 68.0468542,73.1179206 68.0468542,72.271551 C68.0468542,71.5728211 67.6531042,70.103734 68.1066458,69.5263316 C68.2408125,69.3538418 68.5762292,68.159569 68.8226875,67.8686751 C69.2703958,67.3365879 69.1683125,66.2300218 69.8172708,65.9873666 C70.4472708,65.7505585 71.5453958,65.5839158 72.2453958,65.6613901 C72.5749792,65.6979345 73.3668542,66.1949391 73.6614375,66.3528112 C74.0056042,66.5355334 74.4489375,66.6334726 74.6137292,66.6729406 C74.8383125,66.7241028 75.6418542,67.0471558 76.2164375,67.5061541 C76.8026875,67.9724614 77.4414375,68.2501992 78.0145625,68.7705923 C79.1593542,69.8113783 80.0970625,70.6650568 80.2516458,72.2832453 C80.4047708,73.8838924 79.6362292,75.0313882 79.0747708,76.4522366 M79.7353958,69.7836046 C79.2293542,69.326068 78.9814375,68.6975034 78.4389375,68.2399668 C77.8089375,67.7093413 77.2853958,67.5324662 76.6831042,66.9769904 C76.1333125,66.4682916 75.2116458,66.1715507 74.4883125,65.9800577 C73.8291458,65.8075679 73.0606042,65.5502949 72.4991458,65.2330891 C71.7408125,65.0722935 71.5060208,65.0635228 70.7112292,65.1950828 C70.0783125,65.3003309 69.9324792,65.1906975 69.3651875,65.642387 C68.7614375,66.123312 69.0516458,66.5223774 68.6943542,67.1465567 C68.3837292,67.6903382 68.3662292,68.0513974 68.0060208,68.5688669 C67.5524792,69.2178964 67.4547708,69.5891881 67.3468542,70.3887807 C67.2418542,71.1766792 67.3395625,71.8257087 67.5072708,72.6238396 C67.6749792,73.424894 67.9491458,74.3121934 67.9914375,75.1512541 C68.0308125,75.9347672 67.8937292,76.6612709 68.0468542,77.4082396 C68.2101875,78.2049087 67.8339375,79.3611752 68.0060208,80.2002359 C68.3924792,82.0742355 69.2543542,82.7788126 69.5824792,82.9717673 C69.9426875,83.1837252 70.5931042,83.3664474 71.0043542,83.4424599 C71.7991458,83.5900995 71.9099792,83.6017937 72.7456042,83.6017937 C73.1306042,83.6032555 73.4631042,83.5301666 73.8087292,83.474619 C74.1076875,83.4278421 74.5889375,82.7744273 74.8645625,82.6545615 C75.0876875,82.5595459 75.5966458,81.9777582 75.5966458,81.9777582 C75.8139375,81.7672621 76.6874792,80.8478036 76.9806042,80.6782374 C77.2606042,80.5145182 77.8395625,79.9151892 78.0145625,79.6418366 C78.4126875,79.0176573 78.4739375,78.8100848 78.9318542,78.2122176 C79.4495625,77.5354143 79.7426875,76.8352225 79.9803958,76.041477 C80.1976875,75.3222821 80.6147708,74.6776379 80.7635208,73.932131 C81.0274792,72.6121453 80.8218542,70.7659195 79.7353958,69.7836046" id="Fill-34" fill="#BBBBBB"></path>
            </g>
        </g>
    </g>
</svg>