<svg xmlns="http://www.w3.org/2000/svg" width="93" height="71" viewBox="0 0 93 71">
  <path fill="#DDDDDD" fill-rule="evenodd" d="M299.676582,200.5463 C300.000148,200.366125 300.315613,200.198681 300.599355,200.075504 C303.206623,198.941909 303.767123,198.259653 306.397483,197.097718 C306.397483,197.097718 306.671435,196.377675 306.57277,195.576812 C306.57277,195.576812 307.759896,194.844173 308.805322,194.678333 C308.805322,194.678333 308.859903,193.859625 308.626886,192.045874 C308.626886,192.045874 306.121432,191.382511 306.003874,186.330667 C306.003874,186.330667 304.121896,186.96464 304.008537,183.902884 C303.930865,181.828826 302.324939,180.02662 304.635163,178.539301 L303.459583,175.366286 C303.459583,175.366286 302.221026,163.094072 307.647586,164.093315 C305.445473,160.562377 324.016485,157.627626 325.249795,168.436662 C325.249795,168.436662 326.12938,174.271527 325.249795,178.265349 C325.249795,178.265349 328.025003,177.943114 326.170315,183.280457 C326.170315,183.280457 325.152179,187.116836 323.586139,186.255094 C323.586139,186.255094 323.841198,191.109608 321.375629,191.931465 L321.548817,194.693028 C322.644626,194.956483 323.765625,195.626144 323.765625,195.626144 C323.765625,195.626144 323.549402,197.160695 323.960855,197.393712 C323.960855,197.393712 326.74446,199.304029 330.067572,200.156325 C336.468185,201.798988 339.103793,204.180586 339.715724,207.088047 C340.328705,209.995508 343,219.993184 343,223.987007 L314.941228,223.98316 C314.441018,218.912012 313.236527,210.508765 312.593132,208.391507 C311.734107,205.564664 308.344279,203.582375 302.785288,201.57416 C301.945108,201.27064 300.824864,200.905382 299.676582,200.5463 L299.676582,200.5463 Z M265.83172,188.874482 C265.790785,187.131055 266.411113,186.050991 266.411113,186.050991 C266.411113,186.050991 264.195355,187.276953 266.005958,191.520586 C266.005958,191.520586 261.402304,187.634875 265.017212,181.403252 C265.682674,179.075185 266.83936,175.223061 266.83936,174.89138 C266.83936,174.55655 268.410649,166.367377 269.16113,164.744657 C269.910563,163.120887 270.929748,160.914576 272.666877,159.831363 C274.407155,158.74815 276.986084,157.208351 280.69021,157.001574 C280.747939,156.999475 280.802519,156.999475 281.022941,157.001574 C284.729166,157.2094 287.307044,158.7492 289.047322,159.831363 C290.7876,160.914576 291.804687,163.120887 292.554119,164.744657 C293.301452,166.367377 295.834197,176.106846 295.834197,176.441676 C295.834197,176.773357 296.656053,179.440454 297.732968,182.178925 C300.446248,189.078109 296.919509,191.344249 296.919509,191.344249 C297.539837,189.155781 295.300987,186.05519 295.300987,186.05519 C295.300987,186.05519 296.35691,189.863229 296.066164,190.876117 C295.775418,191.889005 294.050884,192.132517 294.050884,192.132517 L288.463731,193.107619 L288.556098,196.233402 C289.205816,197.102491 291.065751,197.16022 292.287514,196.869474 C292.618146,197.619956 293.052691,200.99345 293.616339,201.194978 C294.81816,201.631622 309.118667,204.962711 310.366252,209.068214 C311.154863,211.663341 312.840582,224.532386 312.840582,227.270808 L250.014924,227.270808 C249.806049,224.32661 251.848619,212.906692 252.4595,209.068214 C253.070382,205.228686 261.757077,203.109494 268.782216,200.550509 C269.248249,199.944875 269.860181,197.126632 270.075354,196.637507 C271.471355,197.16022 272.925085,197.16022 273.158102,196.231302 L273.251518,193.106569 L267.149,191.869062 C267.149,191.869062 265.872656,190.618958 265.83172,188.874482 Z" transform="translate(-250 -157)"/>
</svg>
