<?xml version="1.0" encoding="UTF-8" standalone="no"?>
<svg width="41px" height="30px" viewBox="0 0 41 30" version="1.1" xmlns="http://www.w3.org/2000/svg" xmlns:xlink="http://www.w3.org/1999/xlink">
    <!-- Generator: Sketch 42 (36781) - http://www.bohemiancoding.com/sketch -->
    <title>Burger</title>
    <desc>Created with Sketch.</desc>
    <defs></defs>
    <g id="Team-Page" stroke="none" stroke-width="1" fill="none" fill-rule="evenodd">
        <g id="Slack-Channel-V2" transform="translate(-302.000000, -2541.000000)" fill="#FFFFFF">
            <g id="Large-Copy-5" transform="translate(4.000000, 2253.000000)">
                <g id="Center" transform="translate(248.000000, 246.000000)">
                    <g id="Burger" transform="translate(50.000000, 42.000000)">
                        <path d="M2.62611029,16.20234 C1.17766471,16.20234 0,17.36952 0,18.81096 C0,20.2524 1.17525294,21.42192 2.62375882,21.42192 L38.0748912,21.42192 C39.5233368,21.42192 40.69865,20.2524 40.69865,18.81096 C40.69865,17.36952 39.5210456,16.2 38.0725397,16.2 C35.7902868,16.2 35.3404926,16.664064 33.6423088,16.664064 C31.944125,16.664064 31.4966824,16.2 29.2144294,16.2 L29.2073629,16.2 C26.92511,16.2 26.4776674,16.664064 24.7794835,16.664064 C23.0812997,16.664064 22.6338571,16.2 20.3516041,16.2 L20.3445376,16.2 C18.0622847,16.2 17.6148421,16.664064 15.9166582,16.664064 C14.2185347,16.664064 13.7710318,16.2 11.4887788,16.2 L11.4817124,16.2 C9.19945941,16.2 8.75201676,16.664064 7.05383294,16.664064 C5.35806088,16.664064 4.90820647,16.202346 2.62595594,16.202346 L2.62611029,16.20234 Z" id="Fill-1"></path>
                        <path d="M38.4652347,22.8 C38.4652347,27.74298 33.1282406,29.6178 20.73997,29.6178 C8.3516994,29.6178 3.01470588,27.7428 3.01470588,22.8 L38.4652347,22.8 Z" id="Fill-2"></path>
                        <path d="M38.3458523,12.6 C36.6477288,12.6 36.2002259,13.064064 33.91327,13.064064 C31.6263141,13.064064 31.1812229,12.6 29.4806876,12.6 C27.7825641,12.6 27.3350612,13.064064 25.0481053,13.064064 C22.7611494,13.064064 22.3160582,12.6 20.6155229,12.6 C18.9173994,12.6 18.4698965,13.064064 16.1829406,13.064064 C13.8959847,13.064064 13.4508935,12.6 11.7503582,12.6 C10.0522347,12.6 9.60473175,13.064064 7.31777587,13.064064 C5.03081999,13.064064 4.58572881,12.6 2.88754559,12.6 C2.29167088,12.6 1.80882353,13.080468 1.80882353,13.67346 C1.80882353,14.266452 2.29164676,14.74692 2.88754559,14.74692 C4.58566851,14.74692 5.03317146,15.210984 7.31777587,15.210984 C9.60473175,15.210984 10.0498229,14.74692 11.7503582,14.74692 C13.4484818,14.74692 13.8959847,15.210984 16.1829406,15.210984 C18.4698965,15.210984 18.9149876,14.74692 20.6155229,14.74692 C22.3136465,14.74692 22.7611494,15.210984 25.0481053,15.210984 C27.3350612,15.210984 27.7801523,14.74692 29.4806876,14.74692 C31.1788112,14.74692 31.6263141,15.210984 33.91327,15.210984 C36.2002259,15.210984 36.645317,14.74692 38.3458523,14.74692 C38.941727,14.74692 39.4245744,14.266452 39.4245744,13.67346 C39.4245744,13.080468 38.9417512,12.6 38.3458523,12.6 Z" id="Fill-3"></path>
                        <path d="M20.7399718,0 C12.4073247,0 3.01470588,3.18984 3.01470588,11.604 L38.4658394,11.604 C38.4658394,3.192 29.0732218,0 20.7405747,0 L20.7399718,0 Z M15.3441306,4.76484 C14.8189146,5.40468 14.1405997,5.71638 13.8297233,5.4633 C13.5188287,5.210172 13.6907634,4.48596 14.2159794,3.84612 C14.7411955,3.20628 15.4195103,2.89458 15.7303868,3.14766 C16.0436328,3.400788 15.8693466,4.125 15.3441306,4.76484 Z M20.7399718,5.80314 C20.3372252,5.80314 20.0122218,5.13282 20.0122218,4.30782 C20.0122218,3.48048 20.3372433,2.8125 20.7399718,2.8125 C21.1427003,2.8125 21.4677218,3.48282 21.4677218,4.30782 C21.4700793,5.13282 21.1427003,5.80314 20.7399718,5.80314 Z M27.6526924,5.46564 C27.3418039,5.718768 26.6635071,5.404704 26.138285,4.76718 C25.613069,4.12734 25.4387527,3.40314 25.7520289,3.15 C26.0629174,2.896872 26.7412141,3.210936 27.2664362,3.84846 C27.7916522,4.4883 27.9635568,5.21016 27.6526924,5.46564 Z" id="Fill-4"></path>
                    </g>
                </g>
            </g>
        </g>
    </g>
</svg>