<?xml version="1.0" encoding="UTF-8" standalone="no"?>
<svg width="206px" height="117px" viewBox="0 0 206 117" version="1.1" xmlns="http://www.w3.org/2000/svg" xmlns:xlink="http://www.w3.org/1999/xlink">
    <!-- Generator: Sketch 41.2 (35397) - http://www.bohemiancoding.com/sketch -->
    <title>People Icon</title>
    <desc>Created with Sketch.</desc>
    <defs>
        <polygon id="path-1" points="75.3775714 104.569047 75.3775714 0.227893323 0.967507563 0.227893323 0.967507563 104.569047 75.3775714 104.569047"></polygon>
        <polygon id="path-3" points="0.230313472 116.264706 100.2732 116.264706 100.2732 0.0820794118 0.230313472 0.0820794118 0.230313472 116.264706"></polygon>
    </defs>
    <g id="About-Page" stroke="none" stroke-width="1" fill="none" fill-rule="evenodd">
        <g id="Desktop:--Chuck's-Original" transform="translate(-241.000000, -325.000000)">
            <g id="People-Icon" transform="translate(241.000000, 325.000000)">
                <path d="M47.9356336,91.7124265 L49.9430118,85.0575735 C51.2267597,75.9628971 63.5493479,74.3698971 71.3144571,70.9964853 C71.3266336,70.9878088 69.1905328,70.4238382 69.2027092,70.4221029 C67.437121,69.6169265 64.3651714,69.25425 63.1718773,67.9788088 C62.479558,67.2395735 62.4778185,65.6188088 61.9577092,65.3533088 C60.9801126,64.8535441 60.2738773,67.1423971 59.7972555,67.0365441 C59.3223731,66.0821324 59.3380286,58.2559559 59.3380286,58.2559559 C59.3380286,58.2559559 65.0035664,53.2635147 66.2751378,43.6968382 C66.2751378,43.6968382 68.3347008,44.5506029 69.2635916,38.8067794 C69.3923143,34.3245147 70.1437765,33.1826912 67.0857429,31.8708088 C67.0857429,31.8708088 67.3083983,28.7698382 67.4040706,26.0141912 C67.5571462,21.9327794 68.3103479,16.2045735 61.2306,11.5956324 C60.0703563,10.8563971 54.0534403,8.69422059 54.2813143,8.85386765 C56.4817765,7.96366176 59.6928857,8.24477941 59.6928857,8.24477941 C58.129079,6.15375 52.0704151,6.95198529 49.9360538,8.01745588 C50.659684,6.87563235 52.1034655,6.46089706 54.0134319,6.07739706 C56.1251798,5.65572059 60.5313227,6.00104412 60.5313227,6.00104412 C52.3748269,1.47713235 44.2287681,8.91286765 44.2287681,8.91286765 C43.9904571,7.82657353 47.993037,5.47004412 47.993037,5.47004412 C47.993037,5.47004412 43.9139193,5.39369118 36.2410034,11.5158088 C28.7159445,16.2011029 29.9614235,23.1214559 30.166684,27.2184853 C30.3058437,29.9706618 30.580684,31.8690735 30.580684,31.8690735 C27.5243899,33.1792206 29.1264655,35.0498676 29.2030034,39.5356029 C30.4745748,46.1661618 32.4349866,44.6425735 32.4349866,44.6425735 C33.8787681,53.0934559 38.3266588,58.2542206 38.3266588,58.2542206 C38.3266588,58.2542206 38.3475328,65.7159853 37.8639529,66.6322206 C37.4760454,66.7189853 36.3697261,64.9906324 35.6582723,65.3463676 C35.155558,65.5979853 35.3347261,66.7241912 34.6389277,67.4408676 C32.8054992,69.3253971 28.7803059,70.2607206 25.2734824,71.7166324 C15.3687933,75.8292794 18.4790118,73.44325 10.4181882,77.4604559 C-2.32187899,83.8151029 0.203868908,110.321721 0.203868908,110.321721 L45.1507008,110.321721 L47.9356336,91.7124265 Z" id="Fill-1" fill="#BBBBBB"></path>
                <g id="Group-5" transform="translate(130.462185, 5.124671)">
                    <mask id="mask-2" fill="white">
                        <use xlink:href="#path-1"></use>
                    </mask>
                    <g id="Clip-4"></g>
                    <path d="M75.3779193,104.569047 C75.3779193,97.9662529 70.9509025,81.4375765 69.935037,76.6308118 C68.9209109,71.8240471 64.553037,67.8866647 53.9455916,65.1709294 C48.4383479,63.7618706 43.825205,60.6036353 43.825205,60.6036353 C43.1433227,60.2184 43.5016588,57.6814 43.5016588,57.6814 C43.5016588,57.6814 41.6438773,56.5742824 39.8278437,56.1387235 L39.5408269,51.5731647 C43.6269025,50.2144294 43.204205,42.1886941 43.204205,42.1886941 C45.7995328,43.6133706 47.4868437,37.2708706 47.4868437,37.2708706 C50.5605328,28.4469 45.9613059,28.9796353 45.9613059,28.9796353 C47.4190034,22.3768412 45.9613059,12.7303412 45.9613059,12.7303412 C43.9173983,-5.13971765 13.1404992,-0.287835294 16.7899613,5.54969412 C7.79676807,3.89769412 9.84937311,24.1867529 9.84937311,24.1867529 L11.7976084,29.4325471 C7.96897815,31.8914588 10.6304067,34.8709588 10.7591294,38.2999 C10.946995,43.3617529 14.0659109,42.3136353 14.0659109,42.3136353 C14.2607345,50.6656059 18.4129109,51.7623118 18.4129109,51.7623118 C18.799079,54.7609 18.7086252,56.1144294 18.7086252,56.1144294 C16.9760874,56.3886059 15.0087176,57.5998412 15.0087176,57.5998412 C15.1722303,58.9238706 14.7182218,60.1142824 14.7182218,60.1142824 C10.3590454,62.0352529 9.43015462,63.1631941 5.10924706,65.0373118 C3.85507059,65.5804588 2.22690252,66.6441941 0.967507563,67.2394 C0.967507563,67.2394 7.59324706,70.2709588 10.7173815,70.7759294 C13.8432555,71.2809 16.5620874,72.1867235 18.2493983,73.3649882 C20.0428185,74.8382529 22.304163,78.1561353 23.1878269,81.3213118 C23.6766252,83.0791647 24.6229109,104.562106 24.6229109,104.562106 L75.3779193,104.569047 Z" id="Fill-3" fill="#BBBBBB" mask="url(#mask-2)"></path>
                </g>
                <g id="Group-8" transform="translate(49.705882, 0.654082)">
                    <mask id="mask-4" fill="white">
                        <use xlink:href="#path-3"></use>
                    </mask>
                    <g id="Clip-7"></g>
                    <path d="M27.4277101,48.1184912 C27.4277101,48.1184912 26.3996681,49.9041088 26.4675084,52.7864324 C26.5353487,55.6704912 28.6505756,57.7372265 28.6505756,57.7372265 L38.7640042,59.7831382 L38.6091891,64.9491088 C38.223021,66.4848441 35.8138193,66.4848441 33.5002899,65.6206676 C33.1436933,66.4293147 32.1295672,71.0885794 31.3572311,72.0898441 C19.7147857,76.3204912 5.31871849,79.82405 4.30633193,86.1717559 C3.29394538,92.5177265 -0.0911134454,111.397726 0.255046218,116.265226 L100.272576,116.265226 C100.307366,116.062197 98.8757605,88.0996676 98.863584,87.8896971 C98.863584,87.8896971 96.2073739,81.1550206 92.0030126,80.4695794 C87.7934328,79.7841382 82.3905588,78.3160794 80.1309538,76.6154912 C78.808937,75.6142265 74.5054244,73.8771971 72.5137017,73.1553147 C71.5795924,72.8221382 70.8594412,67.2449029 70.3115,66.0041676 C68.2867269,66.4848441 65.2043403,66.3894029 64.1275924,64.9525794 L63.9745168,59.7848735 L73.2338529,58.1727853 C73.2338529,58.1727853 76.0918445,57.7701971 76.5736849,56.0956382 C77.0555252,54.4210794 75.3055924,48.1254324 75.3055924,48.1254324 C75.3055924,48.1254324 79.015937,53.2514912 77.987895,56.8695794 C77.987895,56.8695794 83.8326008,53.1230794 79.3360042,41.7169912 C77.5512815,37.1896088 76.1892563,32.7802265 76.1892563,32.2318735 C76.1892563,31.6783147 71.9918529,15.5765206 70.7533319,12.8937559 C69.5113319,10.2092559 67.8257605,6.56166765 64.9416765,4.77084412 C62.0575924,2.98175588 57.7853908,0.436079412 51.6432311,0.0924911765 C51.5527773,0.0890205882 51.4623235,0.0890205882 51.3701303,0.0820794118 C51.277937,0.0890205882 51.1874832,0.0890205882 51.0918109,0.0924911765 C44.9531303,0.434344118 40.6791891,2.98002059 37.795105,4.77084412 C34.9162395,6.56166765 33.2271891,10.2092559 31.9851891,12.8937559 C30.7414496,15.5765206 28.1374244,29.1152853 28.1374244,29.6688441 C28.1374244,30.2171971 26.2205,36.5857265 25.1176597,40.4346088 C19.1268361,50.73705 26.7562647,57.1611088 26.7562647,57.1611088 C23.7556345,50.1453147 27.4277101,48.1184912 27.4277101,48.1184912" id="Fill-6" fill="#58A4C1" mask="url(#mask-4)"></path>
                </g>
            </g>
        </g>
    </g>
</svg>