<?xml version="1.0" encoding="UTF-8" standalone="no"?>
<svg width="19px" height="30px" viewBox="0 0 19 30" version="1.1" xmlns="http://www.w3.org/2000/svg" xmlns:xlink="http://www.w3.org/1999/xlink">
    <!-- Generator: Sketch 42 (36781) - http://www.bohemiancoding.com/sketch -->
    <title>Page 1</title>
    <desc>Created with Sketch.</desc>
    <defs></defs>
    <g id="Team-Page" stroke="none" stroke-width="1" fill="none" fill-rule="evenodd">
        <g id="Slack-Channel-V2" transform="translate(-280.000000, -664.000000)" fill="#FFFFFF">
            <g id="Large-Copy-8" transform="translate(35.000000, 448.000000)">
                <path d="M245.041692,243.971478 C245.363954,245.132815 248.623114,246 254.210347,246 C259.797581,246 263.0382,245.132815 263.360402,243.971478 C263.512746,243.423044 263.240869,242.63437 262.636168,242.344898 C263.250241,242.044896 263.454153,241.332392 263.340482,240.745289 C263.164699,239.837093 261.996324,239.096449 260.680306,238.244504 C259.120537,237.235508 258.253351,235.519887 259.971312,235.054584 C260.122486,235.005366 260.107249,234.571762 259.971312,234.534261 C258.05412,234.258869 256.625692,233.527605 256.625692,230.640238 C256.625692,228.548415 257.049924,227.71171 258.765544,227.330918 C258.889763,227.330918 258.879218,226.855145 258.754996,226.855145 C256.439343,226.788347 256.05849,225.825059 256.05849,224.587552 C257.931161,223.951218 259.258909,222.379718 259.258909,220.536327 C259.257739,218.132803 256.988976,216 254.201179,216 C251.413385,216 249.144652,218.132833 249.144652,220.538727 C249.144652,222.382088 250.472397,223.953648 252.345071,224.589952 C252.345071,225.828629 251.964219,226.824725 249.648565,226.891535 C249.524346,226.891535 249.513798,227.401299 249.638017,227.401299 L249.63919,227.401299 C251.35484,227.7013 251.779043,228.584896 251.779043,230.676718 C251.779043,233.565406 250.350521,234.27914 248.433419,234.554541 C248.29748,234.592042 248.282245,235.017444 248.433419,235.066645 C250.15141,235.531887 249.284195,237.242828 247.724425,238.251764 C246.407237,239.103709 245.24005,239.840843 245.063079,240.750209 C244.949405,241.336142 245.153314,242.048647 245.768563,242.348648 C245.16154,242.635759 244.888478,243.423254 245.041989,243.971717 L245.041692,243.971478 Z" id="Page-1"></path>
            </g>
        </g>
    </g>
</svg>