<svg xmlns="http://www.w3.org/2000/svg" width="90" height="76" viewBox="0 0 90 76">
  <g fill="#DDDDDD" fill-rule="evenodd">
    <path d="M89.7298615,30.5883418 C91.4564769,15.90376 77.8623231,2.32463273 59.3583231,0.264341818 C48.0294,-1.00002182 37.4966308,2.35088727 30.6400154,8.51517818 C32.1700154,8.35350545 33.7277077,8.27336 35.2590923,8.27336 C44.4432462,8.27336 53.2563231,10.9651418 60.0672462,15.8636873 C67.2755538,21.0316873 71.7658615,28.3000509 72.7101692,36.3353236 C73.5464769,43.4820873 71.4764769,50.7628873 66.8698615,56.9548145 C76.3655538,64.0476873 85.0567846,62.1504509 83.0407846,60.6290691 C77.4040154,56.3758327 76.1966308,52.2303782 76.5538615,48.9872509 C83.8092462,44.8818691 88.8201692,38.3403418 89.7298615,30.5883418"/>
    <path d="M67.1267077,36.9948655 C65.5620923,23.5760291 51.7380923,13.87152 35.2584,13.87152 C33.6937846,13.87152 32.1167077,13.9668655 30.5174769,14.1409745 C12.0217846,16.2137018 -1.57236923,29.7803927 0.147323077,44.4649745 C1.05701538,52.2307927 6.07347692,58.7446836 13.3302462,62.8638836 C13.6874769,66.1208291 12.4870154,70.2662836 6.84193846,74.5057018 C5.93916923,75.1924655 7.16593846,75.9455564 9.64716923,75.9455564 C13.5185538,75.9455564 20.4236308,74.1146473 27.0517846,67.2774109 C28.6842462,67.46672 30.3624,67.5745018 32.0627077,67.5745018 C33.6134769,67.5745018 35.1780923,67.4929745 36.7620923,67.3188655 C55.2591692,65.2585745 68.8533231,51.6794473 67.1267077,36.9948655"/>
  </g>
</svg>
