<?xml version="1.0" encoding="UTF-8" standalone="no"?>
<svg width="39px" height="45px" viewBox="0 0 39 45" version="1.1" xmlns="http://www.w3.org/2000/svg" xmlns:xlink="http://www.w3.org/1999/xlink">
    <!-- Generator: Sketch 42 (36781) - http://www.bohemiancoding.com/sketch -->
    <title>Barf</title>
    <desc>Created with Sketch.</desc>
    <defs></defs>
    <g id="Team-Page" stroke="none" stroke-width="1" fill="none" fill-rule="evenodd">
        <g id="Slack-Channel-V2" transform="translate(-360.000000, -1245.000000)" fill="#FFFFFF">
            <g id="Large-Copy-6" transform="translate(134.000000, 1042.000000)">
                <g id="Barf" transform="translate(226.000000, 203.000000)">
                    <path d="M1.30753769,19.3250795 L0.834398871,18.9841 C-0.092195247,18.3183799 -0.248149365,17.2322779 0.371996518,15.7276414 C2.47432593,13.3082979 4.41895769,11.2985288 6.20593769,9.70364554 C8.78324122,7.41422229 10.7690753,5.97812532 12.166973,5.39179834 C14.7890577,3.79696126 16.8593612,3.54437187 18.3789848,4.63407638 L18.9417777,5.03820092 L19.612073,5.60831672 C20.9742283,7.21580868 21.0978812,8.80704329 19.9848671,10.3765244 L19.7518719,10.7030709 C19.4704846,11.1017825 17.4272884,12.6803715 13.6242837,15.4371013 L13.581269,15.4966392 C13.581269,15.4966392 7.47341016,19.3087575 7.35686899,26.2006282 L6.55392781,42.2427578 C6.55392781,42.2427578 6.41233946,44.7378453 3.57873252,44.7378453 C0.746919577,44.7378453 0.746919577,41.8855117 0.746919577,41.8855117 L1.30753769,19.3250795 Z" id="Fill-1-Copy"></path>
                    <path d="M29.683264,38.521619 C26.1435323,38.4422351 23.2973581,38.0543587 21.0963817,39.0646701 C18.8954052,40.0749814 22.0032923,40.8904354 19.6732946,41.7059366 C17.3433428,42.5213906 23.6844217,43.3386921 26.661177,42.9111053 C29.6363723,42.4835276 29.5073052,41.4136737 33.907377,40.706478 C38.3074028,39.9992831 40.3790828,39.7250326 37.0133828,39.4544309 C33.6492887,39.1820093 29.6827593,38.5217114 29.6827593,38.5217114 L29.683264,38.521619 Z" id="Fill-2-Copy"></path>
                    <path d="M22.4745763,4.3804329 C22.4745763,1.96108938 24.4227869,0 26.8262422,0 C29.2296974,0 31.177908,1.96108938 31.177908,4.3804329 C31.177908,6.80157767 29.2296974,8.76266705 26.8262422,8.76266705 C24.4227869,8.76266705 22.4745763,6.80157767 22.4745763,4.3804329 Z" id="Fill-3-Copy"></path>
                    <path d="M28.2254914,19.6699694 C28.2254914,19.9802817 27.9727806,20.2346815 27.6644879,20.2346815 C27.3544241,20.2346815 27.1016949,19.9803001 27.1016949,19.6699694 L27.1016949,11.8147121 C27.1016949,11.5025986 27.3544057,11.25 27.6644879,11.25 C27.9745516,11.25 28.2254914,11.5025801 28.2254914,11.8147121 L28.2254914,19.6699694 Z" id="Fill-4-Copy"></path>
                    <path d="M26.9034575,30.8736873 C26.9034575,31.1858007 26.6525361,31.4383994 26.3406645,31.4383994 C26.0306008,31.4383994 25.779661,31.1858192 25.779661,30.8736873 L25.779661,11.8147121 C25.779661,11.5025986 26.0305824,11.25 26.3406645,11.25 C26.6525223,11.25 26.9034575,11.5025801 26.9034575,11.8147121 L26.9034575,30.8736873 Z" id="Fill-5-Copy"></path>
                </g>
            </g>
        </g>
    </g>
</svg>