<?xml version="1.0" encoding="UTF-8"?>
<svg width="158px" height="91px" viewBox="0 0 158 91" version="1.1" xmlns="http://www.w3.org/2000/svg" xmlns:xlink="http://www.w3.org/1999/xlink">
    <!-- Generator: Sketch 43.2 (39069) - http://www.bohemiancoding.com/sketch -->
    <title>icon-home-about-us</title>
    <desc>Created with Sketch.</desc>
    <defs></defs>
    <g id="Icons" stroke="none" stroke-width="1" fill="none" fill-rule="evenodd">
        <g id="Icon" transform="translate(-31.000000, -65.000000)" fill="#FFFFFF">
            <g id="icon-home-about-us" transform="translate(31.000000, 65.000000)">
                <path d="M36.7842931,75.3048777 L37.2830702,71.9639123 L37.3885567,71.6133572 C37.7664298,69.3214584 38.1513752,67.0020528 38.2075014,66.6493837 C38.6922219,63.6028068 41.0378623,61.3939021 44.9041868,59.4166364 C47.3145579,58.1839556 49.8063953,57.2264726 54.6298822,55.5824007 C54.2221223,55.4728794 53.8194529,55.365345 53.824129,55.364677 C52.4508937,54.7369123 50.0615996,54.4541476 49.133482,53.4597358 C48.5950114,52.8833829 48.5936584,51.6197358 48.189129,51.4127358 C47.4287761,51.0230888 46.879482,52.8076182 46.5087761,52.7250888 C46.1394231,51.9809711 46.1515996,45.8792064 46.1515996,45.8792064 C46.1515996,45.8792064 50.558129,41.9867947 51.547129,34.52803 C51.547129,34.52803 53.1490114,35.193677 53.871482,30.7154417 C53.9715996,27.2207947 54.5560702,26.3305594 52.1775996,25.3077358 C52.1775996,25.3077358 52.3507761,22.89003 52.4251878,20.7415594 C52.5442467,17.5594417 53.1300702,13.0933829 47.6235996,9.49997114 C46.7211878,8.9236182 42.0413643,7.23785349 42.2185996,7.36232408 C43.9300702,6.66826526 46.4275996,6.88744173 46.4275996,6.88744173 C45.2113055,5.25714761 40.4990114,5.87950055 38.8389525,6.71020643 C39.4017761,5.81997114 40.5247173,5.4966182 42.0102467,5.1976182 C43.6527173,4.86885349 47.0797173,5.13808879 47.0797173,5.13808879 C40.7357761,1.61097114 34.3999525,7.40832408 34.3999525,7.40832408 C34.2145996,6.5613829 37.3277173,4.72408879 37.3277173,4.72408879 C37.3277173,4.72408879 34.1550702,4.66455937 28.1872467,9.43773584 C22.3344231,13.090677 23.303129,18.4862064 23.4627761,21.6805006 C23.5710114,23.8262653 23.7847761,25.3063829 23.7847761,25.3063829 C21.4076584,26.3278535 22.6537173,27.7863241 22.7132467,31.283677 C23.7022467,36.4532653 25.2270114,35.2653829 25.2270114,35.2653829 C26.3499525,41.8542064 29.8094231,45.8778535 29.8094231,45.8778535 C29.8094231,45.8778535 29.8256584,51.6955006 29.4495408,52.4098535 C29.1478349,52.4775006 28.2873643,51.1299711 27.7340114,51.4073241 C27.3430114,51.6035006 27.4823643,52.4815594 26.9411878,53.0403241 C25.5151878,54.5096182 22.384482,55.2388535 19.6569525,56.3739711 C11.9533055,59.5804417 14.3723643,57.7201476 8.1028349,60.8522064 C-1.80610628,65.806677 0.158364311,86.4728535 0.158364311,86.4728535 L35.1170114,86.4728535 L35.6199901,83.1037445 C35.8198961,81.5997456 36.0660502,79.9091499 36.355332,78.0296668 C36.4737894,77.2600409 36.5989997,76.4630303 36.7318972,75.6312782 C36.7480428,75.5302292 36.7655576,75.4211356 36.7842931,75.3048777 L36.7842931,75.3048777 Z" id="Combined-Shape" fill-opacity="0.300000012"></path>
                <path d="M102.03192,56.136222 C102.448989,55.9039806 102.855616,55.6881504 103.221353,55.5293771 C106.582059,54.0682006 107.304529,53.1887889 110.695,51.691083 C110.695,51.691083 111.048118,50.7629653 110.920941,49.7306712 C110.920941,49.7306712 112.451118,48.7863183 113.798647,48.5725536 C113.798647,48.5725536 113.869,47.5172594 113.568647,45.1793771 C113.568647,45.1793771 110.339176,44.3243183 110.187647,37.8126124 C110.187647,37.8126124 107.761824,38.6297889 107.615706,34.6832594 C107.515588,32.0098477 105.445588,29.6868477 108.423412,27.76973 L106.908118,23.6797889 C106.908118,23.6797889 105.311647,7.86120062 112.306353,9.14920062 C109.467882,4.5979065 133.405471,0.815082972 134.995176,14.7476712 C134.995176,14.7476712 136.128941,22.2686712 134.995176,27.4166124 C134.995176,27.4166124 138.572353,27.0012594 136.181706,33.8809653 C136.181706,33.8809653 134.869353,38.8259653 132.850765,37.7152006 C132.850765,37.7152006 133.179529,43.9725536 130.001471,45.0319065 L130.224706,48.5914947 C131.637176,48.931083 133.082118,49.7942594 133.082118,49.7942594 C133.082118,49.7942594 132.803412,51.7722594 133.333765,52.0726124 C133.333765,52.0726124 136.921765,54.5349653 141.205176,55.6335536 C149.455412,57.7509065 152.852647,60.82073 153.641412,64.5683771 C154.431529,68.3160241 157.874765,81.2027889 157.874765,86.35073 L121.707682,86.3457719 C121.062924,79.809184 119.510364,68.9776005 118.681043,66.2485053 C117.57378,62.6047725 113.204373,60.0496499 106.038968,57.4611087 C104.955996,57.0698791 103.512028,56.5990703 102.03192,56.136222 L102.03192,56.136222 Z" id="Combined-Shape" fill-opacity="0.300000012"></path>
                <path d="M58.4067072,41.0915294 C58.4594719,43.3401176 60.1046483,44.9514706 60.1046483,44.9514706 L67.9706483,46.5465882 L67.8502366,50.5742941 C67.5498836,51.7716471 65.6760601,51.7716471 63.8766483,51.0978824 C63.5992954,51.7283529 62.8105307,55.361 62.2098248,56.1416471 C53.1545895,59.4401176 41.9576483,62.1717059 41.1702366,67.1207647 C40.3828248,72.0684706 37.7500013,86.7884706 38.0192366,90.5834706 L119,90.5834706 C119,87.0537109 116.827148,70.4658203 115.810648,67.1207647 C114.20254,61.8288705 95.7695307,57.5351765 94.2204131,56.9723529 C93.4938836,56.7125882 92.933766,52.3642353 92.5075895,51.3968824 C90.932766,51.7716471 88.5353542,51.6972353 87.6978836,50.577 L87.5788248,46.5479412 L94.7805307,45.2910588 C94.7805307,45.2910588 97.0034131,44.9771765 97.3781778,43.6715882 C97.7529425,42.366 96.3918836,37.4575294 96.3918836,37.4575294 C96.3918836,37.4575294 99.2777072,41.4541176 98.4781189,44.275 C98.4781189,44.275 103.024001,41.354 99.5266483,32.4611176 C98.1385307,28.9312941 97.0791778,25.4934706 97.0791778,25.0659412 C97.0791778,24.6343529 93.8145307,12.0804118 92.8512366,9.98876471 C91.8852366,7.89576471 90.5742366,5.05188235 88.3310601,3.65564706 C86.0878836,2.26076471 82.7650601,0.276 77.9878248,0.00811764706 C77.7037072,0.00541176471 77.6333542,0.00541176471 77.5589425,0.00811764706 C72.7844131,0.274647059 69.4602366,2.25941176 67.2170601,3.65564706 C64.9779425,5.05188235 63.6642366,7.89576471 62.6982366,9.98876471 C61.7308836,12.0804118 59.7055307,22.6360588 59.7055307,23.0676471 C59.7055307,23.4951765 58.2145895,28.4604706 57.3568248,31.4612941 C52.6972954,39.4937059 58.6312954,44.5022941 58.6312954,44.5022941 C56.2974719,39.0323529 59.1535307,37.4521176 59.1535307,37.4521176 C59.1535307,37.4521176 58.3539425,38.8442941 58.4067072,41.0915294 Z" id="Fill-6"></path>
            </g>
        </g>
    </g>
</svg>