<?xml version="1.0" encoding="UTF-8"?>
<svg width="135px" height="114px" viewBox="0 0 135 114" version="1.1" xmlns="http://www.w3.org/2000/svg" xmlns:xlink="http://www.w3.org/1999/xlink">
    <!-- Generator: Sketch 43.2 (39069) - http://www.bohemiancoding.com/sketch -->
    <title>icon-home-collaborate</title>
    <desc>Created with Sketch.</desc>
    <defs></defs>
    <g id="Icons" stroke="none" stroke-width="1" fill="none" fill-rule="evenodd">
        <g id="Icon" transform="translate(-44.000000, -53.000000)" fill="#FFFFFF">
            <g id="icon-home-collaborate" transform="translate(44.000000, 53.000000)">
                <path d="M66,45.000006 L66,34.9961552 C66,31.1388967 62.8656924,28 58.999328,28 L7.00067205,28 C3.13891629,28 0,31.1322854 0,34.9961552 L0,79.0038448 C0,82.8611033 3.13430764,86 7.00067205,86 L58.999328,86 C62.8610837,86 66,82.8677146 66,79.0038448 L66,68.0610899 C66,66.044953 64.7805111,64.3953624 63.9519081,64.3953624 C63.8056106,64.4934715 62.0306451,65.7002666 61.182808,66.1695173 C58.2028221,67.818844 54.4852406,68.6940827 49.0534552,68.6940827 C42.2018394,68.6940827 38,62.9115385 38,56.5353454 C38,50.1592056 42.2018435,44.3768507 49.0534552,44.3768507 C54.485216,44.3768507 58.2027737,45.2520344 61.1827452,46.9012601 C62.0305798,47.3704829 63.8055466,48.5772107 63.9661341,48.6560071 C64.8321685,48.6753283 66,47.1183898 66,45 L66,45.000006 Z M45.224407,28 L22.163317,28 C25.5924193,28 28.8290445,25.7276028 28.8290445,22.9519081 C28.8290445,20.1235191 24.5303243,19.4882083 24.5303243,8.05345517 C24.5303243,2.40393212 29.7629758,0 33.6890616,0 C37.6151473,0 42.8475563,2.40393212 42.8475563,8.05345517 C42.8475563,19.4882083 38.5490786,20.1235191 38.5490786,22.9519081 C38.5490786,25.7276028 41.6333363,28 45.224407,28 Z" id="Combined-Shape"></path>
                <path d="M69,34.9961552 C69,31.1322854 72.1389163,28 76.000672,28 L127.999328,28 C131.865692,28 135,31.1388967 135,34.9961552 L135,79.0038448 C135,82.8677146 131.861084,86 127.999328,86 L76.000672,86 C72.1343076,86 69,82.8611033 69,79.0038448 L69,34.9961552 Z M90.7755427,86 L113.836674,86 C109.587781,86 107.170935,88.2723972 107.170935,91.0480919 C107.170935,93.8764809 111.469663,94.5117917 111.469663,105.946545 C111.469663,111.596068 106.237002,114 102.310909,114 C98.3848161,114 93.1523977,111.596068 93.1523977,105.946545 C93.1523977,94.5117917 97.4508831,93.8764809 97.4508831,91.0480919 C97.4508831,88.2723972 94.9324768,86 90.7755427,86 Z M69,45 L69,68.0610899 C69,64.6319877 66.7276028,61.3953624 63.9519081,61.3953624 C61.1235191,61.3953624 60.4882083,65.6940827 49.0534552,65.6940827 C43.4039321,65.6940827 41,60.4614312 41,56.5353454 C41,52.6092596 43.4039321,47.3768507 49.0534552,47.3768507 C60.4882083,47.3768507 61.1235191,51.6753283 63.9519081,51.6753283 C66.7276028,51.6753283 69,48.5910706 69,45 Z" id="Combined-Shape" fill-opacity="0.300000012"></path>
            </g>
        </g>
    </g>
</svg>