<svg xmlns="http://www.w3.org/2000/svg" width="60" height="60" viewBox="0 0 60 60" xmlns:xlink="http://www.w3.org/1999/xlink">
  <defs>
    <ellipse id="a" cx="30" cy="30" rx="30" ry="30"/>
    <mask id="b" width="60" height="60" x="0" y="0" fill="white">
      <use xlink:href="#a"/>
    </mask>
  </defs>
  <g fill="none" fill-rule="evenodd">
    <use stroke="#666666" stroke-width="4" mask="url(#b)" opacity=".4" xlink:href="#a"/>
    <g fill="#666666" transform="translate(7 8)">
      <path d="M42.2589188,25.7168696 C42.20662,25.9588191 42.1463829,26.2965403 41.9661386,26.4885418 C41.7644145,26.7039135 41.4627622,26.6814599 41.3306142,26.9971857 C41.2096731,27.2863336 41.3782435,27.6740027 41.3091343,28.0043921 C41.2568355,28.2564228 41.099472,28.5639003 41.0140194,28.8163892 C40.82537,29.3795633 40.4742205,29.8529229 40.1963829,30.3863115 C39.9348886,30.8880818 39.5272378,31.3953509 39.3329849,31.9131594 C39.2227838,32.207348 39.2582723,32.5377374 39.1625467,32.8433819 C39.0710237,33.1352793 38.9192636,33.3740212 38.8160668,33.649422 C38.5919289,34.2487969 38.4023455,34.754233 38.0054346,35.2697504 C37.8032435,35.5318624 37.3568355,36.1303208 36.9533872,36.3126994 C36.9235022,36.3104082 36.8959519,36.3099499 36.8707364,36.3131576 C36.8147019,36.3200312 36.7605352,36.3388189 36.7077694,36.3658549 L36.7059016,36.3658549 L36.7059016,36.3667714 C36.3001185,36.5775607 35.9858585,37.3217387 35.7822665,37.6296744 C35.1490769,38.5878494 34.0092421,39.3219462 32.9413182,39.747649 C32.3478197,39.9840996 31.7113614,40.1238621 31.1640912,40.4157595 C30.6112177,40.711781 29.9462751,40.8872861 29.3490409,41.0930348 C29.0810093,41.1846823 28.7886961,41.3487314 28.4991846,41.4032617 C28.160176,41.467415 27.7861458,41.3601874 27.4602119,41.4422119 C26.7859303,41.6117598 26.2783513,41.5114058 25.5615769,41.4431284 C25.2594576,41.4147176 24.8723527,41.3079483 24.5688326,41.3583544 C24.2765194,41.4073858 24.0094217,41.5943468 23.7063685,41.6562089 C23.0353556,41.7941384 22.62537,42.1643945 21.8922522,42.163478 C21.5060812,42.163478 21.1806142,42.1428573 20.8215266,42.0686228 C20.6594935,42.0351715 20.6571588,41.9329845 20.4582364,41.9847653 C20.2513757,42.0388374 20.3237536,42.1845569 20.1677909,42.2597079 C19.8437249,42.415967 19.4626904,42.3243194 19.2044648,42.1726428 C19.0891272,42.1052818 18.8677909,41.8624158 18.6726042,41.8097185 C18.4036386,41.5769338 17.8283513,41.5283606 17.5323024,41.4852862 C17.1055065,41.4238824 16.6086674,41.4765797 16.2014835,41.3936387 C16.1342421,41.0989919 15.8867565,41.0829536 15.6770941,40.9239451 C15.4683657,40.7663113 15.3567636,40.5481902 15.1158154,40.4253825 C14.5554705,40.1394422 13.8022737,40.4537932 13.2475323,40.0560429 C12.7745079,39.7164888 12.3799318,39.2843707 11.9115769,38.9122817 C11.6818355,38.7289866 11.4394864,38.6309238 11.240097,38.3830172 C11.0425754,38.1364853 11.0028843,37.9325695 10.7862177,37.7268208 C10.4383369,37.3973479 9.80094468,37.3162399 9.51143319,36.9455256 C9.52077227,36.9459838 9.5296444,36.9455256 9.53898348,36.9464421 C9.53851652,36.9436926 9.53758261,36.9414015 9.53664871,36.9391103 C9.55439296,36.9432344 9.57213721,36.9478168 9.58894756,36.9528574 L9.52030532,36.8859547 C9.31811422,36.2150947 8.48039871,35.3160324 7.89577227,34.9297381 C7.4404921,34.6291341 7.21308549,34.4352996 6.92217313,33.9779784 C6.68029095,33.5971829 6.52012572,33.1375705 6.29832256,32.7682309 C6.13021911,32.488706 5.97659124,32.2925802 5.86685704,31.9961005 C5.72350216,31.6093479 5.65719468,31.6427992 5.36908405,31.3499853 C4.96190014,30.936655 4.62149066,30.4202211 4.7541056,29.8776677 C4.89792744,29.2869993 4.99738865,28.6477578 4.76344468,28.0470082 C4.57386135,27.560818 4.34645474,26.8807933 3.76743175,26.6933741 C3.73007543,26.407892 3.43822917,26.2223058 3.31962284,25.9803563 C3.1870079,25.7067884 3.07353807,25.3993109 2.97454382,25.1000817 C2.8844217,24.8283467 2.76721624,24.558903 2.68316451,24.2848769 C2.60938578,24.0465933 2.68409842,23.5484889 2.54027658,23.3102053 C2.57576509,23.2144337 2.62853089,23.1278267 2.63833693,23.014642 C2.65514727,22.8290558 2.60378233,22.6741714 2.59537716,22.5064564 C2.57669899,22.1339092 2.63320043,21.7874815 2.72472342,21.4474692 C2.84893319,20.9892315 3.26265445,20.1854826 3.71046336,19.9572803 C3.68244612,19.6915024 3.84914871,19.5031667 3.89024066,19.2442624 C3.93320043,18.9771099 3.89024066,18.6682577 3.89024066,18.3974392 C3.89117457,17.845721 3.74174928,17.3393684 3.80198635,16.7853591 C3.85381825,16.3037513 3.89537716,15.7245388 3.97709411,15.2200192 C4.05227371,14.7535332 4.44124641,14.4414734 4.37167026,13.981861 C4.51595905,13.889297 4.63643319,13.7687804 4.71301365,13.609772 C4.78399066,13.4631359 4.72141882,13.3219987 4.83675647,13.1739879 C4.89092313,13.1043358 5.09124641,13.0424737 5.17529813,12.9645733 C5.39523348,12.7574499 5.46340876,12.4999203 5.62684267,12.2565961 C5.94623922,11.7827784 6.27170618,11.29613 6.69756825,10.9070862 C6.91376796,10.710044 7.23876796,10.3333726 7.46290589,10.2110231 C7.75054957,10.0533894 8.04846624,10.1358722 8.33937859,9.89346443 C8.54203664,9.72483296 8.65177083,9.4576804 8.82034124,9.2569723 C8.93801365,9.11675157 9.07903376,9.09429792 9.15934986,8.90779519 C9.21585129,8.77444802 9.15374641,8.58794529 9.21118175,8.45322341 C9.42738147,7.94457959 9.99146193,7.39469438 10.397245,7.15916022 C10.8702694,6.88513409 11.4138039,6.49929797 11.9078412,6.27888564 C12.1978197,6.15012086 12.560176,6.24085192 12.8683657,6.15561971 C13.1518068,6.07634459 13.4076976,5.85409932 13.6131573,5.69738203 C13.8209519,5.53974827 14.0959878,5.40731759 14.2640912,5.23502022 C14.4564763,5.03797802 14.5680783,4.69934038 14.8664619,4.55499551 C15.3203412,4.33641614 16.3425036,4.57149207 16.5899892,4.04314403 C17.1792852,4.00969268 17.7265553,3.44789329 18.2219935,3.18761429 C18.5446588,3.01806635 18.8477119,3.17707482 19.1703772,3.19082195 C19.5285309,3.20594379 19.8997593,3.18853076 20.2448384,3.18211543 C20.2443714,3.17936601 20.2439045,3.17615834 20.2434375,3.17340892 C20.6716343,3.31088022 21.2623312,3.34845571 21.579393,3.41077603 C21.8969217,3.47401283 22.2307938,3.42910554 22.5492565,3.47584578 C22.86912,3.52304426 23.1469576,3.6815945 23.4906358,3.69763282 C24.1000108,3.72741827 24.9288542,3.41810784 25.5639116,3.61010942 C25.8277407,3.68984278 26.0696228,3.97120071 26.3385884,4.07842833 C26.6584519,4.20536016 26.8358944,4.27547053 27.124472,4.45051732 C27.7179705,4.81069213 28.3899174,4.90004848 29.0684016,4.76670132 C29.7109303,4.63976948 30.3712033,4.87759483 30.9576976,5.17957346 C31.4316559,5.4233559 32.1166774,5.73083338 32.0452335,6.40077687 C32.4229993,6.56345124 32.7582723,6.34991248 33.1598527,6.52495928 C33.5156717,6.67938537 33.8514116,6.89979769 34.1848168,7.09546518 C34.7755136,7.44143463 35.4292493,7.76540866 35.9765194,8.13428999 C36.4817636,8.47521882 36.742324,8.91604347 37.0131573,9.41414782 C37.3559016,10.0414752 37.4002622,10.5611167 37.5725682,11.2283108 C37.7420726,11.8854236 37.9699461,12.3555755 38.4378341,12.8816323 C38.6176114,13.0832569 38.7422881,13.4040233 38.9001185,13.5689888 C39.0831645,13.7600739 39.3764116,13.7829858 39.5809375,13.9850686 C39.5818714,13.980028 39.5832723,13.9768204 39.5846731,13.9726962 C39.5865409,13.9795698 39.5874749,13.9859851 39.5898096,13.9933169 C39.7042134,14.3621982 40.0796444,14.6275179 40.1865769,15.0179364 C40.3107866,15.4706752 40.5069073,15.8326829 40.6722091,16.27809 C41.129357,17.5089164 41.2320869,18.9147895 41.1461674,20.2610918 C41.1046085,20.9099564 40.784278,21.5679857 40.9719935,22.2535092 C41.1391631,22.8625071 41.454824,23.3005823 41.7611458,23.8623817 C42.0553269,24.4021857 42.388732,25.1165782 42.2589188,25.7168696 M44.5152407,20.049386 C44.3933657,19.7657369 44.207051,19.5393675 44.1150611,19.2538854 C44.0174677,18.9505321 43.9516272,18.6884201 43.7681142,18.406604 C43.395018,17.8319739 43.4295726,17.2220596 43.3044289,16.5764027 C43.17088,15.8862967 42.9103197,15.3611564 42.6567636,14.7539915 C42.510607,14.4034396 42.5540338,14.3512005 42.1291056,14.2128128 C41.8367924,14.1174993 41.5426114,14.0556372 41.2404921,13.9419943 C41.3306142,13.5112509 41.5552191,13.079591 41.4912464,12.6355587 L41.4912464,12.5512429 C41.4739691,12.5503265 41.454824,12.5507847 41.434745,12.5521594 C41.5407435,12.408731 41.4889116,12.373905 41.3306142,12.073301 C41.1984662,11.8231033 41.0191559,11.5958174 40.9290338,11.3236242 C40.7385165,10.74487 40.50037,10.2770094 40.2276688,9.72437473 C39.6846013,8.62414607 38.7460237,7.81169067 37.8975682,6.92820843 C37.6659591,6.68763365 37.4156717,6.46676309 37.1854634,6.22802126 C36.9333082,5.96774226 36.7278484,5.90175604 36.4495438,5.67721958 C36.2599605,5.52462643 36.1338829,5.26618038 35.9116128,5.1057972 C35.5632651,4.85468295 35.5287105,5.00223548 35.188768,5.01048376 C34.7573024,5.02056499 33.7930424,4.85422471 33.4166774,4.54399781 C32.9866128,4.18978008 33.1187608,3.30767256 32.6532076,2.96536901 C32.1236818,2.57586699 31.207051,2.74449845 30.6560453,2.35178877 C30.3716703,2.14970595 30.3515912,1.94670666 29.9649533,1.83306372 C29.6408872,1.73775028 29.3028125,1.69880008 28.9722091,1.62227439 C28.5921085,1.53429275 28.1821228,1.5287939 27.8066918,1.41973333 C27.5064404,1.33266818 27.2552191,1.12783594 26.9432938,1.06826504 C26.4782076,0.979366928 25.2767349,1.6589334 25.296347,0.94958148 C24.7584159,0.851060379 24.1905999,0.761704033 23.6596731,0.691593668 C23.0521659,0.610943837 22.929824,1.0119018 22.6365769,1.46234944 C22.2858944,2.00215342 22.035607,2.14329062 21.6657795,1.5045073 C21.528028,1.26714019 21.5168211,1.0751386 21.4607866,0.816692554 C21.3846731,0.467057207 21.32537,0.451477126 21.1035668,0.304382833 C20.8943714,0.288344514 20.685643,0.2516855 20.4675754,0.26543263 C20.136972,0.286511563 20.0192996,0.396946843 19.7335237,0.51975454 C19.5556142,0.596280232 19.2609662,0.614609739 19.1297522,0.77407645 C19.0984662,0.812110177 19.0765194,0.843270339 19.0611099,0.871222837 C18.8682579,0.805236612 18.7398455,0.89825886 18.440995,1.02794012 C18.1094576,1.17228499 17.7760524,1.24377007 17.4435812,1.36474481 C16.85662,1.57782533 16.2696588,1.82023306 15.6756932,2.05530899 C15.4193355,2.15657952 15.1657795,2.36782708 14.8996157,2.42693974 C14.5442636,2.50621486 14.2225323,2.32383627 13.8727838,2.4361045 C12.8221372,2.77153448 11.7766272,3.52762664 10.9267708,4.20536016 C10.6974964,4.38911347 10.5653484,4.64343538 10.356153,4.83131283 C10.1390194,5.02652208 9.83970187,5.0778447 9.57820761,5.25380796 C9.27235273,5.45955668 9.18596624,5.60435979 8.81193606,5.64560118 C8.63262572,5.6653054 8.43417026,5.61214983 8.26046336,5.65568241 C8.08675647,5.69829851 7.96674928,5.8453928 7.77576509,5.85730698 L8.2072306,5.89946485 C7.89530532,6.06901279 7.54882543,6.00211009 7.35363865,6.29079982 C7.24717313,6.44935006 7.30460848,6.69725664 7.25744612,6.87413638 C7.16639009,7.2173564 6.95766164,7.58761244 6.78161997,7.88088456 C6.54300647,8.27817662 6.46782687,8.384946 6.00600934,8.52654144 C5.66980244,8.62918668 5.24394037,8.68875758 4.9338829,8.87251089 C4.88998922,8.99852625 4.80406968,9.1451623 4.71067888,9.24689107 C4.66164871,9.30004664 4.69106681,9.38436237 4.6373671,9.42881142 C4.57993175,9.47600991 4.44264727,9.42056315 4.40855963,9.45630569 C4.20590158,9.6693862 4.14286279,9.88979853 4.03079382,10.189486 C3.92386135,10.4735933 3.89117457,10.7366218 3.72820761,10.9941513 C3.58298491,11.2237284 3.35371049,11.3891522 3.2103556,11.6288105 C2.92691451,12.10217 2.52346624,12.5723219 2.25029813,13.0168124 C2.12655532,13.2188952 2.08733118,13.4127298 2.11488147,13.5836524 C1.9561171,14.1908173 1.96312141,14.8538873 1.81836566,15.4743411 C1.73804957,15.8166446 1.6259806,15.9802355 1.41911997,16.2698417 C1.20198635,16.5736533 1.17163434,16.8490541 1.03061422,17.1583645 C0.917144397,17.4062711 0.720089799,17.6001057 0.61922773,17.8562605 C0.495484914,18.1710698 0.275082615,18.2682162 0.134996408,18.5248293 C-0.207747845,19.1526149 0.197101293,19.7070825 0.307769397,20.2610918 C0.338121408,20.4146015 0.383882902,20.5997295 0.350729167,20.7697357 C0.319910201,20.9269112 0.190096983,20.9928974 0.167216236,21.0978338 C0.108380029,21.3672776 0.206907328,21.6468026 0.338588362,21.9254111 C0.577668822,22.428556 0.881188937,22.9633194 1.00493175,23.5168705 C1.02921336,23.5182452 1.05442888,23.5187035 1.07917744,23.5187035 C1.0684375,23.5567372 1.05909842,23.5970621 1.0511602,23.6410529 C0.958236351,24.1625274 1.29024066,24.6565076 1.05349497,25.2714626 C0.87231681,25.7425309 0.370341236,26.1682337 0.620161638,26.6897082 C0.783128592,27.0297205 1.28650503,27.5255337 1.63812141,27.682251 C1.65633261,27.988812 1.73711566,28.3192014 1.76419899,28.574898 C1.79034842,28.8145563 1.74925647,28.9570682 1.54893319,29.1990177 C1.2949102,29.5037457 1.22346624,29.5353641 1.31125359,29.911119 C1.36868894,30.1594839 1.49383261,30.4105981 1.59282687,30.6493399 C1.80389009,31.1575255 1.99020474,31.7005372 2.26057112,32.1551089 C2.61078664,32.7448608 2.89562859,32.7654815 3.58391882,32.8094723 C3.42095187,33.0610448 2.89422773,33.3387369 2.90730244,33.6388825 C2.91570761,33.8336335 3.37519037,34.457295 3.49006106,34.634633 C3.64649066,34.8761243 3.85521911,35.0516293 4.03079382,35.2899129 C4.19936422,35.5185735 4.26894037,35.8095544 4.44124641,36.0221767 C4.76017601,36.4158028 5.4437967,36.7131991 5.91868894,36.9111578 C6.34221624,37.0884957 6.91797055,37.3771855 7.42508261,37.4963273 C7.33215876,37.6704576 7.30881106,37.8835381 7.38725934,38.1387765 C7.56703664,38.7216548 7.91258261,39.1418588 8.12224497,39.7041164 C8.3281717,40.2549181 8.7232148,40.5394837 9.2868283,40.7653949 C9.80327945,40.9729765 10.4149892,41.1356509 10.8735381,41.41151 C11.3442277,41.6951591 11.7327335,42.1204037 12.2580568,42.2551255 C12.8328772,43.0941587 13.7896659,43.4364623 14.7693355,43.4364623 C14.9052191,43.4364623 15.0499749,43.3539795 15.200801,43.3920132 C15.3801114,43.437837 15.3072665,43.530401 15.4254059,43.5954707 C15.6261961,43.705906 15.820449,43.7755581 16.0203053,43.8594156 C16.4457004,44.0381283 16.9556142,44.1393989 17.4384447,44.0197988 C17.5243642,43.8131336 17.4281717,43.5684347 17.6196228,43.4295887 C17.8199461,43.5867642 17.7260884,43.8859934 17.7970654,44.1059475 C17.7989332,44.1054893 17.8124749,44.105031 17.8292852,44.1045728 C17.83162,44.2127169 17.8563685,44.3080303 17.9184734,44.3680595 C18.0291415,44.4752871 18.7001545,44.5362327 18.8705927,44.5357744 C19.2647019,44.5339415 19.3613614,44.3643936 19.5257292,44.0344624 C19.8465266,43.983598 20.1481789,44.0564578 20.085607,44.4450434 C21.2459878,44.6746205 22.8658513,44.8986987 23.9141631,44.274579 C24.006153,43.9414402 24.2639116,42.8888682 24.6911746,42.8764958 C24.686505,42.8288391 24.7033154,42.8128008 24.7416056,42.7990537 L24.8279921,42.8412115 C25.1553269,43.0038859 25.0572665,43.8855352 25.4742565,44.1650602 C25.9286027,44.4707047 26.6663901,44.3533959 27.1053269,44.1013651 C28.1522378,43.4992408 29.4326257,43.7402738 30.648574,43.5546876 C30.8171444,43.3049481 31.0641631,43.277912 31.3009088,43.1266936 C31.582482,42.9466062 31.8173599,42.6803701 32.0900611,42.460416 C32.3085955,42.2835363 32.5033154,42.0310473 32.8045007,41.939858 C33.1327694,41.8417952 33.4465625,41.968727 33.7640912,41.9939301 C34.5331645,42.0562504 35.0295366,41.6374212 35.6202335,41.2740387 C36.1665697,40.937234 36.6582723,40.6893274 36.9263039,40.1302774 C37.1929346,39.5726022 37.3204131,38.993848 37.5202694,38.4352563 C37.6542852,38.0590431 37.7341343,38.0801221 38.082949,37.9293619 C38.3042852,37.8340484 38.4569792,37.7653128 38.4700539,37.6072208 C38.6157435,37.599889 38.7647019,37.5036591 39.0406717,37.3432759 C39.2727478,37.208554 39.3904203,37.2158858 39.5912105,36.9840176 C39.7658513,36.782393 39.9059375,36.5693125 40.0562967,36.3585231 C40.2626904,36.0675422 40.7170366,35.1386944 41.0523096,35.1235726 C41.5276688,34.1800612 42.1062249,33.2732089 42.3537105,32.2934967 C42.4872593,31.7656069 42.5839188,31.2129723 42.7515553,30.6914978 C42.8631573,30.3473613 43.50662,29.641217 43.2680065,29.3355725 C43.9390194,29.0198468 42.6460237,28.4750022 42.4106789,28.3201178 C42.7226042,28.3526527 43.1190481,28.3943523 43.4328412,28.3091201 C43.7232866,28.2303032 43.9292134,28.0323446 44.2033154,27.8792932 C44.2089188,27.7725238 44.2205927,27.6570479 44.2107866,27.5479873 C44.1846372,27.2327198 43.9455568,27.0008516 43.9520941,26.658548 C43.9581645,26.3162445 44.0604274,25.9666091 44.126268,25.6417186 C44.2532795,25.0107253 44.4974964,24.4622148 44.4269864,23.7776078 C44.3522737,23.0526758 44.7281717,22.6141423 44.7725323,21.956113 C44.8145582,21.3269527 44.7529203,20.5997295 44.5152407,20.049386"/>
      <path d="M39.2476257,25.9834265 C39.0613111,26.3605561 39.0757866,26.7578481 38.980528,27.1661379 C38.8946085,27.5350192 38.6485237,27.9346025 38.4299892,28.2590347 C38.2044504,28.5921735 38.0928484,28.9386012 37.9438901,29.3038166 C37.8201473,29.60717 37.6894001,29.9412253 37.4872091,30.2083778 C37.2994935,30.4544515 37.1136458,30.6766967 36.9782292,30.9557635 C36.8269361,31.2678233 36.6644361,31.5711767 36.6466918,31.9308932 C36.6340841,32.1989623 36.5360237,32.4835279 36.5626401,32.7515969 C36.5915912,33.0476185 36.6924533,33.2267894 36.5089404,33.5141044 C36.2138254,33.976008 35.5937105,34.105231 35.2140769,34.4819024 C34.6738111,35.017124 34.430528,35.7878798 34.1087967,36.4688209 C33.9336889,36.8395352 33.6857364,37.0154985 33.3271157,37.1951277 C32.9470151,37.386671 32.3936746,37.1208932 32.0210453,37.2968564 C31.9005711,37.3541361 31.7362033,37.5520948 31.6269361,37.6359523 C31.4555639,37.768383 31.2935309,37.8362022 31.0983441,37.9411386 C30.9026904,38.046075 30.7574677,38.1904199 30.5627478,38.3003969 C30.4053843,38.3897533 30.3185309,38.5363893 30.1621013,38.6330775 C30.0201473,38.7215174 29.7927407,38.7691741 29.6330424,38.8544063 C29.4327191,38.9620921 29.332324,39.1101029 29.1469432,39.2077075 C29.0572881,39.2544478 28.9419504,39.2251206 28.8635022,39.2677367 C28.7808513,39.3131022 28.7402263,39.4249122 28.6402981,39.478526 C28.4493139,39.5779636 28.2078987,39.5257245 28.0108441,39.5866701 C27.7839045,39.6576969 27.6559591,39.7378885 27.3697162,39.6783176 C27.1745295,39.6379927 26.99662,39.5303068 26.8140409,39.449657 C26.4143283,39.2727773 26.0122809,39.3112692 25.5364547,39.2920233 C25.2614188,39.2810256 25.0685668,39.3387635 24.7767205,39.2846915 C24.4993499,39.2329106 24.223847,39.1320983 23.9604849,39.0954393 C23.6611674,39.0541979 23.3371013,39.1128523 23.0587967,39.1536355 C22.9065697,39.1760891 22.812245,39.1495113 22.6838326,39.22787 C22.5432795,39.312644 22.5199318,39.4734854 22.3009303,39.4336187 C22.0940697,39.7191008 21.3520797,39.5128938 21.0560309,39.4556141 C20.8883944,39.4230792 20.608222,39.3167681 20.4363829,39.3447206 C20.2271875,39.3786302 20.1211889,39.5701735 19.9339404,39.6466992 C19.6701114,39.1962516 19.2465841,39.2599466 18.8291272,39.3199758 C18.3962608,39.3818378 17.9232364,39.3987926 17.5090481,39.3121857 C17.3021875,39.2691114 17.0995295,39.2608631 16.9388973,39.1247665 C16.8114188,39.0166224 16.7399749,38.8186637 16.5933513,38.7164767 C16.3411961,38.539597 15.834551,38.3755479 15.5291631,38.3223923 C15.1322522,38.2531984 14.7675611,38.1835463 14.4509662,37.9141026 C14.1871372,37.6895661 13.9835453,37.4086664 13.7463326,37.1946694 C13.5838326,37.0475751 13.3900467,36.9389728 13.2457579,36.7726325 C13.1280855,36.6379106 13.0370295,36.4587397 12.9160884,36.3240178 C12.6644001,36.0435764 12.3085812,35.8474507 12.0326114,35.6119165 C11.7342277,35.3562199 11.3891487,35.3071884 11.152403,34.9749661 C10.9277981,34.6606151 10.756893,34.3233521 10.5467636,34.004877 C10.3445726,33.6987742 10.1741343,33.3844231 9.93972342,33.100774 C9.74126796,32.859741 9.44054957,32.4711555 9.13562859,32.3666773 C9.06558549,32.3433071 9.00441451,32.3093976 8.93623922,32.2951922 C8.9507148,32.3226865 8.96472342,32.3442236 8.98433549,32.3698849 C8.86759698,32.198504 8.69902658,32.1375584 8.56454382,31.99413 C8.45154095,31.87453 8.36842313,31.6756549 8.26242457,31.5368088 C8.01260417,31.2100854 7.83749641,30.8641159 7.68433549,30.4989005 C7.6040194,30.3068989 7.46019756,30.0933602 7.40276221,29.8899026 C7.34719468,29.6928604 7.38221624,29.4330397 7.38128233,29.2195009 C7.38034842,28.7640127 7.73523348,28.4427881 7.60822198,27.9749274 C7.51669899,27.634915 7.17909124,27.3026927 6.99371049,26.9993394 C6.88444325,26.8201684 6.75883261,26.7514328 6.62668463,26.6125868 C6.48846624,26.4673254 6.43616739,26.2615767 6.33810704,26.0929453 C6.24798491,25.9380609 6.09342313,25.8175444 6.02664871,25.6516624 C5.94820043,25.4582861 5.94353089,25.2598692 5.85901221,25.0692423 C5.69417744,24.698528 5.49198635,24.3896758 5.28886135,24.0519546 C5.10721624,23.749976 5.03437141,23.3957583 4.98487428,23.0493306 C4.96012572,22.8733673 4.89381825,22.5901765 4.92837284,22.4132967 C4.96386135,22.2359587 5.06659124,22.1860108 5.20340876,22.0471648 C5.45276221,21.7928429 5.67363147,21.5027785 5.94913434,21.286032 C6.4025467,20.9290649 6.63322198,20.1793881 6.56317888,19.6262952 C6.49033405,19.0489157 6.12050647,18.422963 6.4034806,17.8497077 C6.57485273,17.5014471 6.72194325,17.0189228 6.64863147,16.6307955 C6.57998922,16.2660383 6.47025503,15.7615186 6.50667744,15.3857637 C6.5487033,14.9463138 6.95261853,14.2809527 7.35466595,14.0458768 C7.40883261,13.8854936 7.56713003,13.8108008 7.65585129,13.6632483 C7.75064296,13.506531 7.7837967,13.3392743 7.88979526,13.1738505 C8.04062141,12.9378581 8.10459411,12.9671853 8.33993894,12.8411699 C8.58929239,12.7069063 8.55286997,12.4965752 8.71396911,12.3201537 C8.83771193,12.1849736 9.06885417,12.139608 9.22201509,12.0172586 C9.37984555,11.8912432 9.53580819,11.7446072 9.67309267,11.6025535 C9.96587284,11.2987419 10.3226257,11.343191 10.6592996,11.0769549 C11.0618139,10.7575632 11.2247809,10.3840995 11.3924174,9.91486413 C11.558653,9.44837817 12.087245,9.28112142 12.2922378,8.86091747 C12.513574,8.84854506 12.7587249,8.88107993 12.9646516,8.82975731 C13.062245,8.80501248 13.1453628,8.7408592 13.2476257,8.71794732 C13.3494217,8.69549367 13.4409447,8.74360863 13.5567493,8.71886379 C13.9704705,8.6313404 14.4103412,8.10894945 14.7404777,7.86058463 C15.0897593,7.59709796 15.2405855,7.3725615 15.4946085,7.02292616 C15.6300251,6.83642342 15.6580424,6.69849388 15.8681717,6.64304712 C16.0923096,6.58393446 16.3066415,6.62609233 16.5228412,6.5381107 C16.8898671,6.38918345 17.0957938,6.06062704 17.3909088,5.81180398 C17.713107,5.54052728 18.0334375,5.79897333 18.4336171,5.68074801 C18.810449,5.56985449 19.1209734,5.34485979 19.5332938,5.3705211 C19.7821803,5.38564294 20.6544504,5.37189581 20.6371731,5.6697503 C20.9817852,5.77560321 21.2624246,5.9689795 21.5916272,6.11744851 C21.9348384,6.27233285 22.3527622,6.28103936 22.7473384,6.25583629 C23.1045582,6.23246617 23.3781932,6.05329524 23.7279418,6.0005979 C24.1173815,5.94240172 24.6823958,5.80630513 24.7771875,5.79943156 C24.8724461,5.792558 25.1395438,5.90436799 25.1320726,5.90345152 C25.2119217,5.91078332 25.2357364,5.85258713 25.3267924,5.87641549 C25.4127119,5.89978562 25.4920941,6.03908987 25.5728772,6.08399716 C25.7204346,6.16739642 25.9357004,6.19305773 26.1019361,6.28333055 C26.4754993,6.48724632 26.8355208,6.5770609 27.2520438,6.70536745 C27.6891128,6.84008933 28.0906932,6.86025178 28.5548455,6.83688166 C28.8859159,6.82038511 29.6237033,6.82954986 29.8529777,7.02934149 C29.8968714,7.06737521 29.931893,7.19934766 29.9916631,7.2593768 C30.0612392,7.33040364 30.1975898,7.39272396 30.2821085,7.46650023 C30.4642205,7.62596694 30.5258585,7.76481295 30.6411961,7.97101991 C30.764005,8.19051575 30.8396516,8.3673955 31.0362392,8.49020319 C31.2076114,8.59788905 31.4658369,8.65333581 31.6549533,8.69182777 C31.8874964,8.73994273 32.0924892,8.7894324 32.3334375,8.80134658 C32.6458297,8.81646842 32.6845869,8.79813891 32.9035884,8.98968226 C33.2071085,9.2540854 33.5381789,9.44242108 33.8776545,9.6371721 C34.0775108,9.75264799 34.1891128,9.82321659 34.4478053,9.87408097 C34.694824,9.92265417 34.9040194,9.8562097 35.0679203,10.0477531 C35.1967996,10.198055 35.2486315,10.3538558 35.384982,10.5105731 C35.4895797,10.6310896 35.6436746,10.8570008 35.6618858,11.0137181 C35.6824318,11.1887649 35.547482,11.4673734 35.5189978,11.6511267 C35.4849102,11.873372 35.5292708,12.0717889 35.5736315,12.2889935 C35.6474102,12.650543 35.6828987,13.1688099 35.9691415,13.4497096 C36.2441774,13.7196115 36.6714404,13.8529587 36.9371372,14.1343166 C37.1995654,14.4124669 37.4297737,14.7570616 37.6968714,15.0480426 C37.9354849,15.3083216 38.3538757,15.5351492 38.4449318,15.8563738 C38.5159088,16.1061134 38.5289835,16.3265257 38.6419864,16.5767235 C38.7325754,16.7765151 38.8026185,16.9662255 38.8114907,17.1783895 C38.8292349,17.6045506 38.9455065,17.9789307 38.9865984,18.4018841 C39.0085453,18.6250459 39.0566415,18.8729524 39.0430999,19.0933648 C39.0300251,19.3069035 38.9118858,19.4567472 38.9020797,19.6744101 C38.8908728,19.9223167 39.0276904,20.061621 39.0650467,20.2829498 C39.102403,20.5038203 39.0076114,20.6861989 38.9870654,20.8919476 C38.9413039,21.3410206 38.9165553,21.7543509 38.8726616,22.1905932 C38.8413757,22.494863 38.7965481,22.691447 38.9371013,22.9590578 C39.0655136,23.2037567 39.1266846,23.4512051 39.2336171,23.6871975 C39.4232004,24.1069432 39.9219073,24.5477678 39.9410524,25.0096714 C39.7089763,24.9840101 39.3503556,25.7749283 39.2476257,25.9834265 M41.0164476,25.498611 C40.9982364,25.1288132 40.9725539,24.9180239 40.8581501,24.5844268 C40.6690338,24.0322504 40.4607723,23.4397491 40.2987392,22.8820739 C39.9429203,21.6562881 40.4677766,20.4831996 40.2109519,19.1483533 C40.0984159,18.5641002 39.7860237,18.0032173 39.6646157,17.4047589 C39.5474102,16.8255465 39.4993139,16.2344199 39.2826473,15.6607063 C39.0855927,15.1383154 38.8796659,14.6379198 38.4043068,14.2827856 C37.9597665,13.9505633 37.6627838,13.5088222 37.3475898,13.0377539 C36.9726257,12.476871 36.6929203,12.021841 36.6583657,11.3463986 C36.6382866,10.9504813 36.6032651,10.8020123 36.4599102,10.4647493 C36.3548455,10.2177592 36.3039476,9.90065876 36.1012895,9.69582652 C35.6688901,9.25866778 34.9684591,9.16060491 34.4618139,8.93927612 C33.9981286,8.7371933 33.435449,8.3321112 33.0558154,8.0365479 C32.7424892,7.79276545 32.694393,7.71944742 32.2204346,7.69470259 C31.7721588,7.67133247 31.6708297,7.67728956 31.333222,7.43534007 C30.8092996,7.05912693 30.7677407,6.56377201 30.1882507,6.20084777 C29.637245,5.85533656 29.1273312,5.78018558 28.4567852,5.74398481 C27.737676,5.70549284 27.1955424,5.62896715 26.5861674,5.33798623 C26.3326114,5.21655324 26.0785884,4.97002137 25.8250323,4.8815815 C25.5523312,4.7867263 25.0517565,4.86554318 24.7771875,4.90495162 C24.0809591,5.00484744 23.4757866,4.99705739 22.7473384,4.99705739 C22.0357004,4.99705739 21.360018,4.84950486 20.7286961,4.61259599 C20.130995,4.38943424 19.3021516,4.34590166 18.6451473,4.44808866 C18.2552407,4.50857603 18.0619217,4.69370405 17.723847,4.88387269 C17.4418068,5.04196469 17.1340841,5.09557849 16.8357004,5.25596168 C16.2384662,5.57764453 15.4623886,5.56939625 15.1023671,6.1270715 C14.7876401,6.61417815 14.4411602,7.00688784 13.9391846,7.35194081 C13.7407292,7.48895387 13.508653,7.73319455 13.2592996,7.77077004 C12.9567134,7.81613557 12.7381789,7.58380907 12.4458657,7.56731252 C11.8000682,7.5306535 11.4484519,8.16073031 10.939005,8.43017406 C10.6971228,8.55756413 10.3613829,8.59193196 10.1956142,8.82334198 C10.045255,9.0327566 10.0064978,9.47724715 9.8911602,9.72973611 C9.78889727,9.95427257 9.73146193,10.3103232 9.56569325,10.4876612 C9.48444325,10.5742681 9.3163398,10.5774758 9.22481681,10.6517103 C9.11461566,10.7406084 9.03943606,10.8877027 8.92970187,10.9738514 C8.71677083,11.1411081 8.40391164,11.2538346 8.15735991,11.38764 C7.83702945,11.5617703 7.76231681,11.6602914 7.55358836,11.9599789 C7.24913434,12.3966794 7.03480244,12.9250274 6.66637572,13.3282766 C6.46091595,13.5532713 6.22743894,13.6261311 6.04485991,13.8479181 C5.88002514,14.0486262 5.7758944,14.269955 5.63020474,14.510988 C5.30800647,15.0434602 5.65168463,15.5933454 5.66242457,16.2023433 C5.6722306,16.8269212 5.4681717,17.4689122 5.4102694,18.0696618 C5.39579382,18.2227132 5.42707974,18.3885952 5.40793463,18.5260665 C5.38505388,18.6965309 5.2650467,18.8436252 5.2487033,18.9920942 C5.21088003,19.3394384 5.42007543,19.5268576 5.16605244,19.8632041 C4.98814296,20.0991965 4.67154813,20.2403337 4.51792026,20.5102357 C4.38297055,20.7476028 4.29798491,20.9872611 4.17144037,21.2136305 C4.0350898,21.4574129 3.89033405,21.6704935 3.75911997,21.9293977 C3.5830783,22.2753672 3.69047773,22.4476645 3.76098779,22.7986746 C3.82542744,23.117608 3.83523348,23.4475392 3.88566451,23.7554749 C3.96131106,24.2160037 4.10419899,24.2558704 4.3955783,24.5418107 C4.6556717,24.7970491 4.6678125,25.0284591 4.82657687,25.3634309 C4.96292744,25.6507459 5.22909124,25.9192732 5.32621767,26.2450802 C5.43034842,26.5970067 5.48358118,26.8247508 5.6722306,27.1478084 C6.09855963,27.8764063 6.38386853,29.0261246 6.42309267,29.855993 C6.45251078,30.472781 6.88631106,30.9351428 7.14220187,31.4744885 C7.3775467,31.9712182 7.58300647,32.4129593 7.87158405,32.8835694 C8.04949353,33.1722591 8.09665589,33.3615113 8.36982399,33.5484722 C8.62244612,33.7212278 8.88253951,33.8142501 9.09827227,34.0374118 C9.4503556,34.4017108 9.75480963,34.9552619 9.98735273,35.4148743 C10.1092277,35.6554491 10.1563901,35.9661342 10.4295582,36.1338492 C10.675176,36.2846094 11.0323958,36.2232055 11.2962249,36.3606768 C11.6268283,36.5338907 11.7052766,36.7675919 11.8878556,37.0264962 C12.046153,37.2496579 12.2674892,37.3687997 12.4813542,37.5649255 C12.9310309,37.9768811 13.1145438,38.4062498 13.6548096,38.6518652 C14.1231645,38.8649457 14.534551,39.1018546 15.0173815,39.226037 C15.2798096,39.293398 15.5221588,39.2700278 15.7696444,39.4015421 C15.987245,39.5165597 16.1380711,39.7575927 16.3309231,39.8904817 C17.1214763,40.4353263 18.8039116,39.6563222 19.2442493,40.5975424 C19.4940697,40.6149554 19.6490984,40.8106229 19.906857,40.7634244 C20.0049174,40.3610918 20.2794864,40.4431163 20.5802047,40.5732558 C20.8996013,40.7121018 21.1186027,40.8000834 21.4804921,40.8523225 C21.7447881,40.8908145 22.1445007,41.0406582 22.4111315,40.9490107 C22.6646875,40.8614873 22.9098384,40.6236619 23.1806717,40.5315562 C23.6933872,40.3574259 24.3728053,40.1933768 24.9564978,40.220871 C25.5798815,40.24974 26.3120654,40.3395546 26.976074,40.3143515 C27.5116703,40.2928143 28.3643283,40.2923561 28.8252119,40.0540725 C29.2739547,39.821746 29.7301688,39.3800049 30.2302766,39.2329106 C30.3820366,39.1884615 30.5230568,39.2168723 30.6640769,39.162342 C30.7929562,39.1123941 30.9040912,38.9982929 31.0259662,38.9341396 C31.2566415,38.8127066 31.4635022,38.678443 31.7011818,38.5593012 C32.2078269,38.3054375 32.6626401,38.4438253 33.1790912,38.1972935 C33.3668068,38.1079371 33.6946085,37.8366604 33.8837249,37.7825884 C34.5467996,37.6657377 34.9675251,36.6026263 35.0842636,36.4019182 C35.243028,36.1278921 35.3924533,35.769092 35.5717636,35.5092712 C35.7337967,35.2741953 36.0130352,35.1935455 36.1605927,34.9263929 C36.5490984,34.8306212 36.644357,34.8929416 36.9030496,34.6170825 C37.0706861,34.4383698 37.2677407,34.2229981 37.3798096,34.0057934 C37.6184231,33.5457228 37.558653,32.8835694 37.7183513,32.3868397 C37.8995295,31.818625 38.2427407,31.3823827 38.4911602,30.8613665 C38.726972,30.3669281 38.9427047,29.8491195 39.2406214,29.3574305 C39.5334016,28.872615 39.9121013,28.3360187 39.9919504,27.7810929 C40.0732004,27.2206682 40.2543786,26.6084626 40.6783728,26.2029223 C41.0131789,25.8835306 41.042597,25.999923 41.0164476,25.498611 Z M37.0669971,25.5412729 C36.7167816,26.0641221 36.4342744,26.4238387 36.2078017,27.033753 C35.9967385,27.600593 35.5615374,28.1174851 35.3696193,28.6870746 C35.1856394,29.2337521 34.9750431,29.7419377 34.7910632,30.2840329 C34.6164224,30.7977173 34.3199066,31.3453113 34.1746839,31.8841988 C34.0780244,32.2416242 34.0495402,32.3474771 33.8169971,32.6169209 C33.6157399,32.8510803 33.432227,33.0627861 33.2870043,33.3308552 C32.9998276,33.8605779 32.9190445,34.4173367 32.6533477,34.925064 C32.5426796,35.1367698 32.3418894,35.3929247 32.1635129,35.5656803 C32.0659195,35.6591608 31.9328376,35.7146075 31.8198348,35.7787608 C31.8151652,35.7778443 31.8104957,35.7769279 31.8053592,35.7760114 C31.2716307,35.6944451 30.6515158,36.1073172 30.162148,36.2470797 C29.6382256,36.3969234 29.0606034,36.6086293 28.5885129,36.86845 C28.0001509,37.1928823 27.5126509,37.6676165 26.8215589,37.5310617 C26.1729598,37.4036716 25.4944756,37.2515367 24.850079,37.1081083 C23.560352,36.8207933 22.3551437,36.8941113 21.0584124,37.1003183 C19.7383333,37.3097329 18.4140517,36.9600976 17.2083764,36.5875503 C16.0876868,36.2420391 15.1948707,35.4813646 14.3151293,34.7431437 C13.8859986,34.3838853 13.4634052,33.8372078 13.1393391,33.3991326 C12.8092026,32.9532673 12.3627945,32.518858 12.0686135,32.0454985 C11.9131178,31.7953007 11.9261925,31.533647 11.7725647,31.2857404 C11.6343463,31.0625787 11.4102083,30.9118185 11.241171,30.6909479 C10.8932902,30.2359179 10.4674282,29.8381676 10.1583046,29.3506027 C9.79688218,28.7814715 9.90054598,28.1440629 9.90288075,27.4750359 C9.90474856,26.9086541 9.75579023,26.2680379 9.46441092,25.7818477 C9.30237787,25.510571 9.0562931,25.3057388 8.9222773,25.026672 C8.79386494,24.758603 8.77005029,24.4689968 8.62576149,24.1890135 C8.33718391,23.6262977 7.92486351,23.2817029 7.94167385,22.6232154 C7.95288075,22.1764337 8.3077658,21.9454819 8.46139368,21.5188626 C8.62576149,21.0615414 8.8064727,20.5327351 8.87231322,20.0877863 C8.91387213,19.8064284 8.88725575,19.0100113 8.72335489,18.438589 C9.26969109,18.0206762 8.66965517,15.9297377 8.9516954,15.3940578 C9.08431034,15.1434018 9.30984914,14.850588 9.48308908,14.6310921 C9.56200431,14.5311963 9.69508621,14.5165327 9.78053879,14.4024315 C9.86645833,14.2864974 9.85711925,14.1041188 9.94303879,14.0014735 C10.3460201,13.5194075 11.2430388,13.4786244 11.7324066,13.0680434 C12.2119684,12.6666272 12.5346336,12.2143466 12.845625,11.7134928 C13.1314009,11.2515892 13.7608549,11.073793 14.1923204,10.7928933 C14.7092385,10.4574634 14.967931,9.8498402 15.5422845,9.67937579 C15.8836279,9.57810526 16.0260489,9.51074432 16.3281681,9.31965921 C16.5957328,9.15148598 16.9333405,9.1079534 17.1873635,8.91961772 C17.5880101,8.62359618 18.0997917,8.2808344 18.4135848,7.90828717 C18.7731394,7.48166789 19.4497557,7.46013072 19.9946911,7.66679592 C20.2720618,7.77127411 20.4425,7.99214466 20.6815805,8.15573551 C20.8758333,8.2881662 21.1181825,8.40180915 21.3852802,8.46642066 C21.3913506,8.46779537 21.396954,8.46917008 21.4025575,8.4705448 C21.8223491,8.73723912 22.483556,8.50674557 22.8972773,8.42747046 C23.550079,8.30191333 24.2196911,8.49070726 24.8589511,8.54798696 C25.5010129,8.60480844 26.089375,8.76794105 26.6978161,8.9911028 C27.2717026,9.20097565 27.9034914,9.34073814 28.4969899,9.54877805 C29.6830532,9.96485786 30.7346336,10.7346972 31.8964152,11.2245532 C32.5268032,11.4898728 32.9783477,11.7474024 33.2258333,12.3669398 C33.4415661,12.9076602 33.503671,13.5294887 33.726408,14.0807487 C34.1321911,15.0874968 35.2393391,15.6928288 35.9747917,16.5176566 C36.3408836,16.9282376 36.4912428,17.572978 36.6275934,18.0894118 C36.7905603,18.7075745 36.8904885,19.3912651 36.9544612,20.0163013 C37.0207687,20.6642493 37.0287069,21.3002832 37.1178951,21.9014911 C37.2098851,22.5224031 37.2168894,23.2056355 37.2803951,23.8270058 C37.3448348,24.4561661 37.4433621,24.9790153 37.0669971,25.5412729 Z M38.1092385,23.8567912 C38.0065086,23.5538961 38.0317241,23.2404616 37.9854957,22.934817 C37.9392672,22.6337549 37.830467,22.3395663 37.8103879,22.0215493 C37.7879741,21.6558757 37.8935057,21.338317 37.8944397,20.9795169 C37.8949066,20.6143014 37.7674282,20.3411918 37.7716307,19.9764346 C37.7800359,19.3417754 37.7861063,18.75294 37.6488218,18.1315697 C37.5246121,17.5674791 37.5717744,16.9383188 37.230431,16.4173026 C36.9544612,15.9970986 36.5356034,15.5200732 36.1391595,15.1951827 C35.7090948,14.8414232 35.311717,14.44963 35.0030603,14.0000988 C34.6122198,13.4309676 34.7032759,12.9594411 34.5748635,12.3169918 C34.5220977,12.0498393 34.4319756,11.7299894 34.3301796,11.474751 C34.1760848,11.0884566 34.0075144,11.1141179 33.6428233,10.9248658 C33.127306,10.6577132 32.5132615,10.4111814 32.0621839,10.1431123 C31.5667457,9.84846549 30.9914583,9.70824476 30.456796,9.38976957 C30.0958405,9.17393963 29.1950862,8.70837015 29.2655963,8.19285277 C28.8084483,8.21164051 28.4512284,8.26433784 28.0057543,8.17773092 C27.6181825,8.10257994 27.2455532,7.98435462 26.86125,7.9463209 C26.3877586,7.89866418 26.0935776,7.78181357 25.6667816,7.63426104 C25.3165661,7.51282806 24.9948348,7.31899352 24.6138003,7.30478815 L24.7361422,7.34465483 C24.4965948,7.41888933 24.2906681,7.32678356 24.0417816,7.34465483 C23.7256537,7.36756671 23.4884411,7.48166789 23.1424282,7.46517134 C22.8094899,7.44867478 22.5279167,7.34007245 22.2024497,7.34465483 C22.0404167,7.34694602 21.8083405,7.3904786 21.5996121,7.47433609 L21.589806,7.46517134 C21.5916739,7.46883724 21.5930747,7.47250314 21.5944756,7.4757108 C21.5459124,7.49541502 21.49875,7.51741043 21.4539224,7.54123879 C21.0756897,7.50274683 20.6400216,6.8066838 20.2832687,6.74207229 C19.6477443,6.62659639 18.8903448,6.74665466 18.3187931,6.94369686 C17.9498994,7.0706287 17.9391595,7.1411973 17.7486422,7.42530466 C17.5697989,7.69199899 17.3909555,7.74332161 17.0836997,7.93623967 C16.8707687,8.07004507 16.664842,8.22676235 16.450977,8.35736009 C16.1834124,8.52003447 15.8663506,8.52690803 15.6230675,8.66804524 C15.5969181,8.6602552 15.5726365,8.66300462 15.5492888,8.6749188 C15.3933261,8.98331276 15.2406322,9.08320857 14.9385129,9.23900938 C14.6858908,9.36914888 14.5378664,9.50203781 14.2857112,9.68166697 C13.8243606,10.0093069 13.0968463,9.98547855 12.6905963,10.3598587 C12.2180388,10.796101 12.1255819,11.4119724 11.6614296,11.8060568 C11.2673204,12.1396539 10.8269828,12.3903099 10.4342744,12.6780831 C10.1816523,12.8636694 9.89587644,12.9493598 9.69835489,13.1990994 C9.51997845,13.425927 9.46627874,13.6967455 9.17443247,13.8479639 C9.24354167,14.1586491 9.06703305,14.1980575 8.84056034,14.3117004 C8.74483477,14.3598154 8.59260776,14.3428606 8.51369253,14.411138 C8.40302443,14.5073679 8.46139368,14.5999319 8.38061063,14.7222814 C8.27274425,14.8858723 8.11397989,15.0476302 8.0233908,15.2043474 C7.8772342,15.4568364 7.91132184,15.4517958 7.94167385,15.7656886 C7.96408764,16.0021392 8.01685345,16.271583 8.02385776,16.4864965 C8.03226293,16.7353195 7.86696121,16.9456506 7.86882902,17.1692706 C7.8720977,17.5354025 8.10884339,17.8346317 8.17608477,18.2039713 C8.12845546,18.7955561 7.92626437,19.3193218 7.9005819,19.9361097 C7.87303161,20.5996378 8.14573276,21.3016579 7.53168822,21.7305684 C7.28653736,21.9014911 7.07967672,21.9363171 6.97087644,22.2625824 C6.88262213,22.5269855 6.86487787,22.9843067 6.91997845,23.2638317 C7.02224138,23.7843897 7.45510776,24.2976159 7.70539511,24.777849 C8.22931753,25.7818477 9.04461925,26.8316702 9.04508621,27.9965104 C9.04508621,28.3342315 8.9801796,28.6792845 9.03621408,28.9991344 C9.08664511,29.2910318 9.24447557,29.5609338 9.33086207,29.8413753 C9.49522989,30.3765969 9.92249282,30.8499564 10.3119325,31.2449573 C10.7499353,31.6885313 11.1627227,32.1394372 11.5264799,32.6572458 C11.7169971,32.9285225 11.8370043,33.2057563 11.9882974,33.4880307 C12.1573348,33.8032982 12.4267672,33.9091511 12.692931,34.1607236 C13.13,34.5758869 13.5862141,34.9296464 14.0405603,35.3251055 C14.5271264,35.7485171 14.9394468,36.2434138 15.4306825,36.6480377 C15.9139799,37.0462462 16.5462356,37.1718034 17.0869684,37.5108992 C17.3297845,37.6639506 17.629569,37.8573269 17.9125431,37.9013177 C18.2417457,37.9521821 18.5928951,37.8435798 18.9337716,37.8614511 C19.619727,37.8971936 20.1833405,38.0016718 20.8538865,37.871074 C21.2097055,37.8018802 21.5267672,37.8770311 21.8755819,37.8614511 C22.3098491,37.8412886 22.3798922,37.5732196 22.7329095,37.4577437 C23.0060776,37.3688456 23.5089871,37.4549942 23.7966307,37.4691996 C24.1477802,37.4866126 24.5414224,37.4650755 24.9000431,37.5003598 C25.4851365,37.5571812 26.2434698,37.77072 26.780467,37.9902158 C27.2871121,38.1973393 27.9814727,38.5524735 28.547421,38.1918404 C28.7379382,38.0708657 28.9163147,37.8128779 29.1199066,37.6712824 C29.3669253,37.4999015 29.6251509,37.3651797 29.8759052,37.2102953 C30.395625,36.8909037 30.8667816,36.7713036 31.4467385,36.6269588 C31.6428592,36.5779273 31.868398,36.542643 32.0196911,36.4372484 C32.366171,36.4441219 32.8261207,36.2690751 32.9900216,36.135728 C33.4177514,35.7874673 33.4723851,35.2728664 33.686717,34.7743038 C33.8805029,34.3229397 34.2260489,33.8711174 34.6243606,33.5324797 C34.8494325,33.3409364 35.1968463,33.234167 35.3528089,32.9610574 C35.4980316,32.7071937 35.4205172,32.3332717 35.4812213,32.044582 C35.7231034,30.8925725 36.4422126,29.8193799 36.8013003,28.6870746 C36.9894828,28.0927403 37.1529167,27.4402098 37.4358908,26.9049882 C37.6801078,26.4426264 38.0611422,25.9477297 38.2628664,25.4711626 C38.5182902,24.8717877 38.297421,24.4158412 38.1092385,23.8567912 Z M35.7936602,24.3305632 C35.2734734,25.3634309 34.7635596,26.4150863 34.2288973,27.4360399 C33.9347162,27.9987557 33.5027838,28.4505781 33.2254131,29.0100863 C32.941505,29.5819669 32.9032148,30.1872989 32.6230424,30.7532224 C32.1257364,31.7572212 31.5583872,32.7447234 31.1376616,33.816083 C30.7234734,34.8714044 29.1974677,35.183006 28.2350754,35.5890046 C27.5864763,35.8625725 27.2558728,35.9248928 26.5825251,35.7159364 C25.9512033,35.520269 25.2512392,35.7425142 24.6329921,35.659115 C24.3280711,35.6174153 24.0777838,35.4886506 23.7411099,35.4707793 C23.4095726,35.4538245 23.0939116,35.4620728 22.7768499,35.4318291 C22.1343211,35.3690505 21.5543642,35.3154367 20.8908226,35.3136038 C20.2637033,35.3117708 19.5081717,35.5679257 18.9216774,35.3924206 C18.3048312,35.2072926 17.6515625,35.0840267 17.0454562,34.8714044 C15.9840697,34.4997736 15.0707076,33.4325381 14.498222,32.5256857 C14.2059088,32.0628657 13.8253412,31.6454112 13.5143499,31.207336 C13.1580639,30.7055657 12.91338,30.1960054 12.6602909,29.6406213 C12.4188757,29.1104403 12.0163614,28.8574932 11.7063039,28.4102532 C11.3948455,27.9611803 11.3476832,27.1647632 11.3761674,26.6066297 C11.4125898,25.8876548 11.298653,25.396424 10.9834591,24.7452683 C10.7285022,24.2182949 10.2806932,23.7376036 10.1303341,23.1794701 C9.97530532,22.6048401 10.3535381,22.0751173 10.4515984,21.4839907 C10.5547953,20.861704 10.6295079,20.1940517 10.6934806,19.5548101 C10.7541846,18.9416881 10.7509159,18.257081 10.6934806,17.624713 C10.6346444,16.9804308 10.4819504,16.4154238 10.841972,15.8032183 C10.9484375,15.6222144 11.1412895,15.2203399 11.3248024,15.1007399 C11.5876976,14.9298172 11.9318427,15.1236518 12.2278915,15.0338372 C12.547755,14.9366908 12.6943786,14.7043643 12.8914332,14.4706631 C13.0898886,14.2351289 13.2463182,14.1246937 13.4788614,13.9436898 C13.9864404,13.5486889 14.0779634,12.8636236 14.5860093,12.5396495 C14.8507723,12.3710181 15.2229346,12.2454609 15.5105783,12.0598747 C15.8154993,11.8623742 16.0760596,11.6135512 16.4360812,11.5154883 C16.7279274,11.4371297 16.9959591,11.4577504 17.2775323,11.331735 C17.5455639,11.2116767 17.8177981,10.988515 18.0400682,10.8107188 C18.4070941,10.5179049 18.9688398,9.98543273 19.4455999,10.0999921 L19.3246588,10.1394006 C19.9755927,10.1412335 20.6344648,10.5091984 21.252245,10.4056367 C21.8177263,10.3112397 22.3930136,10.03034 22.978107,9.98130859 C23.6738685,9.9231124 24.2384159,10.1224458 24.8650682,10.215468 C25.5566272,10.3181133 26.3369073,10.4060949 26.9911099,10.6219249 C27.3095726,10.726403 27.5323096,10.8932016 27.7634519,11.034797 C28.0249461,11.1956384 28.340607,11.2414622 28.5978987,11.3995542 C29.1255568,11.7226118 29.7190553,11.8394624 30.2761315,12.1199038 C30.3882004,12.1758088 30.4951329,12.2124678 30.6048671,12.2958671 C30.6749102,12.3490227 30.7757723,12.3343591 30.8402119,12.3925552 C30.8939116,12.4406702 30.818732,12.5478978 30.8948455,12.6111346 C31.1189835,12.7980956 31.6606501,12.7696848 31.8133441,12.9433569 C31.9609016,13.1110719 31.8408944,13.6939502 31.8894576,13.9212361 C31.9557651,14.2291718 32.1070582,14.5247351 32.291972,14.7873053 C32.9746588,15.7610604 33.8245151,16.60101 34.7831717,17.3002807 C35.3724677,17.7301077 35.3028915,18.18193 35.3028915,18.8848666 C35.3028915,19.5231917 35.3621947,20.127149 35.4625898,20.7366051 C35.5685884,21.3772213 35.6367636,22.0008828 35.82588,22.6272937 C36.0196659,23.2688265 36.1069864,23.7082764 35.7936602,24.3305632 Z M36.2162536,21.8400414 C35.99912,21.1636826 35.8744432,20.7311062 35.8646372,20.0277114 C35.8604346,19.6817419 35.6927981,19.3843457 35.6643139,19.0434169 C35.6348958,18.6965309 35.6871947,18.3546856 35.6152838,18.0178809 C35.3715338,16.8837427 34.1999461,16.4438345 33.4663614,15.6451263 C33.1026042,15.2492089 32.7019576,14.7676011 32.5417924,14.2360454 C32.3746228,13.6820361 32.5417924,12.9621447 32.0809088,12.5515637 C31.8189476,12.3178625 31.6027478,12.3980541 31.326778,12.2683728 C31.0652838,12.1464816 30.9555496,11.9306517 30.6459591,11.8229658 C30.0487249,11.6158424 29.4552263,11.333568 28.8705999,11.0920767 C28.6081717,10.9839326 28.3172593,10.9431495 28.0777119,10.7988046 C27.8101473,10.6379632 27.6177622,10.4340474 27.3137751,10.3259033 C26.7128053,10.1123646 26.0184447,10.0074281 25.3866559,9.94190015 C24.6871588,9.8694986 24.095995,9.62159201 23.3796875,9.58722419 C23.0785022,9.57301882 22.7352909,9.50199198 22.4149605,9.54689927 C22.1726114,9.5812671 21.6911818,9.8135936 21.5328843,9.58722419 L21.4927263,9.62709087 C21.1695941,9.86262503 20.4205999,9.56522878 20.0857938,9.43096514 C19.8018858,9.31778044 19.6818786,9.27516433 19.3961027,9.26325015 C19.2905711,9.25912601 19.0640984,9.23758884 18.9637033,9.27241491 C18.7573096,9.34435822 18.8703125,9.34664941 18.722755,9.46899887 C18.337518,9.78747405 17.8504849,10.0239247 17.4297593,10.3249868 C16.9614045,10.6608751 16.2455639,11.0806208 15.6385237,11.0512936 C15.4480065,11.7368171 14.5542565,11.861916 14.0957076,12.226215 C13.7128053,12.5304848 13.4494432,13.014842 13.1921516,13.4103011 C12.9297234,13.814925 12.1933369,14.2493343 11.6969648,14.3148623 C11.3098599,14.3661849 11.1781789,14.2557496 10.9040769,14.5609359 C10.7210309,14.7653099 10.6276401,15.0466679 10.4623384,15.2689131 C10.2083154,15.6107584 10.1074533,15.6070925 10.0911099,16.0483754 C10.0789691,16.3860966 10.070097,16.6440844 10.1340697,16.9524783 C10.2587464,17.5628509 10.2115841,18.2392097 10.2115841,18.8848666 C10.2115841,19.5318982 10.0579562,20.0955306 9.9328125,20.6971966 C9.83802083,21.1531431 9.89078664,22.0939051 9.3752694,22.319358 C9.28327945,22.9072769 9.77404813,23.4557874 10.0210668,23.9570995 C10.1588182,24.2379991 10.1845007,24.5670138 10.3208513,24.8364575 C10.465607,25.1219396 10.6617277,25.2607856 10.7425108,25.5824685 C10.8989404,26.2038388 10.8849318,26.8343738 11.0138111,27.4745318 C11.0759159,27.785217 11.1795797,28.02625 11.2150682,28.3401428 C11.2626976,28.7548479 11.3481501,28.7539314 11.5666846,29.0591177 C11.9056932,29.533852 12.1882004,29.9613877 12.5902478,30.4182507 C12.974551,30.8549512 13.1015625,31.4039199 13.4335668,31.8759047 C13.7296157,32.2979416 14.0873024,32.7227279 14.355801,33.1383495 C14.9535022,34.0649061 15.5530711,34.81275 16.5537536,35.2439516 C17.1374461,35.4959824 17.7253412,35.5092712 18.2828843,35.8158323 C18.8259519,36.1132285 19.5025682,36.1448469 20.0876616,36.0224974 C21.343768,35.7603855 22.7721803,35.6632391 24.0619073,35.9065633 C24.6969648,36.0257051 25.4744432,35.9510124 26.0688757,36.2099167 C26.380801,36.3450968 26.5428341,36.5471796 26.9131286,36.5357236 C27.162482,36.5279336 27.4762751,36.3854217 27.7064835,36.28965 C28.737518,35.8584484 29.8147809,35.1454305 30.8878412,34.8503255 C31.4649964,34.6917752 31.5934088,34.1835897 31.8091415,33.6194991 C31.9179418,33.3331005 32.0897809,33.0719051 32.2121228,32.7919218 C32.2667565,32.6659065 32.2989763,32.4651984 32.3722881,32.3611784 C32.4712823,32.2204995 32.5810165,32.2131676 32.7042924,32.0926511 C32.9396372,31.8621576 32.9737249,31.616084 33.0573096,31.336559 C33.1329562,31.0813206 33.3038614,30.8439535 33.3767062,30.5864239 C33.4649605,30.2757388 33.378574,29.9219793 33.4649605,29.6094612 C33.5457435,29.318022 33.7413973,29.0064204 33.8889547,28.7246042 C34.2022809,28.1256876 34.5422234,27.5556399 34.861153,26.9613057 C35.1450611,26.4311247 35.4457795,25.7703459 35.82588,25.3056929 C36.618768,24.3356038 36.5865481,22.9934256 36.2162536,21.8400414 Z M32.9944576,25.8059052 C32.4504562,26.9400434 31.5875251,27.7928237 31.4250251,29.0575597 C31.3442421,29.688553 30.9837536,30.3090068 30.684903,30.8772215 C30.4248096,31.3734929 30.1180208,31.9861567 29.7369864,32.3958212 C29.5940984,32.5502473 29.37463,32.8833861 29.1780424,32.9786995 C29.0337536,33.0483516 28.8511746,32.9530382 28.7115553,33.0153585 C28.5149677,33.1033402 28.582676,33.1661187 28.4570654,33.3173372 C27.9817062,33.8933419 27.5852622,33.8759289 26.8876329,34.0115672 C25.7230496,34.2365619 24.2241272,34.188447 23.0217205,34.0523504 C22.7111961,34.0166078 22.4697809,33.8951749 22.1625251,33.8117756 C21.8753484,33.7329587 21.6147881,33.7251687 21.2949246,33.694925 C20.7173024,33.6403947 20.0495582,33.5336253 19.47287,33.507964 C18.8466846,33.4800115 18.2139619,33.5473725 17.6167277,33.3067977 C17.1605136,33.1230444 16.6412608,32.5809492 16.2667636,32.2427698 C15.7596516,31.7859068 15.6615912,31.279096 15.3781501,30.7237119 C15.0900395,30.1600796 14.7080711,29.680763 14.3317062,29.1739521 C14.1313829,28.9049666 13.9618786,28.7349604 13.8694217,28.4384806 C13.7732292,28.1273372 13.7634231,27.7992391 13.7503484,27.4706827 C13.7251329,26.8231928 13.7087895,26.1857842 13.592518,25.5735787 C13.4860524,25.011321 13.2679849,24.2781408 12.9327119,23.7841606 C12.7295869,23.4849314 12.5213254,23.3969497 12.4461458,23.0179872 C12.3868427,22.7155503 12.3957148,22.3659149 12.4092565,22.0501892 C12.464824,20.6997628 12.6058441,19.3914942 12.6063111,18.024113 C12.6063111,17.6364439 12.5838973,17.5030967 12.891153,17.2597725 C13.2100826,17.0077418 13.6051257,16.9096789 13.9712177,16.7172191 C14.5306286,16.4234888 15.0213973,15.6234058 15.318847,15.0817689 C15.4514619,14.8389029 15.5163685,14.4851434 15.7134231,14.297266 C15.9039404,14.1153456 16.2153987,14.0498176 16.4241272,13.8706467 C16.7365194,13.6021194 16.7874174,13.6122006 17.1824605,13.4939753 C17.5373455,13.3885806 17.7236602,13.0856855 17.969745,12.797454 C18.3517134,12.3502141 18.8919792,11.8754798 19.5097593,11.9057235 C19.8426976,11.9217618 20.163028,12.1449236 20.4969001,12.1797497 C20.8242349,12.2141175 21.158107,12.1545466 21.483107,12.1389665 C22.8022522,12.0748132 24.0083944,11.6051196 25.2705711,12.1293435 C25.9527909,12.4129926 26.5878484,12.8396119 27.2429849,13.1732089 C27.9620941,13.5402573 27.963028,13.4958083 28.7073527,13.7061394 L29.0183441,13.8426942 C29.2620941,14.0145333 29.5637464,14.2615234 29.8448527,14.3481303 C30.2604418,14.4755204 30.3435596,14.2890177 30.3594361,14.8104922 C30.3795151,15.4648556 30.6017852,15.849317 31.020643,16.3675838 C31.7079993,17.2185311 32.8151473,17.7125114 33.3484088,18.6812258 C33.9708585,19.8126146 33.9232292,21.2583545 34.1086099,22.475892 C34.3145366,23.8272349 33.5482651,24.6502298 32.9944576,25.8059052 Z M34.7305927,22.902053 C34.5970438,22.2880145 34.788028,21.6254029 34.6301976,21.0425245 C34.4662967,20.4362761 34.2183441,19.8703526 34.1865912,19.2242374 C34.1548384,18.5776641 34.0847953,18.1620425 33.6631358,17.6469834 C33.3208585,17.2295288 32.8553053,16.927092 32.4495223,16.5623348 C32.025995,16.1806228 31.5548384,15.7824143 31.2573886,15.2760616 C31.1070295,15.0208232 30.9230496,14.7174699 30.8702838,14.4232813 C30.8469361,14.2913089 30.938926,14.0356122 30.8744864,13.9201364 C30.7726904,13.738216 30.654551,13.7927463 30.4780424,13.6974328 C29.9457148,13.4082849 29.4918355,13.0123675 28.9781861,12.7296349 C28.4776114,12.454234 27.8780424,12.3392164 27.3704634,12.13026 C27.1071013,12.0221159 26.8927694,11.860358 26.6130639,11.7810829 C26.2997378,11.692643 26.0013542,11.6362798 25.6954993,11.5285939 C25.1001329,11.3182628 24.5374533,11.0841034 23.8953915,11.0932681 C23.4914763,11.1693356 23.0338614,11.0648574 22.6360165,11.1789586 C22.031778,11.3521724 21.3523599,11.4080774 20.6934878,11.4025786 C20.0957866,11.3970797 19.432245,10.9837493 18.9480136,11.3553801 C18.4156861,11.7636699 17.9940266,12.1824991 17.4196731,12.5266356 C17.2637105,12.6196578 17.2100108,12.7351337 16.9961458,12.789664 C16.8308441,12.8318219 16.6688111,12.7759169 16.5142493,12.837779 C16.2887105,12.92851 16.0771803,13.1837484 15.8399677,13.3299262 C15.5943499,13.4816029 15.2217205,13.5343002 15.0129921,13.6791033 C14.7953915,13.8303218 14.8023958,14.164377 14.6095438,14.4232813 C14.2555927,14.8984738 13.7975108,15.3502961 13.4062033,15.7888296 C13.175995,16.0472756 13.0223671,16.2067424 12.6856932,16.2823516 C12.2602981,16.3785815 12.1449605,16.2942657 12.0058082,16.7465463 C11.8222953,17.3431718 11.9749892,18.0552731 11.9749892,18.6821423 C11.9749892,20.0531894 11.5869504,21.2872235 11.6593283,22.6697265 C11.6747378,22.9689557 11.672403,23.341503 11.8059519,23.6081973 C11.9273599,23.8528962 12.1547665,24.0284012 12.2607651,24.296012 C12.515255,24.9347954 12.5124533,25.5905335 12.6838254,26.2311497 C12.7870223,26.6137782 12.8995582,26.9890749 12.921505,27.3932405 C12.9406501,27.7295869 12.8724749,28.0508115 13.0102263,28.3619549 C13.2577119,28.9205467 13.6648958,29.4433958 14.0169792,29.9502067 C14.7491631,31.007361 15.339393,32.233605 16.1663685,33.1908636 C16.5926976,33.6830108 17.2198168,33.7920714 17.7745582,34.0619734 C18.426426,34.3790738 18.9101904,34.2768868 19.5882076,34.2448102 C20.2993786,34.2109006 20.894745,34.2122753 21.5620223,34.3914463 C22.1826042,34.5591613 22.7821731,34.626064 23.4559878,34.595362 C24.7732651,34.5344164 26.0830711,34.7305421 27.3615912,34.5545789 C27.7314188,34.5037145 27.9714332,34.522044 28.308574,34.3231688 C28.5934159,34.1545374 28.8021444,33.9084638 29.1061315,33.789322 C29.4381358,33.6600989 29.598301,33.6738461 29.8084303,33.3530797 C29.9695295,33.1070061 30.1152191,32.867806 30.2903269,32.6276894 C30.980018,31.6864693 31.5674461,30.6132766 32.025528,29.5611629 C32.1618786,29.2491031 32.1081789,28.9356685 32.2118427,28.630024 C32.300097,28.3720362 32.5176976,28.1456667 32.6391056,27.895469 C32.9328197,27.2905952 33.2265338,26.8154028 33.5860884,26.2618517 C33.9185596,25.7486255 34.2617708,25.1749119 34.4518211,24.6057807 C34.6712895,23.9486679 34.8730136,23.5587076 34.7305927,22.902053 Z M32.4420043,24.1027732 C32.2080603,24.5889634 31.7990086,25.012375 31.5258405,25.4926081 C31.2055101,26.0553239 30.9001221,26.618498 30.5994037,27.1963358 C30.0311207,28.2892326 29.6958477,29.444908 29.0542529,30.476401 C28.8646695,30.7802126 28.6461351,30.9286816 28.2973204,31.0588211 C27.925158,31.1976671 27.8406394,31.2815246 27.5870833,31.5908351 C27.2639511,31.9826283 26.605546,32.6127051 26.0620115,32.7199327 C25.4129454,32.847781 24.7419325,32.6094974 24.0938003,32.6420323 C23.7566595,32.6589871 23.4330603,32.7387204 23.1094612,32.5948338 C22.7774569,32.4463648 22.5668606,32.1585915 22.2040374,32.0522804 C20.9904239,31.6939385 19.6339224,32.4651525 18.4249784,31.9464275 C17.7815158,31.6701102 17.5909986,31.3310143 17.3920761,30.7101022 C17.2076293,30.1322645 16.7285345,29.6378261 16.4264152,29.1273493 C16.1182256,28.6049584 15.6587428,28.2310364 15.5901006,27.6192891 C15.5527443,27.2879833 15.6199856,26.9465962 15.5901006,26.6152904 C15.5616164,26.2991064 15.4728951,26.0044596 15.4238649,25.6878173 C15.3155316,24.9825895 15.3538218,24.4143748 14.9120833,23.8044605 C14.722033,23.5423485 14.4638075,23.3265186 14.3699497,23.0222488 C14.2798276,22.7308096 14.3302586,22.3646777 14.3302586,22.0558255 C14.3302586,21.4046698 14.347069,20.755347 14.2527443,20.1243537 C14.1719612,19.5872992 13.6148851,18.8522859 14.2504095,18.5008176 C14.5740086,18.3221049 14.945704,18.2648252 15.2753736,18.0370811 C15.5933693,17.817127 15.8315158,17.527979 16.0617241,17.2269169 C16.5132687,16.6339573 16.7612213,15.9456843 17.1646695,15.3339371 C17.2230388,15.2450389 17.2543247,15.0901546 17.3593894,15.0333331 C17.5947342,14.9068595 17.6521695,15.1245224 17.8240086,15.1112335 C18.1359339,15.0869469 18.2918966,14.7043185 18.541717,14.4949039 C19.0058693,14.1049436 19.4513434,13.951434 20.0378376,13.903319 C20.6971767,13.8497052 21.3826652,14.0087137 22.044806,13.9436439 C22.3730747,13.9120255 22.7270259,13.9083596 23.0324138,13.8281681 C23.4041092,13.7305634 23.5768822,13.5642231 23.9677227,13.6439565 C24.1106106,13.6728255 24.0858621,13.7718048 24.2278161,13.7534753 C24.1661782,13.735604 24.107342,13.7113174 24.0541092,13.6723672 L24.2511638,13.7498094 C24.2427586,13.7516424 24.2352874,13.7525588 24.2278161,13.7534753 C24.4472845,13.8157956 24.7106466,13.7841772 24.9301149,13.9326462 C25.1953448,14.1118172 25.3783908,14.2625774 25.7080603,14.396841 C26.320704,14.6461223 26.8511638,15.0017147 27.4796839,15.2198359 C27.7663937,15.3197317 28.0862572,15.3797608 28.3538218,15.4796566 C28.6652802,15.5955908 28.7675431,15.8412062 29.0042888,16.078115 C29.2382328,16.313191 29.3764511,16.5661382 29.6052586,16.7943405 C29.8083836,16.9959651 30.0908908,17.0972356 30.3140948,17.2654089 C30.8109339,17.6402473 31.1564799,18.2299992 31.5748707,18.6951104 C32.0114727,19.1803841 32.191717,19.7513482 32.282773,20.356222 C32.3789655,20.99638 32.3663578,21.626915 32.3995115,22.288152 C32.4261279,22.8064188 32.658671,23.6523256 32.4420043,24.1027732 Z M33.1489727,22.4810701 C33.1144181,21.8624492 32.9687284,21.2901104 32.872069,20.7049408 C32.7730747,20.1083154 32.7221767,19.2972347 32.4116523,18.7638461 C32.1436207,18.3042337 31.6010201,17.8698243 31.2283908,17.4867377 C30.8254095,17.0720326 30.4200934,16.6587022 30.0287859,16.2316247 C29.6276724,15.7949242 29.5338147,15.2125041 29.053319,14.9183155 C28.5695546,14.6227522 28.0036063,14.4632855 27.4717457,14.2231689 C26.8124066,13.9253144 26.2422557,13.6613695 25.6296121,13.2860729 C25.3942672,13.1431027 25.1621911,12.9433111 24.9114368,12.8328758 C24.6985057,12.7393953 24.3258764,12.7494766 24.1320905,12.648206 L24.2119397,12.7064022 C23.710898,12.6152129 23.2971767,12.9258981 22.8339583,13.0166291 C22.3385201,13.1133173 21.8636279,13.2145878 21.3775287,13.3341878 C20.9147773,13.4478308 20.2932615,13.465702 19.8421839,13.3250231 C19.6007687,13.2498721 19.4999066,13.0798659 19.2206681,13.2177955 C19.0497629,13.301653 18.8975359,13.5399366 18.7098204,13.6439565 C18.3824856,13.8249604 18.2223204,13.9835106 17.941681,14.2442479 C17.6320905,14.5311046 17.4653879,14.5219399 17.0862213,14.5622648 C16.6575575,14.6080886 16.713592,14.6896549 16.4857184,15.0612856 C16.2994037,15.3664719 16.1653879,15.5914666 16.0131609,15.904443 C15.7203807,16.5097749 15.2347486,17.0866962 14.7243678,17.5357691 C14.1714943,18.0224175 13.6326293,17.9106075 13.50375,18.6951104 C13.3968175,19.3453497 13.5182256,19.9768012 13.5821983,20.6352887 C13.6485057,21.3121058 13.5793966,22.0058776 13.5126221,22.6744464 C13.4374425,23.4227485 13.9212069,23.7375578 14.3008405,24.3277679 C14.651056,24.8730707 14.6347126,25.4128747 14.6038937,26.0337868 C14.5707399,26.6977732 14.732306,27.2091664 14.80375,27.8511574 C14.8691236,28.4395346 15.3234698,28.8624879 15.6788218,29.3184344 C16.3559052,30.1872531 16.4408908,31.3388043 17.3621911,32.0536551 C17.7656394,32.3670897 18.5249066,32.5086851 19.0142744,32.6039986 C19.6922917,32.7368875 20.3777802,32.53343 21.0632687,32.5645901 C21.6394899,32.5907097 22.3861494,32.6479894 22.9212787,32.8262438 C23.2392744,32.932555 23.4283908,33.0833152 23.7786063,33.1053106 C24.1120115,33.1263895 24.4402802,33.0823987 24.7620115,33.0668186 C25.5091379,33.0297014 26.2459914,33.0406991 26.9590302,32.865194 C27.6697342,32.689689 27.8210273,32.0202038 28.4626221,31.7530512 C29.5856466,31.2865652 30.1469253,30.2633205 30.4705244,29.2020421 C30.6512356,28.6086243 30.7675072,28.1146441 31.0929741,27.5725489 C31.4259124,27.0162483 31.6383764,26.4031263 31.957773,25.8413269 C32.252421,25.3216854 32.5335273,24.7814232 32.8342457,24.2581158 C33.1625144,23.6862352 33.1858621,23.1583454 33.1489727,22.4810701 Z M29.8553592,25.3641182 C29.6807184,25.8471007 29.3832687,26.3461216 29.1455891,26.796111 C28.892967,27.2749693 28.6314727,27.7611595 28.3400934,28.224896 C28.1649856,28.5030463 28.0734626,28.7912778 27.8203736,29.0061913 C27.5868966,29.2050664 27.3370761,29.2962557 27.1502945,29.5501194 C26.8075503,30.0166054 26.4335201,30.5426622 25.9109986,30.7067113 C24.6866451,31.0907145 23.5617529,30.7786546 22.2696911,30.7836952 C21.2409914,30.7878194 19.6131897,30.9427037 18.8455172,30.1838621 C18.4612141,29.8039831 18.3127227,29.2838833 18.0507615,28.8288533 C17.7785273,28.3554938 17.3615374,27.9916531 17.1686853,27.4697204 C16.9604239,26.9065462 17.0075862,26.285176 16.9767672,25.6647221 C16.9459483,25.0373948 16.6900575,24.4536 16.6316882,23.8207737 C16.5756537,23.2099429 16.2740014,22.7155045 16.085352,22.1266691 C15.9158477,21.5978628 15.8995043,20.8083193 15.9886925,20.2451452 C16.0718103,19.7172554 16.5499713,19.3103403 16.8712356,18.8892199 C17.2401293,18.4057791 17.6678592,17.9603721 18.0026652,17.4586019 C18.3215948,16.9815764 18.6395905,16.7817848 19.1256897,16.4720161 C19.549217,16.2016559 19.965273,15.8634765 20.3902011,15.6160282 C21.2662069,15.1055514 22.7095618,15.343835 23.6504741,15.5399607 L23.6121839,15.3896588 C23.8578017,15.5853262 24.2864655,15.4932205 24.5689727,15.5789109 C24.8589511,15.6668925 25.1223132,15.7663301 25.4150934,15.8414811 C25.9815086,15.9862842 26.4405244,16.3125494 26.9565086,16.5480836 C27.2376149,16.6763901 27.531796,16.6892208 27.785352,16.867017 C27.9917457,17.0113619 28.1388362,17.2166524 28.3204813,17.3939903 C28.7458764,17.8100702 29.1245761,18.2953439 29.6046049,18.6550604 C30.7019468,19.4757641 30.7463075,20.6625997 30.7463075,21.9387916 C30.7463075,23.1879475 30.2606753,24.2409777 29.8553592,25.3641182 Z M31.197852,19.9065075 C31.055431,19.3158392 30.6342385,18.8603509 30.2191164,18.3915738 C29.7876509,17.9035506 29.2469181,17.5387935 28.7813649,17.0915535 C28.5969181,16.915132 28.4437572,16.7332116 28.2915302,16.5205893 C28.0323707,16.1599563 27.9529885,16.2282337 27.562148,16.097636 C27.2689009,15.9991149 27.0158118,15.8831807 26.718829,15.8039056 C26.4395905,15.7292129 26.1412069,15.6206105 25.8769109,15.5033017 C25.5481753,15.3575821 25.2479239,15.1687882 24.9159195,15.0418564 C24.6712356,14.9479176 24.3961997,14.9089674 24.1515158,14.8278594 C23.5897701,14.8379406 23.0317601,14.8755161 22.4616092,14.8274011 C21.8391595,14.7742456 21.1424641,14.6858057 20.5055388,14.7957827 C20.1324425,14.8603942 19.9022342,15.093179 19.660352,15.3525415 C19.4301437,15.6013646 19.2718463,15.6178611 19.0094181,15.8121539 C18.7717385,15.9881172 18.5821552,16.2566444 18.3178592,16.3964069 C18.0297486,16.5490001 17.913477,16.5105081 17.7066164,16.7460423 C17.3083046,17.1983229 17.050546,17.759664 16.7190086,18.2586848 C16.542033,18.5240045 16.3122917,18.8745563 16.0181106,19.03219 C15.6272701,19.2416047 15.3877227,19.1013839 15.3657759,19.6049871 C15.3587716,19.766745 15.4129382,19.8744309 15.3760489,20.0274823 C15.3386925,20.1819084 15.2051437,20.3115896 15.1729239,20.4710563 C15.1131537,20.7757844 15.1888003,21.1519975 15.2037428,21.4493938 C15.2392313,22.1431656 15.1154885,22.7141298 15.6641595,23.2287307 C16.075546,23.615025 16.207227,24.2034022 16.2852083,24.7615357 C16.4626509,26.0221475 16.3080891,27.3867793 17.101444,28.4402677 C17.4474569,28.8998801 17.7603161,29.4263952 17.9825862,29.946495 C18.2127945,30.4858407 18.2342744,31.1589919 18.9328376,31.2753842 C20.1095618,31.4705935 21.6229598,30.6439327 22.7002227,31.3464111 C22.8814009,31.4646364 22.9098851,31.5022119 23.113477,31.5828617 C23.2619684,31.6410579 23.4193319,31.7075024 23.5734267,31.7634074 C23.8582687,31.8660526 24.1006178,31.9563254 24.4176796,31.9508266 C24.7188649,31.9453277 25.0714152,31.9444113 25.3469181,31.8477231 C25.6723851,31.7340802 25.825079,31.5723223 26.1818319,31.5365797 C26.8967385,31.4655529 27.0872557,30.9559926 27.4173922,30.4157304 C27.5971695,30.1224583 27.8241092,30.0674697 28.100546,29.871344 C28.364375,29.6839248 28.3881897,29.510711 28.5287428,29.2499737 C28.9307902,28.5071704 29.390273,27.825771 29.7031322,27.0105662 C29.9165302,26.4542657 30.2560057,25.9071299 30.5249713,25.3632018 C30.6552514,25.1006316 30.8046767,24.8398943 30.9279526,24.5732 C31.0778448,24.2510589 31.0409555,23.9628274 31.0530963,23.5930296 C31.0741092,22.9446233 31.3192601,22.3874063 31.3598851,21.7509142 C31.3981753,21.1423745 31.3360704,20.4802211 31.197852,19.9065075 Z M27.8296193,25.0940329 C27.6348994,25.5770155 27.5868032,26.3111122 27.2683405,26.7084043 C27.1184483,26.8944488 26.8775,27.0497913 26.7168678,27.2550818 C26.5501652,27.4672459 26.4035417,27.7426467 26.1752011,27.8970728 C25.8782184,28.0986974 25.6680891,28.0904491 25.4672989,28.3754729 C25.3216092,28.5821381 25.2655747,28.7883451 25.0358333,28.9253582 C24.7892816,29.0724524 24.4824928,29.1146103 24.216329,29.2685782 C23.9515661,29.4202548 23.7176221,29.4665368 23.4187716,29.4954058 C22.6996624,29.5664327 22.2303736,29.6347101 21.5425503,29.3405215 C20.9607256,29.0916984 20.3597557,28.9890532 19.849375,28.5986347 C18.864569,27.8466667 19.0177299,26.5658924 18.9033261,25.4532913 C18.8393534,24.8255057 18.661444,24.2513339 18.4998779,23.6510425 C18.325704,23.000345 18.3229023,22.3194038 18.1958908,21.6650404 C18.0894253,21.1174464 17.9558764,20.3842661 18.2771408,19.9003671 C18.4746624,19.6020544 18.6689152,19.339026 18.8589655,19.0333815 C19.0149282,18.7813507 19.2049784,18.5366518 19.402033,18.3084495 C19.7615876,17.8905367 20.2504885,17.3479833 20.7716092,17.1564399 C21.2773204,16.9713119 22.1584626,16.8402559 22.7202083,16.9012015 C22.9845043,16.9300705 23.2226509,17.0666254 23.4631322,17.1825595 C23.7970043,17.3438591 24.0790445,17.3360691 24.0790445,17.3360691 C24.6459267,17.5207389 25.2637069,17.6632508 25.7250575,18.0234256 C26.1948132,18.3900158 26.5249497,18.7960143 26.9848994,19.2052206 C27.9038649,20.0218001 28.6598635,20.5744348 28.7840733,21.8451278 C28.9073491,23.102532 28.2802299,23.9773077 27.8296193,25.0940329 Z M28.6734052,19.690036 C28.2676221,19.3307777 28.1093247,18.8601676 27.6731897,18.500451 C27.1684124,18.083913 26.5823851,17.7723114 26.0995546,17.3360691 C25.658283,16.9369441 25.0727227,16.7563984 24.4913649,16.6065547 C23.962773,16.4704581 23.1680172,16.6262589 22.6819181,16.325655 C22.0725431,16.2000979 22.1794756,16.2940366 21.5425503,16.3971401 C21.0345043,16.4796229 20.6142457,16.7683126 20.1365517,16.9671878 C19.5388506,17.2164691 19.3894253,17.5211971 19.0139943,18.0215927 C18.7156106,18.4179683 18.3383118,18.7419423 18.0488003,19.1479409 C17.6850431,19.6584176 17.3273563,19.9897235 17.2414368,20.6188838 C17.1564511,21.2379629 17.2447055,21.7960964 17.3791882,22.4229655 C17.5146049,23.0525841 17.756954,23.6033858 17.7905747,24.2627898 C17.8223276,24.8786612 17.9250575,25.5151534 18.0478664,26.1026141 C18.1790805,26.7281085 18.2127011,27.2184228 18.4910057,27.797177 C18.7361566,28.3062791 18.9705675,28.7878868 19.4174425,29.1677659 C19.6607256,29.3748893 19.9544397,29.4239207 20.2178017,29.5755974 C20.5073132,29.7419377 20.7323851,29.8024251 21.0625216,29.861996 C21.7008477,29.9779301 22.2691307,30.0700359 22.9396767,30.0709523 C23.2488003,30.0714106 23.515431,30.0136726 23.7928017,29.9705983 C24.0328161,29.933481 24.4185201,29.9939684 24.6403233,29.9000297 C24.8191667,29.8248787 25.0871983,29.526566 25.2272845,29.3936771 C25.4023922,29.2287115 25.4621624,28.9707237 25.6321336,28.8176723 C25.8287213,28.6398761 26.1952802,28.6637044 26.430625,28.529899 C26.6561638,28.4011343 26.8896408,28.1921779 27.030194,27.9777226 C27.3500575,27.4878666 27.5368391,26.9049882 27.9038649,26.4357529 C28.319921,25.9032807 28.5543319,25.3538537 28.745783,24.7301922 C28.9194899,24.1642687 29.254296,23.6574578 29.3738362,23.0722883 C29.5858333,22.0357547 29.5452083,20.4621665 28.6734052,19.690036 Z M26.7308764,24.6222773 C26.5837859,24.9870345 26.5478305,25.5410438 26.3068822,25.8411895 C26.1938793,25.9818684 26.0122342,26.0991773 25.8908261,26.2540616 C25.7647486,26.4139866 25.6540805,26.6220265 25.4817744,26.7388771 C25.2571695,26.891012 25.0988721,26.8845967 24.947579,27.0999684 C24.8373779,27.2562274 24.7948851,27.41157 24.6216451,27.5151317 C24.4353305,27.6260252 24.2037213,27.8441464 24.0024641,27.9605387 C23.8026078,28.0750981 23.6260991,28.1099242 23.4005603,28.1319196 C22.8579598,28.1850752 22.5030747,28.236856 21.9838218,28.0146108 C21.5448851,27.8267333 21.0910057,27.7492912 20.7057687,27.4546443 C19.9619109,26.8868879 20.3709626,25.7335036 20.2850431,24.893554 C20.2364799,24.419278 20.1019971,23.9862434 19.9801221,23.5330463 C19.8484411,23.0413573 19.8465733,22.5272146 19.7503807,22.0332344 C19.6700647,21.619904 19.5696695,21.0663529 19.8115517,20.7006792 C19.960977,20.4756845 20.1076006,20.2768094 20.2514224,20.0463158 C20.3690948,19.8561472 20.5124497,19.6710192 20.6609411,19.4987218 C20.9327083,19.1834543 21.0083549,18.7737898 21.4015302,18.6294449 C21.7834986,18.4892242 22.448908,18.3902449 22.8733693,18.4365269 C23.0727586,18.4580641 23.2553376,18.5556687 23.434181,18.6491492 C23.6429095,18.7577515 24.0706394,18.766458 24.1705675,18.7893699 C24.3064511,18.8200718 24.7934842,19.0116152 25.1418319,19.2838083 C25.496717,19.5605839 25.7456034,19.8671449 26.0930172,20.1759971 C26.7869109,20.7923268 27.3575287,21.2097813 27.4513865,22.169331 C27.5447773,23.1187994 27.0712859,23.7791199 26.7308764,24.6222773 Z M27.3678017,20.542129 C27.0614799,20.2708523 26.9419397,19.9157181 26.6127371,19.6439832 C26.2317026,19.3296321 25.7890302,19.0940979 25.424806,18.7646251 C25.0914009,18.4631047 24.6491954,18.3270081 24.2102586,18.2138234 C23.8110129,18.1111781 23.1843606,18.1909115 22.8439511,18.0021176 C22.3844684,17.9072624 22.4647845,17.977831 21.9838218,18.0557314 C21.6004526,18.1180517 21.2661135,18.2184057 20.9224353,18.4864748 C20.5568103,18.7710404 20.5848276,18.9117194 20.3681609,19.2824336 C20.1795115,19.605033 19.8577802,19.8263618 19.6397126,20.1329228 C19.3646767,20.5183006 19.0947773,20.7684984 19.0298707,21.2432326 C18.965898,21.7106351 19.0326724,22.1322137 19.1340014,22.6055733 C19.2362644,23.0807657 19.4193103,23.4968455 19.4445259,23.9944916 C19.4683405,24.4596029 19.5458549,24.9402942 19.6387787,25.3838683 C19.737773,25.8563113 19.4697414,26.2261091 19.6798707,26.6632679 C19.8647845,27.0477293 20.042227,27.5976145 20.3793678,27.8844713 C20.5628807,28.0407303 20.7846839,28.0778476 20.9836063,28.192407 C21.2021408,28.3179641 21.3721121,28.3633296 21.6214655,28.4086952 C22.1033621,28.4962186 22.5324928,28.5654125 23.038671,28.5663289 C23.272148,28.5667872 23.4734052,28.5232546 23.6830675,28.4907197 C23.8642457,28.462309 24.155158,28.5081327 24.3227945,28.4375641 C24.4582112,28.3807427 24.6599353,27.968787 24.7659339,27.868433 C24.8980819,27.7442505 24.9433764,27.5490413 25.0713218,27.4335654 C25.2202802,27.29976 25.4971839,27.317173 25.6746264,27.2163607 C25.8445977,27.1192144 26.0211063,26.9615806 26.1271049,26.7993645 C26.3685201,26.4295667 26.5100072,25.9896585 26.7869109,25.6349825 C27.101171,25.2335663 27.2781466,24.818403 27.4229023,24.3473347 C27.5536494,23.9202571 27.8067385,23.5376287 27.8968606,23.0958876 C28.0565589,22.3132176 28.0262069,21.1250073 27.3678017,20.542129 Z M25.9340661,24.2191656 C25.8285345,24.4817358 25.6991882,24.9033144 25.5259483,25.1196026 C25.4446983,25.2204149 25.3134842,25.3051889 25.2261638,25.4165406 C25.1355747,25.5320165 25.0557256,25.6818602 24.9319828,25.7657177 C24.7704167,25.8752365 24.6560129,25.8711124 24.5472126,26.0255385 C24.4678305,26.138265 24.4370115,26.2505332 24.3123348,26.3247677 C24.178319,26.4049593 24.0116164,26.5616766 23.8668606,26.6455341 C23.7230388,26.7280169 23.5955603,26.9447633 23.4330603,26.9608016 C23.0422198,26.9992936 22.786796,27.0364108 22.4127658,26.8764859 C22.0966379,26.7408475 21.8692313,26.6854007 21.5918606,26.4732367 C21.0562644,26.0640305 21.395273,25.0421604 21.3331681,24.4368285 C21.2981466,24.0958996 21.3639871,23.7833815 21.2761997,23.4571163 C21.181408,23.1033568 21.0366523,22.7331008 20.9675431,22.3775084 C20.9096408,22.0796539 20.8190517,21.4683648 20.9932256,21.2048781 C21.100625,21.0431202 21.1333118,21.013793 21.2365086,20.8474528 C21.3214943,20.7104397 21.3532471,20.6765301 21.4606466,20.5523477 C21.6563003,20.32552 21.6114727,19.8526188 21.8944468,19.7485988 C22.1694828,19.6477865 22.6485776,19.5763015 22.9544325,19.6097528 C23.0977874,19.6253329 23.4433333,19.8379552 23.5722126,19.9048579 C23.7221049,19.9832165 23.9158908,20.0249161 23.9873348,20.0414127 C24.0853951,20.0638663 24.4360776,20.2017959 24.6872989,20.3974634 C24.9422557,20.5967968 25.2210273,20.7154803 25.4713147,20.9381838 C25.9709555,21.3822161 26.2824138,21.7845488 26.3501221,22.4755712 C26.4173635,23.1592618 26.179217,23.6120007 25.9340661,24.2191656 Z M26.2898851,21.3038575 C26.0694828,21.1086482 25.8934411,20.9065654 25.6562284,20.7108979 C25.3821264,20.4845285 25.153319,20.2609085 24.8908908,20.0239997 C24.6508764,19.806795 24.2483621,19.8274157 23.9327011,19.7458494 C23.6450575,19.6720731 23.1781034,19.4328731 22.9334195,19.2967765 C22.6018822,19.2284991 22.6602514,19.2793634 22.3137716,19.3357267 C22.0378017,19.380634 21.9009842,19.2921941 21.6534986,19.4846539 C21.3901365,19.6899444 21.405546,20.1298526 21.2495833,20.3965469 C21.1136997,20.6288734 21.0268463,20.5752596 20.8694828,20.7961301 C20.6714943,21.0738222 20.5781034,21.2319142 20.531408,21.5737595 C20.4851796,21.9101059 20.6084555,22.3775084 20.6817672,22.7184372 C20.755079,23.0607407 20.9526006,23.4291638 20.9708118,23.7879639 C20.9880891,24.1224774 20.9502658,24.4675304 21.0170402,24.7869221 C21.0884842,25.1269344 20.9605388,25.4568655 21.0053664,25.8197898 C21.0431897,26.1240596 21.1141667,26.5758819 21.3569828,26.7825471 C21.4891307,26.8952736 21.648829,26.9218514 21.7921839,27.0043342 C21.9495474,27.094607 22.2329885,27.1725074 22.4127658,27.2050423 C22.7597126,27.2682791 22.8082759,27.2728614 23.1725,27.2737779 C23.3406034,27.2737779 23.4858261,27.2426178 23.6361853,27.2187894 C23.7669325,27.1986269 23.9765948,27.0396185 24.097069,26.9887541 C24.1946624,26.9479709 24.340352,26.6514912 24.4164655,26.5795478 C24.5117241,26.4897333 24.543944,26.3495125 24.6364009,26.2661133 C24.7433333,26.1694251 24.8922917,26.0970236 25.0202371,26.0241638 C25.142579,25.9540534 25.3952011,25.6983568 25.4713147,25.5815062 C25.6450216,25.3152701 25.6721049,25.226372 25.8714943,24.9711336 C26.097967,24.6815274 26.2254454,24.3827564 26.3295761,24.0436605 C26.4239009,23.7361831 26.6060129,23.4607822 26.6709195,23.142307 C26.7857902,22.5791329 26.7638434,21.723145 26.2898851,21.3038575 Z M25.3195079,23.9662184 C25.2419935,24.1591364 25.1472019,24.4684469 25.0201904,24.6269971 C24.9604203,24.7012316 24.8642277,24.7630937 24.800255,24.8451182 C24.7334806,24.929434 24.6751114,25.039411 24.5840553,25.1012731 C24.465449,25.1814647 24.221232,25.4568655 24.1292421,25.5113958 C24.0311818,25.5700502 23.6034519,25.9664258 23.4843786,25.9778818 C23.1972019,26.0062925 23.0099533,26.0337868 22.7353843,25.9160197 C22.5037751,25.8170404 22.3366056,25.7762572 22.1330136,25.6199982 C21.7398384,25.3203107 21.9887249,24.5701756 21.9429634,24.1261433 C21.9172809,23.8754873 21.9658441,23.6463685 21.9014045,23.4071684 C21.8318283,23.1473477 21.7884016,22.9209782 21.7884016,22.6556586 C21.7884016,22.436621 21.662324,21.9760922 21.8075467,21.7950883 C21.8505065,21.7410162 21.9579059,21.366636 22.0368211,21.2754468 C22.180176,21.1086482 22.1474892,20.7617623 22.3552838,20.6856949 C22.5570079,20.6114604 22.9086243,20.5592213 23.1327622,20.5835079 C23.2382938,20.5949638 23.4918499,20.7507646 23.5861746,20.8002543 C23.6963757,20.857534 23.8383297,20.8882359 23.8910955,20.9006083 C23.9630065,20.9166467 24.2202981,21.0179172 24.404278,21.1618038 C24.5919935,21.3079816 24.7965194,21.3950468 24.9800323,21.5581794 C25.3465912,21.8844446 25.6468427,22.1520554 25.6963398,22.6593245 C25.74537,23.1610948 25.4992852,23.5208114 25.3195079,23.9662184 Z M25.5310381,21.8757381 C25.369005,21.7323097 25.2896228,21.5352675 25.1159159,21.3918391 C24.9141918,21.2254988 24.7465553,21.1700521 24.5537033,20.9959218 C24.3776616,20.8364551 24.0825467,20.7434328 23.8509375,20.6834037 C23.6398743,20.6293316 23.3937895,20.5486818 23.2140122,20.4492442 C22.9711961,20.3988381 22.8960165,20.3960887 22.6415266,20.43733 C22.4388685,20.4703232 22.3921731,20.4359553 22.210528,20.5775508 C22.0172091,20.728311 22.1101329,20.8534099 21.9957292,21.0490773 C21.896268,21.2195418 21.8906645,21.3327265 21.7753269,21.4949426 C21.6301042,21.6984001 21.5988182,21.8147925 21.5642636,22.0654485 C21.530643,22.3124386 21.5619289,22.5158961 21.6156286,22.7660939 C21.6693283,23.0172082 21.7571157,23.2953584 21.7706573,23.5583868 C21.7832651,23.8040022 21.7393714,24.0317464 21.7884016,24.2659058 C21.8407004,24.5156454 21.7202263,24.8781114 21.7753269,25.1411398 C21.8990697,25.7286005 22.1750395,25.949471 22.2801042,26.0099584 C22.3954418,26.0764029 22.6037033,26.1336826 22.7353843,26.1575109 C22.9898743,26.2037929 23.0253628,26.2074589 23.2929274,26.2074589 C23.4162033,26.2079171 23.5226688,26.1850052 23.6333369,26.1675922 C23.7290625,26.1529286 23.8831573,25.9480963 23.9714116,25.9105208 C24.0428556,25.8807354 24.2058226,25.6983568 24.2058226,25.6983568 C24.2753987,25.6323706 24.5551042,25.3441391 24.6489619,25.2909835 C24.7386171,25.2396609 24.9239978,25.0517834 24.9800323,24.966093 C25.1075108,24.7704255 25.1271228,24.7053558 25.2737464,24.5179365 C25.4395151,24.3057725 25.5333728,24.0862767 25.6094864,23.8374536 C25.6790625,23.6120007 25.8126114,23.4099178 25.8602407,23.1762166 C25.9447593,22.762428 25.8789188,22.1836738 25.5310381,21.8757381 Z"/>
    </g>
  </g>
</svg>
