<svg xmlns="http://www.w3.org/2000/svg" width="117" height="99" viewBox="0 0 117 99">
  <g fill="none" fill-rule="evenodd">
    <path fill="#BDBDBD" d="M116.64882,39.84534 C118.89342,20.71674 101.22102,3.02814 77.16582,0.34434 C62.43822,-1.30266 48.74562,3.06234 39.83202,11.09214 C41.82102,10.88154 43.84602,10.77714 45.83682,10.77714 C57.77622,10.77714 69.23322,14.28354 78.08742,20.66454 C87.45822,27.39654 93.29562,36.86454 94.52322,47.33154 C95.61042,56.64114 92.91942,66.12534 86.93082,74.19114 C99.27522,83.43054 110.57382,80.95914 107.95302,78.97734 C100.62522,73.43694 99.05562,68.03694 99.52002,63.81234 C108.95202,58.46454 115.46622,49.94334 116.64882,39.84534" opacity=".6"/>
    <path fill="#959595" d="M87.26472,48.19068 C85.23072,30.71088 67.25952,18.06948 45.83592,18.06948 C43.80192,18.06948 41.75172,18.19368 39.67272,18.42048 C15.62832,21.12048 -2.04408,38.79288 0.19152,57.92148 C1.37412,68.03748 7.89552,76.52268 17.32932,81.88848 C17.79372,86.13108 16.23312,91.53108 8.89452,97.05348 C7.72092,97.94808 9.31572,98.92908 12.54132,98.92908 C17.57412,98.92908 26.55072,96.54408 35.16732,87.63768 C37.28952,87.88428 39.47112,88.02468 41.68152,88.02468 C43.69752,88.02468 45.73152,87.91848 47.79072,87.69168 C71.83692,85.00788 89.50932,67.31928 87.26472,48.19068"/>
  </g>
</svg>
