<svg xmlns="http://www.w3.org/2000/svg" width="66" height="66" viewBox="0 0 66 66">
  <g fill="none" fill-rule="evenodd">
    <path fill="#C5C5C5" fill-rule="nonzero" d="M33,66 C14.7746033,66 0,51.2253967 0,33 C0,14.7746033 14.7746033,0 33,0 C51.2253967,0 66,14.7746033 66,33 C66,51.2253967 51.2253967,66 33,66 Z M33,64 C50.1208272,64 64,50.1208272 64,33 C64,15.8791728 50.1208272,2 33,2 C15.8791728,2 2,15.8791728 2,33 C2,50.1208272 15.8791728,64 33,64 Z"/>
    <path fill="#999999" d="M12.9818246,14.861347 C13.3058586,14.5042762 13.639323,14.1559199 13.9818246,13.8166712 L13.9818246,16.4998478 C13.9818246,17.8761795 15.1011127,19 16.4818246,19 C17.8721626,19 18.9818246,17.8806437 18.9818246,16.4998478 L18.9818246,12.2857143 L17.9818246,12.2857143 L17.9818246,10.5466471 C18.9402355,9.90510712 19.942011,9.32330225 20.9818246,8.80655895 L20.9818246,12.2857143 L19.9818246,12.2857143 L19.9818246,16.4998478 C19.9818246,17.8761795 21.1011127,19 22.4818246,19 C23.8721626,19 24.9818246,17.8806437 24.9818246,16.4998478 L24.9818246,12.2857143 L23.9818246,12.2857143 L23.9818246,7.53635137 C25.2729114,7.08001769 26.6090687,6.71909542 27.9818246,6.46205651 L27.9818246,15 L29.9818246,15 L29.9818246,6.16478633 C30.3133855,6.12813414 30.6467559,6.09748562 30.9818245,6.07295191 L30.9818246,15 L32.9818246,15 L32.9818246,6 C34.3409513,6 35.6766231,6.10042271 36.9818246,6.29425289 L36.9818246,12.1428571 L35.9818246,12.1428571 L35.9818246,17.0071372 C35.9818246,18.649309 37.3249704,20 38.9818246,20 C40.6353075,20 41.9818246,18.6600497 41.9818246,17.0071372 L41.9818246,12.1428571 L40.9818246,12.1428571 L40.9818246,7.20487268 C41.6958316,7.42606528 42.3971632,7.67608736 43.0844591,7.95357841 C43.0181988,8.12289786 42.9818246,8.3072011 42.9818246,8.5 C42.9818246,9.32842712 43.6533975,10 44.4818246,10 C45.046277,10 45.5379107,9.68822657 45.793913,9.22749261 C45.9158674,9.29335788 46.0372574,9.3601342 46.1580739,9.42781245 C46.5255325,10.3528764 47.4275225,11 48.4819768,11 L48.6379701,11 C49.0870004,11.320124 49.5258142,11.653652 49.9538276,12 L48.4819768,12 C47.1056451,12 45.9818246,13.1192881 45.9818246,14.5 C45.9818246,15.8903379 47.1011809,17 48.4819768,17 L52.6961103,17 L52.6961103,16 L53.9591387,16 C54.7290488,16.9488674 55.4358765,17.9509958 56.0732369,19 L52.6961103,19 L52.6961103,18 L48.4819768,18 C47.1056451,18 45.9818246,19.1192881 45.9818246,20.5 C45.9818246,21.8903379 47.1011809,23 48.4819768,23 L52.6961103,23 L52.6961103,22 L57.6468333,22 C58.2201113,23.2835 58.6961468,24.6199553 59.065574,26 L49.9818246,26 L49.9818246,28 L59.5197681,28 C59.5817908,28.331242 59.637765,28.6646149 59.6875717,28.9999997 L49.9818246,29 L49.9818246,31 L59.9088727,31 C59.9572238,31.6603538 59.9818246,32.327304 59.9818246,33 C59.9818246,33.672696 59.9572238,34.3396462 59.9088727,35 L52.9818246,35 L52.9818246,34 L47.9834901,34 C46.3208447,34 44.9818246,35.3431458 44.9818246,37 C44.9818246,38.6534829 46.325716,40 47.9834901,40 L52.9818246,40 L52.9818246,39 L59.3127753,39 C58.8993547,40.8219421 58.3016857,42.5739046 57.5403931,44.2352628 C57.2189398,44.0843982 56.8601986,44 56.4818246,44 C55.0914867,44 53.9818246,45.1193563 53.9818246,46.5001522 L53.9818246,49.972003 C53.3558813,50.7455376 52.6880653,51.4837955 51.9818246,52.1833288 L51.9818246,50.7142857 L52.9818246,50.7142857 L52.9818246,46.5001522 C52.9818246,45.1238205 51.8625365,44 50.4818246,44 C49.0914867,44 47.9818246,45.1193563 47.9818246,46.5001522 L47.9818246,50.7142857 L48.9818246,50.7142857 L48.9818246,54.7507694 C48.027805,55.4537282 47.0258702,56.0954244 45.9818246,56.6700536 L45.9818246,50.7142857 L46.9818246,50.7142857 L46.9818246,46.5001522 C46.9818246,45.1238205 45.8625365,44 44.4818246,44 C43.0914867,44 41.9818246,45.1193563 41.9818246,46.5001522 L41.9818246,50.7142857 L42.9818246,50.7142857 L42.9818246,58.0876137 C41.6943456,58.6012601 40.3580493,59.0186688 38.9818246,59.3309507 L38.9818246,48 L36.9818246,48 L36.9818246,59.7057471 C36.6504175,59.754963 36.3170458,59.7981568 35.9818246,59.8352137 L35.9818246,48 L33.9818246,48 L33.9818246,59.9818246 C33.6499844,59.9939066 33.3166161,60 32.9818246,60 C31.6226979,60 30.2870261,59.8995773 28.9818246,59.7057471 L28.9818246,51.8571429 L29.9818246,51.8571429 L29.9818246,46.9928628 C29.9818246,45.350691 28.6386789,44 26.9818246,44 C25.3283417,44 23.9818246,45.3399503 23.9818246,46.9928628 L23.9818246,51.8571429 L24.9818246,51.8571429 L24.9818246,58.7951273 C22.9623556,58.1695149 21.0442844,57.3132777 19.2583932,56.257198 C19.7052153,55.8056468 19.9818246,55.1849959 19.9818246,54.5 C19.9818246,53.1096621 18.8624683,52 17.4816724,52 L13.7984958,52 C13.1682243,51.3636852 12.5693886,50.696178 12.0045105,50 L13.2675389,50 L13.2675389,51 L17.4816724,51 C18.8580041,51 19.9818246,49.8807119 19.9818246,48.5 C19.9818246,47.1096621 18.8624683,46 17.4816724,46 L13.2675389,46 L13.2675389,47 L9.89041228,47 C9.30579094,46.0377967 8.77961628,45.0361542 8.31681587,44 L13.2675389,44 L13.2675389,45 L17.4816724,45 C18.8580041,45 19.9818246,43.8807119 19.9818246,42.5 C19.9818246,41.1096621 18.8624683,40 17.4816724,40 L13.2675389,40 L13.2675389,41 L7.18669728,41 C6.78571085,39.7056208 6.4794691,38.3695856 6.2760775,37 L16.9818246,37 L16.9818246,35 L6.05477651,35 C6.03048909,34.6682951 6.01219432,34.3349259 6,34 L16.9818246,34 L16.9818246,32 L6,32 C6.04956973,30.6385315 6.1999439,29.3027844 6.44388112,28 L14.1246817,28 L14.1246817,29 L18.9889618,29 C20.6311336,29 21.9818246,27.6568542 21.9818246,26 C21.9818246,24.3465171 20.6418743,23 18.9889618,23 L14.1246817,23 L14.1246817,24 L7.51817598,24 C7.93129651,22.8311745 8.42261381,21.6992877 8.98584201,20.6106255 C9.04246566,21.3873971 9.6906046,22 10.4818246,22 C11.3102517,22 11.9818246,21.3284271 11.9818246,20.5 C11.9818246,19.6715729 11.3102517,19 10.4818246,19 C10.2315621,19 9.99561419,19.0612881 9.78817128,19.1696739 C9.83442353,19.092275 9.88105221,19.015127 9.9280548,18.9382324 C10.1061808,18.9786503 10.2915195,19 10.4818246,19 C11.8721626,19 12.9818246,17.8806437 12.9818246,16.4998478 L12.9818246,14.861347 Z M15.9818245,12.022686 C16.3089161,11.7572842 16.6423366,11.4993786 16.9818246,11.2492306 L16.9818246,12.2857143 L15.9818246,12.2857143 L15.9818246,12.022686 L15.9818245,12.022686 Z M21.9818246,8.33499126 C22.3117127,8.18764607 22.645099,8.04672475 22.9818246,7.91238634 L22.9818246,12.2857143 L21.9818246,12.2857143 L21.9818246,8.33499126 L21.9818246,8.33499126 Z M50.9818246,53.1249586 C50.6555373,53.4169936 50.3221058,53.7012103 49.9818246,53.9773141 L49.9818246,50.7142857 L50.9818246,50.7142857 L50.9818246,53.1249586 L50.9818246,53.1249586 Z M11.2310552,49 C10.9895515,48.6722436 10.7552786,48.3388318 10.5284717,48 L13.2675389,48 L13.2675389,49 L11.2310552,49 L11.2310552,49 Z M53.1067832,15 L52.6961103,15 L52.6961103,14.5513707 C52.8346581,14.6993626 52.9715588,14.8489154 53.1067832,15 Z M56.6518782,20 C56.8330696,20.3292071 57.0075927,20.6626011 57.1752657,21 L52.6961103,21 L52.6961103,20 L56.6518782,20 L56.6518782,20 Z M7.89421094,43 C7.7624868,42.6698272 7.63709184,42.3364439 7.51817598,42 L13.2675389,42 L13.2675389,43 L7.89421094,43 L7.89421094,43 Z M44.9818246,57.1934411 C44.6522559,57.3572227 44.3188661,57.5144685 43.9818246,57.6650087 L43.9818246,50.7142857 L44.9818246,50.7142857 L44.9818246,57.1934411 L44.9818246,57.1934411 Z M7.18669728,25 L14.1246817,25 L14.1246817,27 L6.65087388,27 C6.80441886,26.3233282 6.98337886,25.6563093 7.18669728,25 L7.18669728,25 Z M59.5197681,38 L52.9818246,38 L52.9818246,36 L59.8170383,36 C59.7424798,36.674466 59.643078,37.3414445 59.5197681,38 L59.5197681,38 Z M39.9818246,6.91625065 L39.9818246,12.1428571 L37.9818246,12.1428571 L37.9818246,6.46205651 C38.6577001,6.58860945 39.3247038,6.74034454 39.9818246,6.91625065 L39.9818246,6.91625065 Z M25.9818246,59.0837494 L25.9818246,51.8571429 L27.9818246,51.8571429 L27.9818246,59.5379435 C27.3059491,59.4113905 26.6389454,59.2596555 25.9818246,59.0837494 L25.9818246,59.0837494 Z M30.4818246,31 C31.8625365,31 32.9818246,29.8807119 32.9818246,28.5 C32.9818246,27.1192881 31.8625365,26 30.4818246,26 C29.1011127,26 27.9818246,27.1192881 27.9818246,28.5 C27.9818246,29.8807119 29.1011127,31 30.4818246,31 Z M25.9818246,15 L25.9818246,21.9976305 C25.9818246,24.2081782 27.7726602,26 29.9817679,26 L30.9818813,26 C33.1821711,26 34.9818246,24.2080781 34.9818246,21.9976305 L34.9818246,15 L25.9818246,15 Z M36.4818246,32 C35.1011127,32 33.9818246,33.1192881 33.9818246,34.5 C33.9818246,35.8807119 35.1011127,37 36.4818246,37 C37.8625365,37 38.9818246,35.8807119 38.9818246,34.5 C38.9818246,33.1192881 37.8625365,32 36.4818246,32 Z M40.9818246,48 L40.9818246,41.0023695 C40.9818246,38.7918218 39.190989,37 36.9818813,37 L35.9817679,37 C33.7814781,37 31.9818246,38.7919219 31.9818246,41.0023695 L31.9818246,48 L40.9818246,48 Z M33.9818246,28.5 C33.9818246,29.8807119 35.1011127,31 36.4818246,31 C37.8625365,31 38.9818246,29.8807119 38.9818246,28.5 C38.9818246,27.1192881 37.8625365,26 36.4818246,26 C35.1011127,26 33.9818246,27.1192881 33.9818246,28.5 Z M49.9818246,24 L42.9841941,24 C40.7736464,24 38.9818246,25.7908356 38.9818246,27.9999433 L38.9818246,29.0000567 C38.9818246,31.2003465 40.7737465,33 42.9841941,33 L49.9818246,33 L49.9818246,24 Z M32.9818246,34.5 C32.9818246,33.1192881 31.8625365,32 30.4818246,32 C29.1011127,32 27.9818246,33.1192881 27.9818246,34.5 C27.9818246,35.8807119 29.1011127,37 30.4818246,37 C31.8625365,37 32.9818246,35.8807119 32.9818246,34.5 Z M16.9818246,39 L23.9794551,39 C26.1900028,39 27.9818246,37.2091644 27.9818246,35.0000567 L27.9818246,33.9999433 C27.9818246,31.7996535 26.1899028,30 23.9794551,30 L16.9818246,30 L16.9818246,39 Z M24.9818246,42 C24.9818246,43.1045695 25.8772551,44 26.9818246,44 C28.0863941,44 28.9818246,43.1045695 28.9818246,42 C28.9818246,40.8954305 28.0863941,40 26.9818246,40 C25.8772551,40 24.9818246,40.8954305 24.9818246,42 Z M40.9818246,22 C40.9818246,20.8954305 40.0863941,20 38.9818246,20 C37.8772551,20 36.9818246,20.8954305 36.9818246,22 C36.9818246,23.1045695 37.8772551,24 38.9818246,24 C40.0863941,24 40.9818246,23.1045695 40.9818246,22 Z M42.9818246,39 C44.0863941,39 44.9818246,38.1045695 44.9818246,37 C44.9818246,35.8954305 44.0863941,35 42.9818246,35 C41.8772551,35 40.9818246,35.8954305 40.9818246,37 C40.9818246,38.1045695 41.8772551,39 42.9818246,39 Z M23.9818246,24 C22.8772551,24 21.9818246,24.8954305 21.9818246,26 C21.9818246,27.1045695 22.8772551,28 23.9818246,28 C25.0863941,28 25.9818246,27.1045695 25.9818246,26 C25.9818246,24.8954305 25.0863941,24 23.9818246,24 Z M44.4818246,44 C45.3102517,44 45.9818246,43.3284271 45.9818246,42.5 C45.9818246,41.6715729 45.3102517,41 44.4818246,41 C43.6533975,41 42.9818246,41.6715729 42.9818246,42.5 C42.9818246,43.3284271 43.6533975,44 44.4818246,44 Z M19.9818246,42.5 C19.9818246,43.3284271 20.6533975,44 21.4818246,44 C22.3102517,44 22.9818246,43.3284271 22.9818246,42.5 C22.9818246,41.6715729 22.3102517,41 21.4818246,41 C20.6533975,41 19.9818246,41.6715729 19.9818246,42.5 Z M45.9818246,20.5 C45.9818246,19.6715729 45.3102517,19 44.4818246,19 C43.6533975,19 42.9818246,19.6715729 42.9818246,20.5 C42.9818246,21.3284271 43.6533975,22 44.4818246,22 C45.3102517,22 45.9818246,21.3284271 45.9818246,20.5 Z M45.9818246,14.5 C45.9818246,13.6715729 45.3102517,13 44.4818246,13 C43.6533975,13 42.9818246,13.6715729 42.9818246,14.5 C42.9818246,15.3284271 43.6533975,16 44.4818246,16 C45.3102517,16 45.9818246,15.3284271 45.9818246,14.5 Z M19.9818246,48.5 C19.9818246,49.3284271 20.6533975,50 21.4818246,50 C22.3102517,50 22.9818246,49.3284271 22.9818246,48.5 C22.9818246,47.6715729 22.3102517,47 21.4818246,47 C20.6533975,47 19.9818246,47.6715729 19.9818246,48.5 Z M19.9818246,54.5 C19.9818246,55.3284271 20.6533975,56 21.4818246,56 C22.3102517,56 22.9818246,55.3284271 22.9818246,54.5 C22.9818246,53.6715729 22.3102517,53 21.4818246,53 C20.6533975,53 19.9818246,53.6715729 19.9818246,54.5 Z M50.4818246,44 C51.3102517,44 51.9818246,43.3284271 51.9818246,42.5 C51.9818246,41.6715729 51.3102517,41 50.4818246,41 C49.6533975,41 48.9818246,41.6715729 48.9818246,42.5 C48.9818246,43.3284271 49.6533975,44 50.4818246,44 Z M56.4818246,44 C57.3102517,44 57.9818246,43.3284271 57.9818246,42.5 C57.9818246,41.6715729 57.3102517,41 56.4818246,41 C55.6533975,41 54.9818246,41.6715729 54.9818246,42.5 C54.9818246,43.3284271 55.6533975,44 56.4818246,44 Z M22.4818246,19 C21.6533975,19 20.9818246,19.6715729 20.9818246,20.5 C20.9818246,21.3284271 21.6533975,22 22.4818246,22 C23.3102517,22 23.9818246,21.3284271 23.9818246,20.5 C23.9818246,19.6715729 23.3102517,19 22.4818246,19 Z M16.4818246,19 C15.6533975,19 14.9818246,19.6715729 14.9818246,20.5 C14.9818246,21.3284271 15.6533975,22 16.4818246,22 C17.3102517,22 17.9818246,21.3284271 17.9818246,20.5 C17.9818246,19.6715729 17.3102517,19 16.4818246,19 Z"/>
  </g>
</svg>
