<?xml version="1.0" encoding="UTF-8" standalone="no"?>
<svg width="24px" height="39px" viewBox="0 0 24 39" version="1.1" xmlns="http://www.w3.org/2000/svg" xmlns:xlink="http://www.w3.org/1999/xlink">
    <!-- Generator: Sketch 42 (36781) - http://www.bohemiancoding.com/sketch -->
    <title>microphone</title>
    <desc>Created with Sketch.</desc>
    <defs></defs>
    <g id="Team-Page" stroke="none" stroke-width="1" fill="none" fill-rule="evenodd">
        <g id="Slack-Channel-V2" transform="translate(-311.000000, -1902.000000)" fill="#FFFFFF">
            <g id="Large-Copy" transform="translate(4.000000, 1618.000000)">
                <g id="microphone" transform="translate(307.000000, 284.000000)">
                    <path d="M20.1290323,14.625 L20.1290323,20.1290323 C20.1290323,23.9652641 16.9385032,27.2056452 13.1612903,27.2056452 L10.0645161,27.2056452 C6.28730323,27.2056452 3.09677419,23.9652641 3.09677419,20.1290323 L3.09677419,14.625 L0,14.625 L0,20.1290323 C0,25.6700202 4.60877419,30.3508065 10.0645161,30.3508065 L10.0645161,35.8548387 L3.48387097,35.8548387 L3.48387097,39 L19.7419355,39 L19.7419355,35.8548387 L13.1612903,35.8548387 L13.1612903,30.3508065 C18.6170323,30.3508065 23.2258065,25.6700202 23.2258065,20.1290323 L23.2258065,14.625 L20.1290323,14.625 Z" id="Fill-1"></path>
                    <path d="M10.1,24.375 L13.1,24.375 C15.24305,24.375 17.145875,22.6670742 17.526875,20.5664062 L13.06925,20.5664062 L13.06925,19.0429687 L17.6,19.0429687 L17.6,17.5195312 L13.06925,17.5195312 L13.06925,15.9960937 L17.6,15.9960937 L17.6,14.4726562 L13.06925,14.4726562 L13.06925,12.9492187 L17.6,12.9492187 L17.6,11.4257812 L13.06925,11.4257812 L13.06925,9.90234375 L17.6,9.90234375 L17.6,8.37890625 L13.06925,8.37890625 L13.06925,6.85546875 L17.6,6.85546875 L17.6,5.33203125 L13.06925,5.33203125 L13.06925,3.80859375 L17.526875,3.80859375 C17.146025,1.70792578 15.2432,0 13.1,0 L10.1,0 C7.7020625,0 5.6,2.13490723 5.6,4.5703125 L5.6,19.8046875 C5.6,22.2400928 7.7020625,24.375 10.1,24.375 Z" id="Fill-2"></path>
                </g>
            </g>
        </g>
    </g>
</svg>