<svg width="60" height="60" viewBox="0 0 60 60">
  <g fill="none" fill-rule="evenodd">
    <path fill="#999" d="M25.7142857,55.3724781 L25.7142857,49.726497 L26.5714286,49.726497 L26.5714286,44.5822574 C26.5714286,43.2960231 25.2283207,42.0101377 23.1428571,42.0101377 C21.9145365,42.0101377 20.5714286,43.2960231 20.5714286,44.5822574 L20.5714286,49.726497 L21.4285714,49.726497 L21.4285714,54.2645247 C20.7065474,54.0092572 19.9993238,53.7226498 19.3085343,53.4063364 C19.5619036,53.107525 19.7147465,52.720851 19.7147465,52.2986168 C19.7147465,51.3521322 18.946739,50.584331 18,50.584331 C17.222202,50.584331 16.5650391,51.1025603 16.3552713,51.8123469 C16.3118388,51.785097 16.2684935,51.7577209 16.2252359,51.7302191 C15.9696673,50.5834796 14.9552144,49.7271882 13.7153225,49.7271882 L13.4901402,49.7271882 C13.1584466,49.4490497 12.8338737,49.1626934 12.5167345,48.8684325 L13.7153225,48.8684325 C15.1299294,48.8684325 16.2510873,47.7538159 16.2865757,46.3649169 C16.3222663,47.2799449 17.0760107,48.0112897 18,48.0112897 C18.946739,48.0112897 19.7147465,47.2434885 19.7147465,46.2970039 C19.7147465,45.3505194 18.946739,44.5827182 18,44.5827182 C17.0760107,44.5827182 16.3222663,45.314063 16.2865757,46.229091 C16.2510873,44.840192 15.1299294,43.7255754 13.7153225,43.7255754 L9.42845623,43.7255754 L9.42845623,44.5827182 L8.8102084,44.5827182 C8.24248926,43.7585174 7.72158777,42.8995563 7.25134481,42.0096769 L9.42845623,42.0096769 L9.42845623,42.8668197 L13.7153225,42.8668197 C15.1299294,42.8668197 16.2510873,41.7522031 16.2865757,40.3633041 C16.3222663,41.2783321 17.0760107,42.0096769 18,42.0096769 C18.946739,42.0096769 19.7147465,41.2418757 19.7147465,40.2953911 C19.7147465,39.3489066 18.946739,38.5811054 18,38.5811054 C17.0760107,38.5811054 16.3222663,39.3124502 16.2865757,40.2274782 C16.2510873,38.8385792 15.1299294,37.7239626 13.7153225,37.7239626 L9.42845623,37.7239626 L9.42845623,38.5811054 L5.7490689,38.5811054 C5.3578614,37.4740476 5.04027271,36.332203 4.80218675,35.1614573 L12.9124645,35.1614573 L12.9124645,36.8648612 L19.9474871,36.8648612 C22.153822,36.8654267 23.9484385,35.1897197 24.0015545,33.1031938 C24.0519901,34.2424526 24.9914807,35.1505756 26.1428571,35.1505756 C27.3267485,35.1505756 28.2862903,34.1912916 28.2862903,33.0077184 C28.2862903,31.8241453 27.3267485,30.8648613 26.1428571,30.8648613 C24.9910985,30.8648613 24.0516763,31.7727789 24.0015299,32.9118566 C23.9478878,30.8257768 22.1534835,29.1505756 19.9474871,29.1505756 L12.9124645,29.1505756 L12.9124645,30.8663832 L4.29979962,30.8663832 C4.29043381,30.5810443 4.28571429,30.2945295 4.28571429,30.006912 C4.28571429,29.1386261 4.32872665,28.280389 4.41273638,27.4342163 L10.2855991,27.4342163 L10.2855991,28.2913591 L15.4298386,28.2913591 C16.716073,28.2913591 18.0019584,26.9482512 18.0019584,25.7199305 C18.0019584,23.634467 16.716073,22.2913591 15.4298386,22.2913591 L10.2855991,22.2913591 L10.2855991,23.148502 L5.20995431,23.148502 C5.37169494,22.5622725 5.55366184,21.9844366 5.75505685,21.4157926 C5.83505878,21.4272506 5.91683969,21.4331795 6,21.4331795 C6.94648455,21.4331795 7.71428571,20.6651719 7.71428571,19.7184329 C7.71428571,19.1723253 7.45881285,18.6856875 7.06093679,18.3716196 C7.20724049,18.0835979 7.3588064,17.7987008 7.51550792,17.5170548 C8.06485227,17.1214781 8.44898143,16.5163581 8.54688646,15.8209586 C8.82863941,15.3954964 9.12270377,14.9789027 9.42857143,14.5716858 L9.42857143,15.4687426 C9.42857143,16.8691577 10.5797023,18.0036864 12,18.0036864 C13.4202977,18.0036864 14.5714286,16.8691577 14.5714286,15.4693442 L14.5714286,11.1447004 L13.6912956,11.1447004 L13.6912956,10.1196839 C14.5218623,9.43740611 15.395929,8.80616821 16.3087044,8.23076308 L16.3087044,11.1440988 L15.4285714,11.1440988 L15.4285714,15.4687426 C15.4285714,16.8691577 16.5797023,18.0036864 18,18.0036864 C19.4202977,18.0036864 20.5714286,16.8691577 20.5714286,15.4693442 L20.5714286,11.1447004 L19.6912956,11.1447004 L19.6912956,6.4360036 C21.0653392,5.83388982 22.5021226,5.3484639 23.9891183,4.99225677 L23.9891183,12.914999 L22.2857144,12.914999 L22.2857144,19.9500215 C22.2851403,22.1898095 24.0120564,24.0052992 26.1425702,24.0052992 C28.2730839,24.0052992 30,22.1898095 30,19.9500215 L30,12.914999 L28.2841924,12.914999 L28.2841924,4.34206603 C28.8513026,4.30469507 29.4234353,4.28571429 30,4.28571429 C30.5760489,4.28571429 31.1476738,4.30466113 31.7142857,4.34196578 L31.7142857,10.2873271 L30.8571429,10.2873271 L30.8571429,15.4315666 C30.8571429,16.717801 32.2002508,18.0036864 33.4285714,18.0036864 C35.514035,18.0036864 36.8571429,16.717801 36.8571429,15.4315666 L36.8571429,10.2873271 L36,10.2873271 L36,4.9896526 C37.1205184,5.25755157 38.2125514,5.59881806 39.2707414,6.00809293 C38.3979299,6.08779131 37.7138249,6.82191794 37.7138249,7.71520732 C37.7138249,8.66169187 38.4818325,9.42949303 39.4285714,9.42949303 C40.3525607,9.42949303 41.1063051,8.69814827 41.1419957,7.78312025 C41.1774842,9.17201923 42.298642,10.2866359 43.7132489,10.2866359 L46.5098598,10.2866359 C46.8415534,10.5647744 47.1661263,10.8511306 47.4832655,11.1453916 L43.7132489,11.1453916 C42.298642,11.1453916 41.1774842,12.2600082 41.1419957,13.6489072 C41.1063051,12.7338792 40.3525607,12.0025344 39.4285714,12.0025344 C38.4818325,12.0025344 37.7138249,12.7703356 37.7138249,13.7168201 C37.7138249,14.6633047 38.4818325,15.4311058 39.4285714,15.4311058 C40.3525607,15.4311058 41.1063051,14.6997611 41.1419957,13.7847331 C41.1774842,15.173632 42.298642,16.2882487 43.7132489,16.2882487 L48.0001152,16.2882487 L48.0001152,15.4311058 L51.1897916,15.4311058 C51.7575107,16.2553067 52.2784122,17.1142678 52.7486552,18.0041472 L48.0001152,18.0041472 L48.0001152,17.1470044 L43.7132489,17.1470044 C42.298642,17.1470044 41.1774842,18.261621 41.1419957,19.65052 C41.1063051,18.735492 40.3525607,18.0041472 39.4285714,18.0041472 C38.4818325,18.0041472 37.7138249,18.7719484 37.7138249,19.7184329 C37.7138249,20.6649175 38.4818325,21.4327187 39.4285714,21.4327187 C40.3525607,21.4327187 41.1063051,20.7013739 41.1419957,19.7863459 C41.1774842,21.1752449 42.298642,22.2898615 43.7132489,22.2898615 L48.0001152,22.2898615 L48.0001152,21.4327187 L54.001728,21.4327187 L54.001728,20.7579239 C55.1078769,23.628116 55.7142857,26.7466778 55.7142857,30.006912 C55.7142857,33.1321574 55.1570536,36.1272192 54.1365494,38.8981123 C53.8562072,38.6982354 53.5132114,38.5806446 53.1428571,38.5806446 C52.1963726,38.5806446 51.4285714,39.3486522 51.4285714,40.2953911 C51.4285714,41.1140146 52.0026305,41.7990065 52.76989,41.969406 C52.7570737,41.9937639 52.7442194,42.0180989 52.7313273,42.0424106 C51.5066959,42.2365096 50.5714286,43.2827823 50.5714286,44.5450815 L50.5714286,45.4421383 C50.2952151,45.8098751 50.0093761,46.1699651 49.7142857,46.5220342 L49.7142857,44.5444799 C49.7142857,43.1446664 48.5631549,42.0101377 47.1428571,42.0101377 C45.7225594,42.0101377 44.5714286,43.1446664 44.5714286,44.5450815 L44.5714286,48.8697253 L45.4515615,48.8697253 L45.4515615,50.5684608 C44.617113,51.196864 43.7431839,51.7756241 42.8341598,52.3003542 L42.8341528,48.8691237 L43.7142857,48.8691237 L43.7142857,44.5444799 C43.7142857,43.1446664 42.5631549,42.0101377 41.1428571,42.0101377 C39.7225594,42.0101377 38.5714286,43.1446664 38.5714286,44.5450815 L38.5714286,48.8697253 L39.4515615,48.8697253 L39.4515615,53.935004 C37.5445464,54.6892996 35.5258071,55.2220938 33.4270495,55.5016722 L33.4270495,47.0988251 L35.1428571,47.0988251 L35.1428571,40.0638025 C35.1428571,37.8240145 33.4159411,36.0085248 31.2854273,36.0085248 C29.1549135,36.0085248 27.4279975,37.8240145 27.4285716,40.0638025 L27.4285716,47.0988251 L29.1319754,47.0988251 L29.1319754,55.7137307 C27.9716364,55.6752325 26.8307631,55.5598378 25.7142857,55.3724781 Z M24,55.0241715 C23.7123787,54.9554056 23.4266342,54.8818057 23.1428571,54.8034624 L23.1428571,49.726497 L24,49.726497 L24,55.0241715 Z M4.80006979,24.8627877 L10.2855991,24.8627877 L10.2855991,25.7199305 L4.64126978,25.7199305 C4.6894677,25.4325726 4.74242903,25.1468303 4.80006979,24.8627877 Z M33.4285714,4.51235462 C33.7158119,4.55063578 34.0015532,4.59366002 34.2857143,4.64134603 L34.2857143,10.2873271 L33.4285714,10.2873271 L33.4285714,4.51235462 Z M4.51307981,33.4423014 C4.47621682,33.1660415 4.44373778,32.8883947 4.41571497,32.6094331 L12.9124645,32.6094331 L12.9124645,33.4423014 L4.51307981,33.4423014 Z M34.2841598,27.101581 C34.3372758,29.1881069 36.1318922,30.8638139 38.3382272,30.8632483 L45.3732497,30.8632483 L45.3732497,29.1598445 L54.8599077,29.1598445 L54.8599077,27.4406886 L45.3732497,27.4406886 L45.3732497,26.6078203 L54.8599077,26.6078203 L54.8599077,24.8647704 L45.3732497,24.8647704 L45.3732497,23.1489628 L38.3382272,23.1489628 C36.1322308,23.1489628 34.3378265,24.824164 34.2841844,26.9102438 C34.234038,25.7711661 33.2946158,24.8632485 32.1428571,24.8632485 C30.9589658,24.8632485 29.999424,25.8225325 29.999424,27.0061056 C29.999424,28.1896788 30.9589658,29.1489628 32.1428571,29.1489628 C33.2942336,29.1489628 34.2337242,28.2408398 34.2841598,27.101581 Z M30.8511313,55.7142857 L30.8511313,47.0988251 L31.6839996,47.0988251 L31.6839996,55.6738345 C31.4075442,55.6917109 31.1298986,55.7052175 30.8511313,55.7142857 Z M25.7082741,4.64235558 C25.9844285,4.59594567 26.2620761,4.55393868 26.5411425,4.51640924 L26.5411425,12.914999 L25.7082741,12.914999 L25.7082741,4.64235558 Z M46.2688485,49.9268137 L46.2688485,48.8697253 L47.4823267,48.8693036 C47.0890641,49.2341601 46.6843724,49.5868625 46.2688485,49.9268137 Z M9.4268612,45.4398611 L9.42845623,45.4398611 L9.42845623,45.4419849 C9.42792452,45.441277 9.42739284,45.4405691 9.4268612,45.4398611 Z M6.06935097,39.4382483 L9.42845623,39.4382483 L9.42845623,41.152534 L6.8187344,41.152534 C6.54892505,40.5920913 6.29883064,40.0203628 6.06935097,39.4382483 Z M53.930649,20.5755758 L48.0001152,20.5755758 L48.0001152,18.8612901 L53.1812656,18.8612901 C53.4510749,19.4217327 53.7011694,19.9934613 53.930649,20.5755758 Z M50.5731388,14.573963 L48.0001152,14.573963 L48.0001152,12.8596773 L49.1668334,12.8596773 C49.6594844,13.4102717 50.1287725,13.98222 50.5731388,14.573963 Z M48.3641359,12.0025344 L48.0001152,12.0025344 L48.0001152,11.6384045 C48.1226593,11.7585704 48.2440061,11.8799536 48.3641359,12.0025344 Z M40.7650709,6.64133273 C40.9366113,6.7205394 41.1071311,6.80158052 41.2766054,6.88443095 C41.1955337,7.12468073 41.1488014,7.38094405 41.1419957,7.64729439 C41.1271699,7.26719274 40.9884394,6.91878678 40.7650709,6.64133273 Z M42,52.7614385 C41.4350856,53.0601339 40.8577073,53.3383974 40.2688485,53.5952451 L40.2688485,48.8697253 L42,48.8691237 L42,52.7614385 Z M18.8571429,6.81952623 L18.8571429,11.1447004 L17.1259914,11.1440988 L17.1259914,7.73652009 C17.6898343,7.40969558 18.2672348,7.10368081 18.8571429,6.81952623 Z M12.5176066,11.1445824 C12.6298588,11.0404376 12.7430422,10.9372831 12.8571429,10.8351328 L12.8571429,11.1447004 L12.5176066,11.1445824 Z M10.2857143,19.7184329 C10.2857143,20.6651719 11.0535155,21.4331795 12,21.4331795 C12.9464845,21.4331795 13.7142857,20.6651719 13.7142857,19.7184329 C13.7142857,18.771694 12.9464845,18.0036864 12,18.0036864 C11.0535155,18.0036864 10.2857143,18.771694 10.2857143,19.7184329 Z M16.2857143,19.7184329 C16.2857143,20.6651719 17.0535155,21.4331795 18,21.4331795 C18.9464845,21.4331795 19.7142857,20.6651719 19.7142857,19.7184329 C19.7142857,18.771694 18.9464845,18.0036864 18,18.0036864 C17.0535155,18.0036864 16.2857143,18.771694 16.2857143,19.7184329 Z M39.4285714,40.2953911 C39.4285714,41.2421301 40.1963726,42.0101377 41.1428571,42.0101377 C42.0893417,42.0101377 42.8571429,41.2421301 42.8571429,40.2953911 C42.8571429,39.3486522 42.0893417,38.5806446 41.1428571,38.5806446 C40.1963726,38.5806446 39.4285714,39.3486522 39.4285714,40.2953911 Z M45.4285714,40.2953911 C45.4285714,41.2421301 46.1963726,42.0101377 47.1428571,42.0101377 C48.0893417,42.0101377 48.8571429,41.2421301 48.8571429,40.2953911 C48.8571429,39.3486522 48.0893417,38.5806446 47.1428571,38.5806446 C46.1963726,38.5806446 45.4285714,39.3486522 45.4285714,40.2953911 Z M24,26.1487324 C24,27.3326237 24.959284,28.2921655 26.1428571,28.2921655 C27.3264303,28.2921655 28.2857143,27.3326237 28.2857143,26.1487324 C28.2857143,24.964841 27.3264303,24.0052992 26.1428571,24.0052992 C24.959284,24.0058259 24,24.9653677 24,26.1487324 Z M29.1428571,33.8650917 C29.1428571,32.6812004 30.1021411,31.7216586 31.2857143,31.7216586 C32.4692875,31.7216586 33.4285714,32.6812004 33.4285714,33.8650917 C33.4285714,35.048983 32.4692875,36.0085248 31.2857143,36.0085248 C30.1021411,36.0079982 29.1428571,35.0484564 29.1428571,33.8650917 Z M31.7142857,20.1471196 C31.7142857,21.3310138 32.6735668,22.2905527 33.8571429,22.2905527 C35.0407189,22.2905527 36,21.3310138 36,20.1471196 C36,18.9632254 35.0407189,18.0036864 33.8571429,18.0036864 C32.6735668,18.0036864 31.7142857,18.9632254 31.7142857,20.1471196 Z M20.1428571,27.4342163 C21.3267513,27.4342163 22.2862903,26.4749352 22.2862903,25.2913591 C22.2862903,24.1077831 21.3267513,23.148502 20.1428571,23.148502 C18.9589629,23.148502 17.999424,24.1077831 17.999424,25.2913591 C17.999424,26.4749352 18.9589629,27.4342163 20.1428571,27.4342163 Z M38.5694702,35.1510364 C38.5694702,36.3793571 39.8553556,37.722465 41.1415899,37.722465 L46.2858295,37.722465 L46.2858295,36.8653221 L53.1448156,36.8653221 L53.1448156,35.1510364 L46.2858295,35.1510364 L46.2858295,34.2938935 L53.1448156,34.2938935 L53.1448156,32.5796078 L46.2858295,32.5796078 L46.2858295,31.722465 L41.1415899,31.722465 C39.8553556,31.722465 38.5694702,33.0655729 38.5694702,35.1510364 Z M36.4285714,36.8653221 C37.6124656,36.8653221 38.5720046,35.906041 38.5720046,34.722465 C38.5720046,33.5388889 37.6124656,32.5796078 36.4285714,32.5796078 C35.2446772,32.5796078 34.2851383,33.5388889 34.2851383,34.722465 C34.2851383,35.906041 35.2446772,36.8653221 36.4285714,36.8653221 Z M21.4285714,39.8667045 C21.4285714,41.0505987 22.3878525,42.0101377 23.5714286,42.0101377 C24.7550046,42.0101377 25.7142857,41.0505987 25.7142857,39.8667045 C25.7142857,38.6828103 24.7550046,37.7232714 23.5714286,37.7232714 C22.3878525,37.7232714 21.4285714,38.6828103 21.4285714,39.8667045 Z"/>
    <path fill="#C5C5C5" fill-rule="nonzero" d="M30,58.2857143 C45.6217686,58.2857143 58.2857143,45.6217686 58.2857143,30 C58.2857143,14.3782314 45.6217686,1.71428571 30,1.71428571 C14.3782314,1.71428571 1.71428571,14.3782314 1.71428571,30 C1.71428571,45.6217686 14.3782314,58.2857143 30,58.2857143 Z M30,60 C13.4314575,60 0,46.5685425 0,30 C0,13.4314575 13.4314575,0 30,0 C46.5685425,0 60,13.4314575 60,30 C60,46.5685425 46.5685425,60 30,60 Z"/>
  </g>
</svg>
