<svg width="53" height="53" viewBox="0 0 53 53" xmlns="http://www.w3.org/2000/svg">
  <title>
    People
  </title>
  <path d="M6.472 50.873H1.425v.996H-5.38v1.67h6.805V54H-5.38v1.68h6.805v.994h5.047c1.606 0 2.91-1.303 2.91-2.91 0-1.605-1.304-2.907-2.91-2.907zm5.28 1.147c-.972 0-1.76.79-1.76 1.76 0 .974.788 1.763 1.76 1.763.974 0 1.763-.79 1.763-1.762 0-.97-.79-1.76-1.762-1.76zm-5.28-8.556H1.425v.995H-5.38v1.67h6.805v.46H-5.38v1.68h6.805v.993h5.047c1.606 0 2.91-1.303 2.91-2.91 0-1.605-1.304-2.906-2.91-2.906zm5.28 1.146c-.972 0-1.76.79-1.76 1.76 0 .974.788 1.763 1.76 1.763.974 0 1.763-.79 1.763-1.762 0-.97-.79-1.76-1.762-1.76zm-5.28-8.556H1.425v.995H-5.38v1.67h6.805v.46H-5.38v1.68h6.805v.993h5.047c1.606 0 2.91-1.3 2.91-2.908s-1.304-2.91-2.91-2.91zm5.28 1.146c-.972 0-1.76.79-1.76 1.762s.788 1.76 1.76 1.76c.974 0 1.763-.788 1.763-1.76 0-.974-.79-1.762-1.762-1.762zm7.273 2.53c-1.847 0-3.344 1.495-3.344 3.342v5.798h1.15v7.82h1.93v-7.82h.54v7.82h1.93v-7.82h1.15v-5.798c0-1.847-1.493-3.343-3.34-3.343zM17 37.003c0 1.118.906 2.024 2.024 2.024 1.12 0 2.025-.906 2.025-2.024 0-1.12-.91-2.025-2.03-2.025-1.12 0-2.03.905-2.03 2.024zm1.16-7.626c0-2.56-2.078-4.637-4.64-4.637H5.472v1.588h-10.85v2.678H5.47v.744H-5.38v2.678H5.47v1.587h8.048c2.562 0 4.64-2.076 4.64-4.637zm3.78-2.81c-1.55 0-2.81 1.26-2.81 2.81 0 1.552 1.26 2.81 2.81 2.81 1.553 0 2.81-1.258 2.81-2.81 0-1.55-1.257-2.81-2.81-2.81zM-2.47 9.377C-.864 9.377.438 8.075.438 6.47V1.423h-.995V-5.38h-1.68v6.803h-.467V-5.38h-1.68v6.803h-.995v5.045c0 1.606 1.31 2.908 2.91 2.908zm-1.763 2.37c0 .973.79 1.762 1.762 1.762s1.76-.79 1.76-1.76c0-.98-.79-1.77-1.76-1.77-.98 0-1.77.79-1.77 1.76zm9.175-2.37c1.606 0 2.91-1.302 2.91-2.908V1.42h-.997v-6.8h-1.68v6.803h-.467V-5.38h-1.68v6.803h-.995v5.045c0 1.606 1.302 2.908 2.91 2.908zm-1.762 2.37c0 .973.79 1.762 1.762 1.762.973 0 1.762-.79 1.762-1.76 0-.98-.79-1.77-1.762-1.77-.973 0-1.762.79-1.762 1.76zm9.174-2.37c1.607 0 2.91-1.302 2.91-2.908V1.42h-.997v-6.8h-1.68v6.803h-.466V-5.38h-1.68v6.803h-.99v5.045c0 1.606 1.31 2.908 2.91 2.908zm1.762 2.37c0-.972-.79-1.76-1.762-1.76-.973 0-1.762.788-1.762 1.76 0 .973.79 1.762 1.762 1.762.974 0 1.762-.79 1.762-1.76zM2.442 22.36h5.8c1.848 0 3.344-1.497 3.344-3.343 0-1.847-1.496-3.343-3.343-3.343h-5.8v1.144H-5.38v1.93h7.822v.536h-7.82v1.93h7.82v1.145zm9.846-3.343c0 1.118.906 2.024 2.025 2.024 1.118 0 2.025-.9 2.025-2.02S15.43 17 14.313 17c-1.12 0-2.025.907-2.025 2.025zm9.653-.866c2.57 0 4.64-2.07 4.64-4.63V5.47H25V-5.38h-2.68V5.47h-.744V-5.38h-2.68V5.47H17.31v8.044c0 2.56 2.076 4.637 4.638 4.637zm-2.81 3.79c0 1.55 1.26 2.81 2.81 2.81 1.56 0 2.81-1.26 2.81-2.81s-1.25-2.81-2.81-2.81c-1.55 0-2.81 1.26-2.81 2.81zM56.69-2.7v-1.68h-6.8v-.994h-5.05c-1.608 0-2.91 1.304-2.91 2.91S43.23.44 44.837.44h5.046v-1h6.805v-1.678h-6.81v-.467h6.805zM39.56-.71c.973 0 1.762-.788 1.762-1.76 0-.973-.79-1.762-1.764-1.762-.973 0-1.762.79-1.762 1.76 0 .974.79 1.762 1.762 1.762zm10.327 2.74H44.84c-1.608 0-2.91 1.303-2.91 2.91 0 1.605 1.302 2.907 2.91 2.907h5.045V6.85h6.805V5.173h-6.807v-.466h6.805v-1.68H49.88V2.03zM39.557 6.7c.973 0 1.762-.79 1.762-1.76 0-.974-.79-1.762-1.77-1.762s-1.76.788-1.76 1.76c0 .973.79 1.762 1.76 1.762zm10.327 2.74h-5.046c-1.607 0-2.91 1.303-2.91 2.91 0 1.605 1.303 2.907 2.91 2.907h5.046v-.996h6.805v-1.67h-6.81v-.46h6.8v-1.68h-6.8v-1zm-10.327 4.67c.973 0 1.762-.79 1.762-1.76 0-.974-.79-1.763-1.77-1.763s-1.76.79-1.76 1.762c0 .97.79 1.76 1.76 1.76zm-7.272-2.53c1.846 0 3.343-1.495 3.343-3.34v-5.8h-1.144v-7.82h-1.93v7.82h-.537v-7.82h-1.93v7.82H28.94v5.798c0 1.847 1.496 3.343 3.343 3.343zm-2.025 2.727c0 1.118.906 2.024 2.025 2.024 1.118 0 2.025-.9 2.025-2.02s-.907-2.02-2.025-2.02c-1.12 0-2.025.91-2.025 2.03zm15.578 2.988H37.79c-2.562 0-4.64 2.076-4.64 4.638 0 2.56 2.078 4.637 4.64 4.637h8.048v-1.587H56.69v-2.678H45.838v-.744H56.69v-2.67H45.838V17.3zm-16.47 7.446c1.552 0 2.81-1.25 2.81-2.8s-1.258-2.81-2.81-2.81-2.81 1.26-2.81 2.81 1.26 2.81 2.81 2.81zm24.412 17.2c-1.606 0-2.91 1.31-2.91 2.91v5.05h.997v6.8h1.68v-6.8h.467v6.8h1.68v-6.81h.995v-5.05c0-1.6-1.31-2.902-2.91-2.902zm1.762-2.37c0-.97-.79-1.76-1.762-1.76-.973 0-1.762.79-1.762 1.77 0 .974.79 1.76 1.762 1.76.973 0 1.762-.785 1.762-1.76zm-9.174 2.37c-1.607 0-2.91 1.31-2.91 2.91v5.05h.997v6.8h1.68v-6.8h.466v6.8h1.68v-6.81h1v-5.05c0-1.6-1.3-2.902-2.91-2.902zm1.762-2.37c0-.97-.79-1.76-1.762-1.76-.973 0-1.762.79-1.762 1.77 0 .974.79 1.76 1.762 1.76.973 0 1.762-.785 1.762-1.76zm-9.175 2.37c-1.606 0-2.908 1.31-2.908 2.91v5.05h.995v6.8h1.68v-6.8h.467v6.8h1.68v-6.81h.99v-5.05c0-1.6-1.3-2.902-2.91-2.902zm-1.76-2.37c0 .97.788 1.76 1.76 1.76.973 0 1.762-.79 1.762-1.76s-.79-1.76-1.762-1.76c-.973 0-1.76.79-1.76 1.77zm11.67-10.61h-5.8c-1.846 0-3.343 1.5-3.343 3.35s1.497 3.344 3.344 3.344h5.8V34.5h7.822v-1.93h-7.823v-.537h7.822V30.1h-7.823v-1.15zM39.02 32.3c0-1.118-.902-2.025-2.02-2.025-1.12 0-2.025.905-2.025 2.023S35.88 34.32 37 34.32c1.117 0 2.024-.907 2.024-2.025zm-9.65.865c-2.56 0-4.64 2.074-4.64 4.636v8.05h1.59V56.7H29V45.84h.745v10.85h2.68V45.84h1.587v-8.043c0-2.562-2.078-4.638-4.64-4.638zm2.81-3.783c0 1.55-1.26 2.81-2.81 2.81s-2.81-1.26-2.81-2.81 1.26-2.81 2.81-2.81 2.81 1.26 2.81 2.81z" fill="#666" fill-rule="evenodd"/>
</svg>
