<?xml version="1.0" encoding="UTF-8" standalone="no"?>
<svg width="60px" height="60px" viewBox="0 0 60 60" version="1.1" xmlns="http://www.w3.org/2000/svg" xmlns:xlink="http://www.w3.org/1999/xlink">
    <!-- Generator: Sketch 41.2 (35397) - http://www.bohemiancoding.com/sketch -->
    <title>Group 3</title>
    <desc>Created with Sketch.</desc>
    <defs>
        <circle id="path-1" cx="32" cy="32" r="30"></circle>
        <mask id="mask-2" maskContentUnits="userSpaceOnUse" maskUnits="objectBoundingBox" x="0" y="0" width="60" height="60" fill="white">
            <use xlink:href="#path-1"></use>
        </mask>
    </defs>
    <g id="Page-1" stroke="none" stroke-width="1" fill="none" fill-rule="evenodd">
        <g id="Bio" transform="translate(-242.000000, -535.000000)">
            <g id="Icons" transform="translate(240.000000, 533.000000)">
                <g id="Group-3">
                    <use id="174" stroke="#666666" mask="url(#mask-2)" stroke-width="4" opacity="0.4" xlink:href="#path-1"></use>
                    <g id="People" transform="translate(0.413793, 0.413793)" fill="#666666">
                        <path d="M12.0579955,56.4596789 L7.01169882,56.4596789 L7.01169882,57.4549246 L0.206896552,57.4549246 L0.206896552,59.1341431 L7.01169882,59.1341431 L7.01169882,59.6007077 L0.206896552,59.6007077 L0.206896552,61.2799261 L7.01169882,61.2799261 L7.01169882,62.2751719 L12.0579955,62.2751719 C13.6646082,62.2751719 14.9667447,60.9734843 14.9667447,59.3674254 C14.9667447,57.7613665 13.6646082,56.4596789 12.0579955,56.4596789 L12.0579955,56.4596789 Z M17.3390357,57.606075 C16.3662307,57.606075 15.577078,58.3949557 15.577078,59.3674254 C15.577078,60.3398951 16.3662307,61.1287757 17.3390357,61.1287757 C18.3118407,61.1287757 19.1009934,60.3398951 19.1009934,59.3674254 C19.1009934,58.3949557 18.3118407,57.606075 17.3390357,57.606075 L17.3390357,57.606075 Z M12.0579955,49.0498601 L7.01169882,49.0498601 L7.01169882,50.0451058 L0.206896552,50.0451058 L0.206896552,51.7243243 L7.01169882,51.7243243 L7.01169882,52.1908889 L0.206896552,52.1908889 L0.206896552,53.8701073 L7.01169882,53.8701073 L7.01169882,54.8653531 L12.0579955,54.8653531 C13.6646082,54.8653531 14.9667447,53.5636655 14.9667447,51.9576066 C14.9667447,50.3515477 13.6646082,49.0498601 12.0579955,49.0498601 L12.0579955,49.0498601 Z M17.3390357,50.1962562 C16.3662307,50.1962562 15.577078,50.9851369 15.577078,51.9576066 C15.577078,52.9300763 16.3662307,53.7189569 17.3390357,53.7189569 C18.3118407,53.7189569 19.1009934,52.9300763 19.1009934,51.9576066 C19.1009934,50.9851369 18.3118407,50.1962562 17.3390357,50.1962562 L17.3390357,50.1962562 Z M12.0579955,41.6400413 L7.01169882,41.6400413 L7.01169882,42.6352871 L0.206896552,42.6352871 L0.206896552,44.3145055 L7.01169882,44.3145055 L7.01169882,44.7810701 L0.206896552,44.7810701 L0.206896552,46.4602885 L7.01169882,46.4602885 L7.01169882,47.4555343 L12.0579955,47.4555343 C13.6646082,47.4555343 14.9667447,46.1538467 14.9667447,44.5477878 C14.9667447,42.9417289 13.6646082,41.6400413 12.0579955,41.6400413 L12.0579955,41.6400413 Z M17.3390357,42.7864374 C16.3662307,42.7864374 15.577078,43.5753181 15.577078,44.5477878 C15.577078,45.5202575 16.3662307,46.3091382 17.3390357,46.3091382 C18.3118407,46.3091382 19.1009934,45.5202575 19.1009934,44.5477878 C19.1009934,43.5746279 18.3118407,42.7864374 17.3390357,42.7864374 L17.3390357,42.7864374 Z M24.6112539,45.3152727 C22.7643742,45.3152727 21.2675386,46.8115923 21.2675386,48.6578354 L21.2675386,54.4560738 L22.4115684,54.4560738 L22.4115684,62.2751719 L24.3426796,62.2751719 L24.3426796,54.4560738 L24.8791377,54.4560738 L24.8791377,62.2751719 L26.8102489,62.2751719 L26.8102489,54.4560738 L27.9542787,54.4560738 L27.9542787,48.6578354 C27.9542787,46.8115923 26.4574431,45.3152727 24.6112539,45.3152727 L24.6112539,45.3152727 Z M22.5855548,42.5897349 C22.5855548,43.7078335 23.4920793,44.6140455 24.6105635,44.6140455 C25.7290476,44.6140455 26.6355721,43.7078335 26.6355721,42.5897349 C26.6355721,41.4716363 25.7290476,40.5654243 24.6105635,40.5654243 C23.4920793,40.5654243 22.5855548,41.4716363 22.5855548,42.5897349 L22.5855548,42.5897349 Z M23.7447739,34.9645786 C23.7447739,32.4033046 21.6679836,30.3272302 19.1058264,30.3272302 L11.058264,30.3272302 L11.058264,31.9139639 L0.206896552,31.9139639 L0.206896552,34.5918791 L11.0589544,34.5918791 L11.0589544,35.3365879 L0.206896552,35.3365879 L0.206896552,38.0145031 L11.0589544,38.0145031 L11.0589544,39.6012368 L19.1058264,39.6012368 C21.6679836,39.6012368 23.7447739,37.5251624 23.7447739,34.9645786 L23.7447739,34.9645786 Z M27.5275977,32.1555284 C25.9755284,32.1555284 24.7175789,33.4130443 24.7175789,34.9645786 C24.7175789,36.5161129 25.9755284,37.7736287 27.5275977,37.7736287 C29.0796671,37.7736287 30.3376165,36.5161129 30.3376165,34.9645786 C30.3376165,33.4130443 29.0789766,32.1555284 27.5275977,32.1555284 L27.5275977,32.1555284 Z M3.11564574,14.962347 C4.72225845,14.962347 6.02439492,13.6606594 6.02439492,12.0546005 L6.02439492,7.01004333 L5.02880595,7.01004333 L5.02880595,0.206896552 L3.34900848,0.206896552 L3.34900848,7.00935315 L2.882283,7.00935315 L2.882283,0.206896552 L1.20248552,0.206896552 L1.20248552,7.00935315 L0.206896552,7.00935315 L0.206896552,12.0539103 C0.206896552,13.6606594 1.50903303,14.962347 3.11564574,14.962347 L3.11564574,14.962347 Z M1.35368801,17.3331301 C1.35368801,18.3055998 2.1428407,19.0944805 3.11564574,19.0944805 C4.08845077,19.0944805 4.87760347,18.3055998 4.87760347,17.3331301 C4.87760347,16.3606604 4.08845077,15.5717797 3.11564574,15.5717797 C2.1428407,15.5717797 1.35368801,16.3606604 1.35368801,17.3331301 L1.35368801,17.3331301 Z M10.5280196,14.962347 C12.1346324,14.962347 13.4367688,13.6606594 13.4367688,12.0546005 L13.4367688,7.01004333 L12.4411799,7.01004333 L12.4411799,0.206896552 L10.7613824,0.206896552 L10.7613824,7.00935315 L10.2946569,7.00935315 L10.2946569,0.206896552 L8.61485942,0.206896552 L8.61485942,7.00935315 L7.61927045,7.00935315 L7.61927045,12.0539103 C7.61927045,13.6606594 8.92140693,14.962347 10.5280196,14.962347 L10.5280196,14.962347 Z M8.76606191,17.3331301 C8.76606191,18.3055998 9.55521461,19.0944805 10.5280196,19.0944805 C11.5008247,19.0944805 12.2899774,18.3055998 12.2899774,17.3331301 C12.2899774,16.3606604 11.5008247,15.5717797 10.5280196,15.5717797 C9.55521461,15.5717797 8.76606191,16.3606604 8.76606191,17.3331301 L8.76606191,17.3331301 Z M17.9403935,14.962347 C19.5470063,14.962347 20.8491427,13.6606594 20.8491427,12.0546005 L20.8491427,7.01004333 L19.8535538,7.01004333 L19.8535538,0.206896552 L18.1737563,0.206896552 L18.1737563,7.00935315 L17.7070308,7.00935315 L17.7070308,0.206896552 L16.0272333,0.206896552 L16.0272333,7.00935315 L15.0316444,7.00935315 L15.0316444,12.0539103 C15.0316444,13.6606594 16.3337808,14.962347 17.9403935,14.962347 L17.9403935,14.962347 Z M19.7023513,17.3331301 C19.7023513,16.3606604 18.9131986,15.5717797 17.9403935,15.5717797 C16.9675885,15.5717797 16.1784358,16.3606604 16.1784358,17.3331301 C16.1784358,18.3055998 16.9675885,19.0944805 17.9403935,19.0944805 C18.913889,19.0944805 19.7023513,18.30629 19.7023513,17.3331301 L19.7023513,17.3331301 Z M8.02869088,27.9454041 L13.8289287,27.9454041 C15.6758084,27.9454041 17.1726439,26.4490845 17.1726439,24.6028415 C17.1726439,22.7565984 15.6758084,21.2602789 13.8289287,21.2602789 L8.02869088,21.2602789 L8.02869088,22.4039143 L0.206896552,22.4039143 L0.206896552,24.3343598 L8.02869088,24.3343598 L8.02869088,24.870633 L0.206896552,24.870633 L0.206896552,26.8010785 L8.02869088,26.8010785 L8.02869088,27.9454041 Z M17.874113,24.6028415 C17.874113,25.7209401 18.7806375,26.6271521 19.8991216,26.6271521 C21.0176058,26.6271521 21.9241303,25.7209401 21.9241303,24.6028415 C21.9241303,23.4847429 21.0176058,22.5785309 19.8991216,22.5785309 C18.7806375,22.5785309 17.874113,23.4847429 17.874113,24.6028415 L17.874113,24.6028415 Z M27.5275977,23.7373504 C30.0897549,23.7373504 32.1665452,21.6612759 32.1665452,19.100002 L32.1665452,11.0552136 L30.5792643,11.0552136 L30.5792643,0.206896552 L27.9004258,0.206896552 L27.9004258,11.0552136 L27.1554601,11.0552136 L27.1554601,0.206896552 L24.4766215,0.206896552 L24.4766215,11.0552136 L22.8893406,11.0552136 L22.8893406,19.100002 C22.8886502,21.6612759 24.9654405,23.7373504 27.5275977,23.7373504 L27.5275977,23.7373504 Z M24.7175789,27.51818 C24.7175789,29.0697144 25.9755284,30.3272302 27.5275977,30.3272302 C29.0796671,30.3272302 30.3376165,29.0697144 30.3376165,27.51818 C30.3376165,25.9666457 29.0796671,24.7091299 27.5275977,24.7091299 C25.9755284,24.7098201 24.7175789,25.9673359 24.7175789,27.51818 L24.7175789,27.51818 Z M62.2751716,2.88136077 L62.2751716,1.20214233 L55.4703694,1.20214233 L55.4703694,0.206896552 L50.4240727,0.206896552 C48.81746,0.206896552 47.5153235,1.50858417 47.5153235,3.11464307 C47.5153235,4.72070196 48.81746,6.02238958 50.4240727,6.02238958 L55.4703694,6.02238958 L55.4703694,5.0271438 L62.2751716,5.0271438 L62.2751716,3.34861555 L55.4703694,3.34861555 L55.4703694,2.88136077 L62.2751716,2.88136077 Z M45.1430325,4.87668362 C46.1158375,4.87668362 46.9049902,4.08780295 46.9049902,3.11533325 C46.9049902,2.14286355 46.1158375,1.35398288 45.1430325,1.35398288 C44.1702275,1.35398288 43.3810748,2.14286355 43.3810748,3.11533325 C43.3810748,4.08780295 44.1702275,4.87668362 45.1430325,4.87668362 L45.1430325,4.87668362 Z M55.4703694,7.61740553 L50.4240727,7.61740553 C48.81746,7.61740553 47.5153235,8.91909314 47.5153235,10.525152 C47.5153235,12.1312109 48.81746,13.4328986 50.4240727,13.4328986 L55.4703694,13.4328986 L55.4703694,12.4376528 L62.2751716,12.4376528 L62.2751716,10.7584343 L55.4703694,10.7584343 L55.4703694,10.2918697 L62.2751716,10.2918697 L62.2751716,8.61265131 L55.4703694,8.61265131 L55.4703694,7.61740553 Z M45.1430325,12.2865024 C46.1158375,12.2865024 46.9049902,11.4976217 46.9049902,10.525152 C46.9049902,9.55268234 46.1158375,8.76380167 45.1430325,8.76380167 C44.1702275,8.76380167 43.3810748,9.55268234 43.3810748,10.525152 C43.3810748,11.4976217 44.1702275,12.2865024 45.1430325,12.2865024 L45.1430325,12.2865024 Z M55.4703694,15.0272243 L50.4240727,15.0272243 C48.81746,15.0272243 47.5153235,16.3289119 47.5153235,17.9349708 C47.5153235,19.5410297 48.81746,20.8427173 50.4240727,20.8427173 L55.4703694,20.8427173 L55.4703694,19.8474716 L62.2751716,19.8474716 L62.2751716,18.1682531 L55.4703694,18.1682531 L55.4703694,17.7016885 L62.2751716,17.7016885 L62.2751716,16.0224701 L55.4703694,16.0224701 L55.4703694,15.0272243 Z M45.1430325,19.6963212 C46.1158375,19.6963212 46.9049902,18.9074405 46.9049902,17.9349708 C46.9049902,16.9625011 46.1158375,16.1736205 45.1430325,16.1736205 C44.1702275,16.1736205 43.3810748,16.9625011 43.3810748,17.9349708 C43.3810748,18.9074405 44.1702275,19.6963212 45.1430325,19.6963212 L45.1430325,19.6963212 Z M37.8708143,17.1674859 C39.717694,17.1674859 41.2145296,15.6711663 41.2145296,13.8249232 L41.2145296,8.02668483 L40.0704998,8.02668483 L40.0704998,0.206896552 L38.1393886,0.206896552 L38.1393886,8.02599464 L37.6029305,8.02599464 L37.6029305,0.206896552 L35.6718193,0.206896552 L35.6718193,8.02599464 L34.5277895,8.02599464 L34.5277895,13.8242331 C34.5277895,15.6711663 36.0246251,17.1674859 37.8708143,17.1674859 L37.8708143,17.1674859 Z M35.8458057,19.8930237 C35.8458057,21.0111223 36.7523302,21.9173343 37.8708143,21.9173343 C38.9892985,21.9173343 39.8958229,21.0111223 39.8958229,19.8930237 C39.8958229,18.7749251 38.9892985,17.8687131 37.8708143,17.8687131 C36.7523302,17.8687131 35.8458057,18.7749251 35.8458057,19.8930237 L35.8458057,19.8930237 Z M51.4238042,22.8815218 L43.3762418,22.8815218 C40.8140846,22.8815218 38.7372943,24.9575962 38.7372943,27.5188702 C38.7372943,30.0801442 40.8140846,32.1562186 43.3762418,32.1562186 L51.4238042,32.1562186 L51.4238042,30.5694849 L62.2758621,30.5694849 L62.2758621,27.8915697 L51.4238042,27.8915697 L51.4238042,27.1468609 L62.2758621,27.1468609 L62.2758621,24.4689457 L51.4238042,24.4689457 L51.4238042,22.8815218 Z M34.9544705,30.3272302 C36.5065398,30.3272302 37.7644893,29.0697144 37.7644893,27.51818 C37.7644893,25.9666457 36.5065398,24.7091299 34.9544705,24.7091299 C33.4024011,24.7091299 32.1444517,25.9666457 32.1444517,27.51818 C32.1451421,29.0697144 33.4030916,30.3272302 34.9544705,30.3272302 L34.9544705,30.3272302 Z M59.3664225,47.5204116 C57.7598098,47.5204116 56.4576733,48.8220992 56.4576733,50.4281581 L56.4576733,55.4727153 L57.4532622,55.4727153 L57.4532622,62.2751719 L59.1330597,62.2751719 L59.1330597,55.4727153 L59.5997852,55.4727153 L59.5997852,62.2751719 L61.2795827,62.2751719 L61.2795827,55.4727153 L62.2751716,55.4727153 L62.2751716,50.4281581 C62.2751716,48.8220992 60.9730352,47.5204116 59.3664225,47.5204116 L59.3664225,47.5204116 Z M61.1283802,45.1489383 C61.1283802,44.1764686 60.3392275,43.387588 59.3664225,43.387588 C58.3936174,43.387588 57.6044647,44.1764686 57.6044647,45.1489383 C57.6044647,46.121408 58.3936174,46.9102887 59.3664225,46.9102887 C60.3392275,46.9102887 61.1283802,46.1220982 61.1283802,45.1489383 L61.1283802,45.1489383 Z M51.9540486,47.5204116 C50.3474358,47.5204116 49.0452994,48.8220992 49.0452994,50.4281581 L49.0452994,55.4727153 L50.0408883,55.4727153 L50.0408883,62.2751719 L51.7206858,62.2751719 L51.7206858,55.4727153 L52.1874113,55.4727153 L52.1874113,62.2751719 L53.8672088,62.2751719 L53.8672088,55.4727153 L54.8627977,55.4727153 L54.8627977,50.4281581 C54.8627977,48.8220992 53.5606613,47.5204116 51.9540486,47.5204116 L51.9540486,47.5204116 Z M53.7160063,45.1489383 C53.7160063,44.1764686 52.9268536,43.387588 51.9540486,43.387588 C50.9812435,43.387588 50.1920908,44.1764686 50.1920908,45.1489383 C50.1920908,46.121408 50.9812435,46.9102887 51.9540486,46.9102887 C52.9268536,46.9102887 53.7160063,46.1220982 53.7160063,45.1489383 L53.7160063,45.1489383 Z M44.5416747,47.5204116 C42.9350619,47.5204116 41.6329255,48.8220992 41.6329255,50.4281581 L41.6329255,55.4727153 L42.6285144,55.4727153 L42.6285144,62.2751719 L44.3083119,62.2751719 L44.3083119,55.4727153 L44.7750374,55.4727153 L44.7750374,62.2751719 L46.4548349,62.2751719 L46.4548349,55.4727153 L47.4504238,55.4727153 L47.4504238,50.4281581 C47.4504238,48.8220992 46.1482874,47.5204116 44.5416747,47.5204116 L44.5416747,47.5204116 Z M42.7797169,45.1489383 C42.7797169,46.121408 43.5688696,46.9102887 44.5416747,46.9102887 C45.5144797,46.9102887 46.3036324,46.121408 46.3036324,45.1489383 C46.3036324,44.1764686 45.5144797,43.387588 44.5416747,43.387588 C43.5681792,43.387588 42.7797169,44.1764686 42.7797169,45.1489383 L42.7797169,45.1489383 Z M54.4533773,34.5373545 L48.6531395,34.5373545 C46.8062598,34.5373545 45.3094243,36.0336741 45.3094243,37.8799171 C45.3094243,39.7261602 46.8062598,41.2224798 48.6531395,41.2224798 L54.4533773,41.2224798 L54.4533773,40.0781542 L62.2751716,40.0781542 L62.2751716,38.1477086 L54.4533773,38.1477086 L54.4533773,37.6114354 L62.2751716,37.6114354 L62.2751716,35.6809899 L54.4533773,35.6809899 L54.4533773,34.5373545 Z M44.6079552,37.8799171 C44.6079552,36.7618185 43.7014307,35.8556065 42.5829466,35.8556065 C41.4644624,35.8556065 40.5579379,36.7618185 40.5579379,37.8799171 C40.5579379,38.9980157 41.4644624,39.9042277 42.5829466,39.9042277 C43.7014307,39.9042277 44.6079552,38.9980157 44.6079552,37.8799171 L44.6079552,37.8799171 Z M34.9544705,38.7454083 C32.3923133,38.7454083 30.315523,40.8214827 30.315523,43.3827567 L30.315523,51.427545 L31.9028039,51.427545 L31.9028039,62.2758621 L34.5816424,62.2758621 L34.5816424,51.427545 L35.3266081,51.427545 L35.3266081,62.2758621 L38.0054467,62.2758621 L38.0054467,51.427545 L39.5927276,51.427545 L39.5927276,43.3827567 C39.593418,40.8214827 37.5166277,38.7454083 34.9544705,38.7454083 L34.9544705,38.7454083 Z M37.7644893,34.9645786 C37.7644893,36.5161129 36.5065398,37.7736287 34.9544705,37.7736287 C33.4024011,37.7736287 32.1444517,36.5161129 32.1444517,34.9645786 C32.1444517,33.4130443 33.4024011,32.1555284 34.9544705,32.1555284 C36.5065398,32.1555284 37.7644893,33.4130443 37.7644893,34.9645786 L37.7644893,34.9645786 Z" id="Page-1"></path>
                    </g>
                </g>
            </g>
        </g>
    </g>
</svg>