<?xml version="1.0" encoding="UTF-8" standalone="no"?>
<svg width="53px" height="35px" viewBox="0 0 53 35" version="1.1" xmlns="http://www.w3.org/2000/svg" xmlns:xlink="http://www.w3.org/1999/xlink">
    <!-- Generator: Sketch 42 (36781) - http://www.bohemiancoding.com/sketch -->
    <title>Binoculars</title>
    <desc>Created with Sketch.</desc>
    <defs></defs>
    <g id="Team-Page" stroke="none" stroke-width="1" fill="none" fill-rule="evenodd">
        <g id="Slack-Channel-V2" transform="translate(-959.000000, -1488.000000)" fill="#FFFFFF">
            <g id="Large-Copy-3" transform="translate(722.000000, 1266.000000)">
                <g id="Center" transform="translate(193.000000, 189.000000)">
                    <g id="Binoculars" transform="translate(48.000000, 35.000000)">
                        <path d="M9.55153385,7.42638462 C13.70538,7.42638462 17.2887646,9.9198 18.8464569,13.5002769 L19.2629215,3.73735385 C18.22446,1.45218462 15.9392908,0 13.3945062,0 C11.1093369,0 9.03241385,1.19533846 7.83984462,3.11538462 C7.83984462,3.16676769 7.78846154,3.16676769 7.78846154,3.21815077 L4.15384615,8.98105846 C5.76290769,7.99666615 7.58021538,7.42606615 9.5517,7.42606615 L9.55153385,7.42638462 Z" id="Fill-1"></path>
                        <path d="M26.0803523,13.4972585 C27.6380446,9.91401231 31.2212908,7.42336615 35.3752754,7.42336615 C37.34946,7.42336615 39.1667677,7.99398 40.72446,8.98105846 L37.0898446,3.21815077 C37.0898446,3.21815077 37.0384615,3.16676769 37.0384615,3.11538462 C35.8431231,1.1412 33.7662,0 31.4838,0 C28.9903846,0 26.7079846,1.45495385 25.6153846,3.73735385 L26.0803523,13.4972585 Z" id="Fill-2"></path>
                        <polygon id="Fill-3" points="24.5768954 4.15384615 19.80108 4.15384615 19.3846154 14.7980769 24.9934154 14.7980769"></polygon>
                        <path d="M25.6667538,17.7403846 L25.6153708,15.9230769 L19.8524631,15.9230769 L19.80108,17.7403846 C19.80108,18.7274769 19.6442308,19.6604308 19.3846154,20.5447846 L26.0832462,20.5447846 C25.8236308,19.6632 25.6667815,18.7274769 25.6667815,17.7403846 L25.6667538,17.7403846 Z" id="Fill-4"></path>
                        <path d="M18.2783084,17.4454615 C18.2783084,12.4100308 14.1758315,8.30769231 9.14053915,8.30769231 C4.10240838,8.30769231 0,12.4101692 0,17.4454615 C0,18.0674585 0.0513823846,18.6921692 0.208232308,19.2627692 C1.03844769,23.4166154 4.724433,26.5832308 9.13761762,26.5832308 C14.1757484,26.5859377 18.2781561,22.4834538 18.2781561,17.4454615 L18.2783084,17.4454615 Z M9.13776992,9.86538462 C13.3429853,9.86538462 16.7178468,13.2403846 16.7178468,17.4454615 C16.7178468,21.6506769 13.3428468,25.0255385 9.13776992,25.0255385 C4.93255454,25.0255385 1.55769231,21.6505385 1.55769231,17.4454615 C1.55769231,13.2402462 4.98406223,9.86538462 9.13776992,9.86538462 Z" id="Fill-5"></path>
                        <path d="M44.5832308,17.4454615 C44.5832308,12.4100308 40.4807538,8.30769231 35.4454615,8.30769231 C30.4100308,8.30769231 26.3076923,12.4101692 26.3076923,17.4454615 C26.3076923,22.4808923 30.4101692,26.5832308 35.4454615,26.5832308 C39.8589231,26.5832308 43.5447692,23.4678462 44.3748462,19.2627692 C44.4776123,18.6921554 44.5830785,18.0701308 44.5830785,17.4454615 L44.5832308,17.4454615 Z M35.4454615,9.86538462 C39.6506769,9.86538462 43.0255385,13.2403846 43.0255385,17.4454615 C43.0255385,21.6506769 39.6505385,25.0255385 35.4454615,25.0255385 C31.2402462,25.0255385 27.8653846,21.6505385 27.8653846,17.4454615 C27.8653846,13.2402462 31.2376846,9.86538462 35.4454615,9.86538462 Z" id="Fill-6"></path>
                    </g>
                </g>
            </g>
        </g>
    </g>
</svg>