<?xml version="1.0" encoding="UTF-8" standalone="no"?>
<svg width="27px" height="30px" viewBox="0 0 27 30" version="1.1" xmlns="http://www.w3.org/2000/svg" xmlns:xlink="http://www.w3.org/1999/xlink">
    <!-- Generator: Sketch 42 (36781) - http://www.bohemiancoding.com/sketch -->
    <title>Page 1</title>
    <desc>Created with Sketch.</desc>
    <defs></defs>
    <g id="Team-Page" stroke="none" stroke-width="1" fill="none" fill-rule="evenodd">
        <g id="Slack-Channel-V2" transform="translate(-368.000000, -3111.000000)" fill="#FFFFFF">
            <g id="Large" transform="translate(122.000000, 2888.000000)">
                <g id="Center" transform="translate(189.000000, 187.000000)">
                    <path d="M66.8638407,46.4788754 L66.3601215,42.5154472 L64.9841059,41.4981707 L59.170432,54.2732569 L62.6055331,55.8360333 L66.8638407,46.4788754 Z M62.3868677,53.4693493 C62.224696,53.8256414 61.804519,53.9829003 61.4506739,53.8207224 C61.0943818,53.6585507 60.9371228,53.2383737 61.0993008,52.8845285 C61.2614725,52.5282364 61.6816495,52.3709775 62.0354947,52.5331554 C62.3917868,52.6953271 62.5465862,53.1155041 62.3868677,53.4693493 Z M62.3106978,56.479411 L58.8755967,54.9166347 L58.5340492,55.668521 L61.9691503,57.2312974 L62.3106978,56.479411 Z M78.483835,39.218042 L72.3114221,36.4095234 C70.0213546,35.3677144 67.3110914,36.3824937 66.2692195,38.6726052 L65.283898,40.8398219 L65.4043017,40.9282769 L66.7803173,41.9431002 L67.023578,42.122476 L67.0604332,42.4222493 L67.4191786,45.2504568 L69.7018863,40.2328905 C69.8788026,39.8446559 70.3555173,39.6652864 70.7462114,39.8422027 L75.9283963,42.2010866 C80.6903853,44.3683034 80.5699879,47.5945646 76.9776278,50.6735686 L64.7284154,61.1753198 C63.5636929,62.1729076 62.9199378,62.4137653 61.9812907,61.9862098 C60.8190214,61.4579204 60.4848776,60.4922499 61.0426436,59.27104 L61.6765858,57.8753356 L58.2414846,56.3125593 L57.6075425,57.7082637 C56.1774927,60.8460825 57.3347989,64.0181209 60.4185772,65.4240157 C63.7849248,66.954837 65.9963627,65.0628108 67.1832273,64.0455469 L80.4149935,52.8386466 C85.7519841,48.2609651 84.8846067,42.1324588 78.4836651,39.2187654 L78.483835,39.218042 Z" id="Page-1"></path>
                </g>
            </g>
        </g>
    </g>
</svg>