<svg width="1440px" height="863px" viewBox="0 0 1440 863" version="1.1" xmlns="http://www.w3.org/2000/svg" xmlns:xlink="http://www.w3.org/1999/xlink">
    <g id="Tools-for-Marketers" stroke="none" stroke-width="1" fill="none" fill-rule="evenodd">
        <g id="Larger-BG-image" transform="translate(0.000000, -95.000000)">
            <g id="Group-2" transform="translate(-59.000000, 95.000000)">
                <path d="M1156.584,271.814 L1267.447,271.814 L1267.447,90.314 L1156.584,90.314 L1156.584,271.814 Z M1212.015,294.82 C1206.857,294.82 1202.676,290.639 1202.676,285.481 C1202.676,280.323 1206.857,276.142 1212.015,276.142 C1217.173,276.142 1221.354,280.323 1221.354,285.481 C1221.354,290.639 1217.173,294.82 1212.015,294.82 L1212.015,294.82 Z M1201.9,77.647 C1201.9,76.542 1202.796,75.647 1203.9,75.647 L1220.13,75.647 C1221.235,75.647 1222.13,76.542 1222.13,77.647 L1222.13,77.647 C1222.13,78.752 1221.235,79.647 1220.13,79.647 L1203.9,79.647 C1202.796,79.647 1201.9,78.752 1201.9,77.647 Z M1232.256,74.981 C1233.729,74.981 1234.922,76.174 1234.922,77.647 C1234.922,79.12 1233.729,80.314 1232.256,80.314 C1230.783,80.314 1229.589,79.12 1229.589,77.647 C1229.589,76.174 1230.783,74.981 1232.256,74.981 L1232.256,74.981 Z M1261.752,64 L1162.278,64 C1156.602,64 1152,68.601 1152,74.278 L1152,289.972 C1152,295.649 1156.602,300.25 1162.278,300.25 L1261.752,300.25 C1267.429,300.25 1272.031,295.649 1272.031,289.972 L1272.031,74.278 C1272.031,68.601 1267.429,64 1261.752,64 L1261.752,64 Z" id="Page-1-Copy-3" fill="#FFFFFF" opacity="0.138530344"></path>
                <rect id="Rectangle-2-Copy" fill="#FFFFFF" opacity="0.1" x="705" y="519" width="94" height="35" rx="8"></rect>
                <path d="M92.584,575.814 L203.447,575.814 L203.447,394.314 L92.584,394.314 L92.584,575.814 Z M148.015,598.82 C142.857,598.82 138.676,594.639 138.676,589.481 C138.676,584.323 142.857,580.142 148.015,580.142 C153.173,580.142 157.354,584.323 157.354,589.481 C157.354,594.639 153.173,598.82 148.015,598.82 L148.015,598.82 Z M137.9,381.647 C137.9,380.542 138.796,379.647 139.9,379.647 L156.13,379.647 C157.235,379.647 158.13,380.542 158.13,381.647 L158.13,381.647 C158.13,382.752 157.235,383.647 156.13,383.647 L139.9,383.647 C138.796,383.647 137.9,382.752 137.9,381.647 Z M168.256,378.981 C169.729,378.981 170.922,380.174 170.922,381.647 C170.922,383.12 169.729,384.314 168.256,384.314 C166.783,384.314 165.589,383.12 165.589,381.647 C165.589,380.174 166.783,378.981 168.256,378.981 L168.256,378.981 Z M197.752,368 L98.278,368 C92.602,368 88,372.601 88,378.278 L88,593.972 C88,599.649 92.602,604.25 98.278,604.25 L197.752,604.25 C203.429,604.25 208.031,599.649 208.031,593.972 L208.031,378.278 C208.031,372.601 203.429,368 197.752,368 L197.752,368 Z" id="Page-1-Copy-4" fill="#FFFFFF" opacity="0.138530344"></path>
                <g id="Page-1-Copy-5" opacity="0.1" transform="translate(275.000000, 170.000000)" fill="#FFFFFF">
                    <polygon id="Fill-1" points="172.4427 76.8876 263.9867 166.2516 263.9867 4.0466"></polygon>
                    <polygon id="Fill-2" points="0 166.92 92.216 76.9 0 4.015"></polygon>
                    <polygon id="Fill-3" points="9.4347 -0.0003 132.4357 97.2187 254.6197 -0.0003"></polygon>
                    <polygon id="Fill-4" points="7.1775 172.491 257.4945 172.491 165.3445 82.535 132.4545 108.705 99.3355 82.528"></polygon>
                </g>
                <g id="Page-1-Copy-6" opacity="0.101166214" transform="translate(1046.000000, 578.000000)" fill="#FFFFFF">
                    <polygon id="Fill-1" points="172.4427 76.8876 263.9867 166.2516 263.9867 4.0466"></polygon>
                    <polygon id="Fill-2" points="0 166.92 92.216 76.9 0 4.015"></polygon>
                    <polygon id="Fill-3" points="9.4347 -0.0003 132.4357 97.2187 254.6197 -0.0003"></polygon>
                    <polygon id="Fill-4" points="7.1775 172.491 257.4945 172.491 165.3445 82.535 132.4545 108.705 99.3355 82.528"></polygon>
                </g>
                <g id="Page-1-Copy-8" opacity="0.101166214" transform="translate(1424.000000, 84.000000)" fill="#FFFFFF">
                    <polygon id="Fill-2" points="0 166.92 92.216 76.9 0 4.015"></polygon>
                    <polygon id="Fill-3" points="9.4347 -0.0003 132.4357 97.2187 254.6197 -0.0003"></polygon>
                    <polygon id="Fill-4" points="7.1775 172.491 257.4945 172.491 165.3445 82.535 132.4545 108.705 99.3355 82.528"></polygon>
                </g>
                <g id="Page-1-Copy-7" opacity="0.101166214" transform="translate(402.000000, 778.000000)" fill="#FFFFFF">
                    <polygon id="Fill-1" points="172.4427 76.8876 263.9867 166.2516 263.9867 4.0466"></polygon>
                    <polygon id="Fill-2" points="0 166.92 92.216 76.9 0 4.015"></polygon>
                    <polygon id="Fill-3" points="9.4347 -0.0003 132.4357 97.2187 254.6197 -0.0003"></polygon>
                    <polygon id="Fill-4" points="7.1775 172.491 257.4945 172.491 165.3445 82.535 132.4545 108.705 99.3355 82.528"></polygon>
                </g>
                <g id="Group-Copy" opacity="0.1" transform="translate(266.000000, 490.000000)">
                    <rect id="Rectangle-5" fill="#FFFFFF" transform="translate(141.435029, 30.435029) rotate(-45.000000) translate(-141.435029, -30.435029) " x="129.106602" y="18.1066017" width="24.6568542" height="24.6568542"></rect>
                    <path d="M227.748737,46 L239.627417,34.1213203 L237.506097,32 L224,45.5060967 L224,15.8284271 L247.17767,39.0060967 L247.278175,38.9055916 L247.37868,39.0060967 L272,14.3847763 L272,46 L271.12132,46 L257.12132,32 L255,34.1213203 L266.87868,46 L227.748737,46 Z M224,10.1715729 L224,10 L270.727922,10 L247.278175,33.4497475 L224,10.1715729 Z" id="Combined-Shape" fill="#FFFFFF"></path>
                    <path d="M227.748737,128 L239.627417,116.12132 L237.506097,114 L224,127.506097 L224,97.8284271 L247.17767,121.006097 L247.278175,120.905592 L247.37868,121.006097 L272,96.3847763 L272,128 L271.12132,128 L257.12132,114 L255,116.12132 L266.87868,128 L227.748737,128 Z M224,92.1715729 L224,92 L270.727922,92 L247.278175,115.449747 L224,92.1715729 Z" id="Combined-Shape-Copy-2" fill="#FFFFFF"></path>
                    <path d="M45.5,29.5 L229.502717,29.5" id="Line" stroke="#FFFFFF" stroke-width="3" stroke-linecap="square"></path>
                    <polyline id="Path-2" stroke="#FFFFFF" stroke-width="3" points="142 48 142 108.978334 228.376568 109.508866"></polyline>
                    <path d="M30.5,61 C13.6553151,61 0,47.3446849 0,30.5 C0,13.6553151 13.6553151,0 30.5,0 C47.3446849,0 61,13.6553151 61,30.5 C61,47.3446849 47.3446849,61 30.5,61 Z M49.3988227,46.3622767 C49.3988227,40.3683071 45.5418841,40.5979963 39.8295121,38.3255633 C37.243523,37.2968734 34.4282542,36.0299728 34.4282542,33.6656252 C34.4282542,31.2565236 37.9053928,30.7153783 37.9053928,20.9754785 C37.9053928,16.163325 33.6727754,14.1157025 30.4968732,14.1157025 C27.3209709,14.1157025 23.0881572,16.163325 23.0881572,20.9754785 C23.0881572,30.7153783 26.5654922,31.2565236 26.5654922,33.6656252 C26.5654922,36.0299728 23.750027,37.2968734 21.1641688,38.3255633 C15.4518622,40.5979963 11.5950544,40.2512834 11.5950544,46.3622767 L49.3988227,46.3622767 Z" id="Combined-Shape" fill="#FFFFFF"></path>
                </g>
                <g id="Group-Copy-2" opacity="0.1" transform="translate(812.000000, 0.000000)">
                    <rect id="Rectangle-5" fill="#FFFFFF" transform="translate(141.435029, 30.435029) rotate(-45.000000) translate(-141.435029, -30.435029) " x="129.106602" y="18.1066017" width="24.6568542" height="24.6568542"></rect>
                    <path d="M227.748737,46 L239.627417,34.1213203 L237.506097,32 L224,45.5060967 L224,15.8284271 L247.17767,39.0060967 L247.278175,38.9055916 L247.37868,39.0060967 L272,14.3847763 L272,46 L271.12132,46 L257.12132,32 L255,34.1213203 L266.87868,46 L227.748737,46 Z M224,10.1715729 L224,10 L270.727922,10 L247.278175,33.4497475 L224,10.1715729 Z" id="Combined-Shape" fill="#FFFFFF"></path>
                    <path d="M227.748737,128 L239.627417,116.12132 L237.506097,114 L224,127.506097 L224,97.8284271 L247.17767,121.006097 L247.278175,120.905592 L247.37868,121.006097 L272,96.3847763 L272,128 L271.12132,128 L257.12132,114 L255,116.12132 L266.87868,128 L227.748737,128 Z M224,92.1715729 L224,92 L270.727922,92 L247.278175,115.449747 L224,92.1715729 Z" id="Combined-Shape-Copy-2" fill="#FFFFFF"></path>
                    <path d="M45.5,29.5 L229.502717,29.5" id="Line" stroke="#FFFFFF" stroke-width="3" stroke-linecap="square"></path>
                    <polyline id="Path-2" stroke="#FFFFFF" stroke-width="3" points="142 48 142 108.978334 228.376568 109.508866"></polyline>
                    <path d="M30.5,61 C13.6553151,61 0,47.3446849 0,30.5 C0,13.6553151 13.6553151,0 30.5,0 C47.3446849,0 61,13.6553151 61,30.5 C61,47.3446849 47.3446849,61 30.5,61 Z M49.3988227,46.3622767 C49.3988227,40.3683071 45.5418841,40.5979963 39.8295121,38.3255633 C37.243523,37.2968734 34.4282542,36.0299728 34.4282542,33.6656252 C34.4282542,31.2565236 37.9053928,30.7153783 37.9053928,20.9754785 C37.9053928,16.163325 33.6727754,14.1157025 30.4968732,14.1157025 C27.3209709,14.1157025 23.0881572,16.163325 23.0881572,20.9754785 C23.0881572,30.7153783 26.5654922,31.2565236 26.5654922,33.6656252 C26.5654922,36.0299728 23.750027,37.2968734 21.1641688,38.3255633 C15.4518622,40.5979963 11.5950544,40.2512834 11.5950544,46.3622767 L49.3988227,46.3622767 Z" id="Combined-Shape" fill="#FFFFFF"></path>
                </g>
                <path d="M1390.5,454 C1357.63906,454 1331,427.360943 1331,394.5 C1331,361.639057 1357.63906,335 1390.5,335 C1423.36094,335 1450,361.639057 1450,394.5 C1450,427.360943 1423.36094,454 1390.5,454 Z M1427.3682,425.444441 C1427.3682,413.751288 1419.844,414.19937 1408.7002,409.766263 C1403.6554,407.759474 1398.16332,405.28798 1398.16332,400.675564 C1398.16332,395.975841 1404.94659,394.920164 1404.94659,375.919376 C1404.94659,366.531732 1396.68951,362.53719 1390.4939,362.53719 C1384.29829,362.53719 1376.04083,366.531732 1376.04083,375.919376 C1376.04083,394.920164 1382.82448,395.975841 1382.82448,400.675564 C1382.82448,405.28798 1377.33202,407.759474 1372.28748,409.766263 C1361.1438,414.19937 1353.61986,413.522995 1353.61986,425.444441 L1427.3682,425.444441 Z" id="Combined-Shape-Copy" fill="#FFFFFF" opacity="0.1"></path>
                <path d="M59.5,128 C26.6390574,128 0,101.360943 0,68.5 C0,35.6390574 26.6390574,9 59.5,9 C92.3609426,9 119,35.6390574 119,68.5 C119,101.360943 92.3609426,128 59.5,128 Z M96.3681952,99.4444415 C96.3681952,87.7512877 88.8440034,88.1993698 77.7001957,83.7662629 C72.6553974,81.7594743 67.1633155,79.2879797 67.1633155,74.6755638 C67.1633155,69.9758411 73.946586,68.9201642 73.946586,49.9193762 C73.946586,40.5317323 65.6895126,36.5371901 59.4939001,36.5371901 C53.2982876,36.5371901 45.0408313,40.5317323 45.0408313,49.9193762 C45.0408313,68.9201642 51.8244847,69.9758411 51.8244847,74.6755638 C51.8244847,79.2879797 46.3320199,81.7594743 41.2874769,83.7662629 C30.1437968,88.1993698 22.6198602,87.5229955 22.6198602,99.4444415 L96.3681952,99.4444415 Z" id="Combined-Shape-Copy-3" fill="#FFFFFF" opacity="0.1"></path>
                <path d="M696.582816,673.594091 L807.417184,673.594091 L807.417184,492.286154 L696.582816,492.286154 L696.582816,673.594091 Z M751.9995,696.575746 C746.842832,696.575746 742.662912,692.39917 742.662912,687.246629 C742.662912,682.094087 746.842832,677.917511 751.9995,677.917511 C757.156168,677.917511 761.336088,682.094087 761.336088,687.246629 C761.336088,692.39917 757.156168,696.575746 751.9995,696.575746 L751.9995,696.575746 Z M741.887112,479.632559 C741.887112,478.528728 742.782881,477.634675 743.886596,477.634675 L760.112404,477.634675 C761.217119,477.634675 762.111888,478.528728 762.111888,479.632559 L762.111888,479.632559 C762.111888,480.736389 761.217119,481.630442 760.112404,481.630442 L743.886596,481.630442 C742.782881,481.630442 741.887112,480.736389 741.887112,479.632559 Z M772.235273,476.96938 C773.707892,476.96938 774.900584,478.161117 774.900584,479.632559 C774.900584,481.104 773.707892,482.296737 772.235273,482.296737 C770.762653,482.296737 769.568961,481.104 769.568961,479.632559 C769.568961,478.161117 770.762653,476.96938 772.235273,476.96938 L772.235273,476.96938 Z M801.723655,466 C807.399189,466 812,470.596131 812,476.267124 L812,691.732876 C812,697.403869 807.399189,702 801.723655,702 L702.275346,702 C696.600811,702 692,697.403869 692,691.732876 L692,476.267124 C692,470.596131 696.600811,466 702.275346,466 L801.723655,466 Z" id="Page-1-Copy-3" fill="#FFFFFF" opacity="0.138530344"></path>
            </g>
        </g>
    </g>
</svg>