<svg xmlns="http://www.w3.org/2000/svg" width="838" height="567" viewBox="0 0 838 567" xmlns:xlink="http://www.w3.org/1999/xlink">
  <defs>
    <polygon id="a" points="102.994 .785 .614 .785 .614 19.472 102.994 19.472 102.994 .785"/>
  </defs>
  <g fill="none" fill-rule="evenodd" transform="translate(-30 -5)">
    <g transform="translate(264.207 28.298)">
      <path fill="#FFFFFF" d="M387.711771,316.406128 C387.711771,423.318542 301.027223,509.988664 194.097015,509.988664 C87.1668077,509.988664 0.482259686,423.318542 0.482259686,316.406128 C0.482259686,209.493715 87.1668077,122.823592 194.097015,122.823592 C301.027223,122.823592 387.711771,209.493715 387.711771,316.406128"/>
      <path stroke="#DCDCDC" stroke-width="5" d="M387.711771,316.406128 C387.711771,423.318542 301.027223,509.988664 194.097015,509.988664 C87.1668077,509.988664 0.482259686,423.318542 0.482259686,316.406128 C0.482259686,209.493715 87.1668077,122.823592 194.097015,122.823592 C301.027223,122.823592 387.711771,209.493715 387.711771,316.406128 Z" stroke-dasharray="5.012 5.012"/>
      <polygon fill="#DCDCDC" points="28.873 216.093 5.85 224.475 31.619 240.437"/>
      <polygon fill="#DCDCDC" points="368.726 232.932 373.951 208.997 346.682 222.237"/>
      <polygon fill="#DCDCDC" points="184.822 509.855 203.71 525.46 204.426 495.159"/>
      <path fill="#33B1E3" d="M273.00076,124.86334 C273.00076,168.725076 237.43772,204.282198 193.568685,204.282198 C149.699649,204.282198 114.137435,168.725076 114.137435,124.86334 C114.137435,81.0016046 149.699649,45.444483 193.568685,45.444483 C237.43772,45.444483 273.00076,81.0016046 273.00076,124.86334"/>
      <path fill="#CCECF9" d="M193.568767,0.0416881723 C176.735501,0.0416881723 160.38111,3.34867467 144.960524,9.86936522 C130.088993,16.1589134 116.742429,25.1520015 105.292374,36.600977 C93.8414931,48.0499525 84.8460826,61.3942951 78.5563132,76.2633517 C72.0337117,91.6813714 68.7261748,108.032216 68.7261748,124.863506 C68.7261748,141.69397 72.0337117,158.04564 78.5563132,173.463659 C84.8460826,188.332716 93.8414931,201.677059 105.292374,213.125209 C116.742429,224.574184 130.088993,233.568098 144.960524,239.85682 C160.38111,246.378336 176.735501,249.684497 193.568767,249.684497 C210.402858,249.684497 226.756424,246.378336 242.17701,239.85682 C257.048541,233.568098 270.395105,224.574184 281.845986,213.125209 C293.296867,201.677059 302.292277,188.332716 308.582047,173.463659 C315.104648,158.04564 318.411359,141.69397 318.411359,124.863506 C318.411359,108.032216 315.104648,91.6813714 308.582047,76.2633517 C302.292277,61.3942951 293.296867,48.0499525 281.845986,36.600977 C270.395105,25.1520015 257.048541,16.1589134 242.17701,9.86936522 C226.756424,3.34867467 210.402858,0.0416881723 193.568767,0.0416881723 M193.568767,45.4446481 C237.437803,45.4446481 273.000843,81.0017697 273.000843,124.863506 C273.000843,168.725241 237.437803,204.281537 193.568767,204.281537 C149.699731,204.281537 114.136691,168.725241 114.136691,124.863506 C114.136691,81.0017697 149.699731,45.4446481 193.568767,45.4446481"/>
    </g>
    <text fill="#FFFFFF" font-family="Graphik-Bold, Graphik" font-size="18" font-weight="bold">
      <tspan x="433.423" y="159.859">P</tspan> <tspan x="445.159" y="159.859" letter-spacing=".135">L</tspan> <tspan x="455.734" y="159.859">AN</tspan>
    </text>
    <g transform="translate(506.946 321.354)">
      <path fill="#33B1E3" d="M205.022868,125.307381 C205.022868,169.169117 169.459828,204.726239 125.590792,204.726239 C81.7217565,204.726239 46.1595424,169.169117 46.1595424,125.307381 C46.1595424,81.4456456 81.7217565,45.8885239 125.590792,45.8885239 C169.459828,45.8885239 205.022868,81.4456456 205.022868,125.307381"/>
      <path fill="#CCECF9" d="M125.591288,0.485894222 C108.757196,0.485894222 92.403631,3.79288072 76.9830452,10.3135713 C62.1115138,16.602294 48.7649502,25.5962076 37.3140692,37.045183 C25.8631882,48.4941585 16.8677777,61.8376757 10.5780083,76.7075578 C4.05540683,92.1255775 0.748695572,108.476422 0.748695572,125.307712 C0.748695572,142.138176 4.05540683,158.48902 10.5780083,173.907865 C16.8677777,188.776922 25.8631882,202.121265 37.3140692,213.569415 C48.7649502,225.01839 62.1115138,234.012304 76.9830452,240.301026 C92.403631,246.822542 108.757196,250.128703 125.591288,250.128703 C142.424554,250.128703 158.778945,246.822542 174.19953,240.301026 C189.071062,234.012304 202.417625,225.01839 213.867681,213.569415 C225.318562,202.120439 234.313972,188.776922 240.603742,173.907865 C247.126343,158.48902 250.43388,142.138176 250.43388,125.307712 C250.43388,108.476422 247.126343,92.1255775 240.603742,76.7075578 C234.313972,61.8385012 225.318562,48.4941585 213.867681,37.045183 C202.417625,25.5962076 189.071062,16.602294 174.19953,10.3135713 C158.778945,3.79288072 142.424554,0.485894222 125.591288,0.485894222 M125.591288,45.8888541 C169.460324,45.8888541 205.023363,81.4459758 205.023363,125.307712 C205.023363,169.169447 169.460324,204.725744 125.591288,204.725744 C81.7222518,204.725744 46.1592122,169.169447 46.1592122,125.307712 C46.1592122,81.4459758 81.7222518,45.8888541 125.591288,45.8888541"/>
    </g>
    <text fill="#FFFFFF" font-family="Graphik-Bold, Graphik" font-size="18" font-weight="bold">
      <tspan x="593.2" y="453.359">EX</tspan> <tspan x="617.806" y="453.359" letter-spacing="-.27">E</tspan> <tspan x="628.372" y="453.359">CUTE</tspan>
    </text>
    <g transform="translate(158.524 321.354)">
      <path fill="#33B1E3" d="M204.320987,125.307381 C204.320987,169.169117 168.757947,204.726239 124.888911,204.726239 C81.019875,204.726239 45.457661,169.169117 45.457661,125.307381 C45.457661,81.4456456 81.019875,45.8885239 124.888911,45.8885239 C168.757947,45.8885239 204.320987,81.4456456 204.320987,125.307381"/>
      <path fill="#CCECF9" d="M124.889406,0.485894222 C108.055315,0.485894222 91.7017495,3.79288072 76.2811637,10.3135713 C61.4096324,16.602294 48.0630687,25.5962076 36.6121877,37.045183 C25.1613067,48.4941585 16.1658962,61.8376757 9.87612685,76.7075578 C3.35352537,92.1255775 0.0468141144,108.476422 0.0468141144,125.307712 C0.0468141144,142.138176 3.35352537,158.48902 9.87612685,173.907865 C16.1658962,188.776922 25.1613067,202.121265 36.6121877,213.569415 C48.0630687,225.01839 61.4096324,234.012304 76.2811637,240.301026 C91.7017495,246.822542 108.055315,250.128703 124.889406,250.128703 C141.722672,250.128703 158.077063,246.822542 173.497649,240.301026 C188.36918,234.012304 201.715744,225.01839 213.165799,213.569415 C224.61668,202.120439 233.612091,188.776922 239.90186,173.907865 C246.424462,158.48902 249.731999,142.138176 249.731999,125.307712 C249.731999,108.476422 246.424462,92.1255775 239.90186,76.7075578 C233.612091,61.8385012 224.61668,48.4941585 213.165799,37.045183 C201.715744,25.5962076 188.36918,16.602294 173.497649,10.3135713 C158.077063,3.79288072 141.722672,0.485894222 124.889406,0.485894222 M124.889406,45.8888541 C168.758442,45.8888541 204.321482,81.4459758 204.321482,125.307712 C204.321482,169.169447 168.758442,204.725744 124.889406,204.725744 C81.0203704,204.725744 45.4573307,169.169447 45.4573307,125.307712 C45.4573307,81.4459758 81.0203704,45.8888541 124.889406,45.8888541"/>
    </g>
    <text fill="#FFFFFF" font-family="Graphik-Bold, Graphik" font-size="18" font-weight="bold">
      <tspan x="241.909" y="453.359">ANA</tspan> <tspan x="282.787" y="453.359" letter-spacing="-2.293">L</tspan> <tspan x="289.314" y="453.359" letter-spacing="-.27">Y</tspan> <tspan x="301.05" y="453.359">ZE</tspan>
    </text>
    <g transform="translate(407.043 .231)">
      <mask id="b" fill="white">
        <use xlink:href="#a"/>
      </mask>
      <text fill="#009DDC" mask="url(#b)" font-family="Graphik-Light, Graphik" font-size="14" font-weight="300" letter-spacing="-.14">
        <tspan x="9.398" y="15.279">Vision Setting</tspan>
      </text>
    </g>
    <text fill="#009DDC" font-family="Graphik-Light, Graphik" font-size="14" font-weight="300">
      <tspan x="370.547" y="34.285">St</tspan> <tspan x="383.707" y="34.285" letter-spacing="-.2">r</tspan> <tspan x="388.239" y="34.285">a</tspan> <tspan x="395.645" y="34.285" letter-spacing="-.1">t</tspan> <tspan x="400.207" y="34.285">egy Definition &amp; </tspan> <tspan x="503.751" y="34.285" letter-spacing="-.298">R</tspan> <tspan x="511.727" y="34.285" letter-spacing="-.102">e</tspan> <tspan x="519.311" y="34.285">vi</tspan> <tspan x="529.657" y="34.285" letter-spacing="-.1">e</tspan> <tspan x="537.243" y="34.285">w</tspan>
    </text>
    <text fill="#009DDC" font-family="Graphik-Light, Graphik" font-size="14" font-weight="300" letter-spacing=".14">
      <tspan x="381.282" y="54.097">Campaign Coordination</tspan>
    </text>
    <text fill="#009DDC" font-family="Graphik-Light, Graphik" font-size="14" font-weight="300">
      <tspan x="728.471" y="431.355">Con</tspan> <tspan x="755.057" y="431.355" letter-spacing="-.1">t</tspan> <tspan x="759.619" y="431.355">ent C</tspan> <tspan x="793.877" y="431.355" letter-spacing="-.402">r</tspan> <tspan x="798.067" y="431.355" letter-spacing=".1">e</tspan> <tspan x="805.993" y="431.355">ation</tspan>
    </text>
    <text fill="#009DDC" font-family="Graphik-Light, Graphik" font-size="14" font-weight="300">
      <tspan x="728.471" y="451.167">M</tspan> <tspan x="740.385" y="451.167" letter-spacing=".1">e</tspan> <tspan x="748.311" y="451.167">ssaging</tspan>
    </text>
    <text fill="#009DDC" font-family="Graphik-Light, Graphik" font-size="14" font-weight="300">
      <tspan x="728.482" y="470.979">Mar</tspan> <tspan x="752.674" y="470.979" letter-spacing="-.4">k</tspan> <tspan x="758.812" y="470.979">eting </tspan> <tspan x="794.582" y="470.979" letter-spacing="-.3">A</tspan> <tspan x="803.228" y="470.979">u</tspan> <tspan x="811.334" y="470.979" letter-spacing="-.1">t</tspan> <tspan x="815.896" y="470.979">omation</tspan>
    </text>
    <text fill="#009DDC" font-family="Graphik-Light, Graphik" font-size="14" font-weight="300" letter-spacing="-.21">
      <tspan x="126.907" y="431.355">Reporting</tspan>
    </text>
    <text fill="#009DDC" font-family="Graphik-Light, Graphik" font-size="14" font-weight="300" letter-spacing=".07">
      <tspan x="84.708" y="451.167">Goal Monitoring</tspan>
    </text>
    <g transform="translate(0 302.367)">
      <text fill="#009DDC" font-family="Graphik-Light, Graphik" font-size="14" font-weight="300">
        <tspan x="29.078" y="168.612">P</tspan> <tspan x="37.03" y="168.612" letter-spacing="-.4">r</tspan> <tspan x="41.222" y="168.612" letter-spacing=".1">e</tspan> <tspan x="49.148" y="168.612">scripti</tspan> <tspan x="87.802" y="168.612" letter-spacing="-.298">v</tspan> <tspan x="94.546" y="168.612">e Optimization</tspan>
      </text>
      <g transform="translate(403.74)">
        <path fill="#009DDC" d="M97.5968602,48.7427191 C93.4554211,46.9026609 88.5750291,43.3455454 79.7645632,42.2434917 C82.4297477,40.2020096 83.666565,35.9836618 85.9387422,30.2034523 C85.9767219,30.1275055 86.0056195,30.030921 86.0345171,29.9549743 C86.5422892,30.030921 87.0599691,30.030921 87.4438944,29.8014297 C88.498244,29.1302914 89.1405964,25.5261219 89.1595863,23.7620105 C89.1884839,21.1261623 87.8748815,21.3845465 87.8748815,21.3845465 C87.8748815,21.3845465 87.8468095,21.3754659 87.8080042,21.3655598 C87.8080042,21.1550551 87.826994,20.943725 87.826994,20.7332204 C87.826994,18.3557563 88.3066942,14.329752 87.6742495,12.0868458 C86.7247569,8.6931809 86.9163067,7.42850209 85.181625,5.58761845 C82.7269802,2.97983753 79.1511084,1.86870328 77.7318233,1.86870328 C76.7542588,1.86870328 71.8837744,0.104591909 68.9304396,1.10180601 C66.0737053,2.07920791 67.6556425,4.99325243 65.3165881,4.99325243 C62.8041481,4.99325243 61.6639313,8.7319798 60.7144387,12.1058325 C60.1009839,14.2917786 60.5707763,18.2599973 60.5707763,20.7332204 C60.5707763,20.943725 60.5798584,21.1550551 60.5897661,21.3564792 C60.5319709,21.3655598 60.4840835,21.3845465 60.4840835,21.3845465 C60.4840835,21.3845465 59.161399,21.1261623 59.1902966,23.7620105 C59.2183685,25.5261219 59.8516388,29.1302914 60.9158962,29.8014297 C61.2989958,30.030921 61.8356656,30.030921 62.3632532,29.9450682 C62.4020586,30.030921 62.4301305,30.1275055 62.4689359,30.2232645 C64.7601029,36.0513535 65.9300429,40.249889 68.6142173,42.2723845 C59.8896185,43.3942504 55.0389497,46.9216476 50.9255826,48.7617058 C42.5750014,52.4814464 42.5370217,56.6032097 42.5370217,56.6032097 L42.5370217,63.5242718 L106.014319,63.5143657 L106.014319,56.6032097 C106.014319,56.6032097 105.976339,52.4616342 97.5968602,48.7427191"/>
        <path fill="#009DDC" d="M1.2294691,59.2473955 C1.23112039,59.050099 1.37313146,54.5411724 10.1101149,50.6497259 C13.5307652,49.123361 17.4616647,48.4274574 23.4120936,47.3732833 L24.464792,47.1867184 C24.9965078,46.1919808 25.6429885,44.3023921 26.149935,42.5085625 C25.1864064,42.856927 24.5498335,43.0633041 24.1510466,43.0633041 C23.7448289,43.0633041 23.2824673,43.0319348 22.6508482,42.9617666 C22.5311296,42.9460819 22.318113,42.8874708 22.0324396,42.7958394 C21.4800826,42.6200061 20.5553593,42.3244741 19.7875088,42.3244741 C19.7387957,42.3244741 19.6958621,42.3244741 19.6595337,42.3277761 C19.2013003,42.5556165 18.6819691,42.7066845 18.041268,42.7958394 L16.7218861,42.9799278 L17.1916785,41.572436 L18.0709912,38.4222961 C17.2734174,38.2456373 16.1645752,37.8650779 15.3793861,37.0610328 C14.9409682,36.6103052 14.6726333,36.5178483 14.577684,36.4980361 L13.5307652,37.1848591 L13.4118722,35.8062601 C12.039649,19.8103846 14.5223658,9.34293854 20.791494,4.69615197 C23.5450226,2.65384428 26.2019506,1.6186568 28.6871444,1.6186568 C30.4903547,1.6186568 32.1812772,2.15771376 33.7219322,3.22179403 C35.2634128,2.15771376 36.9576379,1.6186568 38.7666278,1.6186568 C41.2633805,1.63103942 43.9145291,2.66622691 46.6523704,4.69615197 C52.9297551,9.35036811 55.2250503,20.2305683 53.2905623,36.1620542 L53.2393722,36.5830635 L52.8661804,36.786964 C52.7538925,36.8488771 51.7325687,37.3895851 50.7211527,37.3895851 C50.3694276,37.3895851 50.049077,37.32437 49.7683575,37.1964162 C49.6230438,37.2046713 49.233339,37.4894716 48.8807883,37.8427892 L50.1068722,40.9433986 L50.1217339,41.033379 C50.1489802,41.2034338 50.1976933,41.3899986 50.2645706,41.5716105 L50.6674857,42.6794427 L49.4884636,42.6794427 C49.128482,42.6794427 48.4547551,42.6794427 48.0444091,42.3104405 C47.9965217,42.3071384 47.9321213,42.3054874 47.8487311,42.3054874 C46.7027348,42.3054874 44.2381822,42.7479599 43.4290494,42.8932494 C43.234197,42.9287462 43.1020936,42.9518605 43.0550318,42.9584645 C42.3969922,43.0319348 41.9346305,43.0633041 41.5284128,43.0633041 C41.483828,43.0633041 41.4400687,43.0600021 41.3963095,43.053398 C41.9371075,44.930604 42.5059774,46.4520159 42.8131176,47.1297583 C49.6222182,48.2714364 53.7867754,48.9888031 57.4683298,50.6307392 C66.2333851,54.5213602 66.3753962,59.0492735 66.3778732,59.239966 L66.3778732,64.3399566 L1.2294691,64.3498627 L1.2294691,59.2473955 Z"/>
        <path fill="#FFFFFF" d="M38.7706734,0.793478637 L38.7665452,0.793478637 C36.9971863,0.793478637 35.2757149,1.28960916 33.7251522,2.23811827 C32.1704613,1.27805205 30.48119,0.793478637 28.6870618,0.793478637 C26.0210517,0.793478637 23.1989945,1.88397518 20.3001522,4.03277345 C13.7858072,8.86199736 11.1916282,19.5754449 12.5894465,35.877584 L12.8264068,38.6339564 L14.6081504,37.4658621 C14.6601661,37.5104396 14.7204382,37.5665741 14.7881411,37.6367423 C15.4552629,38.3202633 16.2957703,38.7396215 17.0528875,38.9971801 L16.3956734,41.3507044 L16.3601707,41.4563695 L15.518012,43.9824251 L18.1559502,43.6134229 C18.806559,43.5226169 19.3523109,43.3740254 19.8493496,43.1511382 C20.4809686,43.1676484 21.2917528,43.4260325 21.7813607,43.5820536 C22.0942804,43.6827656 22.3006919,43.7479807 22.5227906,43.777699 C23.2179843,43.8561223 23.7084179,43.8883172 24.150964,43.8883172 C24.3697601,43.8883172 24.6116744,43.8528203 24.9064299,43.77935 C24.5745203,44.8186651 24.2236208,45.7803823 23.9123524,46.4465676 L23.2658718,46.5613132 C17.256822,47.624568 13.2862915,48.3279011 9.77316882,49.896367 C0.714183579,53.9314519 0.408694649,58.7012392 0.403740775,59.2320411 L0.403740775,63.523859 L0.403740775,65.1748758 L2.05585793,65.1748758 L65.5529705,65.1657952 L67.2034363,65.1649697 L67.2034363,63.5147785 L67.2034363,59.2477257 C67.1984825,58.6995882 66.8929935,53.9108142 57.8018081,49.8757293 C54.1111716,48.2288401 50.0060609,47.4999162 43.3926384,46.3896075 C43.1606319,45.8158792 42.8345018,44.9177261 42.4976384,43.8437397 C42.6891882,43.8272295 42.8955996,43.8074173 43.1210009,43.7826521 L43.1465959,43.77935 L43.1713653,43.776048 C43.223381,43.7686184 43.3653921,43.7438532 43.5742804,43.7058798 C44.3462592,43.5671944 46.6572417,43.1519637 47.7660839,43.1321515 C48.3787131,43.5044558 49.1325277,43.5044558 49.488381,43.5044558 L51.8439483,43.5044558 L51.040595,41.2904423 C50.9927076,41.1575355 50.9555535,41.0196756 50.9365637,40.9024534 L50.9084917,40.7241436 L50.8416144,40.5557399 L49.8731319,38.1081076 C50.1389899,38.1791013 50.423012,38.2154237 50.7210701,38.2154237 C51.9124769,38.2154237 53.0469142,37.6293128 53.2624077,37.5112651 L54.0079659,37.1042894 L54.1103459,36.2614454 C56.1108856,19.786775 53.767703,8.94372269 47.1443727,4.03277345 C44.2620434,1.8955323 41.4457657,0.805861263 38.773976,0.793478637 L38.7706734,0.793478637 Z M38.7665452,2.44449536 C40.8001107,2.45357595 43.2638376,3.21139263 46.160203,5.35936539 C54.580964,11.6018596 53.4490037,28.0071873 52.4706135,36.0624979 C52.4706135,36.0624979 51.5508441,36.564407 50.7210701,36.564407 C50.5064022,36.564407 50.2966882,36.5305611 50.1117435,36.4455338 C50.0134917,36.4009563 49.9111116,36.3819696 49.805429,36.3819696 C48.9508856,36.3819696 47.9254336,37.6730647 47.9254336,37.6730647 L49.3059133,41.1633141 C49.3447186,41.4027115 49.4115959,41.6429344 49.488381,41.853439 C48.9995987,41.853439 48.6255812,41.7956535 48.5578782,41.6429344 C48.5198985,41.5273632 48.250738,41.4803093 47.8486485,41.4803093 C46.3905581,41.4803093 43.2068681,42.1035681 42.9385332,42.140716 C42.4200277,42.199327 41.9502352,42.2373004 41.5283303,42.2373004 C41.3367804,42.2373004 40.2716974,41.3358453 40.0900554,41.3358453 C40.8182749,44.3852732 41.8833579,47.2522637 42.2664576,47.8755225 C49.2481181,49.0452679 53.4779013,49.7543796 57.1313838,51.3847586 C65.5141651,55.1053248 65.5521448,59.2477257 65.5521448,59.2477257 L65.5521448,63.5147785 L2.05503229,63.523859 L2.05503229,59.2477257 C2.05503229,59.2477257 2.09383764,55.1243115 10.4468958,51.4037453 C14.0335009,49.8030846 18.1955812,49.1410269 24.9856919,47.9333081 C25.8484917,46.590206 26.8747694,43.1379301 27.3445618,41.2210996 C26.9325646,41.2978719 24.6975415,42.2373004 24.150964,42.2373004 C23.729059,42.2373004 23.2592666,42.199327 22.7407611,42.140716 C22.4534363,42.1035681 21.0151614,41.499296 19.7874262,41.499296 C19.5859686,41.499296 19.4323985,41.5182826 19.3556135,41.556256 C18.8957288,41.7956535 18.4061208,41.9112246 17.9272463,41.9780908 L17.9751338,41.8344523 L19.1161762,37.749837 C19.1161762,37.749837 17.0925185,37.6342658 15.9704659,36.4843327 C15.3107749,35.8074158 14.8269465,35.6679049 14.5396218,35.6679049 C14.3389899,35.6679049 14.2349585,35.7364221 14.2349585,35.7364221 C13.5348109,27.5762719 12.9783256,11.5151812 21.2834963,5.35936539 C24.1798616,3.21139263 26.6444142,2.44449536 28.6870618,2.44449536 C30.8452998,2.44449536 32.523012,3.3071516 33.7218496,4.24740562 C34.9206873,3.3071516 36.6083072,2.44449536 38.7665452,2.44449536 L38.7665452,2.44449536 Z"/>
      </g>
    </g>
  </g>
</svg>
