<?xml version="1.0" encoding="UTF-8" standalone="no"?>
<svg width="47px" height="30px" viewBox="0 0 47 30" version="1.1" xmlns="http://www.w3.org/2000/svg" xmlns:xlink="http://www.w3.org/1999/xlink">
    <!-- Generator: Sketch 42 (36781) - http://www.bohemiancoding.com/sketch -->
    <title>Fill 48</title>
    <desc>Created with Sketch.</desc>
    <defs></defs>
    <g id="Team-Page" stroke="none" stroke-width="1" fill="none" fill-rule="evenodd">
        <g id="Slack-Channel-V2" transform="translate(-935.000000, -884.000000)" fill="#FFFFFF">
            <g id="Large-Copy-2" transform="translate(640.000000, 605.000000)">
                <path d="M319.846742,281.329613 C319.846742,281.329613 321.89655,279.855367 322.332892,279.647415 C322.771078,279.439464 323.899967,278.956731 324.796749,279.003122 C325.695385,279.049541 326.569923,279.255634 327.468559,279.808928 C327.468559,279.808928 328.87222,280.637027 329.58705,282.595859 C330.301881,284.552838 331.107687,286.463378 331.176418,286.624939 C331.245116,286.786471 331.982225,288.373966 332.25886,289.179772 C332.25886,289.179772 332.880861,291.090313 333.064666,291.621338 C333.064666,291.621338 333.410013,292.588705 333.870472,293.348073 C334.330937,294.109342 334.746863,294.753587 335.068036,295.167637 C335.391105,295.581682 336.471697,296.803396 336.772478,297.263884 C337.073264,297.724348 337.648869,298.806813 337.763944,299.10574 C337.879061,299.406526 338.131574,300.210474 338.246676,300.535402 C338.361794,300.856612 339.76546,304.542189 340.181363,305.461121 C340.181363,305.461121 340.433875,306.014438 340.61769,306.291073 C340.803364,306.565864 341.146862,307.212002 341.102277,307.626051 C341.055857,308.040096 341.148692,308.524687 339.743153,308.615663 C339.743153,308.615663 338.22437,308.68436 337.533685,308.73078 C336.843001,308.7772 334.51651,308.7772 334.102461,308.706643 C334.102461,308.706643 333.664275,308.649087 333.491582,308.528399 C333.318909,308.407711 333.146235,308.235038 333.198221,308.062364 C333.198221,308.062364 333.19265,307.867408 333.376465,307.809852 C333.56028,307.752295 333.848071,307.820993 334.078319,307.774573 C334.308554,307.728154 335.023394,307.464505 335.218322,307.393948 C335.413278,307.325251 336.254372,306.944626 336.462324,306.807216 C336.670275,306.669806 337.487204,306.253899 337.440813,305.678336 C337.440813,305.678336 337.256998,304.124284 336.375055,302.984234 C336.375055,302.984234 334.579637,300.860134 334.354954,300.616914 C334.130291,300.375543 332.904855,298.509545 332.784171,298.284909 C332.663483,298.060246 332.45739,297.681493 332.334849,297.542225 C332.212307,297.40483 331.090847,296.333492 330.780797,295.936174 C330.780797,295.936174 329.432843,294.053487 329.226745,293.604169 C329.226745,293.604169 328.588013,292.620118 328.328109,292.395436 C328.328109,292.395436 326.807472,290.943482 326.341423,290.063431 C326.341423,290.063431 324.648103,287.282061 324.182054,285.848693 C324.182054,285.848693 322.969613,288.449965 322.126685,289.75148 C321.365415,290.926799 319.282192,293.102851 318.29258,293.722999 C317.081993,294.484268 315.873308,294.759049 314.025842,295.397733 C314.025842,295.397733 314.215228,295.921344 314.790819,296.532175 C314.790819,296.532175 315.054473,296.819965 314.928214,297.027931 C314.801955,297.235883 314.720262,297.269302 314.571726,297.315722 C314.571726,297.315722 314.709121,297.880162 314.547589,298.500309 C314.547589,298.500309 314.777823,298.628422 314.83538,298.752822 C314.892936,298.880934 314.857658,299.062891 314.777823,299.166866 C314.697984,299.270842 313.834603,299.731306 313.834603,299.731306 C313.834603,299.731306 313.741768,299.824141 313.673071,299.996814 C313.673071,299.996814 313.316582,301.159109 312.267556,301.953793 C312.267556,301.953793 311.645555,302.553501 310.149064,302.505257 C310.149064,302.505257 309.04433,302.367861 308.491013,301.860963 C308.491013,301.860963 306.372521,304.094577 305.912033,304.406528 C305.912033,304.406528 304.059054,305.903019 303.539151,306.283653 C303.02115,306.664278 301.823539,307.631607 301.708417,307.802437 C301.5933,307.97511 301.467046,308.366877 301.327792,308.493121 C301.240528,308.57296 300.921172,308.574819 300.371595,308.597097 C299.428374,308.637946 298.967933,308.665795 298.967933,308.665795 C298.967933,308.665795 298.438761,308.964727 298.195541,308.975863 L297.701638,309 C297.701638,309 297.573526,308.873746 297.677501,308.780907 C297.781477,308.688073 298.149107,308.446701 298.149107,308.446701 L295.973054,308.836609 C295.973054,308.836609 295.627707,308.767912 295.707546,308.652795 C295.787385,308.537677 295.984195,308.444843 295.984195,308.444843 L295.156096,308.513541 C295.156096,308.513541 294.890588,308.398423 295.052121,308.283306 C295.213653,308.168189 296.181,307.902681 296.181,307.902681 L297.931881,307.718866 C297.931881,307.718866 298.830517,307.499773 299.049641,307.453358 C299.268734,307.406939 300.332619,307.139573 300.477448,307.004036 C300.622273,306.868494 302.584817,304.56247 302.584817,304.56247 C302.584817,304.56247 303.609698,303.21637 303.806527,302.904419 C304.001483,302.59435 304.911261,301.26866 305.141505,301.038416 C305.371749,300.808172 306.46536,299.876121 306.695556,299.657047 C306.925791,299.437954 307.087323,299.207725 307.087323,299.207725 C307.087323,299.207725 306.660278,297.872747 307.616494,296.870111 C308.572691,295.86933 309.274546,295.535134 309.274546,295.535134 C309.274546,295.535134 309.666312,294.513961 309.861278,294.18718 C310.06923,293.841833 310.472157,293.346105 310.472157,293.346105 C310.472157,293.346105 310.184366,291.918297 311.589914,289.881465 C311.589914,289.881465 313.765967,287.313656 314.399138,286.669362 C314.399138,286.669362 315.632017,285.436483 315.849237,285.195116 C316.070184,284.968599 317.717094,283.171308 319.846756,281.329451 L319.846742,281.329613 Z" id="Fill-48"></path>
            </g>
        </g>
    </g>
</svg>